<?xml version="1.0" encoding="utf-8" standalone="no"?>
<!DOCTYPE svg PUBLIC "-//W3C//DTD SVG 1.1//EN"
  "http://www.w3.org/Graphics/SVG/1.1/DTD/svg11.dtd">
<!-- Created with matplotlib (http://matplotlib.org/) -->
<svg height="379pt" version="1.1" viewBox="0 0 384 379" width="384pt" xmlns="http://www.w3.org/2000/svg" xmlns:xlink="http://www.w3.org/1999/xlink">
 <defs>
  <style type="text/css">
*{stroke-linecap:butt;stroke-linejoin:round;stroke-miterlimit:100000;}
  </style>
 </defs>
 <g id="figure_1">
  <g id="patch_1">
   <path d="M 0 379.516424 
L 384.314502 379.516424 
L 384.314502 0 
L 0 0 
z
" style="fill:#ffffff;"/>
  </g>
  <g id="axes_1">
   <g id="patch_2">
    <path d="M 195.083746 350.655638 
C 237.754242 350.655638 278.68281 333.702471 308.855407 303.529873 
C 339.028005 273.357276 355.981172 232.428708 355.981172 189.758212 
C 355.981172 147.087716 339.028005 106.159148 308.855407 75.986551 
C 278.68281 45.813953 237.754242 28.860785 195.083746 28.860785 
C 152.41325 28.860785 111.484682 45.813953 81.312085 75.986551 
C 51.139487 106.159148 34.186319 147.087716 34.186319 189.758212 
C 34.186319 232.428708 51.139487 273.357276 81.312085 303.529873 
C 111.484682 333.702471 152.41325 350.655638 195.083746 350.655638 
z
" style="fill:#ffffff;"/>
   </g>
   <g id="line2d_1">
    <path clip-path="url(#p7fc47532e4)" d="M 305.128149 189.758212 
L 301.512441 188.45207 
L 291.600986 187.388847 
L 273.213548 186.880521 
L 246.562519 187.229222 
L 221.049506 188.16297 
L 217.496855 188.104922 
L 217.909952 187.792537 
L 220.313985 187.27325 
L 218.602957 187.149981 
L 218.364498 186.886805 
L 219.074302 186.499904 
L 217.800326 186.388526 
L 217.591954 186.13661 
L 217.189116 185.922566 
L 219.410481 184.919323 
L 218.275971 184.84838 
L 218.18887 184.569783 
L 218.411968 184.218122 
L 216.284579 184.44768 
L 217.93244 183.73599 
L 217.89007 183.446852 
L 219.237234 182.75383 
L 218.481611 182.660547 
L 216.742835 182.896644 
L 217.1829 182.457637 
L 216.324723 182.450836 
L 217.324617 181.800301 
L 216.133385 181.933842 
L 216.563393 181.472598 
L 218.371127 180.445397 
L 218.501962 180.058069 
L 216.374038 180.631807 
L 215.487868 180.713687 
L 215.546374 180.385639 
L 217.824631 179.002574 
L 215.221355 179.929645 
L 217.20213 178.282415 
L 214.850884 179.192457 
L 214.608977 179.011641 
L 215.535745 178.172298 
L 215.408444 177.912625 
L 214.928579 177.863677 
L 214.992334 177.4909 
L 214.135691 177.693701 
L 213.872491 177.534792 
L 214.529378 176.765056 
L 214.131755 176.68981 
L 214.639765 175.985309 
L 213.911732 176.149358 
L 214.680142 174.465035 
L 213.893251 174.321651 
L 210.850435 176.491712 
L 212.059112 175.11516 
L 210.210347 176.382677 
L 211.906745 174.510735 
L 211.977214 174.064984 
L 210.536344 175.046115 
L 211.119199 174.111576 
L 210.898685 173.943272 
L 211.070267 173.374428 
L 211.69857 172.307117 
L 210.135671 173.555095 
L 211.590098 171.546259 
L 211.091264 171.655057 
L 210.952137 171.362337 
L 211.149427 170.66481 
L 211.611723 169.618813 
L 209.463271 171.791565 
L 209.438219 171.364654 
L 208.627488 171.957365 
L 209.843702 169.856714 
L 209.952082 169.187721 
L 209.271295 169.613442 
L 209.981559 167.46206 
L 209.980574 166.860141 
L 206.5016 171.228206 
L 206.724932 170.336068 
L 206.060876 170.923616 
L 205.791516 170.856354 
L 206.839474 168.399461 
L 204.360228 171.878774 
L 204.650623 170.156778 
L 204.131649 170.628029 
L 204.755366 167.939383 
L 204.312406 168.229379 
L 202.687372 171.401434 
L 202.654368 170.82731 
L 202.240195 171.205817 
L 202.587449 169.571253 
L 202.036537 170.32646 
L 202.241571 168.951944 
L 201.816406 169.37816 
L 201.743606 168.735829 
L 202.258952 166.104723 
L 201.982575 165.968708 
L 200.162336 169.483349 
L 200.562292 166.689142 
L 200.140562 167.239187 
L 200.032194 166.383571 
L 199.660676 166.748434 
L 199.453005 166.290965 
L 198.921239 167.642189 
L 198.88088 166.159075 
L 197.833651 169.510967 
L 197.519255 170.011617 
L 197.434981 165.885721 
L 197.073409 166.653442 
L 196.781339 166.744514 
L 196.550751 165.879757 
L 195.866257 168.512879 
L 195.619936 167.916287 
L 195.385002 165.210886 
L 195.083745 163.719376 
L 194.791902 165.977769 
L 194.503904 166.138058 
L 194.204225 165.87908 
L 193.492144 163.851692 
L 193.192416 164.118078 
L 192.945582 168.049058 
L 192.731702 168.549116 
L 192.422254 168.179411 
L 192.004783 167.088143 
L 191.621095 166.414912 
L 191.372234 166.691214 
L 190.945191 165.907142 
L 191.187199 168.829894 
L 190.851777 168.482668 
L 189.308025 165.437792 
L 189.184076 166.205411 
L 188.271387 165.141508 
L 187.860231 164.849078 
L 188.150641 166.902832 
L 187.836863 166.882839 
L 187.773002 167.628274 
L 187.454505 167.581645 
L 187.742178 169.239901 
L 187.198254 168.544138 
L 187.730578 170.695841 
L 186.450066 168.914663 
L 186.039196 168.658874 
L 184.684282 166.2974 
L 184.795002 167.295355 
L 184.740762 167.889808 
L 184.849579 168.789577 
L 184.174743 168.085748 
L 184.132022 168.649928 
L 183.571037 168.219442 
L 183.305047 168.357724 
L 183.094593 168.594395 
L 183.334449 169.598728 
L 184.222443 171.637224 
L 184.461331 172.519126 
L 182.198266 169.40982 
L 183.443831 172.337845 
L 181.86726 170.494359 
L 181.606356 170.621789 
L 182.516382 172.37114 
L 182.102616 172.255187 
L 182.327014 172.991752 
L 180.490069 171.058139 
L 179.014799 170.178143 
L 180.614159 172.98394 
L 180.676497 173.46483 
L 179.553595 172.623335 
L 180.68203 174.255031 
L 180.769114 174.723081 
L 180.394927 174.704376 
L 179.357606 174.032072 
L 179.601609 175.017995 
L 178.884027 174.709446 
L 177.559979 173.875593 
L 178.809812 175.720219 
L 177.097158 174.623832 
L 176.564549 174.559901 
L 178.648801 176.932258 
L 177.810498 176.615891 
L 176.402364 175.903153 
L 176.326985 176.200839 
L 177.416097 177.31525 
L 176.246908 176.834691 
L 177.595423 178.07289 
L 177.690232 178.442487 
L 176.263751 177.84058 
L 175.415609 177.63906 
L 175.265858 177.879827 
L 175.404139 178.288596 
L 176.134779 179.023756 
L 177.46414 180.060488 
L 175.285752 179.175961 
L 175.74049 179.722247 
L 175.666883 179.984584 
L 174.986771 179.949477 
L 175.212752 180.359933 
L 173.761485 179.9919 
L 173.975071 180.401383 
L 175.078629 181.182714 
L 174.297292 181.148179 
L 174.713062 181.611807 
L 171.832568 181.115508 
L 171.493647 181.317541 
L 171.663739 181.701203 
L 171.591955 181.99757 
L 173.353182 182.874 
L 173.274131 183.142337 
L 171.787556 183.002442 
L 169.374154 182.643411 
L 171.850359 183.634598 
L 170.884002 183.696494 
L 170.334157 183.880567 
L 169.97883 184.120713 
L 172.72947 185.025775 
L 172.654088 185.582138 
L 170.500295 185.49258 
L 170.856243 185.859977 
L 171.565272 186.269574 
L 173.252675 186.793196 
L 172.121969 186.926146 
L 169.218065 186.889762 
L 169.742292 187.262298 
L 169.305243 187.538302 
L 172.15836 188.067137 
L 167.878426 188.086814 
L 146.285627 187.360912 
L 117.971908 186.918013 
L 99.199429 187.404386 
L 88.598233 188.451378 
L 85.039376 189.758222 
L 88.655025 191.064342 
L 98.566437 192.127571 
L 116.953787 192.635905 
L 143.604946 192.287203 
L 169.118054 191.35345 
L 172.670536 191.411511 
L 172.257637 191.723881 
L 169.853441 192.243177 
L 171.564504 192.366445 
L 171.803006 192.629616 
L 171.093189 193.01652 
L 172.367161 193.1279 
L 172.575468 193.379826 
L 172.978647 193.593813 
L 170.757176 194.597066 
L 171.891498 194.668048 
L 171.978622 194.946641 
L 171.75551 195.298306 
L 173.882939 195.068739 
L 172.235021 195.780445 
L 172.277541 196.069536 
L 170.930168 196.762618 
L 171.685844 196.855887 
L 173.424657 196.619779 
L 172.984553 197.0588 
L 173.842757 197.065594 
L 172.842627 197.716214 
L 174.034363 197.582485 
L 173.604214 198.04378 
L 171.796365 199.071026 
L 171.665503 199.458366 
L 173.793446 198.884622 
L 174.679601 198.802749 
L 174.621021 199.130832 
L 172.34289 200.513833 
L 174.946373 199.586663 
L 172.965362 201.234009 
L 175.316507 200.324023 
L 175.558474 200.504807 
L 174.631841 201.344076 
L 174.759045 201.603798 
L 175.239042 201.652668 
L 175.175154 202.025526 
L 176.031802 201.822723 
L 176.295046 201.981603 
L 175.638033 202.751425 
L 176.035644 202.826675 
L 175.52801 203.530913 
L 176.25576 203.367065 
L 175.487258 205.051463 
L 176.274253 205.19476 
L 179.316934 203.024814 
L 178.108368 204.401273 
L 179.957144 203.133746 
L 178.260748 205.00569 
L 178.190159 205.451553 
L 179.63114 204.470319 
L 179.048296 205.404841 
L 179.268766 205.57319 
L 179.09709 206.142133 
L 178.468894 207.209337 
L 180.031821 205.961329 
L 178.577384 207.970179 
L 179.076229 207.861368 
L 179.215248 208.154208 
L 179.017994 208.851694 
L 178.555817 209.897551 
L 180.704222 207.724859 
L 180.729265 208.151781 
L 181.540012 207.559052 
L 180.323674 209.65987 
L 180.215478 210.328616 
L 180.896067 209.903176 
L 180.186016 212.054229 
L 180.186756 212.65652 
L 183.666073 208.287918 
L 183.442515 209.180429 
L 184.106615 208.592807 
L 184.375976 208.660069 
L 183.328035 211.11693 
L 185.807332 207.637521 
L 185.51685 209.359694 
L 186.035998 208.888077 
L 185.411911 211.577508 
L 185.855025 211.287178 
L 187.480354 208.114417 
L 187.513163 208.689008 
L 187.927301 208.310593 
L 187.580013 209.945247 
L 188.130954 209.189963 
L 187.925923 210.564472 
L 188.35106 210.138348 
L 188.423905 210.780543 
L 187.908528 213.411745 
L 188.184936 213.547668 
L 190.00515 210.033086 
L 189.605194 212.82729 
L 190.026881 212.277438 
L 190.135399 213.132354 
L 190.50681 212.768015 
L 190.714462 213.225592 
L 191.246245 211.874273 
L 191.286592 213.357485 
L 192.333817 210.005645 
L 192.648231 209.50487 
L 192.732542 213.630434 
L 193.094104 212.862664 
L 193.386155 212.771832 
L 193.616741 213.636596 
L 194.301247 211.003137 
L 194.547557 211.600082 
L 194.78249 214.305493 
L 195.083746 215.79711 
L 195.375589 213.538463 
L 195.663593 213.378495 
L 195.963267 213.637283 
L 196.675361 215.664868 
L 196.975097 215.398557 
L 197.221909 211.467386 
L 197.435794 210.96737 
L 197.745269 211.337293 
L 198.162713 212.428314 
L 198.546396 213.101511 
L 198.795259 212.825224 
L 199.2223 213.609282 
L 198.98033 210.68672 
L 199.315676 211.033551 
L 200.859596 214.079152 
L 200.98332 213.310608 
L 201.896197 214.375263 
L 202.307264 214.667371 
L 202.016923 212.613842 
L 202.330629 212.633587 
L 202.394506 211.888201 
L 202.712982 211.934768 
L 202.425324 210.276546 
L 202.969357 210.972601 
L 202.436974 208.820734 
L 203.71732 210.601493 
L 204.128227 210.857377 
L 205.482937 213.218426 
L 205.37253 212.221167 
L 205.426892 211.626967 
L 205.317881 210.726789 
L 205.992581 211.43035 
L 206.035475 210.866513 
L 206.596501 211.297063 
L 206.862488 211.158774 
L 207.072958 210.922129 
L 206.833049 209.917702 
L 205.944944 207.879021 
L 205.706052 206.997118 
L 207.969261 210.106656 
L 206.723607 207.178503 
L 208.300334 209.022219 
L 208.561232 208.894778 
L 207.65108 207.145248 
L 208.065048 207.261474 
L 207.840539 206.524757 
L 209.677322 208.458152 
L 211.152885 209.338512 
L 209.553355 206.532505 
L 209.491046 206.051648 
L 210.61388 206.893067 
L 209.485026 205.260915 
L 209.398469 204.793442 
L 209.772563 204.81205 
L 210.809765 205.484235 
L 210.566017 204.498562 
L 211.283435 204.806955 
L 212.607395 205.640722 
L 211.357901 203.796393 
L 213.070335 204.892591 
L 213.602875 204.956464 
L 211.518832 202.584274 
L 212.357481 202.900895 
L 213.765062 203.613226 
L 213.840579 203.315641 
L 212.751488 202.201243 
L 213.920833 202.681908 
L 212.571765 201.443335 
L 212.477302 201.073962 
L 213.903758 201.675853 
L 214.751867 201.877352 
L 214.901791 201.636689 
L 214.763376 201.227839 
L 214.032588 200.492595 
L 212.703297 199.455904 
L 214.881873 200.340526 
L 214.426697 199.794022 
L 214.500505 199.531792 
L 215.180526 199.566856 
L 214.954729 199.15649 
L 216.406195 199.524614 
L 216.192215 199.114954 
L 215.088863 198.333708 
L 215.870093 198.368199 
L 215.454489 197.904638 
L 218.33493 198.400916 
L 218.673895 198.198898 
L 218.503795 197.815233 
L 218.575719 197.518906 
L 216.814461 196.642476 
L 216.89366 196.374181 
L 218.379763 196.513935 
L 220.793448 196.873048 
L 218.317086 195.881818 
L 219.283433 195.819919 
L 219.833132 195.635807 
L 220.188519 195.395676 
L 217.43802 194.490647 
L 217.5134 193.934283 
L 219.667481 194.02389 
L 219.311339 193.65646 
L 218.602404 193.24687 
L 216.914712 192.723217 
L 218.045435 192.59027 
L 220.949565 192.626681 
L 220.42513 192.254123 
L 220.862229 191.978124 
L 218.009487 191.449317 
L 222.289283 191.429621 
L 243.882225 192.155526 
L 272.195748 192.59841 
L 290.968168 192.112032 
L 301.569296 191.065037 
L 301.569296 191.065037 
" style="fill:none;stroke:#0000ff;stroke-linecap:square;"/>
   </g>
   <g id="line2d_2">
    <path clip-path="url(#p7fc47532e4)" d="M 308.106986 189.758212 
L 305.641223 188.401399 
L 297.528083 187.243345 
L 282.778957 186.528206 
L 261.778743 186.481697 
L 243.239573 186.799694 
L 238.104022 186.584846 
L 241.164243 185.789997 
L 241.858116 185.151338 
L 239.393243 184.844381 
L 240.403761 184.168521 
L 238.719804 183.831725 
L 238.725159 182.736249 
L 237.392823 182.416891 
L 238.263461 181.718779 
L 238.560027 181.110242 
L 237.091197 180.325123 
L 237.664044 179.646053 
L 237.456601 179.144365 
L 237.067959 178.692448 
L 237.221961 177.538356 
L 236.105843 177.314295 
L 235.813385 176.855122 
L 235.012647 176.567484 
L 234.750288 176.112025 
L 234.91481 175.50643 
L 236.583551 172.568429 
L 236.097174 172.177187 
L 235.196432 171.977481 
L 235.439436 171.273947 
L 234.755061 170.995077 
L 234.945523 170.302865 
L 233.16717 169.99919 
L 232.636323 169.685942 
L 233.47459 168.62812 
L 233.849735 167.797552 
L 232.702292 167.83347 
L 231.829233 167.116306 
L 231.8491 166.476809 
L 231.551292 166.033469 
L 231.770853 165.244671 
L 231.115422 165.037707 
L 230.783998 164.615257 
L 229.675731 164.755152 
L 229.442172 164.276265 
L 229.794261 163.348781 
L 229.154942 163.168791 
L 229.620419 162.116942 
L 227.946298 162.788613 
L 227.656972 162.350255 
L 226.319253 162.814279 
L 226.688288 161.812235 
L 226.880853 160.938994 
L 225.94448 161.090058 
L 226.269195 160.067196 
L 225.300283 160.274347 
L 225.617282 158.465921 
L 225.184855 158.14203 
L 225.225575 157.311096 
L 224.333606 156.679085 
L 223.714764 155.731425 
L 223.80545 154.760714 
L 223.090503 154.764877 
L 222.638581 154.449952 
L 221.288122 154.425699 
L 220.799767 154.17984 
L 221.011616 152.943468 
L 219.901721 152.615489 
L 219.563186 152.130609 
L 218.721209 152.430579 
L 216.810186 153.509841 
L 217.059339 152.052417 
L 215.577395 151.417295 
L 213.590152 152.992294 
L 213.823891 151.361804 
L 213.153944 151.55199 
L 212.788403 151.104597 
L 212.532971 150.393385 
L 211.649674 151.11283 
L 211.679196 149.69325 
L 210.985525 149.994635 
L 209.382887 151.289716 
L 208.88137 151.196432 
L 208.505494 150.744058 
L 208.368756 149.543917 
L 208.484712 147.456986 
L 207.848214 147.679393 
L 207.496982 146.953163 
L 205.786734 149.150394 
L 205.344677 148.794287 
L 204.648518 149.482853 
L 204.676867 147.038103 
L 204.134286 147.006804 
L 203.812285 145.876892 
L 203.122834 146.580346 
L 202.67451 146.011554 
L 202.158716 145.787376 
L 201.404713 147.14572 
L 200.777992 147.832115 
L 200.372946 146.874493 
L 199.8686 146.611745 
L 199.203396 147.930705 
L 198.709022 147.660036 
L 198.239361 146.978603 
L 197.684429 147.426874 
L 197.129236 148.121277 
L 196.635792 147.619823 
L 196.11753 147.646545 
L 195.083744 145.061855 
L 194.529629 144.60684 
L 194.004532 145.795895 
L 193.483551 146.312673 
L 192.924075 145.797054 
L 192.28452 144.195167 
L 191.762172 144.728743 
L 191.358523 146.499457 
L 190.946267 147.749671 
L 190.343486 147.01385 
L 189.816256 147.050544 
L 189.331639 147.40608 
L 188.785851 147.301249 
L 188.111284 146.424452 
L 187.360601 145.248647 
L 186.885889 145.727593 
L 186.661465 147.416549 
L 185.212385 145.799038 
L 184.392624 147.076863 
L 184.156509 148.299592 
L 183.194053 146.79438 
L 182.564561 146.58781 
L 182.009999 146.659851 
L 181.936395 148.257536 
L 180.990361 148.791764 
L 180.661816 149.451612 
L 180.743222 151.178383 
L 180.431074 151.77259 
L 179.843471 151.648783 
L 177.433993 148.584455 
L 176.752051 148.402575 
L 175.543037 149.721538 
L 175.431811 150.716528 
L 175.084187 151.211188 
L 173.424197 150.405401 
L 172.741411 150.318471 
L 172.800092 151.523842 
L 172.610442 152.263772 
L 171.989865 152.279219 
L 172.371614 153.891843 
L 171.831891 154.017536 
L 171.493403 154.452762 
L 171.076133 154.765621 
L 169.776215 153.824278 
L 169.253635 154.021997 
L 168.953645 154.525854 
L 169.186649 155.721076 
L 167.494463 155.286488 
L 167.170389 155.745686 
L 167.350321 156.798179 
L 165.675711 156.500209 
L 166.045203 157.719124 
L 165.643014 158.065808 
L 165.933668 159.140924 
L 165.018163 158.945501 
L 165.438618 160.113084 
L 165.42216 160.815843 
L 164.489009 160.629605 
L 163.783422 161.389247 
L 162.019777 160.521751 
L 161.906684 161.13948 
L 162.154228 162.050464 
L 161.995015 162.602995 
L 161.621111 162.976549 
L 160.922747 163.098713 
L 160.803696 163.676294 
L 160.569189 164.160469 
L 161.054109 165.161615 
L 159.898818 164.978191 
L 160.351855 165.92946 
L 160.197732 166.448127 
L 159.058549 166.321245 
L 159.085108 166.962321 
L 157.41398 166.546781 
L 156.984703 166.922524 
L 156.790864 167.440457 
L 157.469946 168.450261 
L 158.493798 169.619327 
L 158.980429 170.460582 
L 157.653927 170.3383 
L 158.297451 171.241545 
L 157.4798 171.404846 
L 155.902142 171.226695 
L 156.108574 171.906273 
L 154.773023 171.889702 
L 155.120843 172.627505 
L 153.816175 173.25497 
L 153.67107 173.78358 
L 152.692599 174.000982 
L 153.259568 174.793285 
L 152.181899 174.999012 
L 152.903647 175.823785 
L 152.806696 176.364902 
L 152.511441 176.844043 
L 152.901604 177.525618 
L 152.27132 177.91042 
L 152.300743 178.481914 
L 151.837172 179.487819 
L 152.276956 180.145623 
L 151.956 180.627997 
L 152.548217 181.297369 
L 151.681807 181.677406 
L 152.123187 182.303851 
L 152.122332 182.845667 
L 151.453896 183.286331 
L 151.602465 183.852744 
L 152.46001 184.501075 
L 152.161349 184.998208 
L 148.866282 185.206191 
L 150.29009 185.900817 
L 152.045897 186.583555 
L 148.113169 186.872507 
L 128.705895 186.497274 
L 107.115224 186.518138 
L 92.834258 187.24813 
L 84.527707 188.401423 
L 82.060487 189.758222 
L 84.526174 191.115013 
L 92.639315 192.273073 
L 107.388459 192.988217 
L 128.388716 193.034728 
L 146.927964 192.716729 
L 152.063368 192.931588 
L 149.00316 193.726439 
L 148.309419 194.365076 
L 150.77427 194.672037 
L 149.763746 195.347899 
L 151.447688 195.684699 
L 151.442427 196.780162 
L 152.774733 197.099526 
L 151.904116 197.797624 
L 151.607574 198.406157 
L 153.076295 199.1913 
L 152.503447 199.870372 
L 152.710942 200.37205 
L 153.099672 200.823945 
L 152.945501 201.978073 
L 154.061637 202.202131 
L 154.354107 202.661302 
L 155.154856 202.948937 
L 155.417224 203.404395 
L 155.252841 204.009942 
L 153.583945 206.947993 
L 154.070285 207.339254 
L 154.971174 207.538896 
L 154.728019 208.2425 
L 155.412427 208.521344 
L 155.222091 209.213496 
L 157.000322 209.517235 
L 157.531148 209.830496 
L 156.692922 210.888297 
L 156.31793 211.718781 
L 157.465216 211.68294 
L 158.338206 212.400149 
L 158.318392 213.039616 
L 158.616245 213.482926 
L 158.396585 214.271794 
L 159.05209 214.478698 
L 159.38343 214.901207 
L 160.49176 214.761271 
L 160.725319 215.240157 
L 160.373285 216.167604 
L 161.012622 216.347581 
L 160.547115 217.399453 
L 162.221136 216.727853 
L 162.510506 217.166175 
L 163.848198 216.702178 
L 163.479203 217.704188 
L 163.28664 218.577431 
L 164.222971 218.426409 
L 163.898338 219.449195 
L 164.867203 219.242078 
L 164.5502 221.050512 
L 164.98267 221.37436 
L 164.941918 222.205329 
L 165.833889 222.837341 
L 166.452749 223.784968 
L 166.362054 224.755693 
L 167.07699 224.751547 
L 167.528921 225.06646 
L 168.879396 225.090696 
L 169.367626 225.336732 
L 169.15582 226.573053 
L 170.265717 226.900999 
L 170.604314 227.385784 
L 171.446387 227.085668 
L 173.35727 226.006639 
L 173.108152 227.464006 
L 174.590141 228.099054 
L 176.577385 226.524048 
L 176.343596 228.154648 
L 177.013524 227.964506 
L 177.379145 228.411727 
L 177.634661 229.122693 
L 178.517748 228.40374 
L 178.48832 229.823097 
L 179.18194 229.52184 
L 180.784603 228.226709 
L 181.28612 228.319992 
L 181.661998 228.77236 
L 181.798722 229.972562 
L 181.682776 232.059464 
L 182.319274 231.837057 
L 182.67058 232.563054 
L 184.380787 230.365956 
L 184.822785 230.72223 
L 185.518987 230.033486 
L 185.490662 232.478125 
L 186.033175 232.509733 
L 186.355202 233.639549 
L 187.044657 232.936073 
L 187.492979 233.504879 
L 188.008784 233.729023 
L 188.762783 232.370702 
L 189.38951 231.684267 
L 189.794536 232.642043 
L 190.298939 232.904328 
L 190.964114 231.585631 
L 191.458445 231.85654 
L 191.928115 232.537946 
L 192.48307 232.089325 
L 193.038249 231.395146 
L 193.53169 231.896677 
L 194.049959 231.869907 
L 195.083746 234.454569 
L 195.637866 234.909544 
L 196.162963 233.720506 
L 196.683945 233.203754 
L 197.243431 233.719466 
L 197.882974 235.321137 
L 198.405313 234.787461 
L 198.808938 233.016739 
L 199.221212 231.766688 
L 199.823987 232.502462 
L 200.351252 232.466067 
L 200.835853 232.110354 
L 201.381637 232.215161 
L 202.056208 233.091979 
L 202.806892 234.267792 
L 203.281593 233.788758 
L 203.506001 232.099728 
L 204.955133 233.71746 
L 205.774876 232.439555 
L 206.010971 231.216831 
L 206.973442 232.722083 
L 207.602896 232.928519 
L 208.157522 232.856693 
L 208.231092 231.258877 
L 209.17712 230.724632 
L 209.50568 230.064813 
L 209.424231 228.337927 
L 209.736509 227.744061 
L 210.324094 227.867813 
L 212.733467 230.93187 
L 213.415454 231.113909 
L 214.624464 229.794919 
L 214.735721 228.799991 
L 215.083328 228.305295 
L 216.743352 229.111119 
L 217.42607 229.197926 
L 217.367377 227.992535 
L 217.557059 227.252661 
L 218.177555 227.23708 
L 217.795876 225.62457 
L 218.335714 225.499037 
L 218.674107 225.063699 
L 219.091294 224.750721 
L 220.391286 225.692169 
L 220.914006 225.494644 
L 221.213751 224.990452 
L 220.980797 223.795297 
L 222.673018 224.229915 
L 222.9972 223.770851 
L 222.817204 222.718279 
L 224.491835 223.01627 
L 224.122254 221.797256 
L 224.524346 221.450454 
L 224.233903 220.375592 
L 225.149253 220.570855 
L 224.72874 219.403214 
L 224.745423 218.700679 
L 225.67848 218.886825 
L 226.384075 218.127177 
L 228.147656 218.994616 
L 228.260775 218.37691 
L 228.013266 217.465957 
L 228.172564 216.913496 
L 228.546424 216.539905 
L 229.244717 216.417685 
L 229.363785 215.840103 
L 229.598244 215.355919 
L 229.113389 214.354821 
L 230.268637 214.538215 
L 229.815699 213.587013 
L 229.969612 213.068205 
L 231.109047 213.195243 
L 231.082348 212.554075 
L 232.753495 212.969629 
L 233.182768 212.593883 
L 233.376702 212.076006 
L 232.697589 211.066184 
L 231.673666 209.897078 
L 231.186877 209.055728 
L 232.513648 209.178175 
L 231.869808 208.274768 
L 232.687632 208.111556 
L 234.265293 208.28971 
L 234.058836 207.61012 
L 235.394407 207.626702 
L 235.046686 206.888931 
L 236.351338 206.261458 
L 236.496394 205.732829 
L 237.474963 205.515463 
L 236.907904 204.723128 
L 237.98556 204.517396 
L 237.263989 203.692672 
L 237.360863 203.151551 
L 237.655936 202.672353 
L 237.26592 201.990822 
L 237.895989 201.60596 
L 237.86669 201.034502 
L 238.330491 200.028642 
L 237.890438 199.370775 
L 238.211561 198.888438 
L 237.61927 198.219049 
L 238.485798 197.839034 
L 238.044369 197.21258 
L 238.04535 196.670784 
L 238.713635 196.230084 
L 238.564973 195.66368 
L 237.70777 195.015391 
L 238.006115 194.518219 
L 241.301348 194.310253 
L 239.877246 193.615601 
L 238.121433 192.932864 
L 242.05457 192.643928 
L 261.46192 193.01916 
L 283.052307 192.99828 
L 297.33333 192.268288 
L 305.639794 191.114991 
L 305.639794 191.114991 
" style="fill:none;stroke:#008000;stroke-linecap:square;"/>
   </g>
   <g id="line2d_3">
    <path clip-path="url(#p7fc47532e4)" d="M 311.388524 189.758212 
L 309.296925 188.356535 
L 302.795144 187.114045 
L 291.371016 186.211742 
L 275.072217 185.82863 
L 258.820729 185.842444 
L 255.393307 185.309511 
L 257.384544 184.393188 
L 257.537336 183.60707 
L 256.959919 182.896274 
L 255.437329 182.314308 
L 255.183664 181.595665 
L 253.10827 181.151087 
L 253.690519 180.328302 
L 253.988029 179.53735 
L 253.180694 178.941408 
L 254.054861 178.028127 
L 253.291666 177.435501 
L 252.793268 176.799105 
L 251.685526 176.316169 
L 251.658925 175.586868 
L 252.18704 174.707517 
L 251.69986 174.090424 
L 251.465234 173.407884 
L 250.370413 172.243477 
L 250.329985 171.507319 
L 250.838348 170.57737 
L 251.681028 169.507381 
L 250.572252 169.132556 
L 250.489857 168.385716 
L 250.903772 167.435325 
L 251.17602 166.524031 
L 250.096028 166.176367 
L 250.981924 164.980254 
L 250.361698 164.439048 
L 249.141153 164.190963 
L 249.759415 163.072646 
L 247.984182 163.130369 
L 247.307848 162.662508 
L 247.739569 161.613089 
L 247.057932 161.151929 
L 246.567972 160.59276 
L 245.330141 160.47374 
L 244.602329 160.077917 
L 244.320852 159.419196 
L 245.493142 157.836815 
L 245.496541 156.96109 
L 244.452297 156.771201 
L 244.368176 155.945296 
L 242.830836 155.246652 
L 242.201239 154.813496 
L 242.306989 153.828495 
L 241.891836 153.228822 
L 241.347003 152.731624 
L 240.657199 152.357047 
L 239.38369 152.483091 
L 238.591263 151.287157 
L 238.076931 150.79146 
L 238.181772 149.722196 
L 237.968901 148.928149 
L 236.608602 148.233354 
L 236.600751 147.209514 
L 236.064764 146.714505 
L 235.770046 145.960168 
L 234.928769 145.796005 
L 234.368669 145.330275 
L 234.166391 144.450566 
L 234.511833 142.899552 
L 233.620904 142.800549 
L 233.27098 142.044775 
L 232.685009 141.576645 
L 232.027201 141.202592 
L 230.521905 140.729164 
L 229.320091 139.856609 
L 228.389389 139.912796 
L 227.596168 139.783028 
L 227.327553 138.839678 
L 227.235005 137.580016 
L 225.979009 138.212587 
L 225.239877 138.016223 
L 224.785892 137.32659 
L 223.445767 138.227814 
L 222.750622 137.997132 
L 221.888883 138.094147 
L 220.954918 138.361016 
L 220.62214 137.432972 
L 219.997814 137.081843 
L 219.514808 136.419203 
L 218.543952 136.832827 
L 218.310454 135.574408 
L 217.349565 136.003768 
L 216.836992 135.362608 
L 215.747719 136.188884 
L 215.221837 135.581387 
L 214.608164 135.191116 
L 213.711863 135.610255 
L 213.238108 134.80418 
L 213.056467 133.025872 
L 212.66803 131.790587 
L 211.949674 131.59877 
L 210.894883 132.624106 
L 210.053407 132.962362 
L 209.288913 133.04802 
L 208.031208 132.100539 
L 207.399463 131.583317 
L 206.533733 132.195251 
L 205.9244 131.533164 
L 204.573431 130.779954 
L 203.718952 131.544385 
L 202.195277 132.099419 
L 201.388313 132.908041 
L 200.699321 132.742321 
L 200.035389 132.257735 
L 199.307556 132.497455 
L 198.613503 132.304344 
L 197.945699 131.501788 
L 197.227059 131.566804 
L 196.526216 130.998545 
L 195.80638 130.87562 
L 195.083743 130.265297 
L 194.35268 130.188356 
L 193.590479 128.929235 
L 192.875918 129.815355 
L 192.154257 130.127024 
L 191.424136 130.190696 
L 190.658303 129.763961 
L 189.957735 130.232966 
L 189.335802 131.398336 
L 188.670837 131.931076 
L 187.964485 132.036789 
L 187.206306 131.757484 
L 185.360255 129.326844 
L 184.613551 129.417011 
L 183.891886 129.646827 
L 183.251209 130.272035 
L 182.547341 130.540894 
L 181.875025 130.937093 
L 181.254565 131.526267 
L 180.578402 131.849637 
L 179.848971 131.956523 
L 178.944249 131.437559 
L 178.306003 131.902857 
L 177.427712 131.554079 
L 176.693607 131.708253 
L 176.472214 133.420299 
L 176.124905 134.64893 
L 175.430202 134.830226 
L 174.876507 135.395357 
L 174.514676 136.434905 
L 173.549358 135.909891 
L 172.728904 135.788844 
L 171.589812 134.951012 
L 170.919832 135.245301 
L 169.9666 134.921309 
L 168.747102 134.074056 
L 167.96888 134.202959 
L 168.038477 136.028499 
L 167.501035 136.595468 
L 165.920646 136.772346 
L 165.848501 138.150782 
L 164.627884 137.50194 
L 164.096433 138.059007 
L 163.467559 138.448393 
L 163.744573 140.26826 
L 162.694856 139.972901 
L 161.807902 139.957384 
L 160.619557 140.822823 
L 159.717348 140.82845 
L 158.918259 140.994704 
L 158.60252 141.810118 
L 157.96492 142.194822 
L 157.352659 143.782747 
L 156.219954 143.570196 
L 156.364332 144.871654 
L 156.197407 145.781048 
L 154.591083 146.168607 
L 154.365265 146.990248 
L 153.759659 147.407224 
L 153.598927 148.273393 
L 153.320444 149.007563 
L 152.104187 148.838277 
L 151.538649 149.306896 
L 150.797627 150.598684 
L 150.734313 151.502126 
L 150.458738 152.209576 
L 150.276249 152.985653 
L 149.869573 153.57126 
L 148.248024 153.207264 
L 147.490708 153.54713 
L 148.216348 154.998977 
L 147.478626 155.349265 
L 146.482226 155.529161 
L 146.40551 156.361194 
L 146.993733 157.625499 
L 146.007509 157.83061 
L 144.13418 157.494749 
L 143.277075 158.706487 
L 143.275207 159.563297 
L 143.460158 160.513814 
L 144.038906 161.663442 
L 144.36221 162.646979 
L 143.873974 163.188773 
L 143.083885 163.583679 
L 142.734581 164.208143 
L 139.820235 164.445667 
L 140.636756 165.623528 
L 139.546573 165.951357 
L 140.357096 167.089687 
L 139.078344 167.36119 
L 138.329 167.865491 
L 138.879712 168.866589 
L 137.081094 169.004536 
L 137.070299 169.800281 
L 136.298888 170.338311 
L 137.142383 171.402469 
L 137.71086 172.354335 
L 138.815682 173.440776 
L 138.666708 174.145517 
L 137.541994 174.591956 
L 136.845893 175.170396 
L 137.215134 176.015311 
L 136.151215 176.524466 
L 135.552567 177.155363 
L 135.470714 177.900443 
L 136.407502 178.833554 
L 136.822187 179.648877 
L 137.492449 180.4917 
L 136.478251 181.064903 
L 135.910348 181.721498 
L 136.346662 183.244393 
L 133.568041 183.699447 
L 133.492373 184.454285 
L 135.093458 185.333069 
L 132.24195 185.897436 
L 114.756197 185.811968 
L 98.652079 186.206422 
L 87.236135 187.110704 
L 80.947207 188.357482 
L 78.778956 189.758222 
L 80.870517 191.159876 
L 87.372291 192.402371 
L 98.796424 193.30468 
L 115.095254 193.687794 
L 131.346804 193.673979 
L 134.774203 194.206915 
L 132.783036 195.123234 
L 132.630049 195.909357 
L 133.20753 196.62015 
L 134.73015 197.202116 
L 134.983828 197.920759 
L 137.059251 198.365334 
L 136.476968 199.188126 
L 136.179441 199.979084 
L 136.986876 200.574994 
L 136.112624 201.488293 
L 136.8758 202.080926 
L 137.374223 202.717318 
L 138.481958 203.200258 
L 138.508526 203.929571 
L 137.980437 204.808918 
L 138.46762 205.425998 
L 138.702273 206.108532 
L 139.797079 207.272947 
L 139.837495 208.00911 
L 139.329163 208.939053 
L 138.486434 210.009061 
L 139.595177 210.383885 
L 139.677623 211.130708 
L 139.263719 212.081097 
L 138.991474 212.992392 
L 140.071408 213.340085 
L 139.185576 214.536172 
L 139.80567 215.07744 
L 141.026346 215.325452 
L 140.408099 216.443763 
L 142.183307 216.386054 
L 142.859644 216.853917 
L 142.427962 217.903318 
L 143.109566 218.364497 
L 143.599607 218.923624 
L 144.837356 219.042675 
L 145.565195 219.438486 
L 145.846659 220.097214 
L 144.674351 221.67961 
L 144.670981 222.555317 
L 145.71519 222.745233 
L 145.799266 223.571155 
L 147.336654 224.269771 
L 147.966251 224.702927 
L 147.860464 225.68796 
L 148.275614 226.287641 
L 148.820462 226.784828 
L 149.510312 227.159354 
L 150.783823 227.033308 
L 151.576227 228.229266 
L 152.090562 228.724965 
L 151.985785 229.794174 
L 152.19856 230.588311 
L 153.558815 231.283137 
L 153.56678 232.306867 
L 154.102773 232.801874 
L 154.397447 233.556257 
L 155.238706 233.720445 
L 155.798827 234.186153 
L 156.001065 235.065891 
L 155.655638 236.616888 
L 156.546592 236.715868 
L 156.896513 237.47165 
L 157.482473 237.939794 
L 158.140276 238.31386 
L 159.645668 238.787162 
L 160.847244 239.660066 
L 161.778057 239.603673 
L 162.571342 239.733344 
L 162.839907 240.67678 
L 162.93247 241.936417 
L 164.188455 241.303881 
L 164.927613 241.5002 
L 165.381598 242.189833 
L 166.721734 241.288589 
L 167.416861 241.519318 
L 168.278598 241.422308 
L 169.212467 241.155631 
L 169.54537 242.083442 
L 170.169685 242.434594 
L 170.652618 243.097394 
L 171.623609 242.683401 
L 171.857075 243.941905 
L 172.817901 243.512695 
L 173.3305 244.153794 
L 174.419775 243.32753 
L 174.945649 243.935048 
L 175.559326 244.325308 
L 176.455611 243.906215 
L 176.929369 244.712306 
L 177.111071 246.490423 
L 177.499465 247.725845 
L 178.217778 247.917835 
L 179.272625 246.892305 
L 180.11411 246.554013 
L 180.878607 246.468257 
L 182.136254 247.415976 
L 182.768011 247.933149 
L 183.633769 247.321113 
L 184.243092 247.983248 
L 185.59408 248.736381 
L 186.448537 247.972091 
L 187.972228 247.416942 
L 188.779192 246.608374 
L 189.46819 246.774032 
L 190.132091 247.258653 
L 190.859922 247.019049 
L 191.553981 247.212079 
L 192.221783 248.01465 
L 192.940424 247.949615 
L 193.641274 248.517861 
L 194.36111 248.640841 
L 195.083747 249.251119 
L 195.814817 249.328023 
L 196.577019 250.587226 
L 197.291577 249.701014 
L 198.013239 249.389225 
L 198.743361 249.325606 
L 199.509211 249.7526 
L 200.209752 249.283596 
L 200.831683 248.118113 
L 201.496654 247.585421 
L 202.203017 247.479791 
L 202.961184 247.758942 
L 204.807235 250.189583 
L 205.553938 250.099406 
L 206.275623 249.869658 
L 206.916278 249.244337 
L 207.620152 248.975511 
L 208.292427 248.579097 
L 208.912949 247.990195 
L 209.58908 247.666695 
L 210.318495 247.559864 
L 211.223295 248.07909 
L 211.861402 247.613301 
L 212.739771 247.962349 
L 213.473884 247.808175 
L 213.695297 246.096189 
L 214.042589 244.867509 
L 214.737309 244.686234 
L 215.290991 244.121069 
L 215.652796 243.081454 
L 216.61812 243.606483 
L 217.438457 243.727232 
L 218.577708 244.565445 
L 219.247689 244.271228 
L 220.200906 244.595169 
L 221.420367 245.442343 
L 222.198615 245.313493 
L 222.128988 243.487893 
L 222.666537 242.92113 
L 224.246848 242.744071 
L 224.318985 241.365621 
L 225.539606 242.01447 
L 226.071053 241.457397 
L 226.699908 241.067981 
L 226.423008 239.248296 
L 227.472544 239.543346 
L 228.359653 239.559151 
L 229.547864 238.693516 
L 230.450077 238.687897 
L 231.249202 238.521694 
L 231.564963 237.706309 
L 232.202635 237.321674 
L 232.814855 235.733696 
L 233.947572 235.94626 
L 233.803115 234.64471 
L 233.969991 233.735263 
L 235.576593 233.347986 
L 235.802256 232.526219 
L 236.407939 232.109322 
L 236.568585 231.243063 
L 236.846979 230.508806 
L 238.063302 230.678157 
L 238.62881 230.20951 
L 239.369919 228.91778 
L 239.433122 228.014242 
L 239.708758 227.306844 
L 239.891353 226.530855 
L 240.297943 225.945177 
L 241.91952 226.309194 
L 242.676677 225.969188 
L 241.951187 224.51749 
L 242.688872 224.167173 
L 243.685143 223.987188 
L 243.762017 223.155264 
L 243.173849 221.890996 
L 244.159991 221.685814 
L 246.033292 222.021656 
L 246.890506 220.809984 
L 246.892228 219.953088 
L 246.707396 219.002639 
L 246.128574 217.85297 
L 245.805104 216.869329 
L 246.293501 216.327652 
L 247.083548 215.932725 
L 247.43298 215.308324 
L 250.347326 215.070799 
L 249.530714 213.892897 
L 250.620901 213.565054 
L 249.810361 212.426717 
L 251.089209 212.155253 
L 251.838485 211.650925 
L 251.287676 210.649791 
L 253.086404 210.511885 
L 253.097193 209.716137 
L 253.868929 209.178199 
L 253.025047 208.113945 
L 252.456495 207.162057 
L 251.351656 206.075613 
L 251.500857 205.370936 
L 252.62538 204.924446 
L 253.321598 204.346037 
L 252.952378 203.501113 
L 254.016244 202.991945 
L 254.614853 202.36104 
L 254.696713 201.615962 
L 253.75999 200.682864 
L 253.345319 199.867544 
L 252.674956 199.024704 
L 253.689291 198.451509 
L 254.257266 197.794952 
L 253.820752 196.272032 
L 256.599252 195.816967 
L 256.675248 195.062159 
L 255.074167 194.183373 
L 257.925607 193.618987 
L 275.411465 193.704457 
L 291.515523 193.309998 
L 302.931439 192.405713 
L 309.220299 191.158933 
L 309.220299 191.158933 
" style="fill:none;stroke:#ff0000;stroke-linecap:square;"/>
   </g>
   <g id="patch_3">
    <path d="M 195.083746 350.655638 
C 237.754242 350.655638 278.68281 333.702471 308.855407 303.529873 
C 339.028005 273.357276 355.981172 232.428708 355.981172 189.758212 
C 355.981172 147.087716 339.028005 106.159148 308.855407 75.986551 
C 278.68281 45.813953 237.754242 28.860785 195.083746 28.860785 
C 152.41325 28.860785 111.484682 45.813953 81.312085 75.986551 
C 51.139487 106.159148 34.186319 147.087716 34.186319 189.758212 
C 34.186319 232.428708 51.139487 273.357276 81.312085 303.529873 
C 111.484682 333.702471 152.41325 350.655638 195.083746 350.655638 
z
" style="fill:none;stroke:#000000;stroke-linecap:square;stroke-linejoin:miter;"/>
   </g>
   <g id="matplotlib.axis_1">
    <g id="xtick_1">
     <g id="line2d_4">
      <path clip-path="url(#p7fc47532e4)" d="M 195.083746 189.758212 
L 355.981172 189.758212 
" style="fill:none;stroke:#000000;stroke-dasharray:1.000000,3.000000;stroke-dashoffset:0.0;stroke-width:0.5;"/>
     </g>
     <g id="text_1">
      <!-- $0^\circ$ -->
      <defs>
       <path d="M 42 31.640625 
C 42 37.75 41.90625 48.125 37.703125 56.109375 
C 34 63.109375 28.09375 65.59375 22.90625 65.59375 
C 18.09375 65.59375 12 63.40625 8.203125 56.203125 
C 4.203125 48.71875 3.796875 39.4375 3.796875 31.640625 
C 3.796875 25.953125 3.90625 17.28125 7 9.671875 
C 11.296875 -0.609375 19 -2 22.90625 -2 
C 27.5 -2 34.5 -0.109375 38.59375 9.375 
C 41.59375 16.28125 42 24.359375 42 31.640625 
M 22.90625 -0.40625 
C 16.5 -0.40625 12.703125 5.078125 11.296875 12.6875 
C 10.203125 18.5625 10.203125 27.15625 10.203125 32.75 
C 10.203125 40.4375 10.203125 46.828125 11.5 52.921875 
C 13.40625 61.390625 19 64 22.90625 64 
C 27 64 32.296875 61.296875 34.203125 53.125 
C 35.5 47.4375 35.59375 40.734375 35.59375 32.75 
C 35.59375 26.25 35.59375 18.265625 34.40625 12.375 
C 32.296875 1.484375 26.40625 -0.40625 22.90625 -0.40625 
" id="CMR17-48"/>
       <path d="M 44.40625 25 
C 44.40625 35.578125 35.5 44.1875 25 44.1875 
C 14.203125 44.1875 5.5 35.375 5.5 25 
C 5.5 14.53125 14.203125 5.8125 25 5.8125 
C 35.5 5.8125 44.40625 14.421875 44.40625 25 
M 25 9.8125 
C 16.296875 9.8125 9.5 16.71875 9.5 25 
C 9.5 33.28125 16.40625 40.1875 25 40.1875 
C 33.296875 40.1875 40.40625 33.46875 40.40625 25 
C 40.40625 16.53125 33.296875 9.8125 25 9.8125 
" id="CMSY10-14"/>
      </defs>
      <g transform="translate(367.027328533 193.057819607)scale(0.12 -0.12)">
       <use transform="scale(0.9962640099626402)" xlink:href="#CMR17-48"/>
       <use transform="translate(45.69047711706103 36.15363894185866)scale(0.6973817666173724)" xlink:href="#CMSY10-14"/>
      </g>
     </g>
    </g>
    <g id="xtick_2">
     <g id="line2d_5">
      <path clip-path="url(#p7fc47532e4)" d="M 195.083746 189.758212 
L 195.083746 28.860785 
" style="fill:none;stroke:#000000;stroke-dasharray:1.000000,3.000000;stroke-dashoffset:0.0;stroke-width:0.5;"/>
     </g>
     <g id="text_2">
      <!-- $90^\circ$ -->
      <defs>
       <path d="M 35.203125 29.125 
C 35.203125 7.25 26.09375 0.484375 18.59375 0.484375 
C 16.296875 0.484375 10.703125 0.484375 8.40625 4.59375 
C 11 4.1875 12.90625 5.578125 12.90625 8.09375 
C 12.90625 10.8125 10.703125 11.703125 9.296875 11.703125 
C 8.40625 11.703125 5.703125 11.296875 5.703125 7.90625 
C 5.703125 1.109375 11.59375 -2 18.796875 -2 
C 30.296875 -2 42 10.53125 42 32.390625 
C 42 59.640625 30.796875 65.296875 23.203125 65.296875 
C 13.296875 65.296875 3.796875 56.6875 3.796875 43.40625 
C 3.796875 31.109375 11.90625 22 22.09375 22 
C 30.5 22 34.203125 29.734375 35.203125 33 
z
M 22.296875 23.59375 
C 19.59375 23.59375 15.796875 24.09375 12.703125 30.03125 
C 10.59375 33.890625 10.59375 38.453125 10.59375 43.296875 
C 10.59375 49.15625 10.59375 53.203125 13.40625 57.5625 
C 14.796875 59.640625 17.40625 63 23.203125 63 
C 35 63 35 45.078125 35 41.125 
C 35 34.09375 31.796875 23.59375 22.296875 23.59375 
" id="CMR17-57"/>
      </defs>
      <g transform="translate(187.113664266 16.070650466)scale(0.12 -0.12)">
       <use transform="scale(0.9962640099626402)" xlink:href="#CMR17-57"/>
       <use transform="translate(45.69047711706103 0.0)scale(0.9962640099626402)" xlink:href="#CMR17-48"/>
       <use transform="translate(91.38095423412206 36.15363894185866)scale(0.6973817666173724)" xlink:href="#CMSY10-14"/>
      </g>
     </g>
    </g>
    <g id="xtick_3">
     <g id="line2d_6">
      <path clip-path="url(#p7fc47532e4)" d="M 195.083746 189.758212 
L 34.186319 189.758212 
" style="fill:none;stroke:#000000;stroke-dasharray:1.000000,3.000000;stroke-dashoffset:0.0;stroke-width:0.5;"/>
     </g>
     <g id="text_3">
      <!-- $180^\circ$ -->
      <defs>
       <path d="M 27.203125 35.375 
C 33.5 38.546875 39.90625 43.328125 39.90625 50.984375 
C 39.90625 60.015625 31.09375 65.296875 23 65.296875 
C 13.90625 65.296875 5.90625 58.734375 5.90625 49.6875 
C 5.90625 47.203125 6.5 42.921875 10.40625 39.140625 
C 11.40625 38.15625 15.59375 35.171875 18.296875 33.28125 
C 13.796875 30.984375 3.296875 25.53125 3.296875 14.59375 
C 3.296875 4.359375 13.09375 -2 22.796875 -2 
C 33.5 -2 42.5 5.65625 42.5 15.78125 
C 42.5 24.84375 36.40625 29.015625 32.40625 31.703125 
z
M 14.09375 44.09375 
C 13.296875 44.59375 9.296875 47.671875 9.296875 52.359375 
C 9.296875 58.421875 15.59375 63 22.796875 63 
C 30.703125 63 36.5 57.4375 36.5 50.96875 
C 36.5 41.703125 26.09375 36.421875 25.59375 36.421875 
C 25.5 36.421875 25.40625 36.421875 24.59375 37.03125 
z
M 32.5 23.734375 
C 34 22.640625 38.796875 19.375 38.796875 13.296875 
C 38.796875 5.953125 31.40625 0.390625 23 0.390625 
C 13.90625 0.390625 7 6.84375 7 14.6875 
C 7 22.546875 13.09375 29.09375 20 32.1875 
z
" id="CMR17-56"/>
       <path d="M 26.59375 63.40625 
C 26.59375 65.5 26.5 65.5 25.09375 65.5 
C 21.203125 61.1875 15.296875 59.796875 9.703125 59.796875 
C 9.40625 59.796875 8.90625 59.796875 8.796875 59.5 
C 8.703125 59.296875 8.703125 59.09375 8.703125 57 
C 11.796875 57 17 57.59375 21 59.984375 
L 21 7.203125 
C 21 3.6875 20.796875 2.5 12.203125 2.5 
L 9.203125 2.5 
L 9.203125 0 
C 14 0 19 0 23.796875 0 
C 28.59375 0 33.59375 0 38.40625 0 
L 38.40625 2.5 
L 35.40625 2.5 
C 26.796875 2.5 26.59375 3.59375 26.59375 7.15625 
z
" id="CMR17-49"/>
      </defs>
      <g transform="translate(7.2 193.057819607)scale(0.12 -0.12)">
       <use transform="scale(0.9962640099626402)" xlink:href="#CMR17-49"/>
       <use transform="translate(45.69047711706103 0.0)scale(0.9962640099626402)" xlink:href="#CMR17-56"/>
       <use transform="translate(91.38095423412206 0.0)scale(0.9962640099626402)" xlink:href="#CMR17-48"/>
       <use transform="translate(137.07143135118307 36.15363894185866)scale(0.6973817666173724)" xlink:href="#CMSY10-14"/>
      </g>
     </g>
    </g>
    <g id="xtick_4">
     <g id="line2d_7">
      <path clip-path="url(#p7fc47532e4)" d="M 195.083746 189.758212 
L 195.083746 350.655638 
" style="fill:none;stroke:#000000;stroke-dasharray:1.000000,3.000000;stroke-dashoffset:0.0;stroke-width:0.5;"/>
     </g>
     <g id="text_4">
      <!-- $270^\circ$ -->
      <defs>
       <path d="M 45.09375 61.578125 
L 45.09375 63.765625 
L 21.59375 63.765625 
C 9.90625 63.765625 9.703125 65.078125 9.296875 67 
L 7.5 67 
L 4.59375 48.34375 
L 6.40625 48.34375 
C 6.703125 50.234375 7.40625 55.3125 8.59375 57.203125 
C 9.203125 58 16.59375 58 18.296875 58 
L 40.296875 58 
L 29.203125 41.578125 
C 21.796875 30.53125 16.703125 15.609375 16.703125 2.578125 
C 16.703125 1.390625 16.703125 -2 20.296875 -2 
C 23.90625 -2 23.90625 1.390625 23.90625 2.671875 
L 23.90625 7.265625 
C 23.90625 23.5625 26.703125 34.3125 31.296875 41.1875 
z
" id="CMR17-55"/>
       <path d="M 41.703125 15.453125 
L 39.90625 15.453125 
C 38.90625 8.375 38.09375 7.171875 37.703125 6.5625 
C 37.203125 5.765625 30 5.765625 28.59375 5.765625 
L 9.40625 5.765625 
C 13 9.671875 20 16.75 28.5 24.953125 
C 34.59375 30.734375 41.703125 37.53125 41.703125 47.421875 
C 41.703125 59.21875 32.296875 66 21.796875 66 
C 10.796875 66 4.09375 56.3125 4.09375 47.34375 
C 4.09375 43.4375 7 42.9375 8.203125 42.9375 
C 9.203125 42.9375 12.203125 43.546875 12.203125 47.03125 
C 12.203125 50.109375 9.59375 51 8.203125 51 
C 7.59375 51 7 50.90625 6.59375 50.703125 
C 8.5 59.21875 14.296875 63.40625 20.40625 63.40625 
C 29.09375 63.40625 34.796875 56.515625 34.796875 47.421875 
C 34.796875 38.734375 29.703125 31.25 24 24.75 
L 4.09375 2.28125 
L 4.09375 0 
L 39.296875 0 
z
" id="CMR17-50"/>
      </defs>
      <g transform="translate(184.187169141 370.044988747)scale(0.12 -0.12)">
       <use transform="scale(0.9962640099626402)" xlink:href="#CMR17-50"/>
       <use transform="translate(45.69047711706103 0.0)scale(0.9962640099626402)" xlink:href="#CMR17-55"/>
       <use transform="translate(91.38095423412206 0.0)scale(0.9962640099626402)" xlink:href="#CMR17-48"/>
       <use transform="translate(137.07143135118307 36.15363894185866)scale(0.6973817666173724)" xlink:href="#CMSY10-14"/>
      </g>
     </g>
    </g>
   </g>
   <g id="matplotlib.axis_2">
    <g id="ytick_1">
     <g id="line2d_8">
      <path clip-path="url(#p7fc47532e4)" d="M 195.083746 189.758212 
L 195.083746 189.758212 
" style="fill:none;stroke:#000000;stroke-dasharray:1.000000,3.000000;stroke-dashoffset:0.0;stroke-width:0.5;"/>
     </g>
     <g id="text_5">
      <!-- -15dB -->
      <defs>
       <path d="M 38 0 
L 55.40625 0 
L 55.40625 4.703125 
L 53.59375 4.703125 
C 48.203125 4.703125 47.40625 5.703125 47.40625 11.96875 
L 47.40625 73.78125 
L 27.796875 73.78125 
L 27.796875 69 
L 33.703125 69 
C 37.296875 69 38 68.28125 38 63.921875 
L 38 41 
C 34.296875 46.09375 30 48.390625 24.203125 48.390625 
C 12.90625 48.390625 4.296875 37.546875 4.296875 23.203125 
C 4.296875 9.0625 12.59375 -1 24.203125 -1 
C 30.5 -1 34.796875 1.671875 38 7.59375 
z
M 26.203125 43 
C 30.296875 43 34.203125 40.03125 36 35.4375 
C 37.203125 32.453125 37.90625 28.28125 37.90625 23.515625 
C 37.90625 11.96875 33.296875 4.390625 26.09375 4.390625 
C 19.09375 4.390625 14.796875 10.96875 14.796875 22.015625 
C 14.796875 27.890625 15.40625 32.359375 16.703125 35.734375 
C 18.40625 40.125 22.09375 43 26.203125 43 
" id="Century_Schoolbook_L_Roman-100"/>
       <path d="M 16.40625 59.703125 
C 21.796875 58.40625 24.59375 58 28.5 58 
C 37 58 43.203125 61 46.5 66.484375 
C 47.59375 68.390625 48 69.28125 48 70.078125 
C 48 70.6875 47.703125 70.984375 47.203125 70.984375 
C 46.90625 70.984375 46.40625 70.875 45.90625 70.578125 
C 41 68.484375 38.296875 67.984375 32.59375 67.984375 
C 26.203125 67.984375 22.5 68.484375 12 70.984375 
C 11.59375 62.625 10.703125 51.984375 9.296875 39.65625 
C 7.203125 37.46875 6.5 36.171875 6.5 34.578125 
C 6.5 32.59375 7.796875 31.203125 9.703125 31.203125 
C 12.203125 31.203125 13.796875 33.328125 14.203125 37.359375 
C 17.703125 39.890625 21 41 25 41 
C 33.90625 41 39.296875 34.03125 39.296875 22.5 
C 39.296875 15.734375 37.59375 9.953125 34.59375 6.828125 
C 32.59375 4.703125 28.5 3.296875 24.40625 3.296875 
C 18.40625 3.296875 12.203125 6.421875 12.203125 9.5625 
C 12.203125 10.28125 12.796875 11.078125 14 11.78125 
C 17.09375 13.703125 18 15.03125 18 17.75 
C 18 21.296875 15.296875 24.015625 11.703125 24.015625 
C 7.703125 24.015625 4.5 20.28125 4.5 15.546875 
C 4.5 10.5 7.40625 5.453125 11.90625 2.328125 
C 15.296875 0.109375 19.40625 -1 24.59375 -1 
C 40.296875 -1 50.203125 8.28125 50.203125 23.109375 
C 50.203125 36.828125 41.09375 46 27.59375 46 
C 23.40625 46 20.203125 45.296875 14.703125 43 
z
" id="Century_Schoolbook_L_Roman-53"/>
       <path d="M 32.203125 70.5 
C 28.796875 66.234375 19.59375 63 10.40625 63 
L 10.40625 58.59375 
L 19.203125 58.59375 
C 25 58.59375 25.40625 58.203125 25.40625 52.3125 
L 25.40625 12.28125 
L 25.40625 9.375 
C 25.40625 5.1875 24.5 4.6875 16.5 4.6875 
L 10 4.6875 
L 10 0 
L 49.59375 0 
L 49.59375 4.6875 
L 44.09375 4.6875 
C 38.796875 4.6875 36.59375 5.09375 35.796875 6.09375 
C 35.09375 6.78125 35.09375 6.78125 35.09375 12.3125 
L 35.09375 53.671875 
C 35.09375 58.578125 35.296875 63.375 35.796875 70.5 
z
" id="Century_Schoolbook_L_Roman-49"/>
       <path d="M 4.203125 27.28125 
L 4.203125 19 
L 29.09375 19 
L 29.09375 27.28125 
z
" id="Century_Schoolbook_L_Roman-45"/>
       <path d="M 3 72 
L 3 67.3125 
L 4.796875 67.3125 
C 12.90625 67.3125 13.796875 66.8125 13.796875 62.609375 
L 13.796875 59.734375 
L 13.796875 12.28125 
L 13.796875 9.375 
C 13.796875 5.1875 12.90625 4.6875 4.796875 4.6875 
L 3 4.6875 
L 3 0 
L 39.296875 0 
C 56.59375 0 67 7.40625 67 19.59375 
C 67 29.484375 60.59375 35.296875 47 37.6875 
C 51.796875 38.6875 54 39.578125 56.5 41.46875 
C 60.703125 44.546875 63.203125 49.421875 63.203125 54.5 
C 63.203125 60.859375 59.203125 67.125 53.40625 69.609375 
C 49.796875 71.203125 44.796875 72 38.90625 72 
z
M 25 39.6875 
L 25 62.328125 
C 25 66.203125 26.40625 67.3125 31.59375 67.3125 
L 35.59375 67.3125 
C 40.203125 67.3125 44 66.609375 46.09375 65.21875 
C 49.703125 63.03125 51.59375 58.75 51.59375 53.203125 
C 51.59375 43.46875 46.703125 39.6875 33.90625 39.6875 
z
M 25 35 
L 33.796875 35 
C 40.203125 35 44.5 34.390625 47.5 33.09375 
C 52.203125 30.890625 54.703125 26.5 54.703125 19.890625 
C 54.703125 13.59375 52.5 8.890625 48.59375 6.984375 
C 45.5 5.390625 41.296875 4.6875 35 4.6875 
L 30.796875 4.6875 
C 25.703125 4.6875 25 5.484375 25 11 
z
" id="Century_Schoolbook_L_Roman-66"/>
      </defs>
      <g transform="translate(195.083745942 187.486776813)scale(0.12 -0.12)">
       <use transform="scale(0.9962640099626402)" xlink:href="#Century_Schoolbook_L_Roman-45"/>
       <use transform="translate(33.17522972933531 0.0)scale(0.9962640099626402)" xlink:href="#Century_Schoolbook_L_Roman-49"/>
       <use transform="translate(88.56690669267591 0.0)scale(0.9962640099626402)" xlink:href="#Century_Schoolbook_L_Roman-53"/>
       <use transform="translate(143.95858365601651 0.0)scale(0.9962640099626402)" xlink:href="#Century_Schoolbook_L_Roman-100"/>
       <use transform="translate(201.1440709400296 0.0)scale(0.9962640099626402)" xlink:href="#Century_Schoolbook_L_Roman-66"/>
      </g>
     </g>
    </g>
    <g id="ytick_2">
     <g id="line2d_9">
      <path clip-path="url(#p7fc47532e4)" d="M 248.716221 189.758212 
L 248.68355 187.886466 
L 248.585575 186.017 
L 248.194274 182.294014 
L 247.544223 178.607393 
L 246.63859 174.975098 
L 245.481787 171.414825 
L 244.07945 167.943919 
L 242.438411 164.57929 
L 240.566665 161.33733 
L 238.47333 158.233834 
L 236.168606 155.283921 
L 233.66372 152.501964 
L 230.970877 149.901515 
L 228.103195 147.495244 
L 225.074646 145.294875 
L 221.899984 143.311126 
L 218.594676 141.553662 
L 215.174825 140.031047 
L 211.657092 138.750697 
L 208.058616 137.71885 
L 204.396928 136.940534 
L 200.689866 136.419541 
L 196.955492 136.158408 
L 193.212 136.158408 
L 189.477626 136.419541 
L 185.770564 136.940534 
L 182.108876 137.71885 
L 178.5104 138.750697 
L 174.992667 140.031047 
L 171.572816 141.553662 
L 168.267508 143.311126 
L 165.092846 145.294875 
L 162.064297 147.495244 
L 159.196615 149.901515 
L 156.503772 152.501964 
L 153.998886 155.283921 
L 151.694162 158.233834 
L 149.600827 161.33733 
L 147.729081 164.57929 
L 146.088042 167.943919 
L 144.685704 171.414825 
L 143.528902 174.975098 
L 142.623269 178.607393 
L 141.973218 182.294014 
L 141.581916 186.017 
L 141.45127 189.758212 
L 141.581916 193.499424 
L 141.973218 197.22241 
L 142.623269 200.909031 
L 143.528902 204.541326 
L 144.685704 208.101599 
L 146.088042 211.572505 
L 147.729081 214.937134 
L 149.600827 218.179094 
L 151.694162 221.28259 
L 153.998886 224.232503 
L 156.503772 227.01446 
L 159.196615 229.614909 
L 162.064297 232.021179 
L 165.092846 234.221549 
L 168.267508 236.205298 
L 171.572816 237.962762 
L 174.992667 239.485377 
L 178.5104 240.765727 
L 182.108876 241.797574 
L 185.770564 242.57589 
L 189.477626 243.096883 
L 193.212 243.358016 
L 196.955492 243.358016 
L 200.689866 243.096883 
L 204.396928 242.57589 
L 208.058616 241.797574 
L 211.657092 240.765727 
L 215.174825 239.485377 
L 218.594676 237.962762 
L 221.899984 236.205298 
L 225.074646 234.221549 
L 228.103195 232.021179 
L 230.970877 229.614909 
L 233.66372 227.01446 
L 236.168606 224.232503 
L 238.47333 221.28259 
L 240.566665 218.179094 
L 242.438411 214.937134 
L 244.07945 211.572505 
L 245.481787 208.101599 
L 246.63859 204.541326 
L 247.544223 200.909031 
L 248.194274 197.22241 
L 248.585575 193.499424 
L 248.716221 189.758212 
L 248.716221 189.758212 
" style="fill:none;stroke:#000000;stroke-dasharray:1.000000,3.000000;stroke-dashoffset:0.0;stroke-width:0.5;"/>
     </g>
     <g id="text_6">
      <!-- -10dB -->
      <defs>
       <path d="M 28.40625 71 
C 14.40625 71 4.203125 55.6875 4.203125 34.75 
C 4.203125 14.125 14.09375 -1 27.59375 -1 
C 41.59375 -1 51.40625 13.625 51.40625 34.4375 
C 51.40625 45.0625 49.203125 53.875 45 60.78125 
C 41.09375 67.09375 34.703125 71 28.40625 71 
M 27.703125 66.703125 
C 31 66.703125 34.203125 64.5 36.59375 60.5 
C 39.296875 55.875 40.203125 49.96875 40.203125 36.25 
C 40.203125 22.21875 39.5 15.625 37.5 11.203125 
C 35.203125 6.296875 31.59375 3.296875 27.796875 3.296875 
C 24.5 3.296875 21.296875 5.5 18.90625 9.5 
C 16.09375 14.21875 15.296875 20.53125 15.296875 36.859375 
C 15.296875 48.484375 16 54.375 18 58.6875 
C 20.296875 63.796875 23.90625 66.703125 27.703125 66.703125 
" id="Century_Schoolbook_L_Roman-48"/>
      </defs>
      <g transform="translate(244.633692332 166.962517004)scale(0.12 -0.12)">
       <use transform="scale(0.9962640099626402)" xlink:href="#Century_Schoolbook_L_Roman-45"/>
       <use transform="translate(33.17522972933531 0.0)scale(0.9962640099626402)" xlink:href="#Century_Schoolbook_L_Roman-49"/>
       <use transform="translate(88.56690669267591 0.0)scale(0.9962640099626402)" xlink:href="#Century_Schoolbook_L_Roman-48"/>
       <use transform="translate(143.95858365601651 0.0)scale(0.9962640099626402)" xlink:href="#Century_Schoolbook_L_Roman-100"/>
       <use transform="translate(201.1440709400296 0.0)scale(0.9962640099626402)" xlink:href="#Century_Schoolbook_L_Roman-66"/>
      </g>
     </g>
    </g>
    <g id="ytick_3">
     <g id="line2d_10">
      <path clip-path="url(#p7fc47532e4)" d="M 302.348697 189.758212 
L 302.283354 186.014719 
L 302.087405 182.275787 
L 301.761088 178.545971 
L 301.304802 174.829816 
L 300.719101 171.131849 
L 300.0047 167.456575 
L 299.162469 163.808472 
L 298.193435 160.191984 
L 297.098777 156.611519 
L 295.879829 153.071438 
L 294.538077 149.576054 
L 293.075155 146.129626 
L 291.492845 142.736352 
L 289.793076 139.400368 
L 287.977918 136.125736 
L 286.049583 132.916448 
L 284.010421 129.776413 
L 281.862914 126.709456 
L 279.609681 123.719314 
L 277.253466 120.80963 
L 274.797139 117.98395 
L 272.243694 115.245716 
L 269.596242 112.598264 
L 266.858008 110.044819 
L 264.032327 107.588492 
L 261.122644 105.232277 
L 258.132502 102.979044 
L 255.065545 100.831537 
L 251.92551 98.792374 
L 248.716221 96.864039 
L 245.44159 95.048882 
L 242.105606 93.349113 
L 238.712332 91.766803 
L 235.265904 90.303881 
L 231.77052 88.962129 
L 228.230439 87.743181 
L 224.649973 86.648523 
L 221.033486 85.679488 
L 217.385383 84.837257 
L 213.710109 84.122857 
L 210.012142 83.537156 
L 206.295986 83.08087 
L 202.566171 82.754553 
L 198.827239 82.558604 
L 195.083746 82.493261 
L 191.340253 82.558604 
L 187.601321 82.754553 
L 183.871505 83.08087 
L 180.15535 83.537156 
L 176.457383 84.122857 
L 172.782109 84.837257 
L 169.134006 85.679488 
L 165.517518 86.648523 
L 161.937053 87.743181 
L 158.396972 88.962129 
L 154.901588 90.303881 
L 151.45516 91.766803 
L 148.061886 93.349113 
L 144.725902 95.048882 
L 141.45127 96.864039 
L 138.241982 98.792374 
L 135.101947 100.831537 
L 132.03499 102.979044 
L 129.044848 105.232277 
L 126.135164 107.588492 
L 123.309484 110.044819 
L 120.57125 112.598264 
L 117.923798 115.245716 
L 115.370353 117.98395 
L 112.914026 120.80963 
L 110.557811 123.719314 
L 108.304578 126.709456 
L 106.157071 129.776413 
L 104.117908 132.916448 
L 102.189573 136.125736 
L 100.374416 139.400368 
L 98.674647 142.736352 
L 97.092337 146.129626 
L 95.629415 149.576054 
L 94.287663 153.071438 
L 93.068715 156.611519 
L 91.974057 160.191984 
L 91.005022 163.808472 
L 90.162791 167.456575 
L 89.448391 171.131849 
L 88.86269 174.829816 
L 88.406404 178.545971 
L 88.080087 182.275787 
L 87.884138 186.014719 
L 87.818795 189.758212 
L 87.884138 193.501705 
L 88.080087 197.240637 
L 88.406404 200.970452 
L 88.86269 204.686608 
L 89.448391 208.384575 
L 90.162791 212.059849 
L 91.005022 215.707952 
L 91.974057 219.324439 
L 93.068715 222.904905 
L 94.287663 226.444986 
L 95.629415 229.94037 
L 97.092337 233.386798 
L 98.674647 236.780072 
L 100.374416 240.116056 
L 102.189573 243.390687 
L 104.117908 246.599976 
L 106.157071 249.740011 
L 108.304578 252.806968 
L 110.557811 255.79711 
L 112.914026 258.706793 
L 115.370353 261.532474 
L 117.923798 264.270708 
L 120.57125 266.91816 
L 123.309484 269.471605 
L 126.135164 271.927932 
L 129.044848 274.284147 
L 132.03499 276.53738 
L 135.101947 278.684887 
L 138.241982 280.724049 
L 141.45127 282.652384 
L 144.725902 284.467542 
L 148.061886 286.167311 
L 151.45516 287.749621 
L 154.901588 289.212543 
L 158.396972 290.554295 
L 161.937053 291.773243 
L 165.517518 292.867901 
L 169.134006 293.836935 
L 172.782109 294.679166 
L 176.457383 295.393567 
L 180.15535 295.979268 
L 183.871505 296.435554 
L 187.601321 296.761871 
L 191.340253 296.95782 
L 195.083746 297.023163 
L 198.827239 296.95782 
L 202.566171 296.761871 
L 206.295986 296.435554 
L 210.012142 295.979268 
L 213.710109 295.393567 
L 217.385383 294.679166 
L 221.033486 293.836935 
L 224.649973 292.867901 
L 228.230439 291.773243 
L 231.77052 290.554295 
L 235.265904 289.212543 
L 238.712332 287.749621 
L 242.105606 286.167311 
L 245.44159 284.467542 
L 248.716221 282.652384 
L 251.92551 280.724049 
L 255.065545 278.684887 
L 258.132502 276.53738 
L 261.122644 274.284147 
L 264.032327 271.927932 
L 266.858008 269.471605 
L 269.596242 266.91816 
L 272.243694 264.270708 
L 274.797139 261.532474 
L 277.253466 258.706793 
L 279.609681 255.79711 
L 281.862914 252.806968 
L 284.010421 249.740011 
L 286.049583 246.599976 
L 287.977918 243.390687 
L 289.793076 240.116056 
L 291.492845 236.780072 
L 293.075155 233.386798 
L 294.538077 229.94037 
L 295.879829 226.444986 
L 297.098777 222.904905 
L 298.193435 219.324439 
L 299.162469 215.707952 
L 300.0047 212.059849 
L 300.719101 208.384575 
L 301.304802 204.686608 
L 301.761088 200.970452 
L 302.087405 197.240637 
L 302.283354 193.501705 
L 302.348697 189.758212 
L 302.348697 189.758212 
" style="fill:none;stroke:#000000;stroke-dasharray:1.000000,3.000000;stroke-dashoffset:0.0;stroke-width:0.5;"/>
     </g>
     <g id="text_7">
      <!-- -5dB -->
      <g transform="translate(294.183638722 146.438257194)scale(0.12 -0.12)">
       <use transform="scale(0.9962640099626402)" xlink:href="#Century_Schoolbook_L_Roman-45"/>
       <use transform="translate(33.17522972933531 0.0)scale(0.9962640099626402)" xlink:href="#Century_Schoolbook_L_Roman-53"/>
       <use transform="translate(88.56690669267591 0.0)scale(0.9962640099626402)" xlink:href="#Century_Schoolbook_L_Roman-100"/>
       <use transform="translate(145.752393976689 0.0)scale(0.9962640099626402)" xlink:href="#Century_Schoolbook_L_Roman-66"/>
      </g>
     </g>
    </g>
   </g>
   <g id="legend_1">
    <g id="patch_4">
     <path d="M 298.940325 74.715984 
L 355.981172 74.715984 
L 355.981172 28.860785 
L 298.940325 28.860785 
z
" style="fill:#ffffff;stroke:#000000;stroke-linejoin:miter;"/>
    </g>
    <g id="line2d_11">
     <path d="M 305.940325 36.752987 
L 319.940325 36.752987 
" style="fill:none;stroke:#0000ff;stroke-linecap:square;"/>
    </g>
    <g id="line2d_12"/>
    <g id="text_8">
     <!-- 25th %ile -->
     <defs>
      <path d="M 19.40625 47 
L 19.40625 67 
L 15.296875 67 
C 14.296875 53.875 9.90625 47.1875 1.796875 46.59375 
L 1.796875 42.703125 
L 10 42.703125 
L 10 17.265625 
C 10 10.28125 10.203125 7.78125 11.203125 5.484375 
C 12.796875 1.296875 16.796875 -1 22.59375 -1 
C 26.5 -1 29.90625 0.203125 32.203125 2.390625 
C 35.5 5.59375 37.40625 10.875 37.40625 16.375 
C 37.40625 16.96875 37.40625 17.671875 37.296875 18.671875 
L 33.09375 18.671875 
C 32.796875 9.6875 30.203125 5.09375 25.296875 5.09375 
C 23 5.09375 21 6.28125 20.296875 7.984375 
C 19.703125 9.375 19.40625 11.875 19.40625 15.46875 
L 19.40625 42.703125 
L 34.09375 42.703125 
L 34.09375 47 
z
" id="Century_Schoolbook_L_Roman-116"/>
      <path d="M 20 73 
L 1.5 73 
L 1.5 68.21875 
L 6.296875 68.21875 
C 10 68.21875 10.59375 67.515625 10.59375 63.21875 
L 10.59375 12.28125 
L 10.59375 8.28125 
C 10.59375 4.296875 9.5 3.59375 3.09375 3.59375 
L 2.703125 3.59375 
L 2.703125 0 
L 28 0 
L 28 3.59375 
L 27.59375 3.59375 
C 21.09375 3.59375 20 4.296875 20 8.28125 
L 20 12.28125 
L 20 22.5625 
C 20 27.546875 20.703125 32.03125 21.796875 34.328125 
C 23.90625 38.828125 28.40625 41.921875 32.703125 41.921875 
C 35.296875 41.921875 38.296875 40.421875 39.796875 38.421875 
C 41.296875 36.234375 42 33.234375 42 28.34375 
L 42 12.28125 
L 42 8.28125 
C 42 4.296875 40.90625 3.59375 34.40625 3.59375 
L 34 3.59375 
L 34 0 
L 59.296875 0 
L 59.296875 3.59375 
L 58.90625 3.59375 
C 52.5 3.59375 51.40625 4.296875 51.40625 8.28125 
L 51.40625 12.28125 
L 51.40625 27.953125 
C 51.40625 35.125 51.09375 36.921875 49.296875 40.328125 
C 46.796875 45.109375 41.796875 48 35.796875 48 
C 29.40625 48 24.5 45.015625 20 38.328125 
z
" id="Century_Schoolbook_L_Roman-104"/>
      <path d="M 50.5 21.5625 
L 46.09375 21.5625 
L 45.09375 16.46875 
C 43.796875 10.078125 43 9.375 36.796875 9.375 
L 14.40625 9.375 
C 21.296875 16.5625 23.59375 18.65625 30 23.65625 
C 39.09375 30.65625 43 34.15625 45.296875 37.140625 
C 48.5 41.53125 50.09375 46.03125 50.09375 50.8125 
C 50.09375 62.109375 40.59375 70.296875 27.59375 70.296875 
C 14.90625 70.296875 5.09375 62.109375 5.09375 51.515625 
C 5.09375 45.234375 8.296875 40.9375 13.09375 40.9375 
C 16.796875 40.9375 19.296875 43.4375 19.296875 47.03125 
C 19.296875 49.53125 17.90625 51.828125 15.703125 52.734375 
C 12 54.328125 11.796875 54.421875 11.796875 55.71875 
C 11.796875 57.21875 12.796875 59.515625 14.203125 61.21875 
C 16.703125 64.203125 20.90625 66 25.59375 66 
C 33.796875 66 38.796875 60.90625 38.796875 52.53125 
C 38.796875 45.125 35.296875 38.4375 27 29.65625 
L 21.09375 23.46875 
C 17.59375 19.78125 15 16.96875 13.296875 15.078125 
C 9.703125 10.875 7.90625 8.578125 3.5 2.796875 
L 3.5 0 
L 48.59375 0 
z
" id="Century_Schoolbook_L_Roman-50"/>
     </defs>
     <g transform="translate(330.940324637 40.2529865636)scale(0.1 -0.1)">
      <use transform="scale(0.9962640099626402)" xlink:href="#Century_Schoolbook_L_Roman-50"/>
      <use transform="translate(55.3916769633406 0.0)scale(0.9962640099626402)" xlink:href="#Century_Schoolbook_L_Roman-53"/>
      <use transform="translate(110.7833539266812 0.0)scale(0.9962640099626402)" xlink:href="#Century_Schoolbook_L_Roman-116"/>
      <use transform="translate(149.5370601212251 0.0)scale(0.9962640099626402)" xlink:href="#Century_Schoolbook_L_Roman-104"/>
     </g>
    </g>
    <g id="line2d_13">
     <path d="M 305.940325 51.038053 
L 319.940325 51.038053 
" style="fill:none;stroke:#008000;stroke-linecap:square;"/>
    </g>
    <g id="line2d_14"/>
    <g id="text_9">
     <!-- 50th %ile -->
     <g transform="translate(330.940324637 54.538052819)scale(0.1 -0.1)">
      <use transform="scale(0.9962640099626402)" xlink:href="#Century_Schoolbook_L_Roman-53"/>
      <use transform="translate(55.3916769633406 0.0)scale(0.9962640099626402)" xlink:href="#Century_Schoolbook_L_Roman-48"/>
      <use transform="translate(110.7833539266812 0.0)scale(0.9962640099626402)" xlink:href="#Century_Schoolbook_L_Roman-116"/>
      <use transform="translate(149.5370601212251 0.0)scale(0.9962640099626402)" xlink:href="#Century_Schoolbook_L_Roman-104"/>
     </g>
    </g>
    <g id="line2d_15">
     <path d="M 305.940325 65.323119 
L 319.940325 65.323119 
" style="fill:none;stroke:#ff0000;stroke-linecap:square;"/>
    </g>
    <g id="line2d_16"/>
    <g id="text_10">
     <!-- 75th %ile -->
     <defs>
      <path d="M 5.90625 46.171875 
L 10.296875 45.484375 
L 12.09375 53.40625 
C 13.59375 60.015625 14.296875 61 17.203125 61 
C 17.703125 61 18.59375 61 19.40625 60.609375 
C 25.203125 60.609375 32.40625 60.609375 36.5 60.609375 
C 37.90625 60.609375 40 60.609375 42.703125 60.609375 
L 35.90625 46.84375 
C 28.40625 31.859375 27.59375 30.15625 25.09375 24.03125 
C 22.09375 16.484375 20.40625 10.15625 20.40625 5.921875 
C 20.40625 1.40625 22.796875 -1.5 26.703125 -1.5 
C 31.5 -1.5 33.40625 1.796875 33.296875 10.421875 
C 32.796875 24.734375 34.703125 31.84375 45.296875 55.265625 
C 46.796875 58.484375 48.296875 61.59375 49.796875 64.6875 
C 49.90625 64.890625 50.203125 65.796875 50.796875 67.09375 
L 50.796875 69.984375 
C 44.59375 69.890625 41.296875 69.890625 35.203125 69.890625 
C 26.703125 69.890625 19.90625 69.890625 9 69.890625 
z
" id="Century_Schoolbook_L_Roman-55"/>
     </defs>
     <g transform="translate(330.940324637 68.8231190745)scale(0.1 -0.1)">
      <use transform="scale(0.9962640099626402)" xlink:href="#Century_Schoolbook_L_Roman-55"/>
      <use transform="translate(55.3916769633406 0.0)scale(0.9962640099626402)" xlink:href="#Century_Schoolbook_L_Roman-53"/>
      <use transform="translate(110.7833539266812 0.0)scale(0.9962640099626402)" xlink:href="#Century_Schoolbook_L_Roman-116"/>
      <use transform="translate(149.5370601212251 0.0)scale(0.9962640099626402)" xlink:href="#Century_Schoolbook_L_Roman-104"/>
     </g>
    </g>
   </g>
  </g>
 </g>
 <defs>
  <clipPath id="p7fc47532e4">
   <path d="M 195.083746 350.655638 
C 237.754242 350.655638 278.68281 333.702471 308.855407 303.529873 
C 339.028005 273.357276 355.981172 232.428708 355.981172 189.758212 
C 355.981172 147.087716 339.028005 106.159148 308.855407 75.986551 
C 278.68281 45.813953 237.754242 28.860785 195.083746 28.860785 
C 152.41325 28.860785 111.484682 45.813953 81.312085 75.986551 
C 51.139487 106.159148 34.186319 147.087716 34.186319 189.758212 
C 34.186319 232.428708 51.139487 273.357276 81.312085 303.529873 
C 111.484682 333.702471 152.41325 350.655638 195.083746 350.655638 
z
"/>
  </clipPath>
 </defs>
</svg>
