<?xml version="1.0" encoding="utf-8" standalone="no"?>
<!DOCTYPE svg PUBLIC "-//W3C//DTD SVG 1.1//EN"
  "http://www.w3.org/Graphics/SVG/1.1/DTD/svg11.dtd">
<!-- Created with matplotlib (http://matplotlib.org/) -->
<svg height="379pt" version="1.1" viewBox="0 0 384 379" width="384pt" xmlns="http://www.w3.org/2000/svg" xmlns:xlink="http://www.w3.org/1999/xlink">
 <defs>
  <style type="text/css">
*{stroke-linecap:butt;stroke-linejoin:round;stroke-miterlimit:100000;}
  </style>
 </defs>
 <g id="figure_1">
  <g id="patch_1">
   <path d="M 0 379.516424 
L 384.314502 379.516424 
L 384.314502 0 
L 0 0 
z
" style="fill:#ffffff;"/>
  </g>
  <g id="axes_1">
   <g id="patch_2">
    <path d="M 195.083746 350.655638 
C 237.754242 350.655638 278.68281 333.702471 308.855407 303.529873 
C 339.028005 273.357276 355.981172 232.428708 355.981172 189.758212 
C 355.981172 147.087716 339.028005 106.159148 308.855407 75.986551 
C 278.68281 45.813953 237.754242 28.860785 195.083746 28.860785 
C 152.41325 28.860785 111.484682 45.813953 81.312085 75.986551 
C 51.139487 106.159148 34.186319 147.087716 34.186319 189.758212 
C 34.186319 232.428708 51.139487 273.357276 81.312085 303.529873 
C 111.484682 333.702471 152.41325 350.655638 195.083746 350.655638 
z
" style="fill:#ffffff;"/>
   </g>
   <g id="line2d_1">
    <path clip-path="url(#peb910f3dbb)" d="M 230.382542 189.758212 
L 230.134313 189.328055 
L 230.020953 188.900552 
L 230.377404 188.45827 
L 229.505954 188.067157 
L 231.174074 187.096029 
L 231.334623 186.636473 
L 229.800142 186.338945 
L 232.407614 185.619073 
L 229.631344 185.497172 
L 225.931534 185.56858 
L 225.31054 185.274491 
L 230.301678 183.647321 
L 227.451563 183.731797 
L 228.270469 183.156962 
L 231.03022 181.686161 
L 229.296674 181.633173 
L 229.349093 181.175189 
L 230.317866 180.471567 
L 228.666113 180.019506 
L 228.951464 179.484552 
L 227.948447 179.346723 
L 228.800314 178.619762 
L 228.115752 178.394456 
L 228.956405 177.638381 
L 227.083866 177.414404 
L 227.064463 176.968861 
L 228.350919 175.978497 
L 227.497551 175.863545 
L 227.917803 175.203876 
L 226.687955 175.28242 
L 227.466138 174.442481 
L 228.911984 173.247656 
L 228.445562 172.965285 
L 228.513234 172.413816 
L 228.90481 171.680477 
L 228.498218 171.367086 
L 228.280042 170.952744 
L 226.034252 171.719719 
L 225.002444 171.825635 
L 224.396225 171.696392 
L 225.186326 170.695964 
L 224.614246 170.546513 
L 223.926138 170.486342 
L 223.93122 169.966623 
L 224.581199 168.983761 
L 223.717974 169.061414 
L 221.560392 170.121792 
L 221.737185 169.478992 
L 222.089339 168.682842 
L 220.996077 169.019395 
L 221.928016 167.72769 
L 219.686738 168.535525 
L 219.119996 168.504416 
L 220.861127 166.394955 
L 221.55832 165.164592 
L 221.316912 164.782161 
L 220.119419 165.329588 
L 220.786533 164.055424 
L 218.858978 164.786306 
L 218.899206 164.121313 
L 218.589186 163.823956 
L 218.353421 163.442171 
L 218.241596 162.911828 
L 216.849804 163.890147 
L 216.413966 163.767263 
L 215.761701 163.921926 
L 215.998732 162.958133 
L 215.848745 162.466303 
L 216.472069 160.919395 
L 216.550524 160.05871 
L 213.354275 163.127779 
L 213.784404 161.770701 
L 214.523164 159.877679 
L 213.948704 159.967188 
L 213.68405 159.571826 
L 213.82532 158.489788 
L 212.683561 159.560391 
L 212.675953 158.703623 
L 211.655728 159.648904 
L 210.081639 161.69913 
L 209.996945 161.014599 
L 211.310883 157.520426 
L 210.361824 158.455182 
L 209.964954 158.294543 
L 209.273282 158.778968 
L 209.634617 156.931969 
L 209.260504 156.686341 
L 209.087982 155.948994 
L 208.026726 156.204802 
L 207.771808 155.623949 
L 207.299387 155.617781 
L 206.760154 155.81739 
L 205.902953 157.008008 
L 205.593932 156.581964 
L 205.457826 155.559447 
L 204.848541 156.085887 
L 204.403172 156.082136 
L 204.053024 155.728199 
L 203.381061 156.633482 
L 202.939138 156.680716 
L 202.297532 157.633763 
L 202.477951 154.830721 
L 202.054206 154.715347 
L 201.995495 152.635274 
L 201.384426 153.446489 
L 201.203689 151.722854 
L 200.385593 154.016063 
L 199.223674 156.192545 
L 198.796066 156.283108 
L 198.452895 155.550671 
L 198.127474 154.413212 
L 197.725725 153.941796 
L 197.250096 154.496514 
L 196.807327 154.673896 
L 196.341031 155.622651 
L 195.86776 157.821073 
L 195.506024 155.349629 
L 195.083744 153.881903 
L 194.650436 154.450578 
L 194.196013 153.595983 
L 193.747974 153.491792 
L 193.290768 153.261269 
L 192.809027 152.732573 
L 192.467766 154.294243 
L 192.020373 154.185125 
L 191.686241 155.262752 
L 191.414065 156.66759 
L 191.085061 157.33774 
L 190.350833 154.910294 
L 189.761483 153.878423 
L 187.566818 151.968065 
L 187.118809 152.134809 
L 186.983516 153.686244 
L 186.448508 153.396933 
L 186.33215 154.819888 
L 186.134646 155.804769 
L 185.689839 155.81299 
L 184.886824 154.595761 
L 184.168539 155.303481 
L 184.212942 156.851819 
L 183.930638 157.338519 
L 183.003891 155.997275 
L 182.346662 155.492063 
L 182.122064 156.156316 
L 181.695669 156.280341 
L 182.233136 158.734092 
L 181.797974 158.764851 
L 181.13776 158.296574 
L 180.01188 156.852623 
L 179.650938 157.12828 
L 179.041334 156.889148 
L 178.229176 157.272819 
L 178.408584 158.56117 
L 178.205112 159.091751 
L 177.665919 159.011444 
L 177.820145 160.137266 
L 177.586733 160.566211 
L 175.82273 158.499564 
L 175.672692 159.921273 
L 174.653819 159.18266 
L 175.073777 160.592436 
L 175.083925 161.360647 
L 174.800463 161.696089 
L 173.010393 159.995745 
L 173.19808 160.99339 
L 172.025483 160.211772 
L 171.90567 160.798118 
L 172.097797 161.74975 
L 172.050626 162.384298 
L 172.822256 163.950961 
L 170.922546 163.100441 
L 169.598886 162.324231 
L 170.177002 163.597837 
L 170.127676 164.181985 
L 171.046785 165.721251 
L 169.897655 165.779064 
L 169.491652 165.984379 
L 169.561168 166.625891 
L 169.247392 166.912692 
L 168.780043 167.068481 
L 168.5126 167.400563 
L 167.869942 167.424422 
L 168.025787 168.102502 
L 167.200092 167.9976 
L 165.497492 167.247561 
L 165.943709 168.146485 
L 165.805452 168.595882 
L 165.101031 168.642002 
L 166.998431 170.489524 
L 168.56489 172.505799 
L 166.667554 171.763853 
L 163.676098 170.933192 
L 163.40353 171.294433 
L 163.105263 172.157449 
L 161.539042 171.82819 
L 162.525076 173.369553 
L 164.659884 174.909231 
L 164.727307 175.400686 
L 162.897146 175.015668 
L 161.526342 174.883242 
L 162.577874 175.824075 
L 164.045778 176.901862 
L 162.091627 176.564392 
L 161.99394 176.994065 
L 162.287499 177.567506 
L 162.15021 177.974407 
L 160.003186 177.689711 
L 159.626602 178.04475 
L 159.619008 178.523033 
L 161.463303 180.008464 
L 161.019802 180.331451 
L 160.282443 180.585647 
L 161.174922 181.264498 
L 159.953591 181.415343 
L 163.412008 183.053253 
L 163.471147 183.470075 
L 163.168121 183.81599 
L 164.930906 184.5262 
L 163.451148 184.668487 
L 160.08487 184.566616 
L 159.090891 184.869794 
L 159.87639 185.415798 
L 158.665675 185.719524 
L 159.244898 186.671958 
L 160.593864 187.214089 
L 161.091939 187.669876 
L 159.109216 188.433191 
L 160.033133 190.188365 
L 160.146759 190.615864 
L 159.790107 191.058152 
L 160.661542 191.449266 
L 158.993471 192.420393 
L 158.832902 192.879951 
L 160.367479 193.177462 
L 157.75987 193.897349 
L 160.536134 194.019252 
L 164.235958 193.947843 
L 164.856992 194.241928 
L 159.86581 195.869107 
L 162.715998 195.78461 
L 161.896927 196.359478 
L 159.137272 197.830263 
L 160.870818 197.883251 
L 160.818363 198.341246 
L 159.850062 199.044746 
L 161.501445 199.496896 
L 161.21602 200.031873 
L 162.219045 200.169701 
L 161.367209 200.896653 
L 162.051646 201.122004 
L 161.211166 201.878019 
L 163.083546 202.102049 
L 163.103029 202.547562 
L 161.816578 203.537925 
L 162.669882 203.652906 
L 162.249769 204.312516 
L 163.479663 204.233951 
L 162.701436 205.0739 
L 161.255559 206.26874 
L 161.721951 206.551127 
L 161.654258 207.102609 
L 161.262538 207.836027 
L 161.669203 208.149382 
L 161.887212 208.563821 
L 164.133361 207.79663 
L 165.164978 207.690829 
L 165.771232 207.820053 
L 164.981167 208.820461 
L 165.553349 208.969845 
L 166.241369 209.030076 
L 166.236427 209.549691 
L 165.586343 210.532624 
L 166.449517 210.455009 
L 168.607099 209.394631 
L 168.430321 210.037422 
L 168.078193 210.833554 
L 169.171463 210.496994 
L 168.239607 211.788623 
L 170.480651 210.980986 
L 171.047495 211.012007 
L 169.306365 213.121469 
L 168.609034 214.351965 
L 168.850579 214.734268 
L 170.047978 214.186924 
L 169.38095 215.461004 
L 171.308625 214.730002 
L 171.268286 215.395112 
L 171.578345 215.69243 
L 171.814074 216.074255 
L 171.925908 216.604577 
L 173.317728 215.626225 
L 173.753392 215.749322 
L 174.405792 215.594499 
L 174.168728 216.558333 
L 174.318701 217.050186 
L 173.695526 218.596895 
L 173.6172 219.457402 
L 176.813557 216.38816 
L 176.383042 217.745779 
L 175.644396 219.638626 
L 176.2186 219.549522 
L 176.483452 219.944571 
L 176.342228 221.026539 
L 177.48393 219.956032 
L 177.491538 220.812801 
L 178.511767 219.867511 
L 180.085836 217.817332 
L 180.170573 218.501781 
L 178.856526 221.99617 
L 179.805641 221.061313 
L 180.202837 221.221267 
L 180.89445 220.736948 
L 180.532621 222.585005 
L 180.906908 222.830254 
L 181.07957 223.567269 
L 182.140745 223.311671 
L 182.395683 223.892476 
L 182.868104 223.898642 
L 183.407332 223.69905 
L 184.26451 222.508515 
L 184.573568 222.934445 
L 184.709669 223.956977 
L 185.318923 223.43066 
L 185.764335 223.434261 
L 186.114468 223.788254 
L 186.78643 222.882923 
L 187.228439 222.83533 
L 187.86994 221.882726 
L 187.689484 224.685949 
L 188.113299 224.801002 
L 188.171987 226.881196 
L 188.783044 226.070052 
L 188.963809 227.793556 
L 189.781924 225.500212 
L 190.943799 223.324052 
L 191.371443 223.233227 
L 191.714588 223.965917 
L 192.040037 225.102877 
L 192.44176 225.574644 
L 192.917371 225.020213 
L 193.360163 224.842466 
L 193.826458 223.893704 
L 194.299731 221.695358 
L 194.661466 224.166848 
L 195.083746 225.634519 
L 195.517062 225.06605 
L 195.971478 225.920275 
L 196.419517 226.024498 
L 196.876748 226.255494 
L 197.358459 226.783622 
L 197.69976 225.222537 
L 198.147017 225.330234 
L 198.481253 224.253745 
L 198.753446 222.84905 
L 199.082411 222.178565 
L 199.816661 224.606152 
L 200.406003 225.637967 
L 202.60066 227.548275 
L 203.04866 227.381489 
L 203.183881 225.829722 
L 203.718952 226.119322 
L 203.835343 224.696513 
L 204.03271 223.711178 
L 204.477763 223.703852 
L 205.280655 224.920636 
L 205.99894 224.212907 
L 205.954511 222.664492 
L 206.236853 222.177906 
L 207.163566 223.519045 
L 207.820872 224.024466 
L 208.045375 223.359961 
L 208.471867 223.236184 
L 207.93447 220.782589 
L 208.369525 220.75157 
L 209.029772 221.219962 
L 210.15551 222.663591 
L 210.516468 222.387975 
L 211.126075 222.627119 
L 211.938388 222.243755 
L 211.758924 220.955277 
L 211.962559 220.42499 
L 212.501565 220.504959 
L 212.347368 219.379187 
L 212.580744 218.950182 
L 214.34475 221.016834 
L 214.494353 219.594443 
L 215.513745 220.333881 
L 215.093849 218.924194 
L 215.083606 218.15584 
L 215.367137 217.820494 
L 217.157203 219.520829 
L 216.969697 218.523417 
L 218.141999 219.304633 
L 218.261883 218.718377 
L 218.069592 217.766543 
L 218.116846 217.132098 
L 217.345274 215.565503 
L 219.244999 216.416036 
L 220.568791 217.192374 
L 219.990387 215.918487 
L 220.040171 215.334811 
L 219.120839 213.795312 
L 220.269672 213.737211 
L 220.675881 213.532091 
L 220.606265 212.890475 
L 220.920205 212.603821 
L 221.387392 212.44789 
L 221.654893 212.115859 
L 222.29745 212.091916 
L 222.141631 211.41386 
L 222.967443 211.518854 
L 224.670375 212.269133 
L 224.22423 211.370277 
L 224.362118 210.920605 
L 225.066705 210.8746 
L 223.169004 209.026868 
L 221.602498 207.010553 
L 223.499983 207.752596 
L 226.491367 208.583213 
L 226.763737 208.221856 
L 227.062039 207.358867 
L 228.628398 207.688193 
L 227.642436 206.146887 
L 225.507257 204.607028 
L 225.440227 204.115763 
L 227.270532 204.500847 
L 228.641078 204.633156 
L 227.589504 203.692297 
L 226.122011 202.614682 
L 228.075841 202.952019 
L 228.17377 202.522439 
L 227.880135 201.948967 
L 228.017322 201.542028 
L 230.163995 201.826603 
L 230.540456 201.471518 
L 230.548894 200.993527 
L 228.704268 199.507988 
L 229.147697 199.184981 
L 229.885311 198.930852 
L 228.992577 198.251933 
L 230.213854 198.101067 
L 226.755695 196.463213 
L 226.696382 196.046353 
L 226.999597 195.700473 
L 225.236758 194.990251 
L 226.716205 194.847911 
L 230.08315 194.949875 
L 231.076565 194.64663 
L 230.29093 194.10061 
L 231.501928 193.796917 
L 230.922239 192.844441 
L 229.573357 192.30232 
L 229.075596 191.846547 
L 231.058179 191.083226 
L 230.569664 190.193707 
L 230.569664 190.193707 
" style="fill:none;stroke:#0000ff;stroke-linecap:square;"/>
   </g>
   <g id="line2d_2">
    <path clip-path="url(#peb910f3dbb)" d="M 251.166662 189.758212 
L 249.892022 189.085579 
L 249.681641 188.417909 
L 250.170841 187.729234 
L 250.017403 187.059494 
L 251.189445 185.619607 
L 251.056668 184.938112 
L 251.106631 183.545391 
L 250.674011 182.901807 
L 248.653601 182.482554 
L 248.441229 181.843377 
L 248.376812 181.183285 
L 248.931648 180.414715 
L 250.63631 179.415136 
L 249.953851 178.843869 
L 249.052776 178.332881 
L 249.286878 177.586492 
L 248.726213 177.01896 
L 248.32164 176.422814 
L 248.612525 175.649651 
L 249.069282 174.818402 
L 248.460883 174.279129 
L 248.90162 173.432738 
L 249.669471 172.465534 
L 249.278048 171.854832 
L 248.079821 170.795914 
L 247.911246 170.12168 
L 247.134449 169.68004 
L 246.043166 169.379122 
L 246.971924 168.265424 
L 245.761372 167.294366 
L 246.131268 166.376728 
L 245.381932 165.968941 
L 246.187541 164.815971 
L 246.456315 163.899433 
L 247.159173 162.739647 
L 246.798104 162.116312 
L 246.183756 161.633071 
L 244.549521 161.736198 
L 243.557531 161.506848 
L 242.303881 161.455553 
L 242.518005 160.530077 
L 242.597824 159.670254 
L 242.245796 159.075931 
L 241.299036 158.878142 
L 241.10575 158.183572 
L 240.287391 157.922213 
L 239.723666 157.492512 
L 238.85596 156.454204 
L 237.46282 156.68526 
L 237.751276 155.609448 
L 236.907177 155.434611 
L 236.748459 154.700442 
L 236.69074 153.867773 
L 237.047168 152.652507 
L 236.145395 152.542102 
L 235.953154 151.792476 
L 235.656344 151.129886 
L 235.912159 149.919781 
L 235.20561 149.636346 
L 233.850093 150.028525 
L 232.109189 147.885557 
L 230.614381 148.568333 
L 229.394589 148.981186 
L 229.312799 148.04999 
L 228.540909 147.954811 
L 228.393323 147.075933 
L 227.779124 146.785936 
L 227.328458 146.281248 
L 227.611462 144.755791 
L 226.060663 145.774371 
L 225.578715 145.309897 
L 225.292801 144.547168 
L 224.76807 144.130127 
L 224.518471 143.275702 
L 224.130161 142.618859 
L 223.296523 142.688044 
L 223.051647 141.770795 
L 222.342752 141.639336 
L 221.382473 141.976574 
L 221.161224 140.970685 
L 220.473707 140.821749 
L 219.698991 140.856115 
L 219.424583 139.88663 
L 217.596913 140.606439 
L 217.463654 139.269941 
L 217.640014 137.138426 
L 216.548179 137.938487 
L 215.6774 138.262253 
L 215.458668 136.93822 
L 214.927612 136.372932 
L 214.199133 136.334281 
L 213.524469 136.154972 
L 213.000499 135.523431 
L 211.990614 136.390324 
L 211.18908 136.666033 
L 210.44455 136.78895 
L 209.905236 136.200228 
L 209.02849 136.850962 
L 207.677652 136.727773 
L 207.059421 136.428107 
L 206.579359 135.457183 
L 205.442862 134.119501 
L 204.972005 132.770759 
L 204.139429 133.477272 
L 203.247318 134.723882 
L 202.550029 134.784798 
L 201.703384 136.087577 
L 201.237698 134.266178 
L 200.640984 133.334627 
L 199.935008 133.423402 
L 199.301954 132.5734 
L 198.560824 133.16179 
L 197.747062 135.545143 
L 197.070688 135.812298 
L 196.381964 136.874727 
L 195.741504 136.161934 
L 195.083744 135.147198 
L 194.417798 135.494474 
L 193.733203 134.743177 
L 192.373128 134.582259 
L 190.949206 133.707629 
L 190.36023 134.906895 
L 189.736329 135.46496 
L 189.056784 135.411277 
L 188.454897 136.012938 
L 187.769906 135.907209 
L 186.934041 134.81736 
L 185.405519 133.981233 
L 184.660281 133.773869 
L 183.9373 133.721245 
L 183.045544 132.89422 
L 182.361909 133.105287 
L 181.466639 135.395678 
L 180.979792 136.246928 
L 180.413282 136.745962 
L 179.476841 135.940302 
L 178.681702 135.687927 
L 178.197169 136.454366 
L 177.841198 137.564273 
L 175.556898 137.225788 
L 174.803871 137.184615 
L 174.248882 137.659103 
L 174.135245 139.184052 
L 173.131072 138.546501 
L 172.18841 138.107167 
L 171.300185 137.832852 
L 170.695432 138.193453 
L 170.240893 138.858053 
L 169.925579 139.777526 
L 169.877826 141.17648 
L 168.305687 141.105681 
L 167.351324 140.803636 
L 167.256984 142.012959 
L 166.983102 142.875123 
L 166.106222 142.730672 
L 165.913055 143.692667 
L 164.869836 143.316086 
L 163.475324 142.452857 
L 163.004208 143.000287 
L 162.207015 144.272928 
L 161.641343 144.666358 
L 160.932516 144.872485 
L 160.351503 145.252946 
L 160.652875 146.738194 
L 158.935041 146.796966 
L 159.419109 148.412989 
L 157.724304 147.507838 
L 157.279927 148.048134 
L 157.103204 148.87286 
L 156.817347 149.565751 
L 156.191773 149.899775 
L 155.259655 150.899753 
L 154.704196 151.31369 
L 153.945854 152.472993 
L 153.059459 152.598685 
L 152.689941 153.189062 
L 152.44465 153.880574 
L 152.405206 154.732842 
L 151.417249 154.809936 
L 151.190288 155.503429 
L 150.193637 155.603649 
L 149.829857 156.195637 
L 148.52211 156.103495 
L 149.036172 157.327853 
L 149.30734 158.352073 
L 148.789582 158.825446 
L 148.803196 160.451372 
L 147.921571 160.697729 
L 147.417728 161.188299 
L 146.270212 161.308838 
L 145.4776 161.656681 
L 144.221498 161.763939 
L 145.289467 163.142608 
L 144.661249 163.597239 
L 145.096108 164.596547 
L 145.083971 165.35481 
L 143.91221 167.075436 
L 143.08463 167.467999 
L 142.754665 168.082792 
L 144.162943 169.394563 
L 144.038574 170.067916 
L 143.474975 170.574696 
L 141.668138 170.645806 
L 141.276492 171.247306 
L 140.734955 171.80379 
L 141.60747 172.817002 
L 141.996328 173.654318 
L 141.964601 174.353945 
L 139.698476 175.160339 
L 141.112057 176.239014 
L 141.749599 177.092176 
L 141.491933 177.723764 
L 141.561717 178.42751 
L 142.709532 179.340333 
L 142.685002 180.002333 
L 143.050781 180.72964 
L 142.730331 181.334482 
L 140.545889 181.66828 
L 139.353866 182.189184 
L 140.214192 182.990697 
L 139.641742 183.60981 
L 139.657849 184.29924 
L 139.438255 184.966313 
L 139.456041 185.654872 
L 139.862892 186.365639 
L 139.78784 187.041695 
L 139.33861 187.704996 
L 139.022663 189.070207 
L 139.000824 189.758217 
L 140.275374 190.430839 
L 140.485895 191.098509 
L 139.996611 191.787189 
L 140.150083 192.456929 
L 138.978003 193.896823 
L 139.11091 194.57831 
L 139.0609 195.971024 
L 139.493473 196.614616 
L 141.513891 197.03387 
L 141.726213 197.673056 
L 141.790674 198.333143 
L 141.23593 199.1017 
L 139.531064 200.101304 
L 140.213576 200.672563 
L 141.114725 201.183539 
L 140.880614 201.929932 
L 141.441267 202.497468 
L 141.845767 203.093635 
L 141.554935 203.866788 
L 141.098317 204.697986 
L 141.706555 205.237307 
L 141.265846 206.083691 
L 140.498021 207.05089 
L 140.889464 207.661587 
L 142.087725 208.720498 
L 142.256209 209.394752 
L 143.033088 209.836363 
L 144.124325 210.137301 
L 143.195567 211.251 
L 144.406079 212.222081 
L 144.036263 213.139686 
L 144.78558 213.547467 
L 143.97999 214.700429 
L 143.711178 215.616988 
L 143.00832 216.776779 
L 143.369323 217.40015 
L 143.983733 217.883361 
L 145.618073 217.780177 
L 146.609942 218.009581 
L 147.863674 218.060831 
L 147.649515 218.986327 
L 147.569669 219.846171 
L 147.921733 220.440471 
L 148.868422 220.63831 
L 149.061674 221.332893 
L 149.880097 221.594208 
L 150.443825 222.02391 
L 151.311614 223.06216 
L 152.704662 222.831177 
L 152.416207 223.906989 
L 153.260246 224.081864 
L 153.418944 224.81605 
L 153.476708 225.648687 
L 153.120323 226.863916 
L 154.022098 226.974323 
L 154.214298 227.723991 
L 154.511081 228.386608 
L 154.255311 229.596658 
L 154.961864 229.880089 
L 156.317447 229.487846 
L 158.058307 231.630871 
L 159.553147 230.948042 
L 160.772942 230.535184 
L 160.854704 231.466418 
L 161.626584 231.561614 
L 161.774185 232.440474 
L 162.388347 232.730524 
L 162.839102 233.235092 
L 162.556044 234.760627 
L 164.106923 233.741938 
L 164.588822 234.206481 
L 164.874764 234.969127 
L 165.399468 235.386205 
L 165.649012 236.240719 
L 166.037315 236.897574 
L 166.870996 236.828331 
L 167.115843 237.745628 
L 167.824739 237.877087 
L 168.785016 237.539853 
L 169.00628 238.545725 
L 169.69377 238.694714 
L 170.468465 238.660391 
L 170.742906 239.629827 
L 172.570571 238.910031 
L 172.70383 240.246464 
L 172.527452 242.378036 
L 173.619344 241.57784 
L 174.490109 241.254107 
L 174.708834 242.578173 
L 175.239873 243.143506 
L 175.968357 243.182143 
L 176.643031 243.361424 
L 177.166985 243.993032 
L 178.176875 243.126125 
L 178.978425 242.850363 
L 179.722945 242.727504 
L 180.262298 243.316083 
L 181.139029 242.665401 
L 182.489785 242.788849 
L 183.108041 243.088415 
L 183.58816 244.059072 
L 184.724622 245.396957 
L 185.195486 246.745658 
L 186.028066 246.039162 
L 186.920188 244.792475 
L 187.617474 244.731579 
L 188.464113 243.428838 
L 188.929781 245.250464 
L 189.526482 246.182182 
L 190.232457 246.093167 
L 190.865522 246.943124 
L 191.606657 246.354659 
L 192.420419 243.971327 
L 193.096798 243.704051 
L 193.785526 242.641686 
L 194.425986 243.35449 
L 195.083747 244.369238 
L 195.749699 244.022056 
L 196.434291 244.773135 
L 197.794367 244.933993 
L 199.218305 245.808889 
L 199.807234 244.609386 
L 200.431149 244.051411 
L 201.110686 244.105032 
L 201.712583 243.503453 
L 202.397585 243.609219 
L 203.233445 244.69904 
L 204.761972 245.535197 
L 205.507209 245.742514 
L 206.230187 245.795128 
L 207.12197 246.622286 
L 207.805636 246.41132 
L 208.700881 244.120809 
L 209.187731 243.269673 
L 209.754203 242.77047 
L 210.690634 243.576093 
L 211.485802 243.828566 
L 211.970325 243.062069 
L 212.326321 241.952237 
L 214.61058 242.290582 
L 215.363647 242.331862 
L 215.918611 241.857311 
L 216.032334 240.332554 
L 217.036389 240.969821 
L 217.979052 241.409227 
L 218.867332 241.683647 
L 219.47213 241.32314 
L 219.926635 240.658464 
L 220.241872 239.738836 
L 220.289559 238.339756 
L 221.861787 238.4107 
L 222.816178 238.712796 
L 222.910513 237.503464 
L 223.184402 236.641312 
L 224.061303 236.785795 
L 224.254428 235.823735 
L 225.29776 236.200465 
L 226.692163 237.063574 
L 227.163243 236.516093 
L 227.96041 235.243417 
L 228.526124 234.850047 
L 229.234932 234.643896 
L 229.816025 234.263516 
L 229.514572 232.778167 
L 231.232442 232.719441 
L 230.748436 231.103489 
L 232.443176 232.008563 
L 232.887503 231.468214 
L 233.064438 230.643699 
L 233.350027 229.950561 
L 233.97559 229.616529 
L 234.907844 228.61669 
L 235.463256 228.202707 
L 236.221733 227.04351 
L 237.107967 226.917674 
L 237.477479 226.327293 
L 237.722845 225.635846 
L 237.762409 224.783676 
L 238.750102 224.706369 
L 238.977156 224.012951 
L 239.973665 223.912607 
L 240.337674 223.320827 
L 241.645218 223.412821 
L 241.131343 222.188598 
L 240.859974 221.164239 
L 241.37789 220.690974 
L 241.364316 219.06506 
L 242.245911 218.818683 
L 242.749838 218.328163 
L 243.897252 218.207564 
L 244.689911 217.859748 
L 245.946034 217.752501 
L 244.877633 216.373585 
L 245.506156 215.91915 
L 245.071346 214.919868 
L 245.083298 214.161514 
L 246.255247 212.440982 
L 247.082875 212.048425 
L 247.412725 211.433584 
L 246.004581 210.121869 
L 246.128922 209.448504 
L 246.692576 208.941745 
L 248.499331 208.870604 
L 248.890849 208.26906 
L 249.43251 207.712605 
L 248.559919 206.699398 
L 248.171358 205.862174 
L 248.202625 205.16241 
L 250.468895 204.356062 
L 249.055475 203.277429 
L 248.41794 202.424254 
L 248.67546 201.792632 
L 248.605674 201.088888 
L 247.457967 200.176087 
L 247.482449 199.514078 
L 247.116566 198.786754 
L 247.437166 198.181938 
L 249.622235 197.84822 
L 250.813852 197.327279 
L 249.953161 196.525718 
L 250.52584 195.906632 
L 250.509629 195.217191 
L 250.729118 194.550109 
L 250.711444 193.861559 
L 250.304639 193.150782 
L 250.379599 192.474721 
L 250.828779 191.811419 
L 251.144747 190.446211 
L 251.144747 190.446211 
" style="fill:none;stroke:#008000;stroke-linecap:square;"/>
   </g>
   <g id="line2d_3">
    <path clip-path="url(#peb910f3dbb)" d="M 267.016804 189.758212 
L 267.658574 188.86754 
L 266.260987 187.136599 
L 265.888307 185.408238 
L 265.985613 184.528176 
L 267.22698 183.545608 
L 267.840607 182.592286 
L 267.342707 181.744844 
L 265.733729 181.044368 
L 265.65467 180.173532 
L 263.666275 179.584955 
L 263.614424 178.731532 
L 264.128935 177.777735 
L 265.949765 176.563994 
L 266.020564 175.648001 
L 264.934936 174.970602 
L 264.268775 174.222194 
L 263.469891 173.517566 
L 264.138818 172.460817 
L 263.971942 171.601374 
L 263.122888 170.929246 
L 263.604342 169.887608 
L 263.51194 169.000746 
L 264.107745 167.89151 
L 264.386606 166.863639 
L 263.751431 166.134977 
L 262.596549 165.601746 
L 261.691894 164.99927 
L 261.507543 164.135726 
L 262.094994 162.001243 
L 262.07359 161.042004 
L 261.682271 160.237117 
L 259.797698 159.150792 
L 258.973924 158.575319 
L 259.754273 157.205803 
L 259.984654 156.085335 
L 260.022215 155.047878 
L 259.162185 154.48982 
L 258.051825 154.087238 
L 257.301418 153.496671 
L 256.686834 152.834743 
L 255.740692 152.382497 
L 256.237943 151.032745 
L 255.749138 150.291043 
L 254.492283 148.999379 
L 253.409535 148.680556 
L 252.552857 148.219582 
L 251.862778 147.64801 
L 251.766789 146.631024 
L 250.595377 146.436512 
L 250.016892 145.792717 
L 250.271847 144.46651 
L 249.550331 143.928616 
L 249.380891 142.921173 
L 248.846618 142.21897 
L 247.657954 142.107727 
L 247.485405 141.079564 
L 247.526821 139.828253 
L 247.201467 138.904209 
L 247.379386 137.46257 
L 245.017082 137.311591 
L 244.612667 136.441252 
L 243.722435 136.09369 
L 242.033653 136.661824 
L 241.628637 135.799749 
L 240.137056 136.214206 
L 239.221615 135.976063 
L 239.044423 134.831086 
L 237.247342 134.341642 
L 236.923267 133.344146 
L 236.364014 132.646548 
L 236.260173 131.292181 
L 235.25457 131.206736 
L 233.861478 131.723237 
L 233.231605 131.12074 
L 233.206537 129.555748 
L 232.486956 129.056639 
L 232.076647 128.039294 
L 231.32371 127.577563 
L 229.909134 128.282804 
L 229.297315 127.596252 
L 228.889197 126.512668 
L 228.091448 126.13936 
L 227.036007 126.279966 
L 226.448166 125.496114 
L 225.455818 125.541864 
L 224.668939 125.166467 
L 223.972499 124.586221 
L 222.932237 124.792606 
L 222.264206 124.138776 
L 221.82689 122.884998 
L 220.04677 122.601032 
L 218.627133 121.322616 
L 217.635886 121.491917 
L 216.86502 121.003868 
L 215.873663 121.223029 
L 215.044874 120.925471 
L 214.175385 120.769895 
L 213.378176 120.347975 
L 211.902333 118.938478 
L 210.978382 118.976178 
L 210.101598 118.81943 
L 209.267394 118.452214 
L 207.498932 118.207719 
L 206.66063 117.808044 
L 204.782817 118.345029 
L 203.016894 118.222633 
L 202.226092 117.240756 
L 200.416895 117.458526 
L 199.429255 119.026344 
L 198.538649 119.432011 
L 197.640581 120.339586 
L 196.800608 119.821081 
L 195.943275 119.720946 
L 195.083743 119.245716 
L 194.209005 118.481284 
L 193.322138 117.998259 
L 192.451568 118.294187 
L 191.566558 118.164126 
L 190.705966 118.501035 
L 189.787273 117.955693 
L 188.901674 117.969568 
L 188.109142 118.943841 
L 186.436403 119.647425 
L 185.662694 120.392038 
L 184.619122 119.211443 
L 183.629835 118.572302 
L 182.72157 118.51326 
L 181.829686 118.570772 
L 180.797526 117.936534 
L 179.924245 118.150362 
L 178.861163 117.515755 
L 178.250225 118.875585 
L 177.894812 121.136146 
L 176.843269 120.552703 
L 176.008529 120.829229 
L 173.270105 120.901692 
L 172.604478 121.712495 
L 172.068194 122.85694 
L 171.279505 123.229803 
L 170.160151 122.707103 
L 168.828252 124.104419 
L 167.723777 123.705397 
L 166.8139 123.809653 
L 165.803211 123.702391 
L 164.983146 124.041203 
L 164.005942 124.049713 
L 163.525154 125.098272 
L 162.935161 125.889952 
L 162.628873 127.204893 
L 162.033255 127.925075 
L 160.823507 127.511453 
L 159.750953 127.387103 
L 159.503101 128.70882 
L 158.441355 128.62408 
L 158.055933 129.665881 
L 157.037065 129.675949 
L 155.905925 129.537562 
L 154.612569 129.188805 
L 154.193837 130.158622 
L 152.192792 131.926463 
L 151.317234 133.676597 
L 150.465673 134.009686 
L 149.456124 134.16079 
L 148.994335 134.982846 
L 147.852698 135.004306 
L 147.789768 136.272718 
L 147.308368 137.046216 
L 146.461292 137.417038 
L 146.392699 138.6164 
L 145.880821 139.332597 
L 144.63565 139.310117 
L 143.516991 139.441819 
L 143.342294 140.496262 
L 142.438614 140.853398 
L 141.279737 142.182592 
L 140.352164 142.546422 
L 140.344328 143.69905 
L 139.381929 144.044917 
L 138.659313 144.599181 
L 138.120951 145.304021 
L 137.090742 145.634334 
L 135.621831 145.658245 
L 135.438158 146.646424 
L 135.401802 147.725446 
L 134.796031 148.396198 
L 134.782977 149.466534 
L 135.320777 150.878126 
L 135.257278 151.873512 
L 135.07233 152.780258 
L 134.36414 153.364279 
L 133.436849 153.829332 
L 132.684964 154.409743 
L 132.126066 155.106687 
L 131.095633 155.555844 
L 130.25792 156.124283 
L 131.072698 157.537754 
L 130.131767 158.057085 
L 129.595497 158.784579 
L 128.102121 160.067307 
L 128.595219 162.217757 
L 128.416555 163.097453 
L 128.088101 163.91514 
L 126.148704 164.134341 
L 126.549034 165.236105 
L 127.148545 166.386975 
L 127.437952 167.411052 
L 126.413913 168.003705 
L 126.514578 168.95798 
L 126.286222 169.8073 
L 125.902964 170.613314 
L 125.98591 171.546124 
L 124.950735 172.190815 
L 125.998111 173.351441 
L 125.915349 174.225924 
L 126.295403 175.195606 
L 126.490506 176.114169 
L 126.900756 177.063538 
L 125.086736 177.612584 
L 124.274144 178.364859 
L 123.940577 179.205113 
L 123.170422 179.991208 
L 124.087909 181.001709 
L 124.501072 181.930742 
L 124.473618 182.803725 
L 123.549651 183.59807 
L 124.29839 184.536779 
L 124.492054 185.42131 
L 123.832005 186.257835 
L 123.616762 187.125926 
L 122.035688 187.964984 
L 122.488134 188.867289 
L 123.150686 189.758218 
L 122.508898 190.648876 
L 123.906539 192.37982 
L 124.27916 194.108189 
L 124.181946 194.988247 
L 122.940504 195.970823 
L 122.326946 196.924123 
L 122.824696 197.771584 
L 124.433796 198.472049 
L 124.512822 199.342892 
L 126.501241 199.931468 
L 126.553088 200.784893 
L 126.03856 201.738695 
L 124.217716 202.952424 
L 124.146899 203.868423 
L 125.232553 204.54582 
L 125.898717 205.29423 
L 126.697601 205.99886 
L 126.028656 207.055617 
L 126.19545 207.915084 
L 127.044604 208.587171 
L 126.563203 209.628796 
L 126.65557 210.51567 
L 126.059747 211.624913 
L 125.780895 212.652784 
L 126.416056 213.381455 
L 127.570912 213.914699 
L 128.475743 214.517094 
L 128.659917 215.380706 
L 128.072518 217.515172 
L 128.09392 218.474416 
L 128.48516 219.279341 
L 130.36978 220.365631 
L 131.193543 220.941113 
L 130.413243 222.310606 
L 130.182839 223.43109 
L 130.145282 224.468548 
L 131.005304 225.026613 
L 132.115757 225.429147 
L 132.866092 226.019734 
L 133.480598 226.681714 
L 134.426779 227.133937 
L 133.92955 228.483681 
L 134.41836 229.225379 
L 135.675297 230.516977 
L 136.757969 230.835852 
L 137.614633 231.29684 
L 138.304713 231.868412 
L 138.400757 232.885362 
L 139.572154 233.079889 
L 140.150641 233.723681 
L 139.895705 235.049856 
L 140.617175 235.587788 
L 140.786645 236.59521 
L 141.320873 237.297452 
L 142.509539 237.408698 
L 142.682155 238.436806 
L 142.640684 239.688168 
L 142.966064 240.612168 
L 142.788089 242.053861 
L 145.15041 242.204835 
L 145.554826 243.075174 
L 146.445069 243.42273 
L 148.133844 242.854604 
L 148.538775 243.716757 
L 150.030386 243.302267 
L 150.945884 243.540349 
L 151.12307 244.685339 
L 152.920165 245.174772 
L 153.244166 246.172368 
L 153.803432 246.869957 
L 153.907406 248.224145 
L 154.912904 248.30974 
L 156.305997 247.793186 
L 156.935844 248.395723 
L 156.960939 249.960682 
L 157.680547 250.459747 
L 158.090851 251.477116 
L 158.84378 251.93886 
L 160.258356 251.233619 
L 160.870169 251.920182 
L 161.278342 253.003682 
L 162.076032 253.377101 
L 163.131466 253.23651 
L 163.719374 254.020246 
L 164.711597 253.974756 
L 165.49858 254.349933 
L 166.194908 254.930348 
L 167.23522 254.723872 
L 167.903347 255.377473 
L 168.340576 256.631462 
L 170.120727 256.915371 
L 171.540359 258.193799 
L 172.531635 258.024439 
L 173.302489 258.512522 
L 174.293839 258.293381 
L 175.122635 258.590948 
L 175.9921 258.746609 
L 176.78937 259.168299 
L 178.265152 260.577927 
L 179.189092 260.540274 
L 180.065914 260.696847 
L 180.900097 261.064208 
L 182.668556 261.308717 
L 183.506873 261.708354 
L 185.384681 261.171395 
L 187.1506 261.293899 
L 187.941435 262.275473 
L 189.750585 262.057911 
L 190.738233 260.489973 
L 191.628831 260.084442 
L 192.526896 259.176959 
L 193.366882 259.695342 
L 194.224214 259.795491 
L 195.083747 260.270695 
L 195.958493 261.03513 
L 196.845358 261.518098 
L 197.715925 261.222102 
L 198.600949 261.352314 
L 199.461534 261.015288 
L 200.380234 261.560736 
L 201.265801 261.546892 
L 202.058331 260.572497 
L 203.731079 259.869006 
L 204.504797 259.124392 
L 205.548365 260.304969 
L 206.537657 260.944136 
L 207.44592 261.003165 
L 208.337819 260.945688 
L 209.369989 261.57997 
L 210.243237 261.365983 
L 211.306356 262.000721 
L 211.917263 260.640758 
L 212.272673 258.380188 
L 213.324185 258.963654 
L 214.158956 258.68721 
L 216.89739 258.61475 
L 217.563011 257.803927 
L 218.099309 256.659523 
L 218.88798 256.286582 
L 220.007375 256.809397 
L 221.339245 255.412002 
L 222.443788 255.811165 
L 223.353648 255.706863 
L 224.364279 255.814079 
L 225.18429 255.475126 
L 226.16157 255.466778 
L 226.642382 254.418266 
L 227.232361 253.626555 
L 227.538718 252.311745 
L 228.134201 251.591268 
L 229.343984 252.004956 
L 230.41657 252.129363 
L 230.664412 250.807627 
L 231.72615 250.892354 
L 232.111537 249.850495 
L 233.130479 249.840545 
L 234.261628 249.978913 
L 235.554912 250.327622 
L 235.973667 249.357839 
L 237.974743 247.590037 
L 238.850229 245.839779 
L 239.701853 245.50677 
L 240.711317 245.355562 
L 241.17316 244.533572 
L 242.31475 244.512058 
L 242.377723 243.243695 
L 242.859101 242.470173 
L 243.706426 242.099595 
L 243.774957 240.900212 
L 244.286638 240.183809 
L 245.53192 240.2064 
L 246.65053 240.074649 
L 246.825158 239.020139 
L 247.728899 238.663061 
L 248.887752 237.333821 
L 249.81529 236.969961 
L 249.823168 235.817369 
L 250.785644 235.471566 
L 251.508142 234.917205 
L 252.04658 234.212425 
L 253.07678 233.882083 
L 254.545833 233.85832 
L 254.729354 232.870028 
L 254.765792 231.791064 
L 255.371507 231.120271 
L 255.384511 230.049901 
L 254.846705 228.638284 
L 254.910223 227.64291 
L 255.095204 226.736184 
L 255.803277 226.152092 
L 256.730765 225.687156 
L 257.482474 225.106643 
L 258.041424 224.409729 
L 259.071917 223.960584 
L 259.909459 223.392095 
L 259.094771 221.97867 
L 260.035787 221.459381 
L 260.572001 220.73186 
L 262.065261 219.44908 
L 261.572347 217.298691 
L 261.750906 216.418952 
L 262.079454 215.601302 
L 264.018719 215.38205 
L 263.618548 214.280344 
L 263.018942 213.12944 
L 262.729184 212.105229 
L 263.753533 211.512716 
L 263.653023 210.558488 
L 263.881362 209.709162 
L 264.264463 208.903103 
L 264.181663 207.970332 
L 265.216879 207.32565 
L 264.169413 206.164984 
L 264.252122 205.290488 
L 263.872059 204.320805 
L 263.677074 203.402266 
L 263.266814 202.452894 
L 265.08069 201.903822 
L 265.893188 201.151533 
L 266.226849 200.311277 
L 266.997062 199.525226 
L 266.079653 198.514734 
L 265.666498 197.585702 
L 265.69383 196.712706 
L 266.617705 195.918353 
L 265.868949 194.979645 
L 265.675414 194.095107 
L 266.33554 193.258586 
L 266.550734 192.390492 
L 268.1318 191.551433 
L 267.67942 190.649129 
L 267.67942 190.649129 
" style="fill:none;stroke:#ff0000;stroke-linecap:square;"/>
   </g>
   <g id="patch_3">
    <path d="M 195.083746 350.655638 
C 237.754242 350.655638 278.68281 333.702471 308.855407 303.529873 
C 339.028005 273.357276 355.981172 232.428708 355.981172 189.758212 
C 355.981172 147.087716 339.028005 106.159148 308.855407 75.986551 
C 278.68281 45.813953 237.754242 28.860785 195.083746 28.860785 
C 152.41325 28.860785 111.484682 45.813953 81.312085 75.986551 
C 51.139487 106.159148 34.186319 147.087716 34.186319 189.758212 
C 34.186319 232.428708 51.139487 273.357276 81.312085 303.529873 
C 111.484682 333.702471 152.41325 350.655638 195.083746 350.655638 
z
" style="fill:none;stroke:#000000;stroke-linecap:square;stroke-linejoin:miter;"/>
   </g>
   <g id="matplotlib.axis_1">
    <g id="xtick_1">
     <g id="line2d_4">
      <path clip-path="url(#peb910f3dbb)" d="M 195.083746 189.758212 
L 355.981172 189.758212 
" style="fill:none;stroke:#000000;stroke-dasharray:1.000000,3.000000;stroke-dashoffset:0.0;stroke-width:0.5;"/>
     </g>
     <g id="text_1">
      <!-- $0^\circ$ -->
      <defs>
       <path d="M 44.40625 25 
C 44.40625 35.578125 35.5 44.1875 25 44.1875 
C 14.203125 44.1875 5.5 35.375 5.5 25 
C 5.5 14.53125 14.203125 5.8125 25 5.8125 
C 35.5 5.8125 44.40625 14.421875 44.40625 25 
M 25 9.8125 
C 16.296875 9.8125 9.5 16.71875 9.5 25 
C 9.5 33.28125 16.40625 40.1875 25 40.1875 
C 33.296875 40.1875 40.40625 33.46875 40.40625 25 
C 40.40625 16.53125 33.296875 9.8125 25 9.8125 
" id="CMSY10-14"/>
       <path d="M 42 31.640625 
C 42 37.75 41.90625 48.125 37.703125 56.109375 
C 34 63.109375 28.09375 65.59375 22.90625 65.59375 
C 18.09375 65.59375 12 63.40625 8.203125 56.203125 
C 4.203125 48.71875 3.796875 39.4375 3.796875 31.640625 
C 3.796875 25.953125 3.90625 17.28125 7 9.671875 
C 11.296875 -0.609375 19 -2 22.90625 -2 
C 27.5 -2 34.5 -0.109375 38.59375 9.375 
C 41.59375 16.28125 42 24.359375 42 31.640625 
M 22.90625 -0.40625 
C 16.5 -0.40625 12.703125 5.078125 11.296875 12.6875 
C 10.203125 18.5625 10.203125 27.15625 10.203125 32.75 
C 10.203125 40.4375 10.203125 46.828125 11.5 52.921875 
C 13.40625 61.390625 19 64 22.90625 64 
C 27 64 32.296875 61.296875 34.203125 53.125 
C 35.5 47.4375 35.59375 40.734375 35.59375 32.75 
C 35.59375 26.25 35.59375 18.265625 34.40625 12.375 
C 32.296875 1.484375 26.40625 -0.40625 22.90625 -0.40625 
" id="CMR17-48"/>
      </defs>
      <g transform="translate(367.027328533 193.057819607)scale(0.12 -0.12)">
       <use transform="scale(0.9962640099626402)" xlink:href="#CMR17-48"/>
       <use transform="translate(45.69047711706103 36.15363894185866)scale(0.6973817666173724)" xlink:href="#CMSY10-14"/>
      </g>
     </g>
    </g>
    <g id="xtick_2">
     <g id="line2d_5">
      <path clip-path="url(#peb910f3dbb)" d="M 195.083746 189.758212 
L 195.083746 28.860785 
" style="fill:none;stroke:#000000;stroke-dasharray:1.000000,3.000000;stroke-dashoffset:0.0;stroke-width:0.5;"/>
     </g>
     <g id="text_2">
      <!-- $90^\circ$ -->
      <defs>
       <path d="M 35.203125 29.125 
C 35.203125 7.25 26.09375 0.484375 18.59375 0.484375 
C 16.296875 0.484375 10.703125 0.484375 8.40625 4.59375 
C 11 4.1875 12.90625 5.578125 12.90625 8.09375 
C 12.90625 10.8125 10.703125 11.703125 9.296875 11.703125 
C 8.40625 11.703125 5.703125 11.296875 5.703125 7.90625 
C 5.703125 1.109375 11.59375 -2 18.796875 -2 
C 30.296875 -2 42 10.53125 42 32.390625 
C 42 59.640625 30.796875 65.296875 23.203125 65.296875 
C 13.296875 65.296875 3.796875 56.6875 3.796875 43.40625 
C 3.796875 31.109375 11.90625 22 22.09375 22 
C 30.5 22 34.203125 29.734375 35.203125 33 
z
M 22.296875 23.59375 
C 19.59375 23.59375 15.796875 24.09375 12.703125 30.03125 
C 10.59375 33.890625 10.59375 38.453125 10.59375 43.296875 
C 10.59375 49.15625 10.59375 53.203125 13.40625 57.5625 
C 14.796875 59.640625 17.40625 63 23.203125 63 
C 35 63 35 45.078125 35 41.125 
C 35 34.09375 31.796875 23.59375 22.296875 23.59375 
" id="CMR17-57"/>
      </defs>
      <g transform="translate(187.113664266 16.070650466)scale(0.12 -0.12)">
       <use transform="scale(0.9962640099626402)" xlink:href="#CMR17-57"/>
       <use transform="translate(45.69047711706103 0.0)scale(0.9962640099626402)" xlink:href="#CMR17-48"/>
       <use transform="translate(91.38095423412206 36.15363894185866)scale(0.6973817666173724)" xlink:href="#CMSY10-14"/>
      </g>
     </g>
    </g>
    <g id="xtick_3">
     <g id="line2d_6">
      <path clip-path="url(#peb910f3dbb)" d="M 195.083746 189.758212 
L 34.186319 189.758212 
" style="fill:none;stroke:#000000;stroke-dasharray:1.000000,3.000000;stroke-dashoffset:0.0;stroke-width:0.5;"/>
     </g>
     <g id="text_3">
      <!-- $180^\circ$ -->
      <defs>
       <path d="M 27.203125 35.375 
C 33.5 38.546875 39.90625 43.328125 39.90625 50.984375 
C 39.90625 60.015625 31.09375 65.296875 23 65.296875 
C 13.90625 65.296875 5.90625 58.734375 5.90625 49.6875 
C 5.90625 47.203125 6.5 42.921875 10.40625 39.140625 
C 11.40625 38.15625 15.59375 35.171875 18.296875 33.28125 
C 13.796875 30.984375 3.296875 25.53125 3.296875 14.59375 
C 3.296875 4.359375 13.09375 -2 22.796875 -2 
C 33.5 -2 42.5 5.65625 42.5 15.78125 
C 42.5 24.84375 36.40625 29.015625 32.40625 31.703125 
z
M 14.09375 44.09375 
C 13.296875 44.59375 9.296875 47.671875 9.296875 52.359375 
C 9.296875 58.421875 15.59375 63 22.796875 63 
C 30.703125 63 36.5 57.4375 36.5 50.96875 
C 36.5 41.703125 26.09375 36.421875 25.59375 36.421875 
C 25.5 36.421875 25.40625 36.421875 24.59375 37.03125 
z
M 32.5 23.734375 
C 34 22.640625 38.796875 19.375 38.796875 13.296875 
C 38.796875 5.953125 31.40625 0.390625 23 0.390625 
C 13.90625 0.390625 7 6.84375 7 14.6875 
C 7 22.546875 13.09375 29.09375 20 32.1875 
z
" id="CMR17-56"/>
       <path d="M 26.59375 63.40625 
C 26.59375 65.5 26.5 65.5 25.09375 65.5 
C 21.203125 61.1875 15.296875 59.796875 9.703125 59.796875 
C 9.40625 59.796875 8.90625 59.796875 8.796875 59.5 
C 8.703125 59.296875 8.703125 59.09375 8.703125 57 
C 11.796875 57 17 57.59375 21 59.984375 
L 21 7.203125 
C 21 3.6875 20.796875 2.5 12.203125 2.5 
L 9.203125 2.5 
L 9.203125 0 
C 14 0 19 0 23.796875 0 
C 28.59375 0 33.59375 0 38.40625 0 
L 38.40625 2.5 
L 35.40625 2.5 
C 26.796875 2.5 26.59375 3.59375 26.59375 7.15625 
z
" id="CMR17-49"/>
      </defs>
      <g transform="translate(7.2 193.057819607)scale(0.12 -0.12)">
       <use transform="scale(0.9962640099626402)" xlink:href="#CMR17-49"/>
       <use transform="translate(45.69047711706103 0.0)scale(0.9962640099626402)" xlink:href="#CMR17-56"/>
       <use transform="translate(91.38095423412206 0.0)scale(0.9962640099626402)" xlink:href="#CMR17-48"/>
       <use transform="translate(137.07143135118307 36.15363894185866)scale(0.6973817666173724)" xlink:href="#CMSY10-14"/>
      </g>
     </g>
    </g>
    <g id="xtick_4">
     <g id="line2d_7">
      <path clip-path="url(#peb910f3dbb)" d="M 195.083746 189.758212 
L 195.083746 350.655638 
" style="fill:none;stroke:#000000;stroke-dasharray:1.000000,3.000000;stroke-dashoffset:0.0;stroke-width:0.5;"/>
     </g>
     <g id="text_4">
      <!-- $270^\circ$ -->
      <defs>
       <path d="M 45.09375 61.578125 
L 45.09375 63.765625 
L 21.59375 63.765625 
C 9.90625 63.765625 9.703125 65.078125 9.296875 67 
L 7.5 67 
L 4.59375 48.34375 
L 6.40625 48.34375 
C 6.703125 50.234375 7.40625 55.3125 8.59375 57.203125 
C 9.203125 58 16.59375 58 18.296875 58 
L 40.296875 58 
L 29.203125 41.578125 
C 21.796875 30.53125 16.703125 15.609375 16.703125 2.578125 
C 16.703125 1.390625 16.703125 -2 20.296875 -2 
C 23.90625 -2 23.90625 1.390625 23.90625 2.671875 
L 23.90625 7.265625 
C 23.90625 23.5625 26.703125 34.3125 31.296875 41.1875 
z
" id="CMR17-55"/>
       <path d="M 41.703125 15.453125 
L 39.90625 15.453125 
C 38.90625 8.375 38.09375 7.171875 37.703125 6.5625 
C 37.203125 5.765625 30 5.765625 28.59375 5.765625 
L 9.40625 5.765625 
C 13 9.671875 20 16.75 28.5 24.953125 
C 34.59375 30.734375 41.703125 37.53125 41.703125 47.421875 
C 41.703125 59.21875 32.296875 66 21.796875 66 
C 10.796875 66 4.09375 56.3125 4.09375 47.34375 
C 4.09375 43.4375 7 42.9375 8.203125 42.9375 
C 9.203125 42.9375 12.203125 43.546875 12.203125 47.03125 
C 12.203125 50.109375 9.59375 51 8.203125 51 
C 7.59375 51 7 50.90625 6.59375 50.703125 
C 8.5 59.21875 14.296875 63.40625 20.40625 63.40625 
C 29.09375 63.40625 34.796875 56.515625 34.796875 47.421875 
C 34.796875 38.734375 29.703125 31.25 24 24.75 
L 4.09375 2.28125 
L 4.09375 0 
L 39.296875 0 
z
" id="CMR17-50"/>
      </defs>
      <g transform="translate(184.187169141 370.044988747)scale(0.12 -0.12)">
       <use transform="scale(0.9962640099626402)" xlink:href="#CMR17-50"/>
       <use transform="translate(45.69047711706103 0.0)scale(0.9962640099626402)" xlink:href="#CMR17-55"/>
       <use transform="translate(91.38095423412206 0.0)scale(0.9962640099626402)" xlink:href="#CMR17-48"/>
       <use transform="translate(137.07143135118307 36.15363894185866)scale(0.6973817666173724)" xlink:href="#CMSY10-14"/>
      </g>
     </g>
    </g>
   </g>
   <g id="matplotlib.axis_2">
    <g id="ytick_1">
     <g id="line2d_8">
      <path clip-path="url(#peb910f3dbb)" d="M 195.083746 189.758212 
L 195.083746 189.758212 
" style="fill:none;stroke:#000000;stroke-dasharray:1.000000,3.000000;stroke-dashoffset:0.0;stroke-width:0.5;"/>
     </g>
     <g id="text_5">
      <!-- -15dB -->
      <defs>
       <path d="M 32.203125 70.5 
C 28.796875 66.234375 19.59375 63 10.40625 63 
L 10.40625 58.59375 
L 19.203125 58.59375 
C 25 58.59375 25.40625 58.203125 25.40625 52.3125 
L 25.40625 12.28125 
L 25.40625 9.375 
C 25.40625 5.1875 24.5 4.6875 16.5 4.6875 
L 10 4.6875 
L 10 0 
L 49.59375 0 
L 49.59375 4.6875 
L 44.09375 4.6875 
C 38.796875 4.6875 36.59375 5.09375 35.796875 6.09375 
C 35.09375 6.78125 35.09375 6.78125 35.09375 12.3125 
L 35.09375 53.671875 
C 35.09375 58.578125 35.296875 63.375 35.796875 70.5 
z
" id="Century_Schoolbook_L_Roman-49"/>
       <path d="M 38 0 
L 55.40625 0 
L 55.40625 4.703125 
L 53.59375 4.703125 
C 48.203125 4.703125 47.40625 5.703125 47.40625 11.96875 
L 47.40625 73.78125 
L 27.796875 73.78125 
L 27.796875 69 
L 33.703125 69 
C 37.296875 69 38 68.28125 38 63.921875 
L 38 41 
C 34.296875 46.09375 30 48.390625 24.203125 48.390625 
C 12.90625 48.390625 4.296875 37.546875 4.296875 23.203125 
C 4.296875 9.0625 12.59375 -1 24.203125 -1 
C 30.5 -1 34.796875 1.671875 38 7.59375 
z
M 26.203125 43 
C 30.296875 43 34.203125 40.03125 36 35.4375 
C 37.203125 32.453125 37.90625 28.28125 37.90625 23.515625 
C 37.90625 11.96875 33.296875 4.390625 26.09375 4.390625 
C 19.09375 4.390625 14.796875 10.96875 14.796875 22.015625 
C 14.796875 27.890625 15.40625 32.359375 16.703125 35.734375 
C 18.40625 40.125 22.09375 43 26.203125 43 
" id="Century_Schoolbook_L_Roman-100"/>
       <path d="M 16.40625 59.703125 
C 21.796875 58.40625 24.59375 58 28.5 58 
C 37 58 43.203125 61 46.5 66.484375 
C 47.59375 68.390625 48 69.28125 48 70.078125 
C 48 70.6875 47.703125 70.984375 47.203125 70.984375 
C 46.90625 70.984375 46.40625 70.875 45.90625 70.578125 
C 41 68.484375 38.296875 67.984375 32.59375 67.984375 
C 26.203125 67.984375 22.5 68.484375 12 70.984375 
C 11.59375 62.625 10.703125 51.984375 9.296875 39.65625 
C 7.203125 37.46875 6.5 36.171875 6.5 34.578125 
C 6.5 32.59375 7.796875 31.203125 9.703125 31.203125 
C 12.203125 31.203125 13.796875 33.328125 14.203125 37.359375 
C 17.703125 39.890625 21 41 25 41 
C 33.90625 41 39.296875 34.03125 39.296875 22.5 
C 39.296875 15.734375 37.59375 9.953125 34.59375 6.828125 
C 32.59375 4.703125 28.5 3.296875 24.40625 3.296875 
C 18.40625 3.296875 12.203125 6.421875 12.203125 9.5625 
C 12.203125 10.28125 12.796875 11.078125 14 11.78125 
C 17.09375 13.703125 18 15.03125 18 17.75 
C 18 21.296875 15.296875 24.015625 11.703125 24.015625 
C 7.703125 24.015625 4.5 20.28125 4.5 15.546875 
C 4.5 10.5 7.40625 5.453125 11.90625 2.328125 
C 15.296875 0.109375 19.40625 -1 24.59375 -1 
C 40.296875 -1 50.203125 8.28125 50.203125 23.109375 
C 50.203125 36.828125 41.09375 46 27.59375 46 
C 23.40625 46 20.203125 45.296875 14.703125 43 
z
" id="Century_Schoolbook_L_Roman-53"/>
       <path d="M 4.203125 27.28125 
L 4.203125 19 
L 29.09375 19 
L 29.09375 27.28125 
z
" id="Century_Schoolbook_L_Roman-45"/>
       <path d="M 3 72 
L 3 67.3125 
L 4.796875 67.3125 
C 12.90625 67.3125 13.796875 66.8125 13.796875 62.609375 
L 13.796875 59.734375 
L 13.796875 12.28125 
L 13.796875 9.375 
C 13.796875 5.1875 12.90625 4.6875 4.796875 4.6875 
L 3 4.6875 
L 3 0 
L 39.296875 0 
C 56.59375 0 67 7.40625 67 19.59375 
C 67 29.484375 60.59375 35.296875 47 37.6875 
C 51.796875 38.6875 54 39.578125 56.5 41.46875 
C 60.703125 44.546875 63.203125 49.421875 63.203125 54.5 
C 63.203125 60.859375 59.203125 67.125 53.40625 69.609375 
C 49.796875 71.203125 44.796875 72 38.90625 72 
z
M 25 39.6875 
L 25 62.328125 
C 25 66.203125 26.40625 67.3125 31.59375 67.3125 
L 35.59375 67.3125 
C 40.203125 67.3125 44 66.609375 46.09375 65.21875 
C 49.703125 63.03125 51.59375 58.75 51.59375 53.203125 
C 51.59375 43.46875 46.703125 39.6875 33.90625 39.6875 
z
M 25 35 
L 33.796875 35 
C 40.203125 35 44.5 34.390625 47.5 33.09375 
C 52.203125 30.890625 54.703125 26.5 54.703125 19.890625 
C 54.703125 13.59375 52.5 8.890625 48.59375 6.984375 
C 45.5 5.390625 41.296875 4.6875 35 4.6875 
L 30.796875 4.6875 
C 25.703125 4.6875 25 5.484375 25 11 
z
" id="Century_Schoolbook_L_Roman-66"/>
      </defs>
      <g transform="translate(195.083745942 187.486776813)scale(0.12 -0.12)">
       <use transform="scale(0.9962640099626402)" xlink:href="#Century_Schoolbook_L_Roman-45"/>
       <use transform="translate(33.17522972933531 0.0)scale(0.9962640099626402)" xlink:href="#Century_Schoolbook_L_Roman-49"/>
       <use transform="translate(88.56690669267591 0.0)scale(0.9962640099626402)" xlink:href="#Century_Schoolbook_L_Roman-53"/>
       <use transform="translate(143.95858365601651 0.0)scale(0.9962640099626402)" xlink:href="#Century_Schoolbook_L_Roman-100"/>
       <use transform="translate(201.1440709400296 0.0)scale(0.9962640099626402)" xlink:href="#Century_Schoolbook_L_Roman-66"/>
      </g>
     </g>
    </g>
    <g id="ytick_2">
     <g id="line2d_9">
      <path clip-path="url(#peb910f3dbb)" d="M 248.716221 189.758212 
L 248.68355 187.886466 
L 248.585575 186.017 
L 248.194274 182.294014 
L 247.544223 178.607393 
L 246.63859 174.975098 
L 245.481787 171.414825 
L 244.07945 167.943919 
L 242.438411 164.57929 
L 240.566665 161.33733 
L 238.47333 158.233834 
L 236.168606 155.283921 
L 233.66372 152.501964 
L 230.970877 149.901515 
L 228.103195 147.495244 
L 225.074646 145.294875 
L 221.899984 143.311126 
L 218.594676 141.553662 
L 215.174825 140.031047 
L 211.657092 138.750697 
L 208.058616 137.71885 
L 204.396928 136.940534 
L 200.689866 136.419541 
L 196.955492 136.158408 
L 193.212 136.158408 
L 189.477626 136.419541 
L 185.770564 136.940534 
L 182.108876 137.71885 
L 178.5104 138.750697 
L 174.992667 140.031047 
L 171.572816 141.553662 
L 168.267508 143.311126 
L 165.092846 145.294875 
L 162.064297 147.495244 
L 159.196615 149.901515 
L 156.503772 152.501964 
L 153.998886 155.283921 
L 151.694162 158.233834 
L 149.600827 161.33733 
L 147.729081 164.57929 
L 146.088042 167.943919 
L 144.685704 171.414825 
L 143.528902 174.975098 
L 142.623269 178.607393 
L 141.973218 182.294014 
L 141.581916 186.017 
L 141.45127 189.758212 
L 141.581916 193.499424 
L 141.973218 197.22241 
L 142.623269 200.909031 
L 143.528902 204.541326 
L 144.685704 208.101599 
L 146.088042 211.572505 
L 147.729081 214.937134 
L 149.600827 218.179094 
L 151.694162 221.28259 
L 153.998886 224.232503 
L 156.503772 227.01446 
L 159.196615 229.614909 
L 162.064297 232.021179 
L 165.092846 234.221549 
L 168.267508 236.205298 
L 171.572816 237.962762 
L 174.992667 239.485377 
L 178.5104 240.765727 
L 182.108876 241.797574 
L 185.770564 242.57589 
L 189.477626 243.096883 
L 193.212 243.358016 
L 196.955492 243.358016 
L 200.689866 243.096883 
L 204.396928 242.57589 
L 208.058616 241.797574 
L 211.657092 240.765727 
L 215.174825 239.485377 
L 218.594676 237.962762 
L 221.899984 236.205298 
L 225.074646 234.221549 
L 228.103195 232.021179 
L 230.970877 229.614909 
L 233.66372 227.01446 
L 236.168606 224.232503 
L 238.47333 221.28259 
L 240.566665 218.179094 
L 242.438411 214.937134 
L 244.07945 211.572505 
L 245.481787 208.101599 
L 246.63859 204.541326 
L 247.544223 200.909031 
L 248.194274 197.22241 
L 248.585575 193.499424 
L 248.716221 189.758212 
L 248.716221 189.758212 
" style="fill:none;stroke:#000000;stroke-dasharray:1.000000,3.000000;stroke-dashoffset:0.0;stroke-width:0.5;"/>
     </g>
     <g id="text_6">
      <!-- -10dB -->
      <defs>
       <path d="M 28.40625 71 
C 14.40625 71 4.203125 55.6875 4.203125 34.75 
C 4.203125 14.125 14.09375 -1 27.59375 -1 
C 41.59375 -1 51.40625 13.625 51.40625 34.4375 
C 51.40625 45.0625 49.203125 53.875 45 60.78125 
C 41.09375 67.09375 34.703125 71 28.40625 71 
M 27.703125 66.703125 
C 31 66.703125 34.203125 64.5 36.59375 60.5 
C 39.296875 55.875 40.203125 49.96875 40.203125 36.25 
C 40.203125 22.21875 39.5 15.625 37.5 11.203125 
C 35.203125 6.296875 31.59375 3.296875 27.796875 3.296875 
C 24.5 3.296875 21.296875 5.5 18.90625 9.5 
C 16.09375 14.21875 15.296875 20.53125 15.296875 36.859375 
C 15.296875 48.484375 16 54.375 18 58.6875 
C 20.296875 63.796875 23.90625 66.703125 27.703125 66.703125 
" id="Century_Schoolbook_L_Roman-48"/>
      </defs>
      <g transform="translate(244.633692332 166.962517004)scale(0.12 -0.12)">
       <use transform="scale(0.9962640099626402)" xlink:href="#Century_Schoolbook_L_Roman-45"/>
       <use transform="translate(33.17522972933531 0.0)scale(0.9962640099626402)" xlink:href="#Century_Schoolbook_L_Roman-49"/>
       <use transform="translate(88.56690669267591 0.0)scale(0.9962640099626402)" xlink:href="#Century_Schoolbook_L_Roman-48"/>
       <use transform="translate(143.95858365601651 0.0)scale(0.9962640099626402)" xlink:href="#Century_Schoolbook_L_Roman-100"/>
       <use transform="translate(201.1440709400296 0.0)scale(0.9962640099626402)" xlink:href="#Century_Schoolbook_L_Roman-66"/>
      </g>
     </g>
    </g>
    <g id="ytick_3">
     <g id="line2d_10">
      <path clip-path="url(#peb910f3dbb)" d="M 302.348697 189.758212 
L 302.283354 186.014719 
L 302.087405 182.275787 
L 301.761088 178.545971 
L 301.304802 174.829816 
L 300.719101 171.131849 
L 300.0047 167.456575 
L 299.162469 163.808472 
L 298.193435 160.191984 
L 297.098777 156.611519 
L 295.879829 153.071438 
L 294.538077 149.576054 
L 293.075155 146.129626 
L 291.492845 142.736352 
L 289.793076 139.400368 
L 287.977918 136.125736 
L 286.049583 132.916448 
L 284.010421 129.776413 
L 281.862914 126.709456 
L 279.609681 123.719314 
L 277.253466 120.80963 
L 274.797139 117.98395 
L 272.243694 115.245716 
L 269.596242 112.598264 
L 266.858008 110.044819 
L 264.032327 107.588492 
L 261.122644 105.232277 
L 258.132502 102.979044 
L 255.065545 100.831537 
L 251.92551 98.792374 
L 248.716221 96.864039 
L 245.44159 95.048882 
L 242.105606 93.349113 
L 238.712332 91.766803 
L 235.265904 90.303881 
L 231.77052 88.962129 
L 228.230439 87.743181 
L 224.649973 86.648523 
L 221.033486 85.679488 
L 217.385383 84.837257 
L 213.710109 84.122857 
L 210.012142 83.537156 
L 206.295986 83.08087 
L 202.566171 82.754553 
L 198.827239 82.558604 
L 195.083746 82.493261 
L 191.340253 82.558604 
L 187.601321 82.754553 
L 183.871505 83.08087 
L 180.15535 83.537156 
L 176.457383 84.122857 
L 172.782109 84.837257 
L 169.134006 85.679488 
L 165.517518 86.648523 
L 161.937053 87.743181 
L 158.396972 88.962129 
L 154.901588 90.303881 
L 151.45516 91.766803 
L 148.061886 93.349113 
L 144.725902 95.048882 
L 141.45127 96.864039 
L 138.241982 98.792374 
L 135.101947 100.831537 
L 132.03499 102.979044 
L 129.044848 105.232277 
L 126.135164 107.588492 
L 123.309484 110.044819 
L 120.57125 112.598264 
L 117.923798 115.245716 
L 115.370353 117.98395 
L 112.914026 120.80963 
L 110.557811 123.719314 
L 108.304578 126.709456 
L 106.157071 129.776413 
L 104.117908 132.916448 
L 102.189573 136.125736 
L 100.374416 139.400368 
L 98.674647 142.736352 
L 97.092337 146.129626 
L 95.629415 149.576054 
L 94.287663 153.071438 
L 93.068715 156.611519 
L 91.974057 160.191984 
L 91.005022 163.808472 
L 90.162791 167.456575 
L 89.448391 171.131849 
L 88.86269 174.829816 
L 88.406404 178.545971 
L 88.080087 182.275787 
L 87.884138 186.014719 
L 87.818795 189.758212 
L 87.884138 193.501705 
L 88.080087 197.240637 
L 88.406404 200.970452 
L 88.86269 204.686608 
L 89.448391 208.384575 
L 90.162791 212.059849 
L 91.005022 215.707952 
L 91.974057 219.324439 
L 93.068715 222.904905 
L 94.287663 226.444986 
L 95.629415 229.94037 
L 97.092337 233.386798 
L 98.674647 236.780072 
L 100.374416 240.116056 
L 102.189573 243.390687 
L 104.117908 246.599976 
L 106.157071 249.740011 
L 108.304578 252.806968 
L 110.557811 255.79711 
L 112.914026 258.706793 
L 115.370353 261.532474 
L 117.923798 264.270708 
L 120.57125 266.91816 
L 123.309484 269.471605 
L 126.135164 271.927932 
L 129.044848 274.284147 
L 132.03499 276.53738 
L 135.101947 278.684887 
L 138.241982 280.724049 
L 141.45127 282.652384 
L 144.725902 284.467542 
L 148.061886 286.167311 
L 151.45516 287.749621 
L 154.901588 289.212543 
L 158.396972 290.554295 
L 161.937053 291.773243 
L 165.517518 292.867901 
L 169.134006 293.836935 
L 172.782109 294.679166 
L 176.457383 295.393567 
L 180.15535 295.979268 
L 183.871505 296.435554 
L 187.601321 296.761871 
L 191.340253 296.95782 
L 195.083746 297.023163 
L 198.827239 296.95782 
L 202.566171 296.761871 
L 206.295986 296.435554 
L 210.012142 295.979268 
L 213.710109 295.393567 
L 217.385383 294.679166 
L 221.033486 293.836935 
L 224.649973 292.867901 
L 228.230439 291.773243 
L 231.77052 290.554295 
L 235.265904 289.212543 
L 238.712332 287.749621 
L 242.105606 286.167311 
L 245.44159 284.467542 
L 248.716221 282.652384 
L 251.92551 280.724049 
L 255.065545 278.684887 
L 258.132502 276.53738 
L 261.122644 274.284147 
L 264.032327 271.927932 
L 266.858008 269.471605 
L 269.596242 266.91816 
L 272.243694 264.270708 
L 274.797139 261.532474 
L 277.253466 258.706793 
L 279.609681 255.79711 
L 281.862914 252.806968 
L 284.010421 249.740011 
L 286.049583 246.599976 
L 287.977918 243.390687 
L 289.793076 240.116056 
L 291.492845 236.780072 
L 293.075155 233.386798 
L 294.538077 229.94037 
L 295.879829 226.444986 
L 297.098777 222.904905 
L 298.193435 219.324439 
L 299.162469 215.707952 
L 300.0047 212.059849 
L 300.719101 208.384575 
L 301.304802 204.686608 
L 301.761088 200.970452 
L 302.087405 197.240637 
L 302.283354 193.501705 
L 302.348697 189.758212 
L 302.348697 189.758212 
" style="fill:none;stroke:#000000;stroke-dasharray:1.000000,3.000000;stroke-dashoffset:0.0;stroke-width:0.5;"/>
     </g>
     <g id="text_7">
      <!-- -5dB -->
      <g transform="translate(294.183638722 146.438257194)scale(0.12 -0.12)">
       <use transform="scale(0.9962640099626402)" xlink:href="#Century_Schoolbook_L_Roman-45"/>
       <use transform="translate(33.17522972933531 0.0)scale(0.9962640099626402)" xlink:href="#Century_Schoolbook_L_Roman-53"/>
       <use transform="translate(88.56690669267591 0.0)scale(0.9962640099626402)" xlink:href="#Century_Schoolbook_L_Roman-100"/>
       <use transform="translate(145.752393976689 0.0)scale(0.9962640099626402)" xlink:href="#Century_Schoolbook_L_Roman-66"/>
      </g>
     </g>
    </g>
   </g>
   <g id="legend_1">
    <g id="patch_4">
     <path d="M 298.940325 74.715984 
L 355.981172 74.715984 
L 355.981172 28.860785 
L 298.940325 28.860785 
z
" style="fill:#ffffff;stroke:#000000;stroke-linejoin:miter;"/>
    </g>
    <g id="line2d_11">
     <path d="M 305.940325 36.752987 
L 319.940325 36.752987 
" style="fill:none;stroke:#0000ff;stroke-linecap:square;"/>
    </g>
    <g id="line2d_12"/>
    <g id="text_8">
     <!-- 25th %ile -->
     <defs>
      <path d="M 19.40625 47 
L 19.40625 67 
L 15.296875 67 
C 14.296875 53.875 9.90625 47.1875 1.796875 46.59375 
L 1.796875 42.703125 
L 10 42.703125 
L 10 17.265625 
C 10 10.28125 10.203125 7.78125 11.203125 5.484375 
C 12.796875 1.296875 16.796875 -1 22.59375 -1 
C 26.5 -1 29.90625 0.203125 32.203125 2.390625 
C 35.5 5.59375 37.40625 10.875 37.40625 16.375 
C 37.40625 16.96875 37.40625 17.671875 37.296875 18.671875 
L 33.09375 18.671875 
C 32.796875 9.6875 30.203125 5.09375 25.296875 5.09375 
C 23 5.09375 21 6.28125 20.296875 7.984375 
C 19.703125 9.375 19.40625 11.875 19.40625 15.46875 
L 19.40625 42.703125 
L 34.09375 42.703125 
L 34.09375 47 
z
" id="Century_Schoolbook_L_Roman-116"/>
      <path d="M 50.5 21.5625 
L 46.09375 21.5625 
L 45.09375 16.46875 
C 43.796875 10.078125 43 9.375 36.796875 9.375 
L 14.40625 9.375 
C 21.296875 16.5625 23.59375 18.65625 30 23.65625 
C 39.09375 30.65625 43 34.15625 45.296875 37.140625 
C 48.5 41.53125 50.09375 46.03125 50.09375 50.8125 
C 50.09375 62.109375 40.59375 70.296875 27.59375 70.296875 
C 14.90625 70.296875 5.09375 62.109375 5.09375 51.515625 
C 5.09375 45.234375 8.296875 40.9375 13.09375 40.9375 
C 16.796875 40.9375 19.296875 43.4375 19.296875 47.03125 
C 19.296875 49.53125 17.90625 51.828125 15.703125 52.734375 
C 12 54.328125 11.796875 54.421875 11.796875 55.71875 
C 11.796875 57.21875 12.796875 59.515625 14.203125 61.21875 
C 16.703125 64.203125 20.90625 66 25.59375 66 
C 33.796875 66 38.796875 60.90625 38.796875 52.53125 
C 38.796875 45.125 35.296875 38.4375 27 29.65625 
L 21.09375 23.46875 
C 17.59375 19.78125 15 16.96875 13.296875 15.078125 
C 9.703125 10.875 7.90625 8.578125 3.5 2.796875 
L 3.5 0 
L 48.59375 0 
z
" id="Century_Schoolbook_L_Roman-50"/>
      <path d="M 20 73 
L 1.5 73 
L 1.5 68.21875 
L 6.296875 68.21875 
C 10 68.21875 10.59375 67.515625 10.59375 63.21875 
L 10.59375 12.28125 
L 10.59375 8.28125 
C 10.59375 4.296875 9.5 3.59375 3.09375 3.59375 
L 2.703125 3.59375 
L 2.703125 0 
L 28 0 
L 28 3.59375 
L 27.59375 3.59375 
C 21.09375 3.59375 20 4.296875 20 8.28125 
L 20 12.28125 
L 20 22.5625 
C 20 27.546875 20.703125 32.03125 21.796875 34.328125 
C 23.90625 38.828125 28.40625 41.921875 32.703125 41.921875 
C 35.296875 41.921875 38.296875 40.421875 39.796875 38.421875 
C 41.296875 36.234375 42 33.234375 42 28.34375 
L 42 12.28125 
L 42 8.28125 
C 42 4.296875 40.90625 3.59375 34.40625 3.59375 
L 34 3.59375 
L 34 0 
L 59.296875 0 
L 59.296875 3.59375 
L 58.90625 3.59375 
C 52.5 3.59375 51.40625 4.296875 51.40625 8.28125 
L 51.40625 12.28125 
L 51.40625 27.953125 
C 51.40625 35.125 51.09375 36.921875 49.296875 40.328125 
C 46.796875 45.109375 41.796875 48 35.796875 48 
C 29.40625 48 24.5 45.015625 20 38.328125 
z
" id="Century_Schoolbook_L_Roman-104"/>
     </defs>
     <g transform="translate(330.940324637 40.2529865636)scale(0.1 -0.1)">
      <use transform="scale(0.9962640099626402)" xlink:href="#Century_Schoolbook_L_Roman-50"/>
      <use transform="translate(55.3916769633406 0.0)scale(0.9962640099626402)" xlink:href="#Century_Schoolbook_L_Roman-53"/>
      <use transform="translate(110.7833539266812 0.0)scale(0.9962640099626402)" xlink:href="#Century_Schoolbook_L_Roman-116"/>
      <use transform="translate(149.5370601212251 0.0)scale(0.9962640099626402)" xlink:href="#Century_Schoolbook_L_Roman-104"/>
     </g>
    </g>
    <g id="line2d_13">
     <path d="M 305.940325 51.038053 
L 319.940325 51.038053 
" style="fill:none;stroke:#008000;stroke-linecap:square;"/>
    </g>
    <g id="line2d_14"/>
    <g id="text_9">
     <!-- 50th %ile -->
     <g transform="translate(330.940324637 54.538052819)scale(0.1 -0.1)">
      <use transform="scale(0.9962640099626402)" xlink:href="#Century_Schoolbook_L_Roman-53"/>
      <use transform="translate(55.3916769633406 0.0)scale(0.9962640099626402)" xlink:href="#Century_Schoolbook_L_Roman-48"/>
      <use transform="translate(110.7833539266812 0.0)scale(0.9962640099626402)" xlink:href="#Century_Schoolbook_L_Roman-116"/>
      <use transform="translate(149.5370601212251 0.0)scale(0.9962640099626402)" xlink:href="#Century_Schoolbook_L_Roman-104"/>
     </g>
    </g>
    <g id="line2d_15">
     <path d="M 305.940325 65.323119 
L 319.940325 65.323119 
" style="fill:none;stroke:#ff0000;stroke-linecap:square;"/>
    </g>
    <g id="line2d_16"/>
    <g id="text_10">
     <!-- 75th %ile -->
     <defs>
      <path d="M 5.90625 46.171875 
L 10.296875 45.484375 
L 12.09375 53.40625 
C 13.59375 60.015625 14.296875 61 17.203125 61 
C 17.703125 61 18.59375 61 19.40625 60.609375 
C 25.203125 60.609375 32.40625 60.609375 36.5 60.609375 
C 37.90625 60.609375 40 60.609375 42.703125 60.609375 
L 35.90625 46.84375 
C 28.40625 31.859375 27.59375 30.15625 25.09375 24.03125 
C 22.09375 16.484375 20.40625 10.15625 20.40625 5.921875 
C 20.40625 1.40625 22.796875 -1.5 26.703125 -1.5 
C 31.5 -1.5 33.40625 1.796875 33.296875 10.421875 
C 32.796875 24.734375 34.703125 31.84375 45.296875 55.265625 
C 46.796875 58.484375 48.296875 61.59375 49.796875 64.6875 
C 49.90625 64.890625 50.203125 65.796875 50.796875 67.09375 
L 50.796875 69.984375 
C 44.59375 69.890625 41.296875 69.890625 35.203125 69.890625 
C 26.703125 69.890625 19.90625 69.890625 9 69.890625 
z
" id="Century_Schoolbook_L_Roman-55"/>
     </defs>
     <g transform="translate(330.940324637 68.8231190745)scale(0.1 -0.1)">
      <use transform="scale(0.9962640099626402)" xlink:href="#Century_Schoolbook_L_Roman-55"/>
      <use transform="translate(55.3916769633406 0.0)scale(0.9962640099626402)" xlink:href="#Century_Schoolbook_L_Roman-53"/>
      <use transform="translate(110.7833539266812 0.0)scale(0.9962640099626402)" xlink:href="#Century_Schoolbook_L_Roman-116"/>
      <use transform="translate(149.5370601212251 0.0)scale(0.9962640099626402)" xlink:href="#Century_Schoolbook_L_Roman-104"/>
     </g>
    </g>
   </g>
  </g>
 </g>
 <defs>
  <clipPath id="peb910f3dbb">
   <path d="M 195.083746 350.655638 
C 237.754242 350.655638 278.68281 333.702471 308.855407 303.529873 
C 339.028005 273.357276 355.981172 232.428708 355.981172 189.758212 
C 355.981172 147.087716 339.028005 106.159148 308.855407 75.986551 
C 278.68281 45.813953 237.754242 28.860785 195.083746 28.860785 
C 152.41325 28.860785 111.484682 45.813953 81.312085 75.986551 
C 51.139487 106.159148 34.186319 147.087716 34.186319 189.758212 
C 34.186319 232.428708 51.139487 273.357276 81.312085 303.529873 
C 111.484682 333.702471 152.41325 350.655638 195.083746 350.655638 
z
"/>
  </clipPath>
 </defs>
</svg>
