<?xml version="1.0" encoding="utf-8" standalone="no"?>
<!DOCTYPE svg PUBLIC "-//W3C//DTD SVG 1.1//EN"
  "http://www.w3.org/Graphics/SVG/1.1/DTD/svg11.dtd">
<!-- Created with matplotlib (http://matplotlib.org/) -->
<svg height="379pt" version="1.1" viewBox="0 0 384 379" width="384pt" xmlns="http://www.w3.org/2000/svg" xmlns:xlink="http://www.w3.org/1999/xlink">
 <defs>
  <style type="text/css">
*{stroke-linecap:butt;stroke-linejoin:round;stroke-miterlimit:100000;}
  </style>
 </defs>
 <g id="figure_1">
  <g id="patch_1">
   <path d="M 0 379.516424 
L 384.314502 379.516424 
L 384.314502 0 
L 0 0 
z
" style="fill:#ffffff;"/>
  </g>
  <g id="axes_1">
   <g id="patch_2">
    <path d="M 195.083746 350.655638 
C 237.754242 350.655638 278.68281 333.702471 308.855407 303.529873 
C 339.028005 273.357276 355.981172 232.428708 355.981172 189.758212 
C 355.981172 147.087716 339.028005 106.159148 308.855407 75.986551 
C 278.68281 45.813953 237.754242 28.860785 195.083746 28.860785 
C 152.41325 28.860785 111.484682 45.813953 81.312085 75.986551 
C 51.139487 106.159148 34.186319 147.087716 34.186319 189.758212 
C 34.186319 232.428708 51.139487 273.357276 81.312085 303.529873 
C 111.484682 333.702471 152.41325 350.655638 195.083746 350.655638 
z
" style="fill:#ffffff;"/>
   </g>
   <g id="line2d_1">
    <path clip-path="url(#p89fde0a7b0)" d="M 275.651621 189.758212 
L 271.581254 188.819399 
L 260.730692 188.14667 
L 246.411492 187.867699 
L 233.245198 187.88346 
L 227.52619 187.765067 
L 228.740294 187.275556 
L 228.358923 186.892725 
L 228.506785 186.46633 
L 227.293636 186.186202 
L 227.431085 185.364917 
L 225.713531 185.214713 
L 225.22012 184.909228 
L 226.617251 184.28663 
L 225.090423 184.171407 
L 224.495274 183.907895 
L 226.110641 183.189768 
L 226.094882 182.794429 
L 225.864887 182.448169 
L 225.238229 182.204907 
L 224.816986 181.921432 
L 224.822026 181.528522 
L 226.1866 180.738551 
L 223.405617 181.166866 
L 223.745813 180.289544 
L 224.303588 179.705926 
L 224.168384 179.351562 
L 225.947228 178.285934 
L 222.842542 178.657242 
L 223.02842 178.183148 
L 224.839238 177.003071 
L 224.94073 176.082708 
L 223.855424 176.150222 
L 224.185418 175.554553 
L 223.216766 175.597239 
L 221.818049 175.887514 
L 221.747753 175.506003 
L 220.823433 175.591241 
L 220.934899 175.113716 
L 219.57694 175.483153 
L 222.714526 172.732624 
L 221.326014 173.140479 
L 219.594959 173.811918 
L 219.670093 173.33014 
L 220.295412 172.461067 
L 219.599058 172.492581 
L 220.905225 171.094467 
L 220.21142 171.122258 
L 217.686628 172.118751 
L 217.381238 171.912515 
L 219.390896 169.80985 
L 216.730025 171.544472 
L 219.056299 169.079346 
L 219.600221 168.079782 
L 216.42199 170.418355 
L 215.270824 171.005377 
L 217.149853 168.749531 
L 215.624991 169.715039 
L 214.960323 169.881634 
L 216.07698 168.243299 
L 215.126959 168.706168 
L 215.448042 167.836427 
L 216.213859 166.444726 
L 214.011979 168.351975 
L 214.62008 167.110172 
L 214.290558 166.931706 
L 213.575718 167.225679 
L 212.249872 168.309817 
L 212.930277 166.889995 
L 212.746284 166.543938 
L 211.785306 167.238765 
L 213.150875 164.104862 
L 212.559508 164.286202 
L 211.561269 165.097858 
L 210.901711 165.444252 
L 211.463943 163.891055 
L 211.243372 163.532797 
L 211.66988 162.085923 
L 210.555587 163.211576 
L 209.889728 163.621998 
L 209.625212 162.553045 
L 208.941013 163.049796 
L 208.812379 162.484099 
L 208.317262 162.644256 
L 208.545461 161.295808 
L 207.895938 161.786048 
L 207.837287 160.98668 
L 207.498943 160.795753 
L 205.86438 163.73146 
L 206.091883 162.23155 
L 205.869442 161.797349 
L 205.270796 162.352337 
L 205.645187 160.240961 
L 204.458819 162.506879 
L 204.487818 161.291681 
L 202.817317 164.264041 
L 203.206937 161.746694 
L 202.657662 162.389596 
L 202.387764 162.046301 
L 202.655716 159.52922 
L 202.119328 160.132772 
L 201.944713 159.204938 
L 202.00269 157.075679 
L 201.124867 159.387452 
L 200.629679 159.97106 
L 200.204208 160.248258 
L 199.830034 157.76134 
L 199.384801 158.090022 
L 198.743322 160.087137 
L 198.50557 158.902602 
L 198.12237 158.906539 
L 197.622544 160.276666 
L 197.203608 161.019961 
L 196.876438 160.578556 
L 196.588465 159.128941 
L 196.243623 158.267296 
L 195.796329 160.730821 
L 195.458114 159.253429 
L 195.083745 158.653182 
L 194.689888 157.665263 
L 194.351151 159.915599 
L 193.544131 158.418598 
L 193.161509 158.469938 
L 192.762123 158.284746 
L 192.317142 157.631318 
L 192.022953 158.681447 
L 191.681702 159.080953 
L 191.114572 157.577006 
L 190.577574 156.579763 
L 190.235843 157.076301 
L 190.091236 158.729825 
L 190.159246 161.377629 
L 189.74429 161.08004 
L 188.893346 158.63697 
L 189.06081 161.308101 
L 188.609133 160.925447 
L 187.829472 159.211899 
L 187.354454 158.901153 
L 187.151335 159.662151 
L 187.19492 161.251656 
L 186.822737 161.271449 
L 186.212147 160.512474 
L 185.825549 160.533967 
L 186.608632 165.122873 
L 183.930478 159.752951 
L 183.638402 160.087274 
L 184.074744 162.229394 
L 182.872528 160.27772 
L 182.193815 159.688278 
L 181.34307 158.759747 
L 180.927503 158.851654 
L 180.919995 159.811476 
L 182.115027 163.186792 
L 180.948179 161.675668 
L 182.115568 165.496451 
L 181.784638 165.595323 
L 181.79446 166.29934 
L 179.490037 163.741682 
L 178.646691 163.082563 
L 178.833113 164.095664 
L 177.543264 162.796549 
L 177.784815 163.868527 
L 176.980274 163.371274 
L 176.442512 163.289694 
L 176.472846 164.009847 
L 176.78023 165.078781 
L 176.184573 164.918605 
L 177.067918 166.673057 
L 174.50734 164.048803 
L 174.061234 164.773822 
L 174.320117 165.687398 
L 174.911372 166.944961 
L 176.224637 168.950396 
L 174.468757 167.566557 
L 174.170978 167.792842 
L 174.076867 168.229313 
L 173.882468 168.556934 
L 172.397808 167.62235 
L 172.019708 167.799426 
L 171.963225 168.280352 
L 171.717075 168.579892 
L 172.008097 169.353816 
L 172.245748 170.54173 
L 170.279803 169.402144 
L 170.636966 170.192346 
L 171.958941 171.711441 
L 172.530535 172.59864 
L 171.016898 171.909019 
L 169.960207 171.598936 
L 171.167268 172.914328 
L 171.027284 173.253627 
L 167.650511 171.91093 
L 168.507459 172.928961 
L 168.152652 173.163757 
L 169.270937 174.286609 
L 168.191069 174.084693 
L 168.107725 174.476487 
L 167.408369 174.525852 
L 168.191409 175.383955 
L 167.503091 175.448393 
L 167.228073 175.736843 
L 168.612838 177.238406 
L 167.865338 177.291266 
L 166.434845 177.059031 
L 166.378727 177.453368 
L 165.567822 177.532313 
L 167.676544 179.186087 
L 169.596491 180.284335 
L 166.019513 179.358865 
L 163.317196 178.829805 
L 161.574941 178.688394 
L 164.758917 180.559275 
L 165.3296 181.12967 
L 166.420745 181.826092 
L 165.998124 182.092127 
L 166.114317 182.501751 
L 166.005188 182.852504 
L 163.103096 182.576715 
L 164.854884 183.358712 
L 164.017181 183.578688 
L 164.126264 183.994382 
L 164.833352 184.509273 
L 168.277206 185.445006 
L 165.266914 185.708599 
L 162.54844 185.745364 
L 163.824703 186.29165 
L 162.994517 186.5977 
L 165.445566 187.205927 
L 165.901958 187.605637 
L 164.031317 187.850461 
L 142.631803 187.826292 
L 127.556712 188.100518 
L 117.623697 188.80759 
L 114.515874 189.758219 
L 118.586159 190.697017 
L 129.436729 191.36975 
L 143.756013 191.648722 
L 156.922315 191.632962 
L 162.641243 191.751362 
L 161.427076 192.240879 
L 161.808701 192.623691 
L 161.660711 193.05009 
L 162.873706 193.330236 
L 162.736407 194.151507 
L 164.453947 194.301714 
L 164.947304 194.607209 
L 163.550215 195.229802 
L 165.077086 195.345011 
L 165.672022 195.608565 
L 164.056854 196.326654 
L 164.07261 196.721995 
L 164.302583 197.068261 
L 164.929299 197.31151 
L 165.350519 197.594992 
L 165.345418 197.987912 
L 163.980804 198.777896 
L 166.761906 198.349547 
L 166.421718 199.226868 
L 165.864025 199.810459 
L 165.999236 200.16482 
L 164.220308 201.23047 
L 167.32495 200.859181 
L 167.139107 201.333261 
L 165.328245 202.513359 
L 165.226868 203.433672 
L 166.312082 203.366192 
L 165.982026 203.961892 
L 166.950755 203.919169 
L 168.349443 203.628911 
L 168.419673 204.010458 
L 169.344116 203.925154 
L 169.232829 204.40258 
L 170.590498 204.033299 
L 167.453026 206.783761 
L 168.841478 206.375946 
L 170.572328 205.70464 
L 170.497528 206.1862 
L 169.872151 207.055305 
L 170.568473 207.023812 
L 169.262266 208.421956 
L 169.956071 208.394165 
L 172.480911 207.397639 
L 172.78628 207.603891 
L 170.776625 209.706546 
L 173.437473 207.971943 
L 171.111448 210.436857 
L 170.56727 211.436641 
L 173.745503 209.098069 
L 174.896711 208.511011 
L 173.0176 210.766933 
L 174.54259 209.801295 
L 175.207156 209.634799 
L 174.090485 211.273152 
L 175.040525 210.810265 
L 174.71945 211.679998 
L 173.953737 213.071587 
L 176.155515 211.16445 
L 175.547382 212.406282 
L 175.876907 212.584746 
L 176.591792 212.290721 
L 177.917621 211.206607 
L 177.237257 212.626376 
L 177.421255 212.972429 
L 178.382039 212.277862 
L 177.016745 215.411392 
L 177.607866 215.230405 
L 178.606091 214.418754 
L 179.265491 214.072606 
L 178.703535 215.625383 
L 178.924084 215.983677 
L 178.497655 217.430427 
L 179.611904 216.304847 
L 180.277763 215.894426 
L 180.542233 216.963472 
L 181.226469 216.466653 
L 181.355139 217.032277 
L 181.850229 216.872183 
L 181.62231 218.220042 
L 182.271569 217.730357 
L 182.330302 218.529503 
L 182.668508 218.720755 
L 184.30322 215.784692 
L 184.075733 217.284553 
L 184.298079 217.718996 
L 184.896719 217.164022 
L 184.522304 219.275463 
L 185.708688 217.009499 
L 185.679633 218.224874 
L 187.350196 215.252323 
L 186.960525 217.769853 
L 187.509833 217.126837 
L 187.779677 217.470341 
L 187.511771 219.987202 
L 188.048118 219.383827 
L 188.222726 220.311701 
L 188.164797 222.440746 
L 189.042615 220.129019 
L 189.537809 219.54538 
L 189.96328 219.268186 
L 190.337497 221.754837 
L 190.782712 221.426267 
L 191.42418 219.429221 
L 191.661908 220.614011 
L 192.045179 220.609364 
L 192.544957 219.239562 
L 192.963858 218.496757 
L 193.291065 218.937622 
L 193.579019 220.387558 
L 193.923863 221.249156 
L 194.37116 218.78568 
L 194.709377 220.262928 
L 195.083746 220.8632 
L 195.477607 221.85113 
L 195.816335 219.600498 
L 196.623383 221.098151 
L 197.005975 221.046248 
L 197.40539 221.231872 
L 197.850304 221.884666 
L 198.144548 220.835115 
L 198.485801 220.43561 
L 199.05286 221.938968 
L 199.589917 222.936663 
L 199.931661 222.44021 
L 200.076266 220.786667 
L 200.008254 218.138846 
L 200.423199 218.436354 
L 201.274123 220.879326 
L 201.1067 218.208394 
L 201.558389 218.591084 
L 202.337939 220.304155 
L 202.813075 220.615392 
L 203.016089 219.854051 
L 202.972539 218.264668 
L 203.344736 218.244928 
L 203.955323 219.003894 
L 204.341948 218.982477 
L 203.558857 214.393543 
L 206.237001 219.763432 
L 206.529189 219.429398 
L 206.092702 217.286908 
L 207.294916 219.238571 
L 207.973657 219.828081 
L 208.824387 220.756622 
L 209.240111 220.66505 
L 209.247514 219.704997 
L 208.052353 216.329411 
L 209.219313 217.840768 
L 208.051975 214.020064 
L 208.382914 213.921205 
L 208.373064 213.217137 
L 210.677404 215.774652 
L 211.520894 216.434006 
L 211.334324 215.420668 
L 212.623935 216.719406 
L 212.382563 215.647734 
L 213.187119 216.145015 
L 213.72511 216.226924 
L 213.694889 215.506921 
L 213.387183 214.437545 
L 213.982684 214.597518 
L 213.099538 212.843317 
L 215.660159 215.467626 
L 216.106236 214.742571 
L 215.847424 213.829079 
L 215.256094 212.571429 
L 213.94281 210.565974 
L 215.698475 211.949573 
L 215.996324 211.723389 
L 216.090658 211.287152 
L 216.284845 210.959317 
L 217.770004 211.894393 
L 218.147982 211.717194 
L 218.204324 211.236132 
L 218.450277 210.936402 
L 218.159423 210.162629 
L 217.921745 208.974692 
L 219.887779 210.11435 
L 219.530556 209.324098 
L 218.208496 207.804936 
L 217.636789 206.917645 
L 219.150375 207.607248 
L 220.207551 207.917686 
L 219.000314 206.602165 
L 219.140381 206.262921 
L 222.516978 207.605489 
L 221.66005 206.587471 
L 222.014756 206.352612 
L 220.896329 205.229677 
L 221.976235 205.431618 
L 222.059824 205.039966 
L 222.75921 204.990616 
L 221.976273 204.13256 
L 222.664138 204.067899 
L 222.939745 203.77975 
L 221.554552 202.277975 
L 222.302035 202.225108 
L 223.732441 202.457307 
L 223.78864 202.062999 
L 224.599855 201.984184 
L 222.490908 200.330318 
L 220.571016 199.232092 
L 224.147851 200.15751 
L 226.85033 200.686628 
L 228.592693 200.828065 
L 225.408778 198.957216 
L 224.837793 198.386731 
L 223.746926 197.690386 
L 224.169137 197.424241 
L 224.053096 197.014658 
L 224.162241 196.663903 
L 227.064359 196.939698 
L 225.312478 196.157682 
L 226.150271 195.937725 
L 226.041353 195.522062 
L 225.334005 195.007125 
L 221.890474 194.071446 
L 224.900285 193.80779 
L 227.619075 193.771068 
L 226.342755 193.224775 
L 227.173157 192.918746 
L 224.721955 192.310504 
L 224.265468 191.910786 
L 226.136058 191.665953 
L 247.535698 191.690128 
L 262.610884 191.415903 
L 272.543898 190.708828 
L 272.543898 190.708828 
" style="fill:none;stroke:#0000ff;stroke-linecap:square;"/>
   </g>
   <g id="line2d_2">
    <path clip-path="url(#p89fde0a7b0)" d="M 285.459803 189.758212 
L 282.542242 188.684881 
L 275.845469 187.775623 
L 264.925064 187.185804 
L 247.994745 186.507553 
L 247.831402 185.867311 
L 247.977313 185.20329 
L 249.404252 184.408109 
L 247.260139 183.971959 
L 246.953881 183.360641 
L 247.411422 182.651262 
L 244.105354 181.870568 
L 243.695844 181.323213 
L 243.649347 180.716006 
L 245.854582 179.009944 
L 246.195352 178.280717 
L 245.486686 177.788297 
L 244.587698 177.358118 
L 246.503045 176.205645 
L 245.463216 175.148437 
L 244.576261 174.744822 
L 242.873315 174.618547 
L 243.107435 173.893328 
L 243.526496 173.092812 
L 244.420509 172.105236 
L 244.350286 171.445326 
L 243.968872 170.901138 
L 243.07773 170.565024 
L 242.718318 170.027325 
L 242.299431 168.828939 
L 243.364244 167.644118 
L 242.669183 167.251976 
L 240.927563 167.38321 
L 240.875211 166.708725 
L 239.652535 166.634355 
L 238.215612 166.70375 
L 238.533578 165.843683 
L 238.571087 165.122939 
L 237.501878 165.036188 
L 238.773241 163.571737 
L 238.831586 162.801583 
L 238.426405 162.311776 
L 237.807527 161.963342 
L 236.737312 161.926189 
L 236.89764 161.070659 
L 237.623888 159.01023 
L 236.632545 158.943521 
L 235.055219 159.345991 
L 234.99241 158.613187 
L 233.564514 158.960304 
L 234.922834 156.236571 
L 232.984495 156.244882 
L 232.096167 156.212108 
L 230.851072 156.532067 
L 231.274198 155.302037 
L 231.422297 154.300775 
L 230.243363 154.598593 
L 228.942035 155.058549 
L 229.074044 154.057088 
L 229.644631 152.554064 
L 229.339468 151.962848 
L 229.157644 151.223505 
L 227.961171 151.64414 
L 228.638626 149.879617 
L 227.487674 150.273911 
L 225.064223 151.34178 
L 225.408307 149.901954 
L 224.973607 149.456398 
L 224.004903 149.745502 
L 224.791083 147.577037 
L 224.460333 146.940008 
L 223.222834 147.645092 
L 222.523869 147.579712 
L 222.345377 145.515381 
L 221.486478 145.707921 
L 221.531534 144.379011 
L 220.43952 144.99901 
L 219.74616 144.949558 
L 219.368059 144.325462 
L 218.639977 144.35607 
L 217.847305 144.534783 
L 217.389554 144.05617 
L 216.747342 143.954388 
L 216.451822 143.106452 
L 216.037456 142.487393 
L 215.040552 143.202512 
L 214.668312 142.476886 
L 214.109333 142.18332 
L 213.37373 142.343217 
L 213.195942 141.031584 
L 212.278564 141.70191 
L 211.730564 141.369468 
L 210.887506 141.919552 
L 210.434748 141.301539 
L 209.770528 141.342373 
L 208.715639 142.750821 
L 208.201954 142.355099 
L 207.849749 141.323183 
L 207.295334 141.006831 
L 206.784414 140.48902 
L 206.131671 140.559565 
L 205.562809 140.25899 
L 205.154566 139.128791 
L 204.610985 138.587502 
L 203.961998 138.591574 
L 203.194867 139.347713 
L 202.659217 138.688542 
L 201.402091 138.530404 
L 200.152991 138.289299 
L 199.450005 139.055445 
L 198.736455 140.239672 
L 198.221121 138.691143 
L 197.597397 138.591635 
L 196.960976 138.79101 
L 196.365913 137.528553 
L 195.083744 137.661103 
L 194.454865 138.514798 
L 193.805426 137.685204 
L 193.191505 138.383581 
L 192.55251 138.233654 
L 191.981864 139.26883 
L 191.403754 139.869784 
L 190.807842 140.10474 
L 189.463685 139.080426 
L 188.699625 137.997142 
L 187.465338 138.399074 
L 187.107229 140.18426 
L 186.613147 140.940966 
L 185.708091 139.401651 
L 185.101549 139.574318 
L 184.323733 138.931907 
L 183.624055 138.725881 
L 183.256673 139.956747 
L 181.929464 139.850046 
L 181.379105 140.235997 
L 180.754158 140.344927 
L 179.792008 139.348115 
L 179.7397 141.323492 
L 179.468864 142.491289 
L 178.995399 142.992838 
L 177.999197 142.010089 
L 177.139506 141.483427 
L 176.713405 142.134897 
L 175.446551 142.349825 
L 174.668541 142.133145 
L 173.762812 141.658961 
L 172.612251 142.246225 
L 172.430015 143.343312 
L 172.070896 144.039538 
L 171.389014 144.089135 
L 171.502703 145.641171 
L 171.021095 146.039252 
L 170.275908 145.96625 
L 169.864677 146.487248 
L 169.28541 146.716292 
L 167.792883 146.661239 
L 167.924472 148.011399 
L 165.592739 146.773232 
L 165.59173 147.882767 
L 164.69806 147.719314 
L 165.061568 150.29939 
L 163.402958 149.163025 
L 163.070378 149.758769 
L 162.202692 149.692528 
L 161.736952 150.126921 
L 161.38873 150.696327 
L 161.575385 151.863086 
L 160.657053 151.774218 
L 160.609296 152.647103 
L 159.5331 152.418196 
L 159.048225 152.82721 
L 158.596182 155.019169 
L 157.313978 154.671901 
L 157.961675 156.112722 
L 157.715601 156.715829 
L 156.976666 156.886817 
L 155.632745 156.563119 
L 154.698491 156.614893 
L 154.505295 157.281439 
L 155.672123 159.001087 
L 155.806413 159.87412 
L 154.760079 159.852139 
L 154.654492 160.535976 
L 154.113939 160.90402 
L 154.111006 161.647758 
L 151.786477 161.590242 
L 151.41159 162.103119 
L 151.717012 163.036411 
L 150.589033 163.089107 
L 151.205831 164.185402 
L 150.743747 164.639916 
L 150.847335 165.410759 
L 150.391598 165.869755 
L 149.657375 166.189406 
L 149.725709 166.926892 
L 148.639815 167.090312 
L 148.847854 167.890265 
L 149.296968 168.786329 
L 148.052931 168.910891 
L 148.086969 169.612327 
L 149.228325 170.764271 
L 149.389726 171.484797 
L 148.631969 171.839784 
L 146.909983 171.851524 
L 146.864206 172.504988 
L 145.088031 172.558562 
L 145.709092 174.116391 
L 146.373851 174.982225 
L 146.718254 175.732479 
L 146.652499 176.355483 
L 147.339363 177.174245 
L 147.555138 177.852921 
L 144.239104 177.683395 
L 144.141109 178.318657 
L 143.383997 178.81329 
L 143.521998 179.501943 
L 144.331586 180.308903 
L 145.465878 181.148699 
L 146.149327 181.884603 
L 145.463824 182.397787 
L 145.103894 182.970131 
L 144.483383 183.517251 
L 143.074066 183.990448 
L 146.889684 186.20321 
L 144.902038 186.675226 
L 135.829446 186.847232 
L 124.792085 187.169216 
L 114.169346 187.771876 
L 106.878831 188.675725 
L 104.707673 189.75822 
L 107.625225 190.831533 
L 114.321908 191.740797 
L 125.242359 192.330619 
L 142.172743 193.008872 
L 142.336046 193.649119 
L 142.190293 194.313129 
L 140.76327 195.108306 
L 142.907362 195.54446 
L 143.21359 196.155783 
L 142.75607 196.865162 
L 146.062122 197.645861 
L 146.471703 198.193206 
L 146.518174 198.800407 
L 144.312925 200.506475 
L 143.972139 201.235707 
L 144.68079 201.728132 
L 145.579737 202.158324 
L 143.664571 203.310752 
L 144.704263 204.367988 
L 145.591195 204.771611 
L 147.294177 204.897877 
L 147.060031 205.623106 
L 146.640866 206.423662 
L 145.746966 207.4112 
L 145.817158 208.071111 
L 146.198606 208.615288 
L 147.089762 208.951398 
L 147.449164 209.489102 
L 147.868027 210.687505 
L 146.803349 211.872267 
L 147.498298 212.264448 
L 149.239857 212.133246 
L 149.292304 212.807686 
L 150.514957 212.882071 
L 151.951835 212.812701 
L 151.633891 213.672759 
L 151.596459 214.393462 
L 152.665582 214.48025 
L 151.394216 215.944705 
L 151.3359 216.714843 
L 151.741088 217.204649 
L 152.359903 217.553124 
L 153.430162 217.590252 
L 153.269877 218.445742 
L 152.543603 220.506193 
L 153.534946 220.572901 
L 155.112233 220.170465 
L 155.175034 220.90328 
L 156.603022 220.55609 
L 155.24468 223.279828 
L 157.182996 223.271541 
L 158.071325 223.304316 
L 159.31647 222.984315 
L 158.893305 224.214383 
L 158.745231 225.215607 
L 159.924109 224.917844 
L 161.225487 224.457842 
L 161.093401 225.459388 
L 160.522862 226.962361 
L 160.828068 227.553533 
L 161.009852 228.292922 
L 162.206356 227.872236 
L 161.52893 229.636723 
L 162.679859 229.24246 
L 165.103289 228.174621 
L 164.759187 229.614475 
L 165.19381 230.060134 
L 166.162627 229.770881 
L 165.376448 231.939351 
L 165.707169 232.57642 
L 166.944611 231.871382 
L 167.643582 231.936755 
L 167.822173 234.000933 
L 168.681032 233.808471 
L 168.635957 235.137412 
L 169.727971 234.517413 
L 170.42137 234.566794 
L 170.799464 235.190914 
L 171.52749 235.160412 
L 172.320156 234.981712 
L 172.777914 235.460326 
L 173.420171 235.562016 
L 173.715658 236.410022 
L 174.13008 237.028896 
L 175.126886 236.314019 
L 175.499217 237.039428 
L 176.058117 237.333186 
L 176.793757 237.173213 
L 176.971569 238.484784 
L 177.888926 237.814513 
L 178.436933 238.146936 
L 179.280012 237.596808 
L 179.732731 238.214939 
L 180.396978 238.174022 
L 181.451835 236.7657 
L 181.96548 237.16157 
L 182.317778 238.19315 
L 182.872145 238.509611 
L 183.383097 239.027289 
L 184.035868 238.956616 
L 184.604669 239.25746 
L 185.012926 240.387625 
L 185.556507 240.928914 
L 186.205497 240.924824 
L 186.972644 240.168624 
L 187.508286 240.827842 
L 188.765387 240.986174 
L 190.014536 241.22688 
L 190.71748 240.46089 
L 191.431025 239.276812 
L 191.946373 240.825127 
L 192.570078 240.924971 
L 193.206504 240.725532 
L 193.801576 241.987898 
L 195.083747 241.855344 
L 195.712631 241.00163 
L 196.362069 241.83116 
L 196.975992 241.132845 
L 197.614999 241.282884 
L 198.185636 240.247548 
L 198.763745 239.646591 
L 199.359676 239.412141 
L 200.703781 240.435833 
L 201.467853 241.519237 
L 202.702156 241.11738 
L 203.060256 239.332129 
L 203.554342 238.575456 
L 204.459415 240.114825 
L 205.065951 239.94212 
L 205.843748 240.584442 
L 206.543476 240.790667 
L 206.91083 239.559677 
L 208.238026 239.666428 
L 208.788329 239.280246 
L 209.413356 239.171602 
L 210.375485 240.168341 
L 210.427795 238.192947 
L 210.69867 237.025268 
L 211.172091 236.523585 
L 212.168289 237.506307 
L 213.027982 238.032973 
L 213.454097 237.381542 
L 214.721016 237.166752 
L 215.499039 237.383459 
L 216.404618 237.85736 
L 217.555266 237.270269 
L 217.737503 236.173183 
L 218.096645 235.477002 
L 218.778469 235.427289 
L 218.664827 233.875314 
L 219.146437 233.477234 
L 219.891566 233.550134 
L 220.302814 233.029166 
L 220.882066 232.800098 
L 222.374602 232.855165 
L 222.243091 231.505103 
L 224.57467 232.743086 
L 224.575795 231.633718 
L 225.469268 231.796896 
L 225.1059 229.217015 
L 226.764641 230.353529 
L 227.097117 229.757651 
L 227.964889 229.823996 
L 228.430508 229.389457 
L 228.778737 228.820061 
L 228.592072 227.653291 
L 229.510497 227.742264 
L 229.558056 226.869147 
L 230.634529 227.098383 
L 231.119273 226.689231 
L 231.571308 224.497264 
L 232.853473 224.844496 
L 232.205825 223.403703 
L 232.451808 222.800515 
L 233.190795 222.629575 
L 234.53475 222.953301 
L 235.469095 222.901602 
L 235.662192 222.234975 
L 234.495361 220.515325 
L 234.360982 219.64221 
L 235.407234 219.664161 
L 235.512823 218.980329 
L 236.053625 218.612465 
L 236.056453 217.868653 
L 238.381017 217.926178 
L 238.755896 217.413296 
L 238.450482 216.480008 
L 239.578483 216.427327 
L 238.961799 215.331097 
L 239.423705 214.87648 
L 239.320129 214.105644 
L 239.775688 213.646541 
L 240.509978 213.326955 
L 240.441672 212.589484 
L 241.52774 212.426151 
L 241.319599 211.626149 
L 240.870495 210.73009 
L 242.114799 210.605647 
L 242.080508 209.904085 
L 240.939148 208.75214 
L 240.777709 208.0316 
L 241.535478 207.676618 
L 243.257557 207.664913 
L 243.303265 207.011423 
L 245.079448 206.957853 
L 244.458454 205.400058 
L 243.793829 204.534264 
L 243.449294 203.783969 
L 243.515056 203.160966 
L 242.828282 202.342227 
L 242.612298 201.663497 
L 245.928325 201.833009 
L 246.026387 201.197763 
L 246.783563 200.703144 
L 246.645514 200.01448 
L 245.835942 199.207523 
L 244.701648 198.367726 
L 244.018025 197.631794 
L 244.703386 197.118578 
L 245.063421 196.546276 
L 245.68432 195.999206 
L 247.093413 195.525983 
L 243.277911 193.313229 
L 245.265467 192.841194 
L 254.338044 192.669187 
L 265.37546 192.347204 
L 275.99818 191.744541 
L 283.288722 190.840692 
L 283.288722 190.840692 
" style="fill:none;stroke:#008000;stroke-linecap:square;"/>
   </g>
   <g id="line2d_3">
    <path clip-path="url(#p89fde0a7b0)" d="M 293.446378 189.758212 
L 291.456456 188.575481 
L 286.0792 187.524399 
L 277.959268 186.705726 
L 269.803831 186.087449 
L 265.001699 185.462708 
L 263.087687 184.74194 
L 263.290429 183.884604 
L 262.516529 183.116662 
L 262.988091 181.38301 
L 262.281213 180.631702 
L 262.18865 179.80414 
L 261.223318 179.116264 
L 261.213953 178.283533 
L 260.856058 176.675285 
L 261.342835 174.879236 
L 261.193278 174.058226 
L 261.420362 173.141755 
L 260.804404 172.436242 
L 261.26344 171.443825 
L 260.052952 170.917492 
L 259.493632 170.219686 
L 258.41282 169.695654 
L 257.585382 169.11046 
L 258.732041 167.861761 
L 258.519151 166.178611 
L 258.320158 165.365236 
L 257.64523 164.739361 
L 256.576831 164.286941 
L 256.064066 163.618078 
L 257.349606 162.157655 
L 257.102235 161.351655 
L 255.362563 160.337916 
L 254.063175 160.070462 
L 254.00479 159.187899 
L 254.14958 158.186867 
L 252.465373 157.251924 
L 252.451714 156.323164 
L 251.64061 155.859333 
L 251.655192 153.93474 
L 251.836604 152.836426 
L 251.70994 151.921798 
L 250.340377 151.847906 
L 249.781964 151.235379 
L 249.49156 150.432286 
L 248.865929 149.870625 
L 248.39291 149.198033 
L 247.636027 148.746012 
L 246.619315 148.511953 
L 246.290831 147.733645 
L 246.089613 146.840554 
L 245.308126 146.434365 
L 245.116254 145.517504 
L 243.904467 145.509689 
L 243.415671 144.860153 
L 242.722738 144.40212 
L 242.678279 143.317722 
L 241.250893 142.443817 
L 240.815554 141.724594 
L 240.23499 141.15374 
L 240.433141 139.722867 
L 239.462593 139.569476 
L 238.998934 138.848306 
L 238.145269 138.581364 
L 237.645187 137.896946 
L 236.963859 137.430668 
L 235.911567 137.442192 
L 235.095925 137.169298 
L 234.720551 136.314164 
L 234.832516 134.765391 
L 233.827521 134.746281 
L 232.186499 134.23002 
L 231.669205 133.52232 
L 230.75044 133.434349 
L 230.426265 132.400929 
L 230.010707 131.486105 
L 228.688218 130.438021 
L 227.547079 130.776221 
L 226.258439 131.434468 
L 225.72049 130.709131 
L 224.731283 130.858668 
L 224.052125 130.405326 
L 223.841792 128.954436 
L 223.178553 128.420346 
L 222.41808 128.092934 
L 221.834133 127.354287 
L 220.574483 128.218129 
L 219.745901 128.088665 
L 219.267752 127.063543 
L 218.562172 126.594998 
L 217.593752 126.846954 
L 216.904902 126.328775 
L 216.368215 125.32921 
L 215.272898 126.029529 
L 213.523858 126.170452 
L 212.491179 126.855832 
L 211.91963 125.881794 
L 211.022749 126.126161 
L 210.466268 124.985461 
L 209.71324 124.610111 
L 209.079814 123.64596 
L 208.32008 123.214681 
L 207.306796 124.108328 
L 206.616594 123.292758 
L 205.790221 123.217619 
L 204.901403 123.57295 
L 204.26191 122.180411 
L 202.683693 121.227209 
L 201.758111 121.992241 
L 200.880392 122.445215 
L 200.036618 122.613804 
L 199.188897 122.938653 
L 198.370094 122.863022 
L 197.577015 122.065416 
L 196.758112 121.552162 
L 195.912851 122.200024 
L 195.083743 123.320401 
L 194.272602 123.663386 
L 193.444782 122.994214 
L 192.624495 122.989188 
L 191.812362 123.167582 
L 191.012087 123.483759 
L 190.309959 125.04157 
L 189.415667 123.938256 
L 188.624841 124.17983 
L 187.682681 123.02057 
L 186.968097 123.958284 
L 186.060507 123.321089 
L 185.267422 123.581927 
L 184.437909 123.594476 
L 183.753451 124.460136 
L 182.791522 123.736784 
L 181.949216 123.726471 
L 180.927517 122.889448 
L 180.145978 123.237298 
L 179.315697 123.362077 
L 178.750494 124.552221 
L 178.030069 125.055496 
L 177.184568 125.078887 
L 176.176904 124.560998 
L 175.71549 125.909638 
L 174.937984 126.166487 
L 173.905306 125.650159 
L 173.256438 126.31091 
L 172.353727 126.232054 
L 171.571139 126.503035 
L 170.975525 127.260001 
L 170.246181 127.650054 
L 169.568415 128.158747 
L 168.372033 127.444503 
L 167.634817 127.834427 
L 165.63465 127.493328 
L 165.048197 128.218814 
L 164.63021 131.062258 
L 163.773972 131.181728 
L 163.044855 131.547377 
L 161.998025 131.353741 
L 161.457387 132.06199 
L 160.694032 132.382444 
L 160.125744 133.024972 
L 159.257028 133.181654 
L 158.805181 133.994039 
L 157.502974 133.514603 
L 156.329866 133.272017 
L 156.116909 134.429554 
L 155.446834 134.920152 
L 155.117962 135.870597 
L 154.361163 136.235608 
L 152.016201 135.947009 
L 151.812401 137.031922 
L 151.821974 138.343379 
L 150.797827 138.418528 
L 150.165573 138.959553 
L 148.514357 138.37682 
L 148.566141 139.682868 
L 148.081965 140.390691 
L 148.023299 141.528315 
L 147.594058 142.268524 
L 147.460556 143.289762 
L 147.143166 144.114992 
L 146.307873 144.447754 
L 146.228833 145.478692 
L 145.265846 145.707266 
L 144.761467 146.349913 
L 143.529664 146.379274 
L 142.731977 146.794229 
L 142.644028 147.788329 
L 142.376169 148.624825 
L 142.451062 149.712724 
L 141.584628 150.080557 
L 141.552554 151.065905 
L 140.921077 151.612558 
L 139.909436 151.904387 
L 139.150726 153.369781 
L 138.958856 154.217511 
L 138.646426 154.982552 
L 138.055309 155.576681 
L 137.225023 156.037145 
L 136.789165 157.673228 
L 136.470217 158.428619 
L 136.696327 159.464756 
L 134.995984 159.512571 
L 134.471181 160.175024 
L 133.831856 160.788228 
L 132.929574 161.289512 
L 133.753656 162.57246 
L 132.778458 163.050101 
L 133.8755 164.404921 
L 134.245838 165.428631 
L 132.942049 165.787514 
L 133.021967 166.689204 
L 132.736398 167.449979 
L 132.277113 168.151318 
L 131.098172 168.620226 
L 131.891409 169.738968 
L 132.100832 170.652552 
L 131.22773 171.240311 
L 131.874764 172.265933 
L 132.004601 173.132468 
L 130.657806 173.620361 
L 129.952073 174.290446 
L 128.867622 174.88888 
L 128.305808 175.621212 
L 127.597132 176.33429 
L 128.998709 177.454146 
L 129.820804 178.434023 
L 130.901064 179.431138 
L 129.254318 179.993333 
L 128.702298 180.742527 
L 128.245535 182.345995 
L 127.559812 183.107688 
L 129.748736 184.131903 
L 131.283524 185.052032 
L 129.326618 185.718328 
L 111.352305 186.674199 
L 103.012681 187.497996 
L 98.450916 188.572294 
L 96.721094 189.758221 
L 98.710962 190.940932 
L 104.088286 191.992018 
L 112.208211 192.810695 
L 120.363664 193.428973 
L 125.165788 194.053718 
L 127.079694 194.774496 
L 126.877139 195.63182 
L 127.651022 196.399748 
L 127.179412 198.13341 
L 127.886279 198.884721 
L 127.978827 199.712288 
L 128.944201 200.400159 
L 128.953551 201.232896 
L 129.311485 202.841123 
L 128.824657 204.637188 
L 128.974206 205.458202 
L 128.747139 206.374672 
L 129.362924 207.080234 
L 128.904017 208.072602 
L 130.114489 208.598943 
L 130.673824 209.296746 
L 131.754672 209.82077 
L 132.582109 210.405967 
L 131.435374 211.654696 
L 131.648456 213.337763 
L 131.847326 214.151187 
L 132.522261 214.777061 
L 133.590669 215.229479 
L 134.103453 215.898339 
L 132.817821 217.358804 
L 133.065286 218.164764 
L 134.804998 219.178469 
L 136.104331 219.445953 
L 136.162702 220.328527 
L 136.017959 221.329536 
L 137.702108 222.264517 
L 137.715753 223.193268 
L 138.526958 223.657042 
L 138.512301 225.581686 
L 138.330904 226.67999 
L 138.457569 227.594621 
L 139.82716 227.668479 
L 140.385589 228.280994 
L 140.675931 229.084136 
L 141.301562 229.645798 
L 141.774573 230.3184 
L 142.531465 230.77042 
L 143.548249 231.00442 
L 143.876643 231.782786 
L 144.077861 232.675877 
L 144.859386 233.08204 
L 145.051236 233.998919 
L 146.263026 234.006736 
L 146.751834 234.656267 
L 147.444698 235.114365 
L 147.489214 236.198693 
L 148.916654 237.072548 
L 149.351959 237.79181 
L 149.932504 238.362685 
L 149.734436 239.793472 
L 150.704904 239.946951 
L 151.168536 240.668134 
L 152.022266 240.935 
L 152.522277 241.619509 
L 153.203634 242.085757 
L 154.255914 242.074248 
L 155.071581 242.347117 
L 155.446964 243.202238 
L 155.334953 244.751081 
L 156.339895 244.770275 
L 157.981095 245.286226 
L 158.498254 245.994128 
L 159.417012 246.082121 
L 159.741239 247.115457 
L 160.156773 248.030334 
L 161.479272 249.078402 
L 162.620427 248.740171 
L 163.909083 248.081911 
L 164.446993 248.807322 
L 165.436215 248.657757 
L 166.115411 249.111038 
L 166.325678 250.562067 
L 166.988944 251.0961 
L 167.749415 251.423439 
L 168.333391 252.162034 
L 169.593 251.29829 
L 170.421547 251.427843 
L 170.899746 252.452859 
L 171.605325 252.921407 
L 172.573737 252.669469 
L 173.262598 253.18762 
L 173.799275 254.187239 
L 174.894601 253.486891 
L 176.643612 253.346097 
L 177.676363 252.66046 
L 178.247844 253.634753 
L 179.1447 253.390394 
L 179.701241 254.530845 
L 180.454278 254.906149 
L 181.087678 255.870417 
L 181.847406 256.301762 
L 182.860694 255.408096 
L 183.550898 256.223653 
L 184.377288 256.298735 
L 185.266093 255.943485 
L 185.905587 257.336017 
L 187.483803 258.289309 
L 188.409389 257.524239 
L 189.287086 257.071161 
L 190.13087 256.902534 
L 190.978593 256.577641 
L 191.797382 256.653503 
L 192.590467 257.451 
L 193.409377 257.964289 
L 194.254639 257.316395 
L 195.083747 256.196012 
L 195.894896 255.853108 
L 196.722716 256.52223 
L 197.543 256.527175 
L 198.355142 256.348794 
L 199.155418 256.032644 
L 199.857556 254.47498 
L 200.75179 255.577966 
L 201.542655 255.336746 
L 202.484789 256.49575 
L 203.199373 255.558043 
L 204.106978 256.195298 
L 204.900067 255.934492 
L 205.72958 255.921946 
L 206.41404 255.056295 
L 207.375965 255.779582 
L 208.218288 255.789985 
L 209.23998 256.626972 
L 210.021505 256.279022 
L 210.851797 256.154296 
L 211.41696 254.963993 
L 212.137335 254.460666 
L 212.982938 254.437627 
L 213.990521 254.955232 
L 214.452014 253.60686 
L 215.229508 253.349943 
L 216.262162 253.866201 
L 216.911064 253.20555 
L 217.813788 253.284418 
L 218.596389 253.01347 
L 219.191968 252.256408 
L 219.921335 251.866415 
L 220.599083 251.357654 
L 221.795413 252.071779 
L 222.532666 251.682023 
L 224.53283 252.023096 
L 225.119318 251.297682 
L 225.537287 248.454197 
L 226.393506 248.334656 
L 227.122708 247.969162 
L 228.169476 248.162688 
L 228.710108 247.454427 
L 229.473496 247.134029 
L 230.041759 246.491459 
L 230.910539 246.334878 
L 231.362314 245.522349 
L 232.664542 246.001875 
L 233.837616 246.24441 
L 234.05057 245.08687 
L 234.720659 244.596292 
L 235.049393 243.645659 
L 235.806354 243.280866 
L 238.151337 243.569463 
L 238.3551 242.484504 
L 238.345567 241.173095 
L 239.369655 241.097875 
L 240.00198 240.556931 
L 241.653223 241.139692 
L 241.601311 239.833479 
L 242.08541 239.125625 
L 242.144193 237.988123 
L 242.573486 237.247966 
L 242.706847 236.226589 
L 243.024235 235.401358 
L 243.859621 235.068686 
L 243.938611 234.037682 
L 244.90161 233.809119 
L 245.405962 233.166448 
L 246.637832 233.137146 
L 247.435601 232.722258 
L 247.523548 231.728154 
L 247.791326 230.891594 
L 247.716389 229.803641 
L 248.582989 229.435972 
L 248.614919 228.450518 
L 249.246465 227.903913 
L 250.257994 227.612006 
L 251.016757 226.146629 
L 251.208632 225.298903 
L 251.521055 224.533858 
L 252.112204 223.939749 
L 252.942439 223.479255 
L 253.3783 221.843174 
L 253.697261 221.087772 
L 253.471341 220.051771 
L 255.171517 220.003869 
L 255.696215 219.341365 
L 256.335521 218.728153 
L 257.238017 218.226968 
L 256.413813 216.943965 
L 257.389048 216.466322 
L 256.291946 215.111478 
L 255.92165 214.087785 
L 257.225344 213.728865 
L 257.14549 212.827201 
L 257.431042 212.06642 
L 257.890221 211.365045 
L 259.069419 210.896207 
L 258.276112 209.777476 
L 258.066432 208.863813 
L 258.939726 208.276113 
L 258.292533 207.250447 
L 258.162748 206.383928 
L 259.509591 205.896049 
L 260.215425 205.225973 
L 261.299815 204.627526 
L 261.861779 203.895226 
L 262.57036 203.182128 
L 261.168872 202.062289 
L 260.346752 201.082407 
L 259.266388 200.085273 
L 260.913737 199.523153 
L 261.465125 198.773898 
L 261.922031 197.170448 
L 262.607753 196.408753 
L 260.418829 195.384537 
L 258.884009 194.464404 
L 260.840823 193.798087 
L 278.815231 192.842219 
L 287.154874 192.018422 
L 291.716578 190.944121 
L 291.716578 190.944121 
" style="fill:none;stroke:#ff0000;stroke-linecap:square;"/>
   </g>
   <g id="patch_3">
    <path d="M 195.083746 350.655638 
C 237.754242 350.655638 278.68281 333.702471 308.855407 303.529873 
C 339.028005 273.357276 355.981172 232.428708 355.981172 189.758212 
C 355.981172 147.087716 339.028005 106.159148 308.855407 75.986551 
C 278.68281 45.813953 237.754242 28.860785 195.083746 28.860785 
C 152.41325 28.860785 111.484682 45.813953 81.312085 75.986551 
C 51.139487 106.159148 34.186319 147.087716 34.186319 189.758212 
C 34.186319 232.428708 51.139487 273.357276 81.312085 303.529873 
C 111.484682 333.702471 152.41325 350.655638 195.083746 350.655638 
z
" style="fill:none;stroke:#000000;stroke-linecap:square;stroke-linejoin:miter;"/>
   </g>
   <g id="matplotlib.axis_1">
    <g id="xtick_1">
     <g id="line2d_4">
      <path clip-path="url(#p89fde0a7b0)" d="M 195.083746 189.758212 
L 355.981172 189.758212 
" style="fill:none;stroke:#000000;stroke-dasharray:1.000000,3.000000;stroke-dashoffset:0.0;stroke-width:0.5;"/>
     </g>
     <g id="text_1">
      <!-- $0^\circ$ -->
      <defs>
       <path d="M 44.40625 25 
C 44.40625 35.578125 35.5 44.1875 25 44.1875 
C 14.203125 44.1875 5.5 35.375 5.5 25 
C 5.5 14.53125 14.203125 5.8125 25 5.8125 
C 35.5 5.8125 44.40625 14.421875 44.40625 25 
M 25 9.8125 
C 16.296875 9.8125 9.5 16.71875 9.5 25 
C 9.5 33.28125 16.40625 40.1875 25 40.1875 
C 33.296875 40.1875 40.40625 33.46875 40.40625 25 
C 40.40625 16.53125 33.296875 9.8125 25 9.8125 
" id="CMSY10-14"/>
       <path d="M 42 31.640625 
C 42 37.75 41.90625 48.125 37.703125 56.109375 
C 34 63.109375 28.09375 65.59375 22.90625 65.59375 
C 18.09375 65.59375 12 63.40625 8.203125 56.203125 
C 4.203125 48.71875 3.796875 39.4375 3.796875 31.640625 
C 3.796875 25.953125 3.90625 17.28125 7 9.671875 
C 11.296875 -0.609375 19 -2 22.90625 -2 
C 27.5 -2 34.5 -0.109375 38.59375 9.375 
C 41.59375 16.28125 42 24.359375 42 31.640625 
M 22.90625 -0.40625 
C 16.5 -0.40625 12.703125 5.078125 11.296875 12.6875 
C 10.203125 18.5625 10.203125 27.15625 10.203125 32.75 
C 10.203125 40.4375 10.203125 46.828125 11.5 52.921875 
C 13.40625 61.390625 19 64 22.90625 64 
C 27 64 32.296875 61.296875 34.203125 53.125 
C 35.5 47.4375 35.59375 40.734375 35.59375 32.75 
C 35.59375 26.25 35.59375 18.265625 34.40625 12.375 
C 32.296875 1.484375 26.40625 -0.40625 22.90625 -0.40625 
" id="CMR17-48"/>
      </defs>
      <g transform="translate(367.027328533 193.057819607)scale(0.12 -0.12)">
       <use transform="scale(0.9962640099626402)" xlink:href="#CMR17-48"/>
       <use transform="translate(45.69047711706103 36.15363894185866)scale(0.6973817666173724)" xlink:href="#CMSY10-14"/>
      </g>
     </g>
    </g>
    <g id="xtick_2">
     <g id="line2d_5">
      <path clip-path="url(#p89fde0a7b0)" d="M 195.083746 189.758212 
L 195.083746 28.860785 
" style="fill:none;stroke:#000000;stroke-dasharray:1.000000,3.000000;stroke-dashoffset:0.0;stroke-width:0.5;"/>
     </g>
     <g id="text_2">
      <!-- $90^\circ$ -->
      <defs>
       <path d="M 35.203125 29.125 
C 35.203125 7.25 26.09375 0.484375 18.59375 0.484375 
C 16.296875 0.484375 10.703125 0.484375 8.40625 4.59375 
C 11 4.1875 12.90625 5.578125 12.90625 8.09375 
C 12.90625 10.8125 10.703125 11.703125 9.296875 11.703125 
C 8.40625 11.703125 5.703125 11.296875 5.703125 7.90625 
C 5.703125 1.109375 11.59375 -2 18.796875 -2 
C 30.296875 -2 42 10.53125 42 32.390625 
C 42 59.640625 30.796875 65.296875 23.203125 65.296875 
C 13.296875 65.296875 3.796875 56.6875 3.796875 43.40625 
C 3.796875 31.109375 11.90625 22 22.09375 22 
C 30.5 22 34.203125 29.734375 35.203125 33 
z
M 22.296875 23.59375 
C 19.59375 23.59375 15.796875 24.09375 12.703125 30.03125 
C 10.59375 33.890625 10.59375 38.453125 10.59375 43.296875 
C 10.59375 49.15625 10.59375 53.203125 13.40625 57.5625 
C 14.796875 59.640625 17.40625 63 23.203125 63 
C 35 63 35 45.078125 35 41.125 
C 35 34.09375 31.796875 23.59375 22.296875 23.59375 
" id="CMR17-57"/>
      </defs>
      <g transform="translate(187.113664266 16.070650466)scale(0.12 -0.12)">
       <use transform="scale(0.9962640099626402)" xlink:href="#CMR17-57"/>
       <use transform="translate(45.69047711706103 0.0)scale(0.9962640099626402)" xlink:href="#CMR17-48"/>
       <use transform="translate(91.38095423412206 36.15363894185866)scale(0.6973817666173724)" xlink:href="#CMSY10-14"/>
      </g>
     </g>
    </g>
    <g id="xtick_3">
     <g id="line2d_6">
      <path clip-path="url(#p89fde0a7b0)" d="M 195.083746 189.758212 
L 34.186319 189.758212 
" style="fill:none;stroke:#000000;stroke-dasharray:1.000000,3.000000;stroke-dashoffset:0.0;stroke-width:0.5;"/>
     </g>
     <g id="text_3">
      <!-- $180^\circ$ -->
      <defs>
       <path d="M 26.59375 63.40625 
C 26.59375 65.5 26.5 65.5 25.09375 65.5 
C 21.203125 61.1875 15.296875 59.796875 9.703125 59.796875 
C 9.40625 59.796875 8.90625 59.796875 8.796875 59.5 
C 8.703125 59.296875 8.703125 59.09375 8.703125 57 
C 11.796875 57 17 57.59375 21 59.984375 
L 21 7.203125 
C 21 3.6875 20.796875 2.5 12.203125 2.5 
L 9.203125 2.5 
L 9.203125 0 
C 14 0 19 0 23.796875 0 
C 28.59375 0 33.59375 0 38.40625 0 
L 38.40625 2.5 
L 35.40625 2.5 
C 26.796875 2.5 26.59375 3.59375 26.59375 7.15625 
z
" id="CMR17-49"/>
       <path d="M 27.203125 35.375 
C 33.5 38.546875 39.90625 43.328125 39.90625 50.984375 
C 39.90625 60.015625 31.09375 65.296875 23 65.296875 
C 13.90625 65.296875 5.90625 58.734375 5.90625 49.6875 
C 5.90625 47.203125 6.5 42.921875 10.40625 39.140625 
C 11.40625 38.15625 15.59375 35.171875 18.296875 33.28125 
C 13.796875 30.984375 3.296875 25.53125 3.296875 14.59375 
C 3.296875 4.359375 13.09375 -2 22.796875 -2 
C 33.5 -2 42.5 5.65625 42.5 15.78125 
C 42.5 24.84375 36.40625 29.015625 32.40625 31.703125 
z
M 14.09375 44.09375 
C 13.296875 44.59375 9.296875 47.671875 9.296875 52.359375 
C 9.296875 58.421875 15.59375 63 22.796875 63 
C 30.703125 63 36.5 57.4375 36.5 50.96875 
C 36.5 41.703125 26.09375 36.421875 25.59375 36.421875 
C 25.5 36.421875 25.40625 36.421875 24.59375 37.03125 
z
M 32.5 23.734375 
C 34 22.640625 38.796875 19.375 38.796875 13.296875 
C 38.796875 5.953125 31.40625 0.390625 23 0.390625 
C 13.90625 0.390625 7 6.84375 7 14.6875 
C 7 22.546875 13.09375 29.09375 20 32.1875 
z
" id="CMR17-56"/>
      </defs>
      <g transform="translate(7.2 193.057819607)scale(0.12 -0.12)">
       <use transform="scale(0.9962640099626402)" xlink:href="#CMR17-49"/>
       <use transform="translate(45.69047711706103 0.0)scale(0.9962640099626402)" xlink:href="#CMR17-56"/>
       <use transform="translate(91.38095423412206 0.0)scale(0.9962640099626402)" xlink:href="#CMR17-48"/>
       <use transform="translate(137.07143135118307 36.15363894185866)scale(0.6973817666173724)" xlink:href="#CMSY10-14"/>
      </g>
     </g>
    </g>
    <g id="xtick_4">
     <g id="line2d_7">
      <path clip-path="url(#p89fde0a7b0)" d="M 195.083746 189.758212 
L 195.083746 350.655638 
" style="fill:none;stroke:#000000;stroke-dasharray:1.000000,3.000000;stroke-dashoffset:0.0;stroke-width:0.5;"/>
     </g>
     <g id="text_4">
      <!-- $270^\circ$ -->
      <defs>
       <path d="M 41.703125 15.453125 
L 39.90625 15.453125 
C 38.90625 8.375 38.09375 7.171875 37.703125 6.5625 
C 37.203125 5.765625 30 5.765625 28.59375 5.765625 
L 9.40625 5.765625 
C 13 9.671875 20 16.75 28.5 24.953125 
C 34.59375 30.734375 41.703125 37.53125 41.703125 47.421875 
C 41.703125 59.21875 32.296875 66 21.796875 66 
C 10.796875 66 4.09375 56.3125 4.09375 47.34375 
C 4.09375 43.4375 7 42.9375 8.203125 42.9375 
C 9.203125 42.9375 12.203125 43.546875 12.203125 47.03125 
C 12.203125 50.109375 9.59375 51 8.203125 51 
C 7.59375 51 7 50.90625 6.59375 50.703125 
C 8.5 59.21875 14.296875 63.40625 20.40625 63.40625 
C 29.09375 63.40625 34.796875 56.515625 34.796875 47.421875 
C 34.796875 38.734375 29.703125 31.25 24 24.75 
L 4.09375 2.28125 
L 4.09375 0 
L 39.296875 0 
z
" id="CMR17-50"/>
       <path d="M 45.09375 61.578125 
L 45.09375 63.765625 
L 21.59375 63.765625 
C 9.90625 63.765625 9.703125 65.078125 9.296875 67 
L 7.5 67 
L 4.59375 48.34375 
L 6.40625 48.34375 
C 6.703125 50.234375 7.40625 55.3125 8.59375 57.203125 
C 9.203125 58 16.59375 58 18.296875 58 
L 40.296875 58 
L 29.203125 41.578125 
C 21.796875 30.53125 16.703125 15.609375 16.703125 2.578125 
C 16.703125 1.390625 16.703125 -2 20.296875 -2 
C 23.90625 -2 23.90625 1.390625 23.90625 2.671875 
L 23.90625 7.265625 
C 23.90625 23.5625 26.703125 34.3125 31.296875 41.1875 
z
" id="CMR17-55"/>
      </defs>
      <g transform="translate(184.187169141 370.044988747)scale(0.12 -0.12)">
       <use transform="scale(0.9962640099626402)" xlink:href="#CMR17-50"/>
       <use transform="translate(45.69047711706103 0.0)scale(0.9962640099626402)" xlink:href="#CMR17-55"/>
       <use transform="translate(91.38095423412206 0.0)scale(0.9962640099626402)" xlink:href="#CMR17-48"/>
       <use transform="translate(137.07143135118307 36.15363894185866)scale(0.6973817666173724)" xlink:href="#CMSY10-14"/>
      </g>
     </g>
    </g>
   </g>
   <g id="matplotlib.axis_2">
    <g id="ytick_1">
     <g id="line2d_8">
      <path clip-path="url(#p89fde0a7b0)" d="M 195.083746 189.758212 
L 195.083746 189.758212 
" style="fill:none;stroke:#000000;stroke-dasharray:1.000000,3.000000;stroke-dashoffset:0.0;stroke-width:0.5;"/>
     </g>
     <g id="text_5">
      <!-- -15dB -->
      <defs>
       <path d="M 16.40625 59.703125 
C 21.796875 58.40625 24.59375 58 28.5 58 
C 37 58 43.203125 61 46.5 66.484375 
C 47.59375 68.390625 48 69.28125 48 70.078125 
C 48 70.6875 47.703125 70.984375 47.203125 70.984375 
C 46.90625 70.984375 46.40625 70.875 45.90625 70.578125 
C 41 68.484375 38.296875 67.984375 32.59375 67.984375 
C 26.203125 67.984375 22.5 68.484375 12 70.984375 
C 11.59375 62.625 10.703125 51.984375 9.296875 39.65625 
C 7.203125 37.46875 6.5 36.171875 6.5 34.578125 
C 6.5 32.59375 7.796875 31.203125 9.703125 31.203125 
C 12.203125 31.203125 13.796875 33.328125 14.203125 37.359375 
C 17.703125 39.890625 21 41 25 41 
C 33.90625 41 39.296875 34.03125 39.296875 22.5 
C 39.296875 15.734375 37.59375 9.953125 34.59375 6.828125 
C 32.59375 4.703125 28.5 3.296875 24.40625 3.296875 
C 18.40625 3.296875 12.203125 6.421875 12.203125 9.5625 
C 12.203125 10.28125 12.796875 11.078125 14 11.78125 
C 17.09375 13.703125 18 15.03125 18 17.75 
C 18 21.296875 15.296875 24.015625 11.703125 24.015625 
C 7.703125 24.015625 4.5 20.28125 4.5 15.546875 
C 4.5 10.5 7.40625 5.453125 11.90625 2.328125 
C 15.296875 0.109375 19.40625 -1 24.59375 -1 
C 40.296875 -1 50.203125 8.28125 50.203125 23.109375 
C 50.203125 36.828125 41.09375 46 27.59375 46 
C 23.40625 46 20.203125 45.296875 14.703125 43 
z
" id="Century_Schoolbook_L_Roman-53"/>
       <path d="M 4.203125 27.28125 
L 4.203125 19 
L 29.09375 19 
L 29.09375 27.28125 
z
" id="Century_Schoolbook_L_Roman-45"/>
       <path d="M 3 72 
L 3 67.3125 
L 4.796875 67.3125 
C 12.90625 67.3125 13.796875 66.8125 13.796875 62.609375 
L 13.796875 59.734375 
L 13.796875 12.28125 
L 13.796875 9.375 
C 13.796875 5.1875 12.90625 4.6875 4.796875 4.6875 
L 3 4.6875 
L 3 0 
L 39.296875 0 
C 56.59375 0 67 7.40625 67 19.59375 
C 67 29.484375 60.59375 35.296875 47 37.6875 
C 51.796875 38.6875 54 39.578125 56.5 41.46875 
C 60.703125 44.546875 63.203125 49.421875 63.203125 54.5 
C 63.203125 60.859375 59.203125 67.125 53.40625 69.609375 
C 49.796875 71.203125 44.796875 72 38.90625 72 
z
M 25 39.6875 
L 25 62.328125 
C 25 66.203125 26.40625 67.3125 31.59375 67.3125 
L 35.59375 67.3125 
C 40.203125 67.3125 44 66.609375 46.09375 65.21875 
C 49.703125 63.03125 51.59375 58.75 51.59375 53.203125 
C 51.59375 43.46875 46.703125 39.6875 33.90625 39.6875 
z
M 25 35 
L 33.796875 35 
C 40.203125 35 44.5 34.390625 47.5 33.09375 
C 52.203125 30.890625 54.703125 26.5 54.703125 19.890625 
C 54.703125 13.59375 52.5 8.890625 48.59375 6.984375 
C 45.5 5.390625 41.296875 4.6875 35 4.6875 
L 30.796875 4.6875 
C 25.703125 4.6875 25 5.484375 25 11 
z
" id="Century_Schoolbook_L_Roman-66"/>
       <path d="M 38 0 
L 55.40625 0 
L 55.40625 4.703125 
L 53.59375 4.703125 
C 48.203125 4.703125 47.40625 5.703125 47.40625 11.96875 
L 47.40625 73.78125 
L 27.796875 73.78125 
L 27.796875 69 
L 33.703125 69 
C 37.296875 69 38 68.28125 38 63.921875 
L 38 41 
C 34.296875 46.09375 30 48.390625 24.203125 48.390625 
C 12.90625 48.390625 4.296875 37.546875 4.296875 23.203125 
C 4.296875 9.0625 12.59375 -1 24.203125 -1 
C 30.5 -1 34.796875 1.671875 38 7.59375 
z
M 26.203125 43 
C 30.296875 43 34.203125 40.03125 36 35.4375 
C 37.203125 32.453125 37.90625 28.28125 37.90625 23.515625 
C 37.90625 11.96875 33.296875 4.390625 26.09375 4.390625 
C 19.09375 4.390625 14.796875 10.96875 14.796875 22.015625 
C 14.796875 27.890625 15.40625 32.359375 16.703125 35.734375 
C 18.40625 40.125 22.09375 43 26.203125 43 
" id="Century_Schoolbook_L_Roman-100"/>
       <path d="M 32.203125 70.5 
C 28.796875 66.234375 19.59375 63 10.40625 63 
L 10.40625 58.59375 
L 19.203125 58.59375 
C 25 58.59375 25.40625 58.203125 25.40625 52.3125 
L 25.40625 12.28125 
L 25.40625 9.375 
C 25.40625 5.1875 24.5 4.6875 16.5 4.6875 
L 10 4.6875 
L 10 0 
L 49.59375 0 
L 49.59375 4.6875 
L 44.09375 4.6875 
C 38.796875 4.6875 36.59375 5.09375 35.796875 6.09375 
C 35.09375 6.78125 35.09375 6.78125 35.09375 12.3125 
L 35.09375 53.671875 
C 35.09375 58.578125 35.296875 63.375 35.796875 70.5 
z
" id="Century_Schoolbook_L_Roman-49"/>
      </defs>
      <g transform="translate(195.083745942 187.486776813)scale(0.12 -0.12)">
       <use transform="scale(0.9962640099626402)" xlink:href="#Century_Schoolbook_L_Roman-45"/>
       <use transform="translate(33.17522972933531 0.0)scale(0.9962640099626402)" xlink:href="#Century_Schoolbook_L_Roman-49"/>
       <use transform="translate(88.56690669267591 0.0)scale(0.9962640099626402)" xlink:href="#Century_Schoolbook_L_Roman-53"/>
       <use transform="translate(143.95858365601651 0.0)scale(0.9962640099626402)" xlink:href="#Century_Schoolbook_L_Roman-100"/>
       <use transform="translate(201.1440709400296 0.0)scale(0.9962640099626402)" xlink:href="#Century_Schoolbook_L_Roman-66"/>
      </g>
     </g>
    </g>
    <g id="ytick_2">
     <g id="line2d_9">
      <path clip-path="url(#p89fde0a7b0)" d="M 248.716221 189.758212 
L 248.68355 187.886466 
L 248.585575 186.017 
L 248.194274 182.294014 
L 247.544223 178.607393 
L 246.63859 174.975098 
L 245.481787 171.414825 
L 244.07945 167.943919 
L 242.438411 164.57929 
L 240.566665 161.33733 
L 238.47333 158.233834 
L 236.168606 155.283921 
L 233.66372 152.501964 
L 230.970877 149.901515 
L 228.103195 147.495244 
L 225.074646 145.294875 
L 221.899984 143.311126 
L 218.594676 141.553662 
L 215.174825 140.031047 
L 211.657092 138.750697 
L 208.058616 137.71885 
L 204.396928 136.940534 
L 200.689866 136.419541 
L 196.955492 136.158408 
L 193.212 136.158408 
L 189.477626 136.419541 
L 185.770564 136.940534 
L 182.108876 137.71885 
L 178.5104 138.750697 
L 174.992667 140.031047 
L 171.572816 141.553662 
L 168.267508 143.311126 
L 165.092846 145.294875 
L 162.064297 147.495244 
L 159.196615 149.901515 
L 156.503772 152.501964 
L 153.998886 155.283921 
L 151.694162 158.233834 
L 149.600827 161.33733 
L 147.729081 164.57929 
L 146.088042 167.943919 
L 144.685704 171.414825 
L 143.528902 174.975098 
L 142.623269 178.607393 
L 141.973218 182.294014 
L 141.581916 186.017 
L 141.45127 189.758212 
L 141.581916 193.499424 
L 141.973218 197.22241 
L 142.623269 200.909031 
L 143.528902 204.541326 
L 144.685704 208.101599 
L 146.088042 211.572505 
L 147.729081 214.937134 
L 149.600827 218.179094 
L 151.694162 221.28259 
L 153.998886 224.232503 
L 156.503772 227.01446 
L 159.196615 229.614909 
L 162.064297 232.021179 
L 165.092846 234.221549 
L 168.267508 236.205298 
L 171.572816 237.962762 
L 174.992667 239.485377 
L 178.5104 240.765727 
L 182.108876 241.797574 
L 185.770564 242.57589 
L 189.477626 243.096883 
L 193.212 243.358016 
L 196.955492 243.358016 
L 200.689866 243.096883 
L 204.396928 242.57589 
L 208.058616 241.797574 
L 211.657092 240.765727 
L 215.174825 239.485377 
L 218.594676 237.962762 
L 221.899984 236.205298 
L 225.074646 234.221549 
L 228.103195 232.021179 
L 230.970877 229.614909 
L 233.66372 227.01446 
L 236.168606 224.232503 
L 238.47333 221.28259 
L 240.566665 218.179094 
L 242.438411 214.937134 
L 244.07945 211.572505 
L 245.481787 208.101599 
L 246.63859 204.541326 
L 247.544223 200.909031 
L 248.194274 197.22241 
L 248.585575 193.499424 
L 248.716221 189.758212 
L 248.716221 189.758212 
" style="fill:none;stroke:#000000;stroke-dasharray:1.000000,3.000000;stroke-dashoffset:0.0;stroke-width:0.5;"/>
     </g>
     <g id="text_6">
      <!-- -10dB -->
      <defs>
       <path d="M 28.40625 71 
C 14.40625 71 4.203125 55.6875 4.203125 34.75 
C 4.203125 14.125 14.09375 -1 27.59375 -1 
C 41.59375 -1 51.40625 13.625 51.40625 34.4375 
C 51.40625 45.0625 49.203125 53.875 45 60.78125 
C 41.09375 67.09375 34.703125 71 28.40625 71 
M 27.703125 66.703125 
C 31 66.703125 34.203125 64.5 36.59375 60.5 
C 39.296875 55.875 40.203125 49.96875 40.203125 36.25 
C 40.203125 22.21875 39.5 15.625 37.5 11.203125 
C 35.203125 6.296875 31.59375 3.296875 27.796875 3.296875 
C 24.5 3.296875 21.296875 5.5 18.90625 9.5 
C 16.09375 14.21875 15.296875 20.53125 15.296875 36.859375 
C 15.296875 48.484375 16 54.375 18 58.6875 
C 20.296875 63.796875 23.90625 66.703125 27.703125 66.703125 
" id="Century_Schoolbook_L_Roman-48"/>
      </defs>
      <g transform="translate(244.633692332 166.962517004)scale(0.12 -0.12)">
       <use transform="scale(0.9962640099626402)" xlink:href="#Century_Schoolbook_L_Roman-45"/>
       <use transform="translate(33.17522972933531 0.0)scale(0.9962640099626402)" xlink:href="#Century_Schoolbook_L_Roman-49"/>
       <use transform="translate(88.56690669267591 0.0)scale(0.9962640099626402)" xlink:href="#Century_Schoolbook_L_Roman-48"/>
       <use transform="translate(143.95858365601651 0.0)scale(0.9962640099626402)" xlink:href="#Century_Schoolbook_L_Roman-100"/>
       <use transform="translate(201.1440709400296 0.0)scale(0.9962640099626402)" xlink:href="#Century_Schoolbook_L_Roman-66"/>
      </g>
     </g>
    </g>
    <g id="ytick_3">
     <g id="line2d_10">
      <path clip-path="url(#p89fde0a7b0)" d="M 302.348697 189.758212 
L 302.283354 186.014719 
L 302.087405 182.275787 
L 301.761088 178.545971 
L 301.304802 174.829816 
L 300.719101 171.131849 
L 300.0047 167.456575 
L 299.162469 163.808472 
L 298.193435 160.191984 
L 297.098777 156.611519 
L 295.879829 153.071438 
L 294.538077 149.576054 
L 293.075155 146.129626 
L 291.492845 142.736352 
L 289.793076 139.400368 
L 287.977918 136.125736 
L 286.049583 132.916448 
L 284.010421 129.776413 
L 281.862914 126.709456 
L 279.609681 123.719314 
L 277.253466 120.80963 
L 274.797139 117.98395 
L 272.243694 115.245716 
L 269.596242 112.598264 
L 266.858008 110.044819 
L 264.032327 107.588492 
L 261.122644 105.232277 
L 258.132502 102.979044 
L 255.065545 100.831537 
L 251.92551 98.792374 
L 248.716221 96.864039 
L 245.44159 95.048882 
L 242.105606 93.349113 
L 238.712332 91.766803 
L 235.265904 90.303881 
L 231.77052 88.962129 
L 228.230439 87.743181 
L 224.649973 86.648523 
L 221.033486 85.679488 
L 217.385383 84.837257 
L 213.710109 84.122857 
L 210.012142 83.537156 
L 206.295986 83.08087 
L 202.566171 82.754553 
L 198.827239 82.558604 
L 195.083746 82.493261 
L 191.340253 82.558604 
L 187.601321 82.754553 
L 183.871505 83.08087 
L 180.15535 83.537156 
L 176.457383 84.122857 
L 172.782109 84.837257 
L 169.134006 85.679488 
L 165.517518 86.648523 
L 161.937053 87.743181 
L 158.396972 88.962129 
L 154.901588 90.303881 
L 151.45516 91.766803 
L 148.061886 93.349113 
L 144.725902 95.048882 
L 141.45127 96.864039 
L 138.241982 98.792374 
L 135.101947 100.831537 
L 132.03499 102.979044 
L 129.044848 105.232277 
L 126.135164 107.588492 
L 123.309484 110.044819 
L 120.57125 112.598264 
L 117.923798 115.245716 
L 115.370353 117.98395 
L 112.914026 120.80963 
L 110.557811 123.719314 
L 108.304578 126.709456 
L 106.157071 129.776413 
L 104.117908 132.916448 
L 102.189573 136.125736 
L 100.374416 139.400368 
L 98.674647 142.736352 
L 97.092337 146.129626 
L 95.629415 149.576054 
L 94.287663 153.071438 
L 93.068715 156.611519 
L 91.974057 160.191984 
L 91.005022 163.808472 
L 90.162791 167.456575 
L 89.448391 171.131849 
L 88.86269 174.829816 
L 88.406404 178.545971 
L 88.080087 182.275787 
L 87.884138 186.014719 
L 87.818795 189.758212 
L 87.884138 193.501705 
L 88.080087 197.240637 
L 88.406404 200.970452 
L 88.86269 204.686608 
L 89.448391 208.384575 
L 90.162791 212.059849 
L 91.005022 215.707952 
L 91.974057 219.324439 
L 93.068715 222.904905 
L 94.287663 226.444986 
L 95.629415 229.94037 
L 97.092337 233.386798 
L 98.674647 236.780072 
L 100.374416 240.116056 
L 102.189573 243.390687 
L 104.117908 246.599976 
L 106.157071 249.740011 
L 108.304578 252.806968 
L 110.557811 255.79711 
L 112.914026 258.706793 
L 115.370353 261.532474 
L 117.923798 264.270708 
L 120.57125 266.91816 
L 123.309484 269.471605 
L 126.135164 271.927932 
L 129.044848 274.284147 
L 132.03499 276.53738 
L 135.101947 278.684887 
L 138.241982 280.724049 
L 141.45127 282.652384 
L 144.725902 284.467542 
L 148.061886 286.167311 
L 151.45516 287.749621 
L 154.901588 289.212543 
L 158.396972 290.554295 
L 161.937053 291.773243 
L 165.517518 292.867901 
L 169.134006 293.836935 
L 172.782109 294.679166 
L 176.457383 295.393567 
L 180.15535 295.979268 
L 183.871505 296.435554 
L 187.601321 296.761871 
L 191.340253 296.95782 
L 195.083746 297.023163 
L 198.827239 296.95782 
L 202.566171 296.761871 
L 206.295986 296.435554 
L 210.012142 295.979268 
L 213.710109 295.393567 
L 217.385383 294.679166 
L 221.033486 293.836935 
L 224.649973 292.867901 
L 228.230439 291.773243 
L 231.77052 290.554295 
L 235.265904 289.212543 
L 238.712332 287.749621 
L 242.105606 286.167311 
L 245.44159 284.467542 
L 248.716221 282.652384 
L 251.92551 280.724049 
L 255.065545 278.684887 
L 258.132502 276.53738 
L 261.122644 274.284147 
L 264.032327 271.927932 
L 266.858008 269.471605 
L 269.596242 266.91816 
L 272.243694 264.270708 
L 274.797139 261.532474 
L 277.253466 258.706793 
L 279.609681 255.79711 
L 281.862914 252.806968 
L 284.010421 249.740011 
L 286.049583 246.599976 
L 287.977918 243.390687 
L 289.793076 240.116056 
L 291.492845 236.780072 
L 293.075155 233.386798 
L 294.538077 229.94037 
L 295.879829 226.444986 
L 297.098777 222.904905 
L 298.193435 219.324439 
L 299.162469 215.707952 
L 300.0047 212.059849 
L 300.719101 208.384575 
L 301.304802 204.686608 
L 301.761088 200.970452 
L 302.087405 197.240637 
L 302.283354 193.501705 
L 302.348697 189.758212 
L 302.348697 189.758212 
" style="fill:none;stroke:#000000;stroke-dasharray:1.000000,3.000000;stroke-dashoffset:0.0;stroke-width:0.5;"/>
     </g>
     <g id="text_7">
      <!-- -5dB -->
      <g transform="translate(294.183638722 146.438257194)scale(0.12 -0.12)">
       <use transform="scale(0.9962640099626402)" xlink:href="#Century_Schoolbook_L_Roman-45"/>
       <use transform="translate(33.17522972933531 0.0)scale(0.9962640099626402)" xlink:href="#Century_Schoolbook_L_Roman-53"/>
       <use transform="translate(88.56690669267591 0.0)scale(0.9962640099626402)" xlink:href="#Century_Schoolbook_L_Roman-100"/>
       <use transform="translate(145.752393976689 0.0)scale(0.9962640099626402)" xlink:href="#Century_Schoolbook_L_Roman-66"/>
      </g>
     </g>
    </g>
   </g>
   <g id="legend_1">
    <g id="patch_4">
     <path d="M 298.940325 74.715984 
L 355.981172 74.715984 
L 355.981172 28.860785 
L 298.940325 28.860785 
z
" style="fill:#ffffff;stroke:#000000;stroke-linejoin:miter;"/>
    </g>
    <g id="line2d_11">
     <path d="M 305.940325 36.752987 
L 319.940325 36.752987 
" style="fill:none;stroke:#0000ff;stroke-linecap:square;"/>
    </g>
    <g id="line2d_12"/>
    <g id="text_8">
     <!-- 25th %ile -->
     <defs>
      <path d="M 19.40625 47 
L 19.40625 67 
L 15.296875 67 
C 14.296875 53.875 9.90625 47.1875 1.796875 46.59375 
L 1.796875 42.703125 
L 10 42.703125 
L 10 17.265625 
C 10 10.28125 10.203125 7.78125 11.203125 5.484375 
C 12.796875 1.296875 16.796875 -1 22.59375 -1 
C 26.5 -1 29.90625 0.203125 32.203125 2.390625 
C 35.5 5.59375 37.40625 10.875 37.40625 16.375 
C 37.40625 16.96875 37.40625 17.671875 37.296875 18.671875 
L 33.09375 18.671875 
C 32.796875 9.6875 30.203125 5.09375 25.296875 5.09375 
C 23 5.09375 21 6.28125 20.296875 7.984375 
C 19.703125 9.375 19.40625 11.875 19.40625 15.46875 
L 19.40625 42.703125 
L 34.09375 42.703125 
L 34.09375 47 
z
" id="Century_Schoolbook_L_Roman-116"/>
      <path d="M 20 73 
L 1.5 73 
L 1.5 68.21875 
L 6.296875 68.21875 
C 10 68.21875 10.59375 67.515625 10.59375 63.21875 
L 10.59375 12.28125 
L 10.59375 8.28125 
C 10.59375 4.296875 9.5 3.59375 3.09375 3.59375 
L 2.703125 3.59375 
L 2.703125 0 
L 28 0 
L 28 3.59375 
L 27.59375 3.59375 
C 21.09375 3.59375 20 4.296875 20 8.28125 
L 20 12.28125 
L 20 22.5625 
C 20 27.546875 20.703125 32.03125 21.796875 34.328125 
C 23.90625 38.828125 28.40625 41.921875 32.703125 41.921875 
C 35.296875 41.921875 38.296875 40.421875 39.796875 38.421875 
C 41.296875 36.234375 42 33.234375 42 28.34375 
L 42 12.28125 
L 42 8.28125 
C 42 4.296875 40.90625 3.59375 34.40625 3.59375 
L 34 3.59375 
L 34 0 
L 59.296875 0 
L 59.296875 3.59375 
L 58.90625 3.59375 
C 52.5 3.59375 51.40625 4.296875 51.40625 8.28125 
L 51.40625 12.28125 
L 51.40625 27.953125 
C 51.40625 35.125 51.09375 36.921875 49.296875 40.328125 
C 46.796875 45.109375 41.796875 48 35.796875 48 
C 29.40625 48 24.5 45.015625 20 38.328125 
z
" id="Century_Schoolbook_L_Roman-104"/>
      <path d="M 50.5 21.5625 
L 46.09375 21.5625 
L 45.09375 16.46875 
C 43.796875 10.078125 43 9.375 36.796875 9.375 
L 14.40625 9.375 
C 21.296875 16.5625 23.59375 18.65625 30 23.65625 
C 39.09375 30.65625 43 34.15625 45.296875 37.140625 
C 48.5 41.53125 50.09375 46.03125 50.09375 50.8125 
C 50.09375 62.109375 40.59375 70.296875 27.59375 70.296875 
C 14.90625 70.296875 5.09375 62.109375 5.09375 51.515625 
C 5.09375 45.234375 8.296875 40.9375 13.09375 40.9375 
C 16.796875 40.9375 19.296875 43.4375 19.296875 47.03125 
C 19.296875 49.53125 17.90625 51.828125 15.703125 52.734375 
C 12 54.328125 11.796875 54.421875 11.796875 55.71875 
C 11.796875 57.21875 12.796875 59.515625 14.203125 61.21875 
C 16.703125 64.203125 20.90625 66 25.59375 66 
C 33.796875 66 38.796875 60.90625 38.796875 52.53125 
C 38.796875 45.125 35.296875 38.4375 27 29.65625 
L 21.09375 23.46875 
C 17.59375 19.78125 15 16.96875 13.296875 15.078125 
C 9.703125 10.875 7.90625 8.578125 3.5 2.796875 
L 3.5 0 
L 48.59375 0 
z
" id="Century_Schoolbook_L_Roman-50"/>
     </defs>
     <g transform="translate(330.940324637 40.2529865636)scale(0.1 -0.1)">
      <use transform="scale(0.9962640099626402)" xlink:href="#Century_Schoolbook_L_Roman-50"/>
      <use transform="translate(55.3916769633406 0.0)scale(0.9962640099626402)" xlink:href="#Century_Schoolbook_L_Roman-53"/>
      <use transform="translate(110.7833539266812 0.0)scale(0.9962640099626402)" xlink:href="#Century_Schoolbook_L_Roman-116"/>
      <use transform="translate(149.5370601212251 0.0)scale(0.9962640099626402)" xlink:href="#Century_Schoolbook_L_Roman-104"/>
     </g>
    </g>
    <g id="line2d_13">
     <path d="M 305.940325 51.038053 
L 319.940325 51.038053 
" style="fill:none;stroke:#008000;stroke-linecap:square;"/>
    </g>
    <g id="line2d_14"/>
    <g id="text_9">
     <!-- 50th %ile -->
     <g transform="translate(330.940324637 54.538052819)scale(0.1 -0.1)">
      <use transform="scale(0.9962640099626402)" xlink:href="#Century_Schoolbook_L_Roman-53"/>
      <use transform="translate(55.3916769633406 0.0)scale(0.9962640099626402)" xlink:href="#Century_Schoolbook_L_Roman-48"/>
      <use transform="translate(110.7833539266812 0.0)scale(0.9962640099626402)" xlink:href="#Century_Schoolbook_L_Roman-116"/>
      <use transform="translate(149.5370601212251 0.0)scale(0.9962640099626402)" xlink:href="#Century_Schoolbook_L_Roman-104"/>
     </g>
    </g>
    <g id="line2d_15">
     <path d="M 305.940325 65.323119 
L 319.940325 65.323119 
" style="fill:none;stroke:#ff0000;stroke-linecap:square;"/>
    </g>
    <g id="line2d_16"/>
    <g id="text_10">
     <!-- 75th %ile -->
     <defs>
      <path d="M 5.90625 46.171875 
L 10.296875 45.484375 
L 12.09375 53.40625 
C 13.59375 60.015625 14.296875 61 17.203125 61 
C 17.703125 61 18.59375 61 19.40625 60.609375 
C 25.203125 60.609375 32.40625 60.609375 36.5 60.609375 
C 37.90625 60.609375 40 60.609375 42.703125 60.609375 
L 35.90625 46.84375 
C 28.40625 31.859375 27.59375 30.15625 25.09375 24.03125 
C 22.09375 16.484375 20.40625 10.15625 20.40625 5.921875 
C 20.40625 1.40625 22.796875 -1.5 26.703125 -1.5 
C 31.5 -1.5 33.40625 1.796875 33.296875 10.421875 
C 32.796875 24.734375 34.703125 31.84375 45.296875 55.265625 
C 46.796875 58.484375 48.296875 61.59375 49.796875 64.6875 
C 49.90625 64.890625 50.203125 65.796875 50.796875 67.09375 
L 50.796875 69.984375 
C 44.59375 69.890625 41.296875 69.890625 35.203125 69.890625 
C 26.703125 69.890625 19.90625 69.890625 9 69.890625 
z
" id="Century_Schoolbook_L_Roman-55"/>
     </defs>
     <g transform="translate(330.940324637 68.8231190745)scale(0.1 -0.1)">
      <use transform="scale(0.9962640099626402)" xlink:href="#Century_Schoolbook_L_Roman-55"/>
      <use transform="translate(55.3916769633406 0.0)scale(0.9962640099626402)" xlink:href="#Century_Schoolbook_L_Roman-53"/>
      <use transform="translate(110.7833539266812 0.0)scale(0.9962640099626402)" xlink:href="#Century_Schoolbook_L_Roman-116"/>
      <use transform="translate(149.5370601212251 0.0)scale(0.9962640099626402)" xlink:href="#Century_Schoolbook_L_Roman-104"/>
     </g>
    </g>
   </g>
  </g>
 </g>
 <defs>
  <clipPath id="p89fde0a7b0">
   <path d="M 195.083746 350.655638 
C 237.754242 350.655638 278.68281 333.702471 308.855407 303.529873 
C 339.028005 273.357276 355.981172 232.428708 355.981172 189.758212 
C 355.981172 147.087716 339.028005 106.159148 308.855407 75.986551 
C 278.68281 45.813953 237.754242 28.860785 195.083746 28.860785 
C 152.41325 28.860785 111.484682 45.813953 81.312085 75.986551 
C 51.139487 106.159148 34.186319 147.087716 34.186319 189.758212 
C 34.186319 232.428708 51.139487 273.357276 81.312085 303.529873 
C 111.484682 333.702471 152.41325 350.655638 195.083746 350.655638 
z
"/>
  </clipPath>
 </defs>
</svg>
