<?xml version="1.0" encoding="utf-8" standalone="no"?>
<!DOCTYPE svg PUBLIC "-//W3C//DTD SVG 1.1//EN"
  "http://www.w3.org/Graphics/SVG/1.1/DTD/svg11.dtd">
<!-- Created with matplotlib (http://matplotlib.org/) -->
<svg height="384pt" version="1.1" viewBox="0 0 528 384" width="528pt" xmlns="http://www.w3.org/2000/svg" xmlns:xlink="http://www.w3.org/1999/xlink">
 <defs>
  <style type="text/css">
*{stroke-linecap:butt;stroke-linejoin:round;stroke-miterlimit:100000;}
  </style>
 </defs>
 <g id="figure_1">
  <g id="patch_1">
   <path d="M 0 384.48 
L 528.48 384.48 
L 528.48 0 
L 0 0 
z
" style="fill:#ffffff;"/>
  </g>
  <g id="axes_1">
   <g id="patch_2">
    <path d="M 39.048066 343.171855 
L 515.033344 343.171855 
L 515.033344 7.2 
L 39.048066 7.2 
z
" style="fill:#ffffff;"/>
   </g>
   <g id="PolyCollection_1">
    <defs>
     <path d="M 43.807919 -62.306386 
L 43.807919 -57.056826 
L 48.567772 -62.306386 
L 53.327625 -67.555947 
L 58.087478 -72.805507 
L 62.847331 -78.055067 
L 67.607183 -83.304627 
L 72.367036 -88.554188 
L 77.12689 -88.554188 
L 81.886741 -93.803748 
L 86.646595 -99.053308 
L 91.406445 -99.053308 
L 96.1663 -104.302868 
L 100.92615 -109.552428 
L 105.686005 -114.801989 
L 110.44586 -114.801989 
L 115.205715 -120.051549 
L 119.96556 -125.301109 
L 124.725415 -125.301109 
L 129.48527 -130.550669 
L 134.245124 -135.80023 
L 139.00497 -135.80023 
L 143.764825 -141.04979 
L 148.52468 -146.29935 
L 153.284534 -146.29935 
L 158.044389 -151.54891 
L 162.804235 -156.79847 
L 167.564089 -156.79847 
L 172.323944 -162.048031 
L 177.083799 -162.048031 
L 181.843654 -167.297591 
L 186.603499 -172.547151 
L 191.363363 -172.547151 
L 196.1232 -177.796711 
L 200.883054 -177.796711 
L 205.642909 -183.046272 
L 210.402764 -188.295832 
L 215.162619 -188.295832 
L 219.922473 -193.545392 
L 224.682328 -193.545392 
L 229.442183 -198.794952 
L 234.202037 -204.044513 
L 238.961874 -204.044513 
L 243.721729 -209.294073 
L 248.481584 -213.231243 
L 253.241438 -214.543633 
L 258.001293 -219.793193 
L 262.761148 -219.793193 
L 267.521002 -225.042753 
L 272.280857 -225.042753 
L 277.040712 -230.292314 
L 281.800567 -235.541874 
L 286.560403 -235.541874 
L 291.320258 -240.791434 
L 296.080113 -240.791434 
L 300.839967 -246.040994 
L 305.599822 -251.290555 
L 310.359677 -251.290555 
L 315.119532 -256.540115 
L 319.879386 -256.540115 
L 324.639241 -261.789675 
L 329.399078 -261.789675 
L 334.158932 -267.039235 
L 338.918787 -270.976405 
L 343.67866 -272.288795 
L 348.438515 -277.538356 
L 353.198333 -277.538356 
L 357.958188 -282.787916 
L 362.718043 -282.787916 
L 367.477897 -288.037476 
L 372.237752 -293.287036 
L 376.997607 -293.287036 
L 381.757462 -298.536597 
L 386.517316 -298.536597 
L 391.277171 -303.786157 
L 396.037026 -309.035717 
L 400.79688 -309.035717 
L 405.556735 -314.285277 
L 410.31659 -314.285277 
L 415.076445 -319.534838 
L 419.836299 -319.534838 
L 424.596154 -324.784398 
L 429.356009 -330.033958 
L 434.115863 -330.033958 
L 438.875682 -335.283518 
L 443.635537 -335.283518 
L 448.395392 -340.533078 
L 453.155246 -340.533078 
L 457.915101 -345.782639 
L 462.674956 -351.032199 
L 467.43481 -351.032199 
L 472.194665 -356.281759 
L 476.95452 -356.281759 
L 481.714375 -361.531319 
L 486.474229 -361.531319 
L 491.234084 -366.78088 
L 495.993939 -366.78088 
L 500.753793 -372.03044 
L 505.513648 -372.03044 
L 510.273503 -372.03044 
L 515.033358 -377.28 
L 515.033358 -377.28 
L 515.033358 -377.28 
L 510.273503 -377.28 
L 505.513648 -377.28 
L 500.753793 -377.28 
L 495.993939 -372.03044 
L 491.234084 -372.03044 
L 486.474229 -372.03044 
L 481.714375 -366.78088 
L 476.95452 -366.78088 
L 472.194665 -366.78088 
L 467.43481 -361.531319 
L 462.674956 -361.531319 
L 457.915101 -356.281759 
L 453.155246 -356.281759 
L 448.395392 -351.032199 
L 443.635537 -351.032199 
L 438.875682 -345.782639 
L 434.115863 -345.782639 
L 429.356009 -340.533078 
L 424.596154 -340.533078 
L 419.836299 -335.283518 
L 415.076445 -335.283518 
L 410.31659 -330.033958 
L 405.556735 -330.033958 
L 400.79688 -324.784398 
L 396.037026 -324.784398 
L 391.277171 -319.534838 
L 386.517316 -319.534838 
L 381.757462 -314.285277 
L 376.997607 -314.285277 
L 372.237752 -309.035717 
L 367.477897 -309.035717 
L 362.718043 -303.786157 
L 357.958188 -298.536597 
L 353.198333 -298.536597 
L 348.438515 -293.287036 
L 343.67866 -288.037476 
L 338.918787 -288.037476 
L 334.158932 -288.037476 
L 329.399078 -282.787916 
L 324.639241 -277.538356 
L 319.879386 -277.538356 
L 315.119532 -272.288795 
L 310.359677 -272.288795 
L 305.599822 -267.039235 
L 300.839967 -261.789675 
L 296.080113 -261.789675 
L 291.320258 -256.540115 
L 286.560403 -256.540115 
L 281.800567 -251.290555 
L 277.040712 -246.040994 
L 272.280857 -246.040994 
L 267.521002 -240.791434 
L 262.761148 -240.791434 
L 258.001293 -235.541874 
L 253.241438 -230.292314 
L 248.481584 -230.292314 
L 243.721729 -230.292314 
L 238.961874 -225.042753 
L 234.202037 -219.793193 
L 229.442183 -214.543633 
L 224.682328 -214.543633 
L 219.922473 -209.294073 
L 215.162619 -204.044513 
L 210.402764 -204.044513 
L 205.642909 -198.794952 
L 200.883054 -198.794952 
L 196.1232 -193.545392 
L 191.363363 -188.295832 
L 186.603499 -188.295832 
L 181.843654 -183.046272 
L 177.083799 -177.796711 
L 172.323944 -177.796711 
L 167.564089 -172.547151 
L 162.804235 -167.297591 
L 158.044389 -167.297591 
L 153.284534 -162.048031 
L 148.52468 -156.79847 
L 143.764825 -152.8613 
L 139.00497 -151.54891 
L 134.245124 -146.29935 
L 129.48527 -146.29935 
L 124.725415 -141.04979 
L 119.96556 -135.80023 
L 115.205715 -130.550669 
L 110.44586 -130.550669 
L 105.686005 -125.301109 
L 100.92615 -120.051549 
L 96.1663 -114.801989 
L 91.406445 -114.801989 
L 86.646595 -109.552428 
L 81.886741 -104.302868 
L 77.12689 -99.053308 
L 72.367036 -93.803748 
L 67.607183 -88.554188 
L 62.847331 -88.554188 
L 58.087478 -83.304627 
L 53.327625 -72.805507 
L 48.567772 -67.555947 
L 43.807919 -62.306386 
z
" id="ma636769775" style="stroke:#1b2acc;stroke-opacity:0.5;"/>
    </defs>
    <g clip-path="url(#p80e02dd7ae)">
     <use style="fill:#089fff;fill-opacity:0.5;stroke:#1b2acc;stroke-opacity:0.5;" x="0.0" xlink:href="#ma636769775" y="384.48"/>
    </g>
   </g>
   <g id="PathCollection_1">
    <defs>
     <path d="M 0 2.236068 
C 0.593012 2.236068 1.161816 2.000462 1.581139 1.581139 
C 2.000462 1.161816 2.236068 0.593012 2.236068 0 
C 2.236068 -0.593012 2.000462 -1.161816 1.581139 -1.581139 
C 1.161816 -2.000462 0.593012 -2.236068 0 -2.236068 
C -0.593012 -2.236068 -1.161816 -2.000462 -1.581139 -1.581139 
C -2.000462 -1.161816 -2.236068 -0.593012 -2.236068 0 
C -2.236068 0.593012 -2.000462 1.161816 -1.581139 1.581139 
C -1.161816 2.000462 -0.593012 2.236068 0 2.236068 
z
" id="mdccd4459db" style="stroke:#cc4f1b;"/>
    </defs>
    <g clip-path="url(#p80e02dd7ae)">
     <use style="fill:#cc4f1b;stroke:#cc4f1b;" x="43.8079191184" xlink:href="#mdccd4459db" y="337.922294293"/>
     <use style="fill:#cc4f1b;stroke:#cc4f1b;" x="48.5677721468" xlink:href="#mdccd4459db" y="332.672734066"/>
     <use style="fill:#cc4f1b;stroke:#cc4f1b;" x="53.3276246107" xlink:href="#mdccd4459db" y="332.672734066"/>
     <use style="fill:#cc4f1b;stroke:#cc4f1b;" x="58.0874782035" xlink:href="#mdccd4459db" y="327.42317384"/>
     <use style="fill:#cc4f1b;stroke:#cc4f1b;" x="62.8473306674" xlink:href="#mdccd4459db" y="322.173613613"/>
     <use style="fill:#cc4f1b;stroke:#cc4f1b;" x="67.6071831314" xlink:href="#mdccd4459db" y="322.173613613"/>
     <use style="fill:#cc4f1b;stroke:#cc4f1b;" x="72.3670355953" xlink:href="#mdccd4459db" y="316.924053386"/>
     <use style="fill:#cc4f1b;stroke:#cc4f1b;" x="77.1268903169" xlink:href="#mdccd4459db" y="316.924053386"/>
     <use style="fill:#cc4f1b;stroke:#cc4f1b;" x="81.8867405232" xlink:href="#mdccd4459db" y="311.674493159"/>
     <use style="fill:#cc4f1b;stroke:#cc4f1b;" x="86.6465952448" xlink:href="#mdccd4459db" y="306.424932932"/>
     <use style="fill:#cc4f1b;stroke:#cc4f1b;" x="91.4064454511" xlink:href="#mdccd4459db" y="306.424932932"/>
     <use style="fill:#cc4f1b;stroke:#cc4f1b;" x="96.1663001727" xlink:href="#mdccd4459db" y="301.175372705"/>
     <use style="fill:#cc4f1b;stroke:#cc4f1b;" x="100.926150379" xlink:href="#mdccd4459db" y="295.925812478"/>
     <use style="fill:#cc4f1b;stroke:#cc4f1b;" x="105.686005101" xlink:href="#mdccd4459db" y="295.925812478"/>
     <use style="fill:#cc4f1b;stroke:#cc4f1b;" x="110.445859822" xlink:href="#mdccd4459db" y="290.676252251"/>
     <use style="fill:#cc4f1b;stroke:#cc4f1b;" x="115.205714544" xlink:href="#mdccd4459db" y="290.676252251"/>
     <use style="fill:#cc4f1b;stroke:#cc4f1b;" x="119.965560235" xlink:href="#mdccd4459db" y="285.426692025"/>
     <use style="fill:#cc4f1b;stroke:#cc4f1b;" x="124.725414956" xlink:href="#mdccd4459db" y="285.426692025"/>
     <use style="fill:#cc4f1b;stroke:#cc4f1b;" x="129.485269678" xlink:href="#mdccd4459db" y="285.426692025"/>
     <use style="fill:#cc4f1b;stroke:#cc4f1b;" x="134.2451244" xlink:href="#mdccd4459db" y="274.927571571"/>
     <use style="fill:#cc4f1b;stroke:#cc4f1b;" x="139.00497009" xlink:href="#mdccd4459db" y="274.927571571"/>
     <use style="fill:#cc4f1b;stroke:#cc4f1b;" x="143.764824812" xlink:href="#mdccd4459db" y="274.927571571"/>
     <use style="fill:#cc4f1b;stroke:#cc4f1b;" x="148.524679534" xlink:href="#mdccd4459db" y="274.927571571"/>
     <use style="fill:#cc4f1b;stroke:#cc4f1b;" x="153.284534255" xlink:href="#mdccd4459db" y="274.927571571"/>
     <use style="fill:#cc4f1b;stroke:#cc4f1b;" x="158.044388977" xlink:href="#mdccd4459db" y="253.929330663"/>
     <use style="fill:#cc4f1b;stroke:#cc4f1b;" x="162.804234668" xlink:href="#mdccd4459db" y="253.929330663"/>
     <use style="fill:#cc4f1b;stroke:#cc4f1b;" x="167.564089389" xlink:href="#mdccd4459db" y="253.929330663"/>
     <use style="fill:#cc4f1b;stroke:#cc4f1b;" x="172.323944111" xlink:href="#mdccd4459db" y="253.929330663"/>
     <use style="fill:#cc4f1b;stroke:#cc4f1b;" x="177.083798833" xlink:href="#mdccd4459db" y="253.929330663"/>
     <use style="fill:#cc4f1b;stroke:#cc4f1b;" x="181.843653554" xlink:href="#mdccd4459db" y="253.929330663"/>
     <use style="fill:#cc4f1b;stroke:#cc4f1b;" x="186.603499245" xlink:href="#mdccd4459db" y="253.929330663"/>
     <use style="fill:#cc4f1b;stroke:#cc4f1b;" x="191.363362998" xlink:href="#mdccd4459db" y="253.929330663"/>
     <use style="fill:#cc4f1b;stroke:#cc4f1b;" x="196.123199658" xlink:href="#mdccd4459db" y="253.929330663"/>
     <use style="fill:#cc4f1b;stroke:#cc4f1b;" x="200.883054379" xlink:href="#mdccd4459db" y="227.681529529"/>
     <use style="fill:#cc4f1b;stroke:#cc4f1b;" x="205.642909101" xlink:href="#mdccd4459db" y="227.681529529"/>
     <use style="fill:#cc4f1b;stroke:#cc4f1b;" x="210.402763823" xlink:href="#mdccd4459db" y="227.681529529"/>
     <use style="fill:#cc4f1b;stroke:#cc4f1b;" x="215.162618544" xlink:href="#mdccd4459db" y="227.681529529"/>
     <use style="fill:#cc4f1b;stroke:#cc4f1b;" x="219.922473266" xlink:href="#mdccd4459db" y="227.681529529"/>
     <use style="fill:#cc4f1b;stroke:#cc4f1b;" x="224.682327987" xlink:href="#mdccd4459db" y="227.681529529"/>
     <use style="fill:#cc4f1b;stroke:#cc4f1b;" x="229.442182709" xlink:href="#mdccd4459db" y="227.681529529"/>
     <use style="fill:#cc4f1b;stroke:#cc4f1b;" x="234.202037431" xlink:href="#mdccd4459db" y="227.681529529"/>
     <use style="fill:#cc4f1b;stroke:#cc4f1b;" x="238.961874091" xlink:href="#mdccd4459db" y="227.681529529"/>
     <use style="fill:#cc4f1b;stroke:#cc4f1b;" x="243.721728812" xlink:href="#mdccd4459db" y="227.681529529"/>
     <use style="fill:#cc4f1b;stroke:#cc4f1b;" x="248.481583534" xlink:href="#mdccd4459db" y="227.681529529"/>
     <use style="fill:#cc4f1b;stroke:#cc4f1b;" x="253.241438256" xlink:href="#mdccd4459db" y="227.681529529"/>
     <use style="fill:#cc4f1b;stroke:#cc4f1b;" x="258.001292977" xlink:href="#mdccd4459db" y="227.681529529"/>
     <use style="fill:#cc4f1b;stroke:#cc4f1b;" x="262.761147699" xlink:href="#mdccd4459db" y="227.681529529"/>
     <use style="fill:#cc4f1b;stroke:#cc4f1b;" x="267.521002421" xlink:href="#mdccd4459db" y="227.681529529"/>
     <use style="fill:#cc4f1b;stroke:#cc4f1b;" x="272.280857142" xlink:href="#mdccd4459db" y="227.681529529"/>
     <use style="fill:#cc4f1b;stroke:#cc4f1b;" x="277.040711864" xlink:href="#mdccd4459db" y="169.936367033"/>
     <use style="fill:#cc4f1b;stroke:#cc4f1b;" x="281.800566585" xlink:href="#mdccd4459db" y="169.936367033"/>
     <use style="fill:#cc4f1b;stroke:#cc4f1b;" x="286.560403246" xlink:href="#mdccd4459db" y="169.936367033"/>
     <use style="fill:#cc4f1b;stroke:#cc4f1b;" x="291.320257967" xlink:href="#mdccd4459db" y="169.936367033"/>
     <use style="fill:#cc4f1b;stroke:#cc4f1b;" x="296.080112689" xlink:href="#mdccd4459db" y="169.936367033"/>
     <use style="fill:#cc4f1b;stroke:#cc4f1b;" x="300.83996741" xlink:href="#mdccd4459db" y="169.936367033"/>
     <use style="fill:#cc4f1b;stroke:#cc4f1b;" x="305.599822132" xlink:href="#mdccd4459db" y="169.936367033"/>
     <use style="fill:#cc4f1b;stroke:#cc4f1b;" x="310.359676854" xlink:href="#mdccd4459db" y="169.936367033"/>
     <use style="fill:#cc4f1b;stroke:#cc4f1b;" x="315.119531575" xlink:href="#mdccd4459db" y="169.936367033"/>
     <use style="fill:#cc4f1b;stroke:#cc4f1b;" x="319.879386297" xlink:href="#mdccd4459db" y="169.936367033"/>
     <use style="fill:#cc4f1b;stroke:#cc4f1b;" x="324.639241019" xlink:href="#mdccd4459db" y="169.936367033"/>
     <use style="fill:#cc4f1b;stroke:#cc4f1b;" x="329.399077679" xlink:href="#mdccd4459db" y="169.936367033"/>
     <use style="fill:#cc4f1b;stroke:#cc4f1b;" x="334.1589324" xlink:href="#mdccd4459db" y="169.936367033"/>
     <use style="fill:#cc4f1b;stroke:#cc4f1b;" x="338.918787122" xlink:href="#mdccd4459db" y="169.936367033"/>
     <use style="fill:#cc4f1b;stroke:#cc4f1b;" x="343.678659905" xlink:href="#mdccd4459db" y="169.936367033"/>
     <use style="fill:#cc4f1b;stroke:#cc4f1b;" x="348.438514627" xlink:href="#mdccd4459db" y="169.936367033"/>
     <use style="fill:#cc4f1b;stroke:#cc4f1b;" x="353.198333225" xlink:href="#mdccd4459db" y="169.936367033"/>
     <use style="fill:#cc4f1b;stroke:#cc4f1b;" x="357.958187947" xlink:href="#mdccd4459db" y="169.936367033"/>
     <use style="fill:#cc4f1b;stroke:#cc4f1b;" x="362.718042669" xlink:href="#mdccd4459db" y="169.936367033"/>
     <use style="fill:#cc4f1b;stroke:#cc4f1b;" x="367.47789739" xlink:href="#mdccd4459db" y="169.936367033"/>
     <use style="fill:#cc4f1b;stroke:#cc4f1b;" x="372.237752112" xlink:href="#mdccd4459db" y="169.936367033"/>
     <use style="fill:#cc4f1b;stroke:#cc4f1b;" x="376.997606833" xlink:href="#mdccd4459db" y="169.936367033"/>
     <use style="fill:#cc4f1b;stroke:#cc4f1b;" x="381.757461555" xlink:href="#mdccd4459db" y="169.936367033"/>
     <use style="fill:#cc4f1b;stroke:#cc4f1b;" x="386.517316277" xlink:href="#mdccd4459db" y="169.936367033"/>
     <use style="fill:#cc4f1b;stroke:#cc4f1b;" x="391.277170998" xlink:href="#mdccd4459db" y="169.936367033"/>
     <use style="fill:#cc4f1b;stroke:#cc4f1b;" x="396.03702572" xlink:href="#mdccd4459db" y="169.936367033"/>
     <use style="fill:#cc4f1b;stroke:#cc4f1b;" x="400.796880442" xlink:href="#mdccd4459db" y="169.936367033"/>
     <use style="fill:#cc4f1b;stroke:#cc4f1b;" x="405.556735163" xlink:href="#mdccd4459db" y="169.936367033"/>
     <use style="fill:#cc4f1b;stroke:#cc4f1b;" x="410.316589885" xlink:href="#mdccd4459db" y="169.936367033"/>
     <use style="fill:#cc4f1b;stroke:#cc4f1b;" x="415.076444606" xlink:href="#mdccd4459db" y="169.936367033"/>
     <use style="fill:#cc4f1b;stroke:#cc4f1b;" x="419.836299328" xlink:href="#mdccd4459db" y="169.936367033"/>
     <use style="fill:#cc4f1b;stroke:#cc4f1b;" x="424.59615405" xlink:href="#mdccd4459db" y="169.936367033"/>
     <use style="fill:#cc4f1b;stroke:#cc4f1b;" x="429.356008771" xlink:href="#mdccd4459db" y="169.936367033"/>
     <use style="fill:#cc4f1b;stroke:#cc4f1b;" x="434.115863493" xlink:href="#mdccd4459db" y="169.936367033"/>
     <use style="fill:#cc4f1b;stroke:#cc4f1b;" x="438.875682092" xlink:href="#mdccd4459db" y="169.936367033"/>
     <use style="fill:#cc4f1b;stroke:#cc4f1b;" x="443.635536813" xlink:href="#mdccd4459db" y="169.936367033"/>
     <use style="fill:#cc4f1b;stroke:#cc4f1b;" x="448.395391535" xlink:href="#mdccd4459db" y="169.936367033"/>
     <use style="fill:#cc4f1b;stroke:#cc4f1b;" x="453.155246256" xlink:href="#mdccd4459db" y="169.936367033"/>
     <use style="fill:#cc4f1b;stroke:#cc4f1b;" x="457.915100978" xlink:href="#mdccd4459db" y="169.936367033"/>
     <use style="fill:#cc4f1b;stroke:#cc4f1b;" x="462.6749557" xlink:href="#mdccd4459db" y="169.936367033"/>
     <use style="fill:#cc4f1b;stroke:#cc4f1b;" x="467.434810421" xlink:href="#mdccd4459db" y="169.936367033"/>
     <use style="fill:#cc4f1b;stroke:#cc4f1b;" x="472.194665143" xlink:href="#mdccd4459db" y="169.936367033"/>
     <use style="fill:#cc4f1b;stroke:#cc4f1b;" x="476.954519865" xlink:href="#mdccd4459db" y="169.936367033"/>
     <use style="fill:#cc4f1b;stroke:#cc4f1b;" x="481.714374586" xlink:href="#mdccd4459db" y="169.936367033"/>
     <use style="fill:#cc4f1b;stroke:#cc4f1b;" x="486.474229308" xlink:href="#mdccd4459db" y="169.936367033"/>
     <use style="fill:#cc4f1b;stroke:#cc4f1b;" x="491.234084029" xlink:href="#mdccd4459db" y="169.936367033"/>
     <use style="fill:#cc4f1b;stroke:#cc4f1b;" x="495.993938751" xlink:href="#mdccd4459db" y="169.936367033"/>
     <use style="fill:#cc4f1b;stroke:#cc4f1b;" x="500.753793473" xlink:href="#mdccd4459db" y="169.936367033"/>
     <use style="fill:#cc4f1b;stroke:#cc4f1b;" x="505.513648194" xlink:href="#mdccd4459db" y="169.936367033"/>
     <use style="fill:#cc4f1b;stroke:#cc4f1b;" x="510.273502916" xlink:href="#mdccd4459db" y="169.936367033"/>
     <use style="fill:#cc4f1b;stroke:#cc4f1b;" x="515.033357638" xlink:href="#mdccd4459db" y="1.95043977312"/>
    </g>
   </g>
   <g id="line2d_1">
    <path clip-path="url(#p80e02dd7ae)" d="M 43.807919 322.173614 
L 48.567772 316.924053 
L 53.327625 311.674493 
L 58.087478 306.424933 
L 62.847331 301.175373 
L 67.607183 295.925812 
L 72.367036 295.925812 
L 77.12689 290.676252 
L 81.886741 285.426692 
L 86.646595 280.177132 
L 91.406445 280.177132 
L 96.1663 274.927572 
L 100.92615 269.678011 
L 105.686005 264.428451 
L 110.44586 264.428451 
L 115.205715 259.178891 
L 119.96556 253.929331 
L 124.725415 253.929331 
L 129.48527 248.67977 
L 134.245124 243.43021 
L 139.00497 243.43021 
L 143.764825 238.18065 
L 148.52468 232.93109 
L 153.284534 232.93109 
L 158.044389 227.68153 
L 162.804235 222.431969 
L 167.564089 222.431969 
L 172.323944 217.182409 
L 177.083799 211.932849 
L 181.843654 211.932849 
L 186.603499 206.683289 
L 191.363363 201.433728 
L 196.1232 201.433728 
L 200.883054 196.184168 
L 205.642909 196.184168 
L 210.402764 190.934608 
L 215.162619 185.685048 
L 219.922473 185.685048 
L 224.682328 180.435487 
L 229.442183 175.185927 
L 234.202037 175.185927 
L 238.961874 169.936367 
L 243.721729 164.686807 
L 248.481584 164.686807 
L 253.241438 159.437247 
L 258.001293 159.437247 
L 262.761148 154.187686 
L 267.521002 154.187686 
L 272.280857 148.938126 
L 277.040712 143.688566 
L 281.800567 143.688566 
L 286.560403 138.439006 
L 291.320258 138.439006 
L 296.080113 133.189445 
L 300.839967 127.939885 
L 305.599822 127.939885 
L 310.359677 122.690325 
L 315.119532 122.690325 
L 319.879386 117.440765 
L 324.639241 117.440765 
L 329.399078 112.191205 
L 334.158932 106.941644 
L 338.918787 106.941644 
L 343.67866 101.692084 
L 348.438515 101.692084 
L 353.198333 96.442524 
L 357.958188 96.442524 
L 362.718043 91.192964 
L 367.477897 85.943403 
L 372.237752 85.943403 
L 376.997607 80.693843 
L 381.757462 80.693843 
L 386.517316 75.444283 
L 391.277171 75.444283 
L 396.037026 70.194723 
L 400.79688 64.945162 
L 405.556735 64.945162 
L 410.31659 59.695602 
L 415.076445 59.695602 
L 419.836299 54.446042 
L 424.596154 54.446042 
L 429.356009 49.196482 
L 434.115863 49.196482 
L 438.875682 43.946922 
L 443.635537 38.697361 
L 448.395392 38.697361 
L 453.155246 33.447801 
L 457.915101 33.447801 
L 462.674956 28.198241 
L 467.43481 28.198241 
L 472.194665 22.948681 
L 476.95452 22.948681 
L 481.714375 17.69912 
L 486.474229 17.69912 
L 491.234084 12.44956 
L 495.993939 12.44956 
L 500.753793 12.44956 
L 505.513648 7.2 
L 510.273503 7.2 
L 515.033358 7.2 
" style="fill:none;stroke:#1b2acc;stroke-linecap:square;"/>
   </g>
   <g id="patch_3">
    <path d="M 515.033344 343.171855 
L 515.033344 7.2 
" style="fill:none;stroke:#000000;stroke-linecap:square;stroke-linejoin:miter;"/>
   </g>
   <g id="patch_4">
    <path d="M 39.048066 7.2 
L 515.033344 7.2 
" style="fill:none;stroke:#000000;stroke-linecap:square;stroke-linejoin:miter;"/>
   </g>
   <g id="patch_5">
    <path d="M 39.048066 343.171855 
L 39.048066 7.2 
" style="fill:none;stroke:#000000;stroke-linecap:square;stroke-linejoin:miter;"/>
   </g>
   <g id="patch_6">
    <path d="M 39.048066 343.171855 
L 515.033344 343.171855 
" style="fill:none;stroke:#000000;stroke-linecap:square;stroke-linejoin:miter;"/>
   </g>
   <g id="matplotlib.axis_1">
    <g id="xtick_1">
     <g id="line2d_2">
      <defs>
       <path d="M 0 0 
L 0 -4 
" id="m1117857b17" style="stroke:#000000;stroke-width:0.5;"/>
      </defs>
      <g>
       <use style="stroke:#000000;stroke-width:0.5;" x="39.0480660901" xlink:href="#m1117857b17" y="343.17185452"/>
      </g>
     </g>
     <g id="line2d_3">
      <defs>
       <path d="M 0 0 
L 0 4 
" id="md1d2fe45e9" style="stroke:#000000;stroke-width:0.5;"/>
      </defs>
      <g>
       <use style="stroke:#000000;stroke-width:0.5;" x="39.0480660901" xlink:href="#md1d2fe45e9" y="7.2"/>
      </g>
     </g>
     <g id="text_1">
      <!-- $0$ -->
      <defs>
       <path d="M 42 31.640625 
C 42 37.75 41.90625 48.125 37.703125 56.109375 
C 34 63.109375 28.09375 65.59375 22.90625 65.59375 
C 18.09375 65.59375 12 63.40625 8.203125 56.203125 
C 4.203125 48.71875 3.796875 39.4375 3.796875 31.640625 
C 3.796875 25.953125 3.90625 17.28125 7 9.671875 
C 11.296875 -0.609375 19 -2 22.90625 -2 
C 27.5 -2 34.5 -0.109375 38.59375 9.375 
C 41.59375 16.28125 42 24.359375 42 31.640625 
M 22.90625 -0.40625 
C 16.5 -0.40625 12.703125 5.078125 11.296875 12.6875 
C 10.203125 18.5625 10.203125 27.15625 10.203125 32.75 
C 10.203125 40.4375 10.203125 46.828125 11.5 52.921875 
C 13.40625 61.390625 19 64 22.90625 64 
C 27 64 32.296875 61.296875 34.203125 53.125 
C 35.5 47.4375 35.59375 40.734375 35.59375 32.75 
C 35.59375 26.25 35.59375 18.265625 34.40625 12.375 
C 32.296875 1.484375 26.40625 -0.40625 22.90625 -0.40625 
" id="CMR17-48"/>
      </defs>
      <g transform="translate(36.1215709644 356.042504986)scale(0.12 -0.12)">
       <use transform="scale(0.9962640099626402)" xlink:href="#CMR17-48"/>
      </g>
     </g>
    </g>
    <g id="xtick_2">
     <g id="line2d_4">
      <g>
       <use style="stroke:#000000;stroke-width:0.5;" x="158.044385666" xlink:href="#m1117857b17" y="343.17185452"/>
      </g>
     </g>
     <g id="line2d_5">
      <g>
       <use style="stroke:#000000;stroke-width:0.5;" x="158.044385666" xlink:href="#md1d2fe45e9" y="7.2"/>
      </g>
     </g>
     <g id="text_2">
      <!-- $\frac{\pi}{2}$ -->
      <defs>
       <path d="M 41.703125 15.453125 
L 39.90625 15.453125 
C 38.90625 8.375 38.09375 7.171875 37.703125 6.5625 
C 37.203125 5.765625 30 5.765625 28.59375 5.765625 
L 9.40625 5.765625 
C 13 9.671875 20 16.75 28.5 24.953125 
C 34.59375 30.734375 41.703125 37.53125 41.703125 47.421875 
C 41.703125 59.21875 32.296875 66 21.796875 66 
C 10.796875 66 4.09375 56.3125 4.09375 47.34375 
C 4.09375 43.4375 7 42.9375 8.203125 42.9375 
C 9.203125 42.9375 12.203125 43.546875 12.203125 47.03125 
C 12.203125 50.109375 9.59375 51 8.203125 51 
C 7.59375 51 7 50.90625 6.59375 50.703125 
C 8.5 59.21875 14.296875 63.40625 20.40625 63.40625 
C 29.09375 63.40625 34.796875 56.515625 34.796875 47.421875 
C 34.796875 38.734375 29.703125 31.25 24 24.75 
L 4.09375 2.28125 
L 4.09375 0 
L 39.296875 0 
z
" id="CMR17-50"/>
       <path d="M 25.90625 37.625 
L 37.203125 37.625 
C 34.5 26.4375 32.796875 19.15625 32.796875 11.1875 
C 32.796875 9.78125 32.796875 -1 36.90625 -1 
C 39 -1 40.796875 0.890625 40.796875 2.59375 
C 40.796875 3.078125 40.796875 3.28125 40.09375 4.78125 
C 37.40625 11.671875 37.40625 20.25 37.40625 20.953125 
C 37.40625 21.546875 37.40625 28.625 39.5 37.625 
L 50.703125 37.625 
C 52 37.625 55.296875 37.625 55.296875 40.8125 
C 55.296875 43 53.40625 43 51.59375 43 
L 18.703125 43 
C 16.40625 43 13 43 8.40625 38.125 
C 5.796875 35.21875 2.59375 29.9375 2.59375 29.34375 
C 2.59375 28.75 3.09375 28.546875 3.703125 28.546875 
C 4.40625 28.546875 4.5 28.84375 5 29.4375 
C 10.203125 37.625 15.40625 37.625 17.90625 37.625 
L 23.59375 37.625 
C 21.40625 30.140625 18.90625 21.453125 10.703125 4 
C 9.90625 2.40625 9.90625 2.1875 9.90625 1.59375 
C 9.90625 -0.5 11.703125 -1 12.59375 -1 
C 15.5 -1 16.296875 1.59375 17.5 5.78125 
C 19.09375 10.875 19.09375 11.078125 20.09375 15.0625 
z
" id="CMMI12-25"/>
      </defs>
      <g transform="translate(155.469979022 357.161751416)scale(0.12 -0.12)">
       <use transform="translate(0.0 73.5813544666485)scale(0.6973817666173724)" xlink:href="#CMMI12-25"/>
       <use transform="translate(4.627027309698008 0.0)scale(0.6973817666173724)" xlink:href="#CMR17-50"/>
       <path d="M 0 57.269386 
L 41.237221 57.269386 
L 41.237221 61.254336 
L 0 61.254336 
L 0 57.269386 
z
"/>
      </g>
     </g>
    </g>
    <g id="xtick_3">
     <g id="line2d_6">
      <g>
       <use style="stroke:#000000;stroke-width:0.5;" x="277.040705241" xlink:href="#m1117857b17" y="343.17185452"/>
      </g>
     </g>
     <g id="line2d_7">
      <g>
       <use style="stroke:#000000;stroke-width:0.5;" x="277.040705241" xlink:href="#md1d2fe45e9" y="7.2"/>
      </g>
     </g>
     <g id="text_3">
      <!-- $\pi$ -->
      <g transform="translate(273.720544759 356.042504986)scale(0.12 -0.12)">
       <use transform="scale(0.9962640099626402)" xlink:href="#CMMI12-25"/>
      </g>
     </g>
    </g>
    <g id="xtick_4">
     <g id="line2d_8">
      <g>
       <use style="stroke:#000000;stroke-width:0.5;" x="396.037024817" xlink:href="#m1117857b17" y="343.17185452"/>
      </g>
     </g>
     <g id="line2d_9">
      <g>
       <use style="stroke:#000000;stroke-width:0.5;" x="396.037024817" xlink:href="#md1d2fe45e9" y="7.2"/>
      </g>
     </g>
     <g id="text_4">
      <!-- $\frac{3\pi}{2}$ -->
      <defs>
       <path d="M 22.09375 33.703125 
C 31 33.703125 34.90625 25.96875 34.90625 17.03125 
C 34.90625 5 28.5 0.390625 22.703125 0.390625 
C 17.40625 0.390625 8.796875 3.03125 6.09375 10.828125 
C 6.59375 10.625 7.09375 10.625 7.59375 10.625 
C 10 10.625 11.796875 12.21875 11.796875 14.8125 
C 11.796875 17.703125 9.59375 19 7.59375 19 
C 5.90625 19 3.296875 18.203125 3.296875 14.46875 
C 3.296875 5.234375 12.296875 -2 22.90625 -2 
C 34 -2 42.5 6.71875 42.5 16.953125 
C 42.5 26.671875 34.5 33.703125 25 34.796875 
C 32.59375 36.375 39.90625 43.0625 39.90625 52.015625 
C 39.90625 59.6875 32 65.296875 23 65.296875 
C 13.90625 65.296875 5.90625 59.828125 5.90625 52.015625 
C 5.90625 48.59375 8.5 48 9.796875 48 
C 11.90625 48 13.703125 49.296875 13.703125 51.890625 
C 13.703125 54.46875 11.90625 55.765625 9.796875 55.765625 
C 9.40625 55.765625 8.90625 55.765625 8.5 55.578125 
C 11.40625 61.859375 19.296875 63 22.796875 63 
C 26.296875 63 32.90625 61.328125 32.90625 51.875 
C 32.90625 49.109375 32.5 44.1875 29.09375 39.84375 
C 26.09375 36 22.703125 36 19.40625 35.6875 
C 18.90625 35.6875 16.59375 35.453125 16.203125 35.453125 
C 15.5 35.359375 15.09375 35.265625 15.09375 34.5 
C 15.09375 33.796875 15.203125 33.703125 17.203125 33.703125 
z
" id="CMR17-51"/>
      </defs>
      <g transform="translate(391.345526748 358.866479292)scale(0.12 -0.12)">
       <use transform="translate(0.0 73.5813544666485)scale(0.6973817666173724)" xlink:href="#CMR17-51"/>
       <use transform="translate(31.98318196411893 73.5813544666485)scale(0.6973817666173724)" xlink:href="#CMMI12-25"/>
       <use transform="translate(20.618618291757475 0.0)scale(0.6973817666173724)" xlink:href="#CMR17-50"/>
       <path d="M 0 57.269386 
L 73.220403 57.269386 
L 73.220403 61.254336 
L 0 61.254336 
L 0 57.269386 
z
"/>
      </g>
     </g>
    </g>
    <g id="xtick_5">
     <g id="line2d_10">
      <g>
       <use style="stroke:#000000;stroke-width:0.5;" x="515.033344392" xlink:href="#m1117857b17" y="343.17185452"/>
      </g>
     </g>
     <g id="line2d_11">
      <g>
       <use style="stroke:#000000;stroke-width:0.5;" x="515.033344392" xlink:href="#md1d2fe45e9" y="7.2"/>
      </g>
     </g>
     <g id="text_5">
      <!-- $2\pi$ -->
      <g transform="translate(508.786688784 356.042504986)scale(0.12 -0.12)">
       <use transform="scale(0.9962640099626402)" xlink:href="#CMR17-50"/>
       <use transform="translate(45.69047711706103 0.0)scale(0.9962640099626402)" xlink:href="#CMMI12-25"/>
      </g>
     </g>
    </g>
    <g id="text_6">
     <!-- Maximal Interval Width $w$, (radian) -->
     <defs>
      <path d="M 8.703125 -18.171875 
C 17.59375 -12.078125 21.796875 -6 21.796875 0.984375 
C 21.796875 6.984375 18.5 10.875 13.59375 10.875 
C 9.90625 10.875 7.09375 8.28125 7.09375 4.890625 
C 7.09375 1.296875 9.796875 -1 13.90625 -1 
C 14.296875 -1 15.296875 -1 15.5 -0.90625 
L 15.796875 -0.90625 
C 16.296875 -0.90625 16.5 -1.203125 16.5 -1.796875 
C 16.5 -6 13.09375 -10.6875 6.40625 -15.375 
z
" id="Century_Schoolbook_L_Roman-44"/>
      <path d="M 20 73 
L 1.5 73 
L 1.5 68.21875 
L 6.296875 68.21875 
C 10 68.21875 10.59375 67.515625 10.59375 63.21875 
L 10.59375 12.28125 
L 10.59375 8.28125 
C 10.59375 4.296875 9.5 3.59375 3.09375 3.59375 
L 2.703125 3.59375 
L 2.703125 0 
L 28 0 
L 28 3.59375 
L 27.59375 3.59375 
C 21.09375 3.59375 20 4.296875 20 8.28125 
L 20 12.28125 
L 20 22.5625 
C 20 27.546875 20.703125 32.03125 21.796875 34.328125 
C 23.90625 38.828125 28.40625 41.921875 32.703125 41.921875 
C 35.296875 41.921875 38.296875 40.421875 39.796875 38.421875 
C 41.296875 36.234375 42 33.234375 42 28.34375 
L 42 12.28125 
L 42 8.28125 
C 42 4.296875 40.90625 3.59375 34.40625 3.59375 
L 34 3.59375 
L 34 0 
L 59.296875 0 
L 59.296875 3.59375 
L 58.90625 3.59375 
C 52.5 3.59375 51.40625 4.296875 51.40625 8.28125 
L 51.40625 12.28125 
L 51.40625 27.953125 
C 51.40625 35.125 51.09375 36.921875 49.296875 40.328125 
C 46.796875 45.109375 41.796875 48 35.796875 48 
C 29.40625 48 24.5 45.015625 20 38.328125 
z
" id="Century_Schoolbook_L_Roman-104"/>
      <path d="M 20.59375 46 
L 1.796875 46 
L 1.796875 41.21875 
L 6.90625 41.21875 
C 10.59375 41.21875 11.203125 40.515625 11.203125 36.203125 
L 11.203125 12.296875 
L 11.203125 8.296875 
C 11.203125 4.296875 10.09375 3.59375 3.703125 3.59375 
L 3 3.59375 
L 3 0 
L 28.90625 0 
L 28.90625 3.59375 
L 28.203125 3.59375 
C 21.703125 3.59375 20.59375 4.28125 20.59375 8.21875 
L 20.59375 12.171875 
z
M 15.90625 71.578125 
C 12.703125 71.578125 10.09375 68.984375 10.09375 65.796875 
C 10.09375 62.703125 12.703125 60 15.796875 60 
C 19.09375 60 21.703125 62.59375 21.703125 65.796875 
C 21.703125 68.984375 19.09375 71.578125 15.90625 71.578125 
" id="Century_Schoolbook_L_Roman-105"/>
      <path d="M 38 0 
L 55.40625 0 
L 55.40625 4.703125 
L 53.59375 4.703125 
C 48.203125 4.703125 47.40625 5.703125 47.40625 11.96875 
L 47.40625 73.78125 
L 27.796875 73.78125 
L 27.796875 69 
L 33.703125 69 
C 37.296875 69 38 68.28125 38 63.921875 
L 38 41 
C 34.296875 46.09375 30 48.390625 24.203125 48.390625 
C 12.90625 48.390625 4.296875 37.546875 4.296875 23.203125 
C 4.296875 9.0625 12.59375 -1 24.203125 -1 
C 30.5 -1 34.796875 1.671875 38 7.59375 
z
M 26.203125 43 
C 30.296875 43 34.203125 40.03125 36 35.4375 
C 37.203125 32.453125 37.90625 28.28125 37.90625 23.515625 
C 37.90625 11.96875 33.296875 4.390625 26.09375 4.390625 
C 19.09375 4.390625 14.796875 10.96875 14.796875 22.015625 
C 14.796875 27.890625 15.40625 32.359375 16.703125 35.734375 
C 18.40625 40.125 22.09375 43 26.203125 43 
" id="Century_Schoolbook_L_Roman-100"/>
      <path d="M 19.796875 46 
L 2.09375 46 
L 2.09375 41.21875 
L 6.203125 41.21875 
C 9.90625 41.21875 10.5 40.515625 10.5 36.203125 
L 10.5 12.296875 
L 10.5 8.296875 
C 10.5 4.296875 9.40625 3.59375 2.90625 3.59375 
L 2.5 3.59375 
L 2.5 0 
L 29.203125 0 
L 29.203125 3.59375 
L 27.296875 3.59375 
C 20.90625 3.59375 19.796875 4.296875 19.796875 8.296875 
L 19.796875 12.296875 
L 19.796875 13.296875 
C 19.796875 20.8125 21.203125 28.40625 23.703125 34.109375 
C 26.09375 39.703125 29.5 42.8125 33.703125 43.3125 
C 32.296875 41.703125 31.90625 40.6875 31.90625 38.765625 
C 31.90625 35.546875 34.203125 33.234375 37.40625 33.234375 
C 41 33.234375 43.5 35.9375 43.5 40.015625 
C 43.5 44.8125 40.09375 48 34.796875 48 
C 28.5 48 23 42.921875 19.796875 34.140625 
z
" id="Century_Schoolbook_L_Roman-114"/>
      <path d="M 45.203125 32.578125 
C 45.203125 38.796875 44.09375 41.96875 41.203125 44.34375 
C 37.90625 46.90625 33 48.28125 26.59375 48.28125 
C 15.40625 48.28125 7.09375 43.046875 7.09375 35.921875 
C 7.09375 32.15625 9.40625 29.78125 12.90625 29.78125 
C 16 29.78125 18.296875 31.859375 18.296875 34.8125 
C 18.296875 36.109375 17.796875 37.484375 16.796875 38.875 
C 16.203125 39.546875 16.09375 39.84375 16.09375 40.15625 
C 16.09375 42.21875 20.203125 44 25 44 
C 28.09375 44 31.59375 43.015625 33.203125 41.53125 
C 35.09375 39.953125 35.796875 37.578125 35.796875 33.125 
L 35.796875 29.28125 
C 25.296875 27.484375 22.09375 26.6875 17.203125 24.8125 
C 8.59375 21.609375 4.40625 16.9375 4.40625 10.65625 
C 4.40625 3.578125 10.09375 -1 18.90625 -1 
C 25.796875 -1 32 1.859375 36.296875 7.0625 
C 37.90625 1.984375 40.40625 0 45.09375 0 
C 49.59375 0 54.296875 2.890625 54.296875 5.78125 
C 54.296875 6.46875 53.796875 6.96875 53.296875 6.96875 
C 52.90625 6.96875 52.5 6.875 51.796875 6.578125 
C 50.203125 6 49.796875 5.890625 49 5.890625 
C 46.203125 5.890625 45.203125 7.78125 45.203125 12.71875 
z
M 35.796875 20.46875 
C 35.796875 14.46875 35.5 13.078125 33.796875 10.484375 
C 31.296875 6.78125 26.703125 4.296875 22.40625 4.296875 
C 17.90625 4.296875 14.5 7.59375 14.5 12.078125 
C 14.5 16.265625 16.59375 19.265625 21 21.359375 
C 24.09375 22.75 28 23.75 35.796875 25.046875 
z
" id="Century_Schoolbook_L_Roman-97"/>
      <path d="M 20.40625 73 
L 1.90625 73 
L 1.90625 68.21875 
L 6.796875 68.21875 
C 10.40625 68.21875 11 67.515625 11 63.21875 
L 11 12.28125 
L 11 8.28125 
C 11 4.296875 9.90625 3.59375 3.5 3.59375 
L 2.796875 3.59375 
L 2.796875 0 
L 28.703125 0 
L 28.703125 3.59375 
L 28 3.59375 
C 21.5 3.59375 20.40625 4.296875 20.40625 8.25 
L 20.40625 12.21875 
z
" id="Century_Schoolbook_L_Roman-108"/>
      <path d="M 20 46 
L 2.703125 46 
L 2.703125 41.21875 
L 6.296875 41.21875 
C 10 41.21875 10.59375 40.515625 10.59375 36.203125 
L 10.59375 12.296875 
L 10.59375 8.296875 
C 10.59375 4.296875 9.5 3.59375 3.09375 3.59375 
L 2.703125 3.59375 
L 2.703125 0 
L 28 0 
L 28 3.59375 
L 27.59375 3.59375 
C 21.09375 3.59375 20 4.296875 20 8.28125 
L 20 12.28125 
L 20 22.65625 
C 20 27.546875 20.703125 32.03125 21.796875 34.328125 
C 23.90625 38.828125 28.40625 41.921875 32.703125 41.921875 
C 35.296875 41.921875 38.296875 40.421875 39.796875 38.421875 
C 41.296875 36.328125 42 33.234375 42 28.4375 
L 42 12.28125 
L 42 8.28125 
C 42 4.296875 40.90625 3.59375 34.40625 3.59375 
L 34 3.59375 
L 34 0 
L 59.296875 0 
L 59.296875 3.59375 
L 58.90625 3.59375 
C 52.5 3.59375 51.40625 4.296875 51.40625 8.28125 
L 51.40625 12.28125 
L 51.40625 27.953125 
C 51.40625 35.125 51.09375 36.921875 49.296875 40.328125 
C 46.796875 45.109375 41.703125 48 35.796875 48 
C 29.40625 48 24.40625 45.046875 20 38.515625 
z
" id="Century_Schoolbook_L_Roman-110"/>
      <path d="M 30.90625 25.5 
L 42.296875 38.78125 
C 44.703125 41.59375 47.203125 43 49.796875 43 
L 50.703125 43 
L 50.703125 46.59375 
L 30 46.59375 
L 30 43 
L 31.90625 43 
C 34.90625 43 36.40625 42.203125 36.40625 40.796875 
C 36.40625 39.796875 35.703125 38.296875 34.40625 36.703125 
L 28.09375 29.203125 
L 20.40625 39 
C 19.796875 39.703125 19.40625 40.59375 19.40625 41.203125 
C 19.40625 42.5 20.703125 43 23.796875 43 
L 25.203125 43 
L 25.203125 46.59375 
L 1.5 46.59375 
L 1.5 43 
C 5.203125 42.6875 6.5 41.796875 9.796875 37.59375 
L 22 22.203125 
L 10.5 8.796875 
C 7.703125 5.484375 4.40625 3.59375 1.5 3.59375 
L 0.90625 3.59375 
L 0.90625 0 
L 22 0 
L 22 3.59375 
L 20.5 3.59375 
C 18.203125 3.59375 17.703125 3.6875 17 4 
C 16.203125 4.390625 15.59375 5.40625 15.59375 6.296875 
C 15.59375 7 15.90625 7.90625 16.40625 8.40625 
L 24.796875 18.5 
L 32.40625 8.40625 
C 33.09375 7.40625 33.703125 6.09375 33.703125 5.390625 
C 33.703125 4.09375 32.203125 3.59375 28.40625 3.59375 
L 27.703125 3.59375 
L 27.703125 0 
L 52.90625 0 
L 52.90625 3.59375 
L 52.203125 3.59375 
C 48.703125 3.59375 46.09375 4.984375 43.5 8.5 
z
" id="Century_Schoolbook_L_Roman-120"/>
      <path d="M 27.90625 73.453125 
C 21.90625 69.765625 18.703125 67.171875 15.296875 63.171875 
C 7.703125 54.1875 3.59375 42.71875 3.59375 30.640625 
C 3.59375 19.265625 7.203125 8.578125 13.90625 -0.296875 
C 17.703125 -5.09375 21.09375 -8.078125 27.90625 -12.28125 
L 27.90625 -8.578125 
C 17.90625 0.203125 13.90625 11.484375 13.90625 30.640625 
C 13.90625 49.796875 17.90625 60.984375 27.90625 69.765625 
z
" id="Century_Schoolbook_L_Roman-40"/>
      <path d="M 20.09375 46 
L 2.296875 46 
L 2.296875 41.21875 
L 6.40625 41.21875 
C 10.09375 41.21875 10.703125 40.515625 10.703125 36.203125 
L 10.703125 12.296875 
L 10.703125 8.40625 
C 10.703125 4.296875 9.59375 3.59375 3.203125 3.59375 
L 2.796875 3.59375 
L 2.796875 0 
L 28 0 
L 28 3.59375 
L 27.59375 3.59375 
C 21.203125 3.59375 20.09375 4.296875 20.09375 8.390625 
L 20.09375 12.28125 
L 20.09375 26.453125 
C 20.09375 35.328125 25 41.921875 31.5 41.921875 
C 34.09375 41.921875 36.90625 40.515625 38.09375 38.625 
C 39.5 36.734375 40.09375 33.828125 40.09375 29.734375 
L 40.09375 12.28125 
L 40.09375 8.28125 
C 40.09375 4.296875 39 3.59375 32.5 3.59375 
L 32.09375 3.59375 
L 32.09375 0 
L 57.40625 0 
L 57.40625 3.59375 
L 57 3.59375 
C 50.59375 3.59375 49.5 4.296875 49.5 8.28125 
L 49.5 12.28125 
L 49.5 25.546875 
C 49.5 35.53125 54 41.921875 61 41.921875 
C 64.296875 41.921875 67 40.015625 68.296875 36.921875 
C 69.203125 34.734375 69.5 32.53125 69.5 28.640625 
L 69.5 12.28125 
L 69.5 8.28125 
C 69.5 4.296875 68.40625 3.59375 61.90625 3.59375 
L 61.5 3.59375 
L 61.5 0 
L 86.796875 0 
L 86.796875 3.59375 
L 86.40625 3.59375 
C 80 3.59375 78.90625 4.296875 78.90625 8.390625 
L 78.90625 12.28125 
L 78.90625 30.640625 
C 78.90625 36.828125 78.296875 38.921875 75.703125 42.3125 
C 72.796875 46.015625 68.703125 48 63.90625 48 
C 57.40625 48 52.59375 44.9375 48.296875 38.109375 
C 46.59375 44.046875 41.203125 48 34.5 48 
C 28.5 48 24 45.140625 20.09375 38.921875 
z
" id="Century_Schoolbook_L_Roman-109"/>
      <path d="M 46.5 23 
C 46.59375 37.8125 38.09375 48.28125 25.90625 48.28125 
C 13.09375 48.28125 3.5 37.25 3.5 22.34375 
C 3.5 8.4375 12.59375 -1 26.09375 -1 
C 35.59375 -1 42.40625 3.6875 46.5 13.1875 
L 43 15.09375 
C 38.90625 7.390625 34.703125 4.390625 28 4.390625 
C 22.90625 4.390625 19.203125 6.59375 16.59375 11 
C 14.796875 14 14 17.5 14.09375 23 
z
M 14.203125 27.296875 
C 14.203125 30.34375 14.59375 32.5 15.59375 35.25 
C 17.703125 41.140625 20.90625 44 25.703125 44 
C 31.796875 44 35.796875 38.78125 35.796875 30.921875 
C 35.796875 28.078125 34.90625 27.296875 31.703125 27.296875 
z
" id="Century_Schoolbook_L_Roman-101"/>
      <path d="M 5.40625 -12.28125 
C 11.40625 -8.578125 14.59375 -5.984375 18 -1.890625 
C 25.59375 6.984375 29.703125 18.5625 29.703125 30.640625 
C 29.703125 42.015625 26.09375 52.703125 19.40625 61.484375 
C 15.59375 66.375 12.203125 69.359375 5.40625 73.453125 
L 5.40625 69.765625 
C 15.40625 60.984375 19.40625 49.796875 19.40625 30.640625 
C 19.40625 11.375 15.40625 0.203125 5.40625 -8.578125 
z
" id="Century_Schoolbook_L_Roman-41"/>
      <path d="M 29.5 12.15625 
L 18.09375 38.609375 
C 17.796875 39.203125 17.59375 40.09375 17.59375 40.703125 
C 17.59375 42.390625 18.90625 43 23 43 
L 24.40625 43 
L 24.40625 46.59375 
L 0.796875 46.59375 
L 0.796875 43 
L 1.59375 43 
C 5.40625 43 6.796875 42.09375 8.203125 38.703125 
L 25.40625 -1.5 
L 28.90625 -1.5 
L 43.09375 33.59375 
C 45.796875 40.203125 48.59375 43 52.40625 43 
L 52.796875 43 
L 52.796875 46.59375 
L 32.796875 46.59375 
L 32.796875 43 
L 34.203125 43 
C 37.703125 43 39.59375 41.796875 39.59375 39.5 
C 39.59375 38.40625 39.203125 36.8125 38.703125 35.3125 
z
" id="Century_Schoolbook_L_Roman-118"/>
      <path d="M 26 59.734375 
L 26 62.609375 
C 26 66.8125 26.90625 67.3125 34.90625 67.3125 
L 36.90625 67.3125 
L 36.90625 72 
L 3.796875 72 
L 3.796875 67.3125 
L 5.796875 67.3125 
C 13.90625 67.3125 14.796875 66.8125 14.796875 62.609375 
L 14.796875 59.734375 
L 14.796875 12.28125 
L 14.796875 9.375 
C 14.796875 5.1875 13.90625 4.6875 5.796875 4.6875 
L 3.796875 4.6875 
L 3.796875 0 
L 36.90625 0 
L 36.90625 4.6875 
L 34.90625 4.6875 
C 26.90625 4.6875 26 5.1875 26 9.375 
L 26 12.28125 
z
" id="Century_Schoolbook_L_Roman-73"/>
      <path d="M 19.40625 47 
L 19.40625 67 
L 15.296875 67 
C 14.296875 53.875 9.90625 47.1875 1.796875 46.59375 
L 1.796875 42.703125 
L 10 42.703125 
L 10 17.265625 
C 10 10.28125 10.203125 7.78125 11.203125 5.484375 
C 12.796875 1.296875 16.796875 -1 22.59375 -1 
C 26.5 -1 29.90625 0.203125 32.203125 2.390625 
C 35.5 5.59375 37.40625 10.875 37.40625 16.375 
C 37.40625 16.96875 37.40625 17.671875 37.296875 18.671875 
L 33.09375 18.671875 
C 32.796875 9.6875 30.203125 5.09375 25.296875 5.09375 
C 23 5.09375 21 6.28125 20.296875 7.984375 
C 19.703125 9.375 19.40625 11.875 19.40625 15.46875 
L 19.40625 42.703125 
L 34.09375 42.703125 
L 34.09375 47 
z
" id="Century_Schoolbook_L_Roman-116"/>
      <path d="M 34.40625 6.09375 
C 36.59375 0.09375 42.796875 -1 46.59375 -1 
C 54.203125 -1 58.703125 5.59375 61.5 12.46875 
C 63.796875 18.265625 67.5 31.4375 67.5 37.328125 
C 67.5 43.40625 64.40625 44 63.5 44 
C 61.09375 44 58.90625 41.609375 58.90625 39.609375 
C 58.90625 38.421875 59.59375 37.71875 60.09375 37.328125 
C 61 36.421875 63.59375 33.734375 63.59375 28.546875 
C 63.59375 25.140625 60.796875 15.765625 58.703125 11.078125 
C 55.90625 4.984375 52.203125 1 47 1 
C 41.40625 1 39.59375 5.1875 39.59375 9.78125 
C 39.59375 12.671875 40.5 16.171875 40.90625 17.859375 
L 45.09375 34.625 
C 45.59375 36.625 46.5 40.109375 46.5 40.515625 
C 46.5 42.015625 45.296875 43.015625 43.796875 43.015625 
C 40.90625 43.015625 40.203125 40.515625 39.59375 38.125 
C 38.59375 34.234375 34.40625 17.359375 34 15.171875 
C 33.59375 13.46875 33.59375 12.375 33.59375 10.171875 
C 33.59375 7.78125 30.40625 3.984375 30.296875 3.796875 
C 29.203125 2.6875 27.59375 1 24.5 1 
C 16.59375 1 16.59375 8.484375 16.59375 10.171875 
C 16.59375 13.375 17.296875 17.765625 21.796875 29.640625 
C 23 32.734375 23.5 34.03125 23.5 36.015625 
C 23.5 40.21875 20.5 44 15.59375 44 
C 6.40625 44 2.703125 29.53125 2.703125 28.734375 
C 2.703125 28.34375 3.09375 27.84375 3.796875 27.84375 
C 4.703125 27.84375 4.796875 28.234375 5.203125 29.625 
C 7.703125 38.34375 11.59375 41.90625 15.296875 41.90625 
C 16.296875 41.90625 17.90625 41.90625 17.90625 38.71875 
C 17.90625 38.21875 17.90625 36.125 16.203125 31.734375 
C 11.5 19.265625 10.5 15.171875 10.5 11.375 
C 10.5 0.890625 19.09375 -1 24.203125 -1 
C 25.90625 -1 30.40625 -1 34.40625 6.09375 
" id="CMMI12-119"/>
      <path d="M 28.703125 72 
L 2.90625 72 
L 2.90625 67.3125 
L 4.796875 67.3125 
C 12.90625 67.3125 13.796875 66.8125 13.796875 62.59375 
L 13.796875 59.703125 
L 13.796875 21.390625 
C 13.796875 7.78125 11.796875 4.890625 2.203125 4.890625 
L 2.203125 0 
L 30.703125 0 
L 30.703125 4.890625 
C 21.203125 4.890625 19.203125 7.78125 19.203125 21.40625 
L 19.203125 65.625 
L 43 0 
L 47 0 
L 69.296875 65.625 
L 69.296875 12.453125 
L 69.296875 9.5625 
C 69.296875 5.296875 68.40625 4.890625 60.296875 4.890625 
L 58.5 4.890625 
L 58.5 0 
L 91.296875 0 
L 91.296875 4.890625 
L 89.5 4.890625 
C 81.40625 4.890625 80.5 5.296875 80.5 9.5625 
L 80.5 12.453125 
L 80.5 59.75 
L 80.5 62.625 
C 80.5 66.8125 81.40625 67.3125 89.5 67.3125 
L 91.296875 67.3125 
L 91.296875 72 
L 66.203125 72 
L 47.90625 18.84375 
z
" id="Century_Schoolbook_L_Roman-77"/>
      <path d="M 34.90625 18.09375 
L 20.5 62.8125 
C 20.203125 63.71875 20 64.8125 20 65.3125 
C 20 66.8125 21.09375 67.3125 24.296875 67.3125 
L 28.796875 67.3125 
L 28.796875 72 
L 0.59375 72 
L 0.59375 67.3125 
L 2.5 67.3125 
C 6.703125 67.3125 7.296875 66.90625 8.5 63.40625 
L 30.09375 -1.6875 
L 34.40625 -1.6875 
L 49.203125 48.015625 
L 65.40625 -1.6875 
L 69.5 -1.6875 
L 87.09375 57.015625 
C 88.203125 60.90625 88.703125 62.09375 89.796875 63.71875 
C 91.40625 66.109375 93.90625 67.3125 97.203125 67.3125 
L 97.59375 67.3125 
L 97.59375 72 
L 73.09375 72 
L 73.09375 67.3125 
L 73.90625 67.3125 
C 79.703125 67.3125 82.5 65.609375 82.5 62.09375 
C 82.5 61.109375 82.296875 59.703125 81.90625 58.609375 
L 69.90625 18.015625 
L 56.09375 61.8125 
C 55.5 63.71875 55.40625 63.90625 55.40625 64.609375 
C 55.40625 65.546875 56 66.484375 56.90625 66.90625 
C 58 67.3125 58.703125 67.3125 62.59375 67.3125 
L 64.203125 67.3125 
L 64.203125 72 
L 35.296875 72 
L 35.296875 67.3125 
L 37.59375 67.3125 
C 41.703125 67.3125 43.09375 66.609375 43.90625 64.21875 
L 46.5 56.40625 
z
" id="Century_Schoolbook_L_Roman-87"/>
     </defs>
     <g transform="translate(178.042130256 375.008564879)scale(0.12 -0.12)">
      <use transform="scale(0.9962640099626402)" xlink:href="#Century_Schoolbook_L_Roman-77"/>
      <use transform="translate(94.04676919559465 0.0)scale(0.9962640099626402)" xlink:href="#Century_Schoolbook_L_Roman-97"/>
      <use transform="translate(149.43844615893525 0.0)scale(0.9962640099626402)" xlink:href="#Century_Schoolbook_L_Roman-120"/>
      <use transform="translate(202.9377900500078 0.0)scale(0.9962640099626402)" xlink:href="#Century_Schoolbook_L_Roman-105"/>
      <use transform="translate(234.319103046194 0.0)scale(0.9962640099626402)" xlink:href="#Century_Schoolbook_L_Roman-109"/>
      <use transform="translate(322.8860097388699 0.0)scale(0.9962640099626402)" xlink:href="#Century_Schoolbook_L_Roman-97"/>
      <use transform="translate(378.2776867022105 0.0)scale(0.9962640099626402)" xlink:href="#Century_Schoolbook_L_Roman-108"/>
      <use transform="translate(437.35416930164234 0.0)scale(0.9962640099626402)" xlink:href="#Century_Schoolbook_L_Roman-73"/>
      <use transform="translate(477.90159460616445 0.0)scale(0.9962640099626402)" xlink:href="#Century_Schoolbook_L_Roman-110"/>
      <use transform="translate(538.773225283118 0.0)scale(0.9962640099626402)" xlink:href="#Century_Schoolbook_L_Roman-116"/>
      <use transform="translate(577.526931477662 0.0)scale(0.9962640099626402)" xlink:href="#Century_Schoolbook_L_Roman-101"/>
      <use transform="translate(627.340131975794 0.0)scale(0.9962640099626402)" xlink:href="#Century_Schoolbook_L_Roman-114"/>
      <use transform="translate(671.5737006732566 0.0)scale(0.9962640099626402)" xlink:href="#Century_Schoolbook_L_Roman-118"/>
      <use transform="translate(725.0730445643292 0.0)scale(0.9962640099626402)" xlink:href="#Century_Schoolbook_L_Roman-97"/>
      <use transform="translate(780.4647215276698 0.0)scale(0.9962640099626402)" xlink:href="#Century_Schoolbook_L_Roman-108"/>
      <use transform="translate(839.5412041271015 0.0)scale(0.9962640099626402)" xlink:href="#Century_Schoolbook_L_Roman-87"/>
      <use transform="translate(935.481537739337 0.0)scale(0.9962640099626402)" xlink:href="#Century_Schoolbook_L_Roman-105"/>
      <use transform="translate(966.8628507355231 0.0)scale(0.9962640099626402)" xlink:href="#Century_Schoolbook_L_Roman-100"/>
      <use transform="translate(1024.0483380195362 0.0)scale(0.9962640099626402)" xlink:href="#Century_Schoolbook_L_Roman-116"/>
      <use transform="translate(1062.80204421408 0.0)scale(0.9962640099626402)" xlink:href="#Century_Schoolbook_L_Roman-104"/>
      <use transform="translate(1151.3688444942793 0.0)scale(0.9962640099626402)" xlink:href="#CMMI12-119"/>
      <use transform="translate(1223.7817595637455 0.0)scale(0.9962640099626402)" xlink:href="#Century_Schoolbook_L_Roman-44"/>
      <use transform="translate(1279.1720987702367 0.0)scale(0.9962640099626402)" xlink:href="#Century_Schoolbook_L_Roman-40"/>
      <use transform="translate(1312.347328499572 0.0)scale(0.9962640099626402)" xlink:href="#Century_Schoolbook_L_Roman-114"/>
      <use transform="translate(1356.5808971970348 0.0)scale(0.9962640099626402)" xlink:href="#Century_Schoolbook_L_Roman-97"/>
      <use transform="translate(1411.9725741603752 0.0)scale(0.9962640099626402)" xlink:href="#Century_Schoolbook_L_Roman-100"/>
      <use transform="translate(1469.1580614443883 0.0)scale(0.9962640099626402)" xlink:href="#Century_Schoolbook_L_Roman-105"/>
      <use transform="translate(1500.5393744405746 0.0)scale(0.9962640099626402)" xlink:href="#Century_Schoolbook_L_Roman-97"/>
      <use transform="translate(1555.9310514039153 0.0)scale(0.9962640099626402)" xlink:href="#Century_Schoolbook_L_Roman-110"/>
      <use transform="translate(1616.8026820808689 0.0)scale(0.9962640099626402)" xlink:href="#Century_Schoolbook_L_Roman-41"/>
     </g>
    </g>
   </g>
   <g id="matplotlib.axis_2">
    <g id="ytick_1">
     <g id="line2d_12">
      <defs>
       <path d="M 0 0 
L 4 0 
" id="m2fdeb510a7" style="stroke:#000000;stroke-width:0.5;"/>
      </defs>
      <g>
       <use style="stroke:#000000;stroke-width:0.5;" x="39.0480660901" xlink:href="#m2fdeb510a7" y="343.17185452"/>
      </g>
     </g>
     <g id="line2d_13">
      <defs>
       <path d="M 0 0 
L -4 0 
" id="m311651d084" style="stroke:#000000;stroke-width:0.5;"/>
      </defs>
      <g>
       <use style="stroke:#000000;stroke-width:0.5;" x="515.033344392" xlink:href="#m311651d084" y="343.17185452"/>
      </g>
     </g>
     <g id="text_7">
      <!-- $0$ -->
      <g transform="translate(29.1950758387 346.471462193)scale(0.12 -0.12)">
       <use transform="scale(0.9962640099626402)" xlink:href="#CMR17-48"/>
      </g>
     </g>
    </g>
    <g id="ytick_2">
     <g id="line2d_14">
      <g>
       <use style="stroke:#000000;stroke-width:0.5;" x="39.0480660901" xlink:href="#m2fdeb510a7" y="290.676252251"/>
      </g>
     </g>
     <g id="line2d_15">
      <g>
       <use style="stroke:#000000;stroke-width:0.5;" x="515.033344392" xlink:href="#m311651d084" y="290.676252251"/>
      </g>
     </g>
     <g id="text_8">
      <!-- $10$ -->
      <defs>
       <path d="M 26.59375 63.40625 
C 26.59375 65.5 26.5 65.5 25.09375 65.5 
C 21.203125 61.1875 15.296875 59.796875 9.703125 59.796875 
C 9.40625 59.796875 8.90625 59.796875 8.796875 59.5 
C 8.703125 59.296875 8.703125 59.09375 8.703125 57 
C 11.796875 57 17 57.59375 21 59.984375 
L 21 7.203125 
C 21 3.6875 20.796875 2.5 12.203125 2.5 
L 9.203125 2.5 
L 9.203125 0 
C 14 0 19 0 23.796875 0 
C 28.59375 0 33.59375 0 38.40625 0 
L 38.40625 2.5 
L 35.40625 2.5 
C 26.796875 2.5 26.59375 3.59375 26.59375 7.15625 
z
" id="CMR17-49"/>
      </defs>
      <g transform="translate(23.3420855873 293.975859924)scale(0.12 -0.12)">
       <use transform="scale(0.9962640099626402)" xlink:href="#CMR17-49"/>
       <use transform="translate(45.69047711706103 0.0)scale(0.9962640099626402)" xlink:href="#CMR17-48"/>
      </g>
     </g>
    </g>
    <g id="ytick_3">
     <g id="line2d_16">
      <g>
       <use style="stroke:#000000;stroke-width:0.5;" x="39.0480660901" xlink:href="#m2fdeb510a7" y="238.180649983"/>
      </g>
     </g>
     <g id="line2d_17">
      <g>
       <use style="stroke:#000000;stroke-width:0.5;" x="515.033344392" xlink:href="#m311651d084" y="238.180649983"/>
      </g>
     </g>
     <g id="text_9">
      <!-- $20$ -->
      <g transform="translate(23.3420855873 241.480257655)scale(0.12 -0.12)">
       <use transform="scale(0.9962640099626402)" xlink:href="#CMR17-50"/>
       <use transform="translate(45.69047711706103 0.0)scale(0.9962640099626402)" xlink:href="#CMR17-48"/>
      </g>
     </g>
    </g>
    <g id="ytick_4">
     <g id="line2d_18">
      <g>
       <use style="stroke:#000000;stroke-width:0.5;" x="39.0480660901" xlink:href="#m2fdeb510a7" y="185.685047714"/>
      </g>
     </g>
     <g id="line2d_19">
      <g>
       <use style="stroke:#000000;stroke-width:0.5;" x="515.033344392" xlink:href="#m311651d084" y="185.685047714"/>
      </g>
     </g>
     <g id="text_10">
      <!-- $30$ -->
      <g transform="translate(23.3420855873 188.984655386)scale(0.12 -0.12)">
       <use transform="scale(0.9962640099626402)" xlink:href="#CMR17-51"/>
       <use transform="translate(45.69047711706103 0.0)scale(0.9962640099626402)" xlink:href="#CMR17-48"/>
      </g>
     </g>
    </g>
    <g id="ytick_5">
     <g id="line2d_20">
      <g>
       <use style="stroke:#000000;stroke-width:0.5;" x="39.0480660901" xlink:href="#m2fdeb510a7" y="133.189445445"/>
      </g>
     </g>
     <g id="line2d_21">
      <g>
       <use style="stroke:#000000;stroke-width:0.5;" x="515.033344392" xlink:href="#m311651d084" y="133.189445445"/>
      </g>
     </g>
     <g id="text_11">
      <!-- $40$ -->
      <defs>
       <path d="M 33.59375 64.40625 
C 33.59375 66.5 33.5 66.5 31.703125 66.5 
L 2 19.59375 
L 2 17 
L 27.796875 17 
L 27.796875 7.140625 
C 27.796875 3.5 27.59375 2.5 20.59375 2.5 
L 18.703125 2.5 
L 18.703125 0 
C 21.90625 0 27.296875 0 30.703125 0 
C 34.09375 0 39.5 0 42.703125 0 
L 42.703125 2.5 
L 40.796875 2.5 
C 33.796875 2.5 33.59375 3.5 33.59375 7.140625 
L 33.59375 17 
L 43.796875 17 
L 43.796875 19.59375 
L 33.59375 19.59375 
z
M 28.09375 57.859375 
L 28.09375 19.59375 
L 4 19.59375 
z
" id="CMR17-52"/>
      </defs>
      <g transform="translate(23.3420855873 136.489053117)scale(0.12 -0.12)">
       <use transform="scale(0.9962640099626402)" xlink:href="#CMR17-52"/>
       <use transform="translate(45.69047711706103 0.0)scale(0.9962640099626402)" xlink:href="#CMR17-48"/>
      </g>
     </g>
    </g>
    <g id="ytick_6">
     <g id="line2d_22">
      <g>
       <use style="stroke:#000000;stroke-width:0.5;" x="39.0480660901" xlink:href="#m2fdeb510a7" y="80.6938431763"/>
      </g>
     </g>
     <g id="line2d_23">
      <g>
       <use style="stroke:#000000;stroke-width:0.5;" x="515.033344392" xlink:href="#m311651d084" y="80.6938431763"/>
      </g>
     </g>
     <g id="text_12">
      <!-- $50$ -->
      <defs>
       <path d="M 11.40625 57.6875 
C 12.40625 57.28125 16.5 56 20.703125 56 
C 30 56 35.09375 61.109375 38 64.0625 
C 38 64.953125 38 65.5 37.40625 65.5 
C 37.296875 65.5 37.09375 65.5 36.296875 65.046875 
C 32.796875 63.40625 28.703125 62.078125 23.703125 62.078125 
C 20.703125 62.078125 16.203125 62.484375 11.296875 64.671875 
C 10.203125 65.171875 10 65.171875 9.90625 65.171875 
C 9.40625 65.171875 9.296875 65.0625 9.296875 63.078125 
L 9.296875 34.421875 
C 9.296875 32.640625 9.296875 32.140625 10.296875 32.140625 
C 10.796875 32.140625 11 32.34375 11.5 33.03125 
C 14.703125 37.515625 19.09375 39.40625 24.09375 39.40625 
C 27.59375 39.40625 35.09375 37.21875 35.09375 20.140625 
C 35.09375 16.953125 35.09375 11.171875 32.09375 6.578125 
C 29.59375 2.484375 25.703125 0.390625 21.40625 0.390625 
C 14.796875 0.390625 8.09375 5 6.296875 12.71875 
C 6.703125 12.609375 7.5 12.421875 7.90625 12.421875 
C 9.203125 12.421875 11.703125 13.125 11.703125 16.21875 
C 11.703125 18.90625 9.796875 20 7.90625 20 
C 5.59375 20 4.09375 18.59375 4.09375 15.796875 
C 4.09375 7.09375 11 -2 21.59375 -2 
C 31.90625 -2 41.703125 6.875 41.703125 19.75 
C 41.703125 31.71875 33.90625 41 24.203125 41 
C 19.09375 41 14.796875 39.109375 11.40625 35.53125 
z
" id="CMR17-53"/>
      </defs>
      <g transform="translate(23.3420855873 83.9934508487)scale(0.12 -0.12)">
       <use transform="scale(0.9962640099626402)" xlink:href="#CMR17-53"/>
       <use transform="translate(45.69047711706103 0.0)scale(0.9962640099626402)" xlink:href="#CMR17-48"/>
      </g>
     </g>
    </g>
    <g id="ytick_7">
     <g id="line2d_24">
      <g>
       <use style="stroke:#000000;stroke-width:0.5;" x="39.0480660901" xlink:href="#m2fdeb510a7" y="28.1982409075"/>
      </g>
     </g>
     <g id="line2d_25">
      <g>
       <use style="stroke:#000000;stroke-width:0.5;" x="515.033344392" xlink:href="#m311651d084" y="28.1982409075"/>
      </g>
     </g>
     <g id="text_13">
      <!-- $60$ -->
      <defs>
       <path d="M 10.59375 34 
C 10.59375 57.65625 21.796875 63 28.296875 63 
C 30.40625 63 35.5 62.640625 37.5 59 
C 35.90625 59 32.90625 59 32.90625 55.515625 
C 32.90625 52.828125 35.09375 51.921875 36.5 51.921875 
C 37.40625 51.921875 40.09375 52.3125 40.09375 55.625 
C 40.09375 61.78125 35.09375 65.296875 28.203125 65.296875 
C 16.296875 65.296875 3.796875 52.96875 3.796875 31 
C 3.796875 3.953125 15.09375 -2 23.09375 -2 
C 32.796875 -2 42 6.671875 42 20.046875 
C 42 32.515625 33.90625 41.59375 23.703125 41.59375 
C 17.59375 41.59375 13.09375 37.609375 10.59375 30.625 
z
M 23.09375 0.390625 
C 10.796875 0.390625 10.796875 18.75 10.796875 22.4375 
C 10.796875 29.625 14.203125 40 23.5 40 
C 25.203125 40 30.09375 40 33.40625 33.125 
C 35.203125 29.21875 35.203125 25.140625 35.203125 20.140625 
C 35.203125 14.75 35.203125 10.78125 33.09375 6.78125 
C 30.90625 2.671875 27.703125 0.390625 23.09375 0.390625 
" id="CMR17-54"/>
      </defs>
      <g transform="translate(23.3420855873 31.4978485799)scale(0.12 -0.12)">
       <use transform="scale(0.9962640099626402)" xlink:href="#CMR17-54"/>
       <use transform="translate(45.69047711706103 0.0)scale(0.9962640099626402)" xlink:href="#CMR17-48"/>
      </g>
     </g>
    </g>
    <g id="text_14">
     <!-- Active Element Count -->
     <defs>
      <path d="M 37.796875 73.5 
L 33.59375 73.5 
L 10.59375 15.265625 
C 8.59375 10.078125 8.203125 9.375 6.703125 7.78125 
C 5.09375 5.890625 2.296875 4.6875 -0.40625 4.6875 
L -0.796875 4.6875 
L -0.796875 0 
L 25.703125 0 
L 25.703125 4.6875 
L 23.703125 4.6875 
C 18.296875 4.6875 15.59375 6.625 15.59375 10.453125 
C 15.59375 11.671875 15.90625 13.078125 16.5 14.703125 
L 19.796875 23.609375 
L 46.296875 23.609375 
L 51.703125 10.0625 
C 52.296875 8.53125 52.5 7.828125 52.5 7.3125 
C 52.5 5.703125 50 4.6875 46.296875 4.6875 
L 42.09375 4.6875 
L 42.09375 0 
L 73.09375 0 
L 73.09375 4.6875 
L 71.703125 4.6875 
C 66.703125 4.6875 65.59375 5.484375 63.296875 11.078125 
z
M 32.90625 57.34375 
L 44.203125 29 
L 21.796875 29 
z
" id="Century_Schoolbook_L_Roman-65"/>
      <path d="M 25.203125 48.28125 
C 13 48.28125 3.40625 37.453125 3.40625 23.546875 
C 3.40625 9.9375 13 -1 25 -1 
C 37 -1 46.59375 9.9375 46.59375 23.640625 
C 46.59375 37.25 37 48.28125 25.203125 48.28125 
M 25.203125 44 
C 32.203125 44 36.09375 36.75 36.09375 23.640625 
C 36.09375 10.453125 32.203125 3.296875 25 3.296875 
C 17.796875 3.296875 13.90625 10.453125 13.90625 23.546875 
C 13.90625 37.046875 17.703125 44 25.203125 44 
" id="Century_Schoolbook_L_Roman-111"/>
      <path d="M 63.90625 72 
L 60.09375 72 
L 56.09375 66.015625 
C 49 71.203125 45.09375 72.703125 38.40625 72.703125 
C 28.703125 72.703125 20.703125 68.8125 13.90625 60.78125 
C 7.5 53.234375 4.5 44.890625 4.5 34.65625 
C 4.5 13.296875 18.59375 -2 38.296875 -2 
C 54.296875 -2 64.5 7.34375 66.796875 24.015625 
L 62.09375 24.8125 
C 61.09375 19.546875 59.90625 15.984375 58.09375 13.015625 
C 54 6.171875 47.59375 2.6875 39.5 2.6875 
C 24.703125 2.6875 17.703125 12.90625 17.703125 34.265625 
C 17.703125 45.46875 19.203125 53.015625 22.59375 58.96875 
C 25.703125 64.53125 31.90625 68 38.296875 68 
C 45.296875 68 51.5 64.328125 55.296875 57.96875 
C 57.203125 54.6875 58.703125 50.8125 61 43.171875 
L 65.40625 43.171875 
z
" id="Century_Schoolbook_L_Roman-67"/>
      <path d="M 63 72 
L 2.90625 72 
L 2.90625 67.3125 
L 4.703125 67.3125 
C 12.796875 67.3125 13.703125 66.8125 13.703125 62.609375 
L 13.703125 59.734375 
L 13.703125 12.28125 
L 13.703125 9.375 
C 13.703125 5.1875 12.796875 4.6875 4.703125 4.6875 
L 2.90625 4.6875 
L 2.90625 0 
L 64.296875 0 
L 66.296875 26.5 
L 61.90625 26.5 
C 60.59375 19.5625 58.296875 13.40625 55.90625 10.546875 
C 52.796875 6.578125 47.09375 4.6875 38.703125 4.6875 
L 32.09375 4.6875 
C 29.09375 4.6875 26.59375 5.296875 25.703125 6.1875 
C 25 6.78125 24.90625 7.390625 24.90625 9.5 
L 24.90625 35 
L 26.90625 35 
C 33 35 35.5 34.375 37.5 32.234375 
C 40.09375 29.578125 41.09375 26.296875 41.296875 20.265625 
L 46 20.265625 
L 46 53 
L 41.296875 53 
C 40.796875 43.46875 36.796875 39.6875 27.296875 39.6875 
L 24.90625 39.6875 
L 24.90625 62.328125 
C 24.90625 66.609375 25.796875 67.3125 31.203125 67.3125 
L 36.40625 67.3125 
C 45.203125 67.3125 49.5 66.40625 52.90625 63.59375 
C 56.203125 61 58.59375 55.390625 60.09375 46.390625 
L 64.40625 46.390625 
z
" id="Century_Schoolbook_L_Roman-69"/>
      <path d="M 41.203125 0 
L 59.40625 0 
L 59.40625 4.703125 
L 56.90625 4.703125 
C 51.40625 4.703125 50.59375 5.59375 50.59375 11.953125 
L 50.59375 46.78125 
L 31.796875 46.78125 
L 31.796875 42 
L 36.90625 42 
C 40.59375 42 41.203125 41.296875 41.203125 36.953125 
L 41.203125 24.5625 
C 41.203125 18.8125 40.59375 15.484375 39.09375 12.15625 
C 37 7.71875 33 5.09375 28.09375 5.09375 
C 25 5.09375 22.40625 6.1875 21.09375 8.171875 
C 19.796875 10.046875 19.59375 11.046875 19.59375 16.5 
L 19.59375 46.78125 
L 2.09375 46.78125 
L 2.09375 42 
L 5.90625 42 
C 9.59375 42 10.203125 41.296875 10.203125 36.953125 
L 10.203125 15.21875 
C 10.203125 10.078125 10.59375 7.765625 12.09375 5.453125 
C 14.796875 1.3125 19.59375 -1 25.59375 -1 
C 32.203125 -1 36.796875 1.71875 41.203125 8.125 
z
" id="Century_Schoolbook_L_Roman-117"/>
      <path d="M 38.703125 15.125 
C 35.5 7.96875 32.09375 5.09375 26.90625 5.09375 
C 18.90625 5.09375 13.90625 12.328125 13.90625 23.9375 
C 13.90625 35.953125 18.796875 44 26.203125 44 
C 29.203125 44 31.796875 42.59375 31.796875 41.015625 
C 31.796875 40.71875 31.59375 40.421875 31.203125 39.8125 
C 29.59375 37.9375 29.203125 36.9375 29.203125 35.265625 
C 29.203125 31.984375 31.703125 29.703125 35.203125 29.703125 
C 38.703125 29.703125 41.296875 32.484375 41.296875 36.453125 
C 41.296875 43.109375 34.59375 48.28125 25.703125 48.28125 
C 12.703125 48.28125 3.40625 37.65625 3.40625 22.84375 
C 3.40625 8.734375 11.90625 -1 24.296875 -1 
C 33.203125 -1 38.296875 3.078125 42.59375 13.625 
z
" id="Century_Schoolbook_L_Roman-99"/>
     </defs>
     <g transform="translate(16.070650466 236.288168976)rotate(-90.0)scale(0.12 -0.12)">
      <use transform="scale(0.9962640099626402)" xlink:href="#Century_Schoolbook_L_Roman-65"/>
      <use transform="translate(71.92998484686333 0.0)scale(0.9962640099626402)" xlink:href="#Century_Schoolbook_L_Roman-99"/>
      <use transform="translate(116.16355354432598 0.0)scale(0.9962640099626402)" xlink:href="#Century_Schoolbook_L_Roman-116"/>
      <use transform="translate(154.9172597388699 0.0)scale(0.9962640099626402)" xlink:href="#Century_Schoolbook_L_Roman-105"/>
      <use transform="translate(186.29857273505607 0.0)scale(0.9962640099626402)" xlink:href="#Century_Schoolbook_L_Roman-118"/>
      <use transform="translate(239.7979166261286 0.0)scale(0.9962640099626402)" xlink:href="#Century_Schoolbook_L_Roman-101"/>
      <use transform="translate(317.30628672750623 0.0)scale(0.9962640099626402)" xlink:href="#Century_Schoolbook_L_Roman-69"/>
      <use transform="translate(389.2362715743696 0.0)scale(0.9962640099626402)" xlink:href="#Century_Schoolbook_L_Roman-108"/>
      <use transform="translate(420.6175845705558 0.0)scale(0.9962640099626402)" xlink:href="#Century_Schoolbook_L_Roman-101"/>
      <use transform="translate(470.4307850686878 0.0)scale(0.9962640099626402)" xlink:href="#Century_Schoolbook_L_Roman-109"/>
      <use transform="translate(558.9976917613637 0.0)scale(0.9962640099626402)" xlink:href="#Century_Schoolbook_L_Roman-101"/>
      <use transform="translate(608.8108922594957 0.0)scale(0.9962640099626402)" xlink:href="#Century_Schoolbook_L_Roman-110"/>
      <use transform="translate(669.6825229364493 0.0)scale(0.9962640099626402)" xlink:href="#Century_Schoolbook_L_Roman-116"/>
      <use transform="translate(736.1313987342388 0.0)scale(0.9962640099626402)" xlink:href="#Century_Schoolbook_L_Roman-67"/>
      <use transform="translate(808.0613835811022 0.0)scale(0.9962640099626402)" xlink:href="#Century_Schoolbook_L_Roman-111"/>
      <use transform="translate(857.8745840792342 0.0)scale(0.9962640099626402)" xlink:href="#Century_Schoolbook_L_Roman-117"/>
      <use transform="translate(918.7462147561878 0.0)scale(0.9962640099626402)" xlink:href="#Century_Schoolbook_L_Roman-110"/>
      <use transform="translate(979.6178454331414 0.0)scale(0.9962640099626402)" xlink:href="#Century_Schoolbook_L_Roman-116"/>
     </g>
    </g>
   </g>
   <g id="legend_1">
    <g id="patch_7">
     <path d="M 289.788302 273.950431 
L 467.434817 273.950431 
L 467.434817 242.380298 
L 289.788302 242.380298 
z
" style="fill:#ffffff;stroke:#000000;stroke-linejoin:miter;"/>
    </g>
    <g id="line2d_26">
     <path d="M 296.788302 250.272499 
L 310.788302 250.272499 
" style="fill:none;stroke:#1b2acc;stroke-linecap:square;"/>
    </g>
    <g id="line2d_27"/>
    <g id="text_15">
     <!-- Uniform: 25th, 50th, 75th \%ile -->
     <defs>
      <path d="M 20.09375 46.296875 
L 20.09375 52.140625 
C 20.09375 57.265625 20.40625 60.65625 21.203125 62.71875 
C 22.796875 67.234375 26.296875 70 30.296875 70 
C 32.40625 70 33.703125 69.390625 33.703125 68.25 
C 33.703125 67.921875 33.59375 67.734375 33.09375 66.90625 
C 32.5 65.890625 32.203125 64.75 32.203125 63.625 
C 32.203125 60.546875 34.59375 58.203125 37.703125 58.203125 
C 41 58.203125 43.296875 60.734375 43.296875 64.40625 
C 43.296875 70.328125 38.296875 74 30.203125 74 
C 23.296875 74 18.296875 71.53125 14.703125 66.4375 
C 11.703125 62.140625 10.703125 57.734375 10.703125 49.46875 
L 10.703125 46.296875 
L 1.90625 46.296875 
L 1.90625 42 
L 10.703125 42 
L 10.703125 12.234375 
L 10.703125 8.25 
C 10.703125 4.296875 9.59375 3.59375 3.203125 3.59375 
L 2.796875 3.59375 
L 2.796875 0 
L 29.5 0 
L 29.5 3.59375 
L 27.703125 3.59375 
C 21.203125 3.59375 20.09375 4.296875 20.09375 8.25 
L 20.09375 12.234375 
L 20.09375 42 
L 31.09375 42 
L 31.09375 46.296875 
z
" id="Century_Schoolbook_L_Roman-102"/>
      <path d="M 68.296875 50.546875 
C 68.296875 64.21875 70.296875 67.109375 79.90625 67.109375 
L 79.90625 72 
L 51.40625 72 
L 51.40625 67.109375 
C 60.90625 67.109375 62.90625 64.21875 62.90625 50.53125 
L 62.90625 28.46875 
C 62.90625 20.484375 62.40625 17.28125 60.5 13.78125 
C 57.296875 7.59375 50.796875 4 42.703125 4 
C 35.90625 4 30 6.578125 26.703125 11.046875 
C 24 14.71875 23.5 17.09375 23.5 26.328125 
L 23.5 59.5625 
L 23.5 62.4375 
C 23.5 66.609375 24.40625 67.109375 32.5 67.109375 
L 34.40625 67.109375 
L 34.40625 72 
L 1.703125 72 
L 1.703125 67.109375 
L 3.40625 67.109375 
C 11.40625 67.109375 12.296875 66.609375 12.296875 62.4375 
L 12.296875 59.5625 
L 12.296875 26.90625 
L 12.296875 20.046875 
C 12.59375 14.78125 13.40625 11.609375 15.296875 8.828125 
C 19.90625 2.296875 28.703125 -1.390625 40 -1.390625 
C 51.296875 -1.390625 59.09375 2 63.90625 9.09375 
C 67.09375 13.6875 68.296875 18.984375 68.296875 27.875 
z
" id="Century_Schoolbook_L_Roman-85"/>
      <path d="M 65 72 
L 60.40625 72 
C 56.40625 66.59375 50.59375 63.703125 44.203125 63.703125 
C 41.703125 63.703125 39.90625 64.203125 36.90625 65.890625 
C 34.296875 69.296875 31.796875 70.59375 27.796875 70.59375 
C 23.5 70.59375 19 68.703125 15.09375 65.40625 
C 9.203125 60.328125 4.5 51.046875 4.5 44.359375 
C 4.5 37.203125 9.90625 32 17.296875 32 
C 22.90625 32 27.5 34.40625 31.90625 39.578125 
C 36.203125 44.671875 39 51.9375 39 58.015625 
C 39 58.90625 38.90625 59.703125 38.703125 61.203125 
C 41.203125 60.296875 42.90625 60 45 60 
C 48.40625 60 50.90625 60.703125 54.59375 62.90625 
L 18.59375 0 
L 23.59375 0 
z
M 28.59375 66.734375 
C 30.40625 64.640625 31.90625 63.640625 34.703125 62.640625 
C 35.203125 61.046875 35.296875 60.046875 35.296875 58.546875 
C 35.296875 47.578125 26.796875 35.796875 18.796875 35.796875 
C 15.5 35.796875 13.203125 38.1875 13.203125 41.6875 
C 13.203125 45.375 14.703125 49.265625 19.40625 57.453125 
C 23.203125 64.140625 24.5 65.34375 28.59375 66.734375 
M 67.5 39.984375 
C 61.59375 39.984375 56 36.859375 51.40625 31.234375 
C 47.203125 25.890625 44.5 18.9375 44.5 13.296875 
C 44.5 6.25 50 1.109375 57.5 1.109375 
C 62.703125 1.109375 67.90625 3.828125 71.59375 8.546875 
C 76.203125 14.3125 79.203125 22.046875 79.203125 28 
C 79.203125 34.953125 74.296875 39.984375 67.5 39.984375 
M 69.203125 36 
C 72.59375 36 75.40625 32.359375 75.40625 27.828125 
C 75.40625 16.8125 66.59375 5 58.59375 5 
C 55.5 5 53 7.53125 53 10.75 
C 53 14.796875 55.09375 19.9375 60.40625 28.640625 
C 63.5 33.765625 66.09375 36 69.203125 36 
" id="Century_Schoolbook_L_Roman-37"/>
      <path d="M 50.5 21.5625 
L 46.09375 21.5625 
L 45.09375 16.46875 
C 43.796875 10.078125 43 9.375 36.796875 9.375 
L 14.40625 9.375 
C 21.296875 16.5625 23.59375 18.65625 30 23.65625 
C 39.09375 30.65625 43 34.15625 45.296875 37.140625 
C 48.5 41.53125 50.09375 46.03125 50.09375 50.8125 
C 50.09375 62.109375 40.59375 70.296875 27.59375 70.296875 
C 14.90625 70.296875 5.09375 62.109375 5.09375 51.515625 
C 5.09375 45.234375 8.296875 40.9375 13.09375 40.9375 
C 16.796875 40.9375 19.296875 43.4375 19.296875 47.03125 
C 19.296875 49.53125 17.90625 51.828125 15.703125 52.734375 
C 12 54.328125 11.796875 54.421875 11.796875 55.71875 
C 11.796875 57.21875 12.796875 59.515625 14.203125 61.21875 
C 16.703125 64.203125 20.90625 66 25.59375 66 
C 33.796875 66 38.796875 60.90625 38.796875 52.53125 
C 38.796875 45.125 35.296875 38.4375 27 29.65625 
L 21.09375 23.46875 
C 17.59375 19.78125 15 16.96875 13.296875 15.078125 
C 9.703125 10.875 7.90625 8.578125 3.5 2.796875 
L 3.5 0 
L 48.59375 0 
z
" id="Century_Schoolbook_L_Roman-50"/>
      <path d="M 16.40625 59.703125 
C 21.796875 58.40625 24.59375 58 28.5 58 
C 37 58 43.203125 61 46.5 66.484375 
C 47.59375 68.390625 48 69.28125 48 70.078125 
C 48 70.6875 47.703125 70.984375 47.203125 70.984375 
C 46.90625 70.984375 46.40625 70.875 45.90625 70.578125 
C 41 68.484375 38.296875 67.984375 32.59375 67.984375 
C 26.203125 67.984375 22.5 68.484375 12 70.984375 
C 11.59375 62.625 10.703125 51.984375 9.296875 39.65625 
C 7.203125 37.46875 6.5 36.171875 6.5 34.578125 
C 6.5 32.59375 7.796875 31.203125 9.703125 31.203125 
C 12.203125 31.203125 13.796875 33.328125 14.203125 37.359375 
C 17.703125 39.890625 21 41 25 41 
C 33.90625 41 39.296875 34.03125 39.296875 22.5 
C 39.296875 15.734375 37.59375 9.953125 34.59375 6.828125 
C 32.59375 4.703125 28.5 3.296875 24.40625 3.296875 
C 18.40625 3.296875 12.203125 6.421875 12.203125 9.5625 
C 12.203125 10.28125 12.796875 11.078125 14 11.78125 
C 17.09375 13.703125 18 15.03125 18 17.75 
C 18 21.296875 15.296875 24.015625 11.703125 24.015625 
C 7.703125 24.015625 4.5 20.28125 4.5 15.546875 
C 4.5 10.5 7.40625 5.453125 11.90625 2.328125 
C 15.296875 0.109375 19.40625 -1 24.59375 -1 
C 40.296875 -1 50.203125 8.28125 50.203125 23.109375 
C 50.203125 36.828125 41.09375 46 27.59375 46 
C 23.40625 46 20.203125 45.296875 14.703125 43 
z
" id="Century_Schoolbook_L_Roman-53"/>
      <path d="M 5.90625 46.171875 
L 10.296875 45.484375 
L 12.09375 53.40625 
C 13.59375 60.015625 14.296875 61 17.203125 61 
C 17.703125 61 18.59375 61 19.40625 60.609375 
C 25.203125 60.609375 32.40625 60.609375 36.5 60.609375 
C 37.90625 60.609375 40 60.609375 42.703125 60.609375 
L 35.90625 46.84375 
C 28.40625 31.859375 27.59375 30.15625 25.09375 24.03125 
C 22.09375 16.484375 20.40625 10.15625 20.40625 5.921875 
C 20.40625 1.40625 22.796875 -1.5 26.703125 -1.5 
C 31.5 -1.5 33.40625 1.796875 33.296875 10.421875 
C 32.796875 24.734375 34.703125 31.84375 45.296875 55.265625 
C 46.796875 58.484375 48.296875 61.59375 49.796875 64.6875 
C 49.90625 64.890625 50.203125 65.796875 50.796875 67.09375 
L 50.796875 69.984375 
C 44.59375 69.890625 41.296875 69.890625 35.203125 69.890625 
C 26.703125 69.890625 19.90625 69.890625 9 69.890625 
z
" id="Century_Schoolbook_L_Roman-55"/>
      <path d="M 14.90625 11.46875 
C 11.40625 11.46875 8.59375 8.671875 8.59375 5.28125 
C 8.59375 1.78125 11.40625 -1 14.796875 -1 
C 18.296875 -1 21.09375 1.78125 21.09375 5.28125 
C 21.09375 8.671875 18.296875 11.46875 14.90625 11.46875 
M 14.90625 47.46875 
C 11.40625 47.46875 8.59375 44.671875 8.59375 41.28125 
C 8.59375 37.796875 11.40625 35 14.796875 35 
C 18.296875 35 21.09375 37.796875 21.09375 41.28125 
C 21.09375 44.671875 18.296875 47.46875 14.90625 47.46875 
" id="Century_Schoolbook_L_Roman-58"/>
      <path d="M 28.40625 71 
C 14.40625 71 4.203125 55.6875 4.203125 34.75 
C 4.203125 14.125 14.09375 -1 27.59375 -1 
C 41.59375 -1 51.40625 13.625 51.40625 34.4375 
C 51.40625 45.0625 49.203125 53.875 45 60.78125 
C 41.09375 67.09375 34.703125 71 28.40625 71 
M 27.703125 66.703125 
C 31 66.703125 34.203125 64.5 36.59375 60.5 
C 39.296875 55.875 40.203125 49.96875 40.203125 36.25 
C 40.203125 22.21875 39.5 15.625 37.5 11.203125 
C 35.203125 6.296875 31.59375 3.296875 27.796875 3.296875 
C 24.5 3.296875 21.296875 5.5 18.90625 9.5 
C 16.09375 14.21875 15.296875 20.53125 15.296875 36.859375 
C 15.296875 48.484375 16 54.375 18 58.6875 
C 20.296875 63.796875 23.90625 66.703125 27.703125 66.703125 
" id="Century_Schoolbook_L_Roman-48"/>
     </defs>
     <g transform="translate(321.788302391 253.772499285)scale(0.1 -0.1)">
      <use transform="scale(0.9962640099626402)" xlink:href="#Century_Schoolbook_L_Roman-85"/>
      <use transform="translate(81.19451349431819 0.0)scale(0.9962640099626402)" xlink:href="#Century_Schoolbook_L_Roman-110"/>
      <use transform="translate(142.06614417127182 0.0)scale(0.9962640099626402)" xlink:href="#Century_Schoolbook_L_Roman-105"/>
      <use transform="translate(173.447457167458 0.0)scale(0.9962640099626402)" xlink:href="#Century_Schoolbook_L_Roman-102"/>
      <use transform="translate(206.62268689679328 0.0)scale(0.9962640099626402)" xlink:href="#Century_Schoolbook_L_Roman-111"/>
      <use transform="translate(256.4358873949253 0.0)scale(0.9962640099626402)" xlink:href="#Century_Schoolbook_L_Roman-114"/>
      <use transform="translate(300.669456092388 0.0)scale(0.9962640099626402)" xlink:href="#Century_Schoolbook_L_Roman-109"/>
      <use transform="translate(389.2363627850639 0.0)scale(0.9962640099626402)" xlink:href="#Century_Schoolbook_L_Roman-58"/>
      <use transform="translate(451.20118403642596 0.0)scale(0.9962640099626402)" xlink:href="#Century_Schoolbook_L_Roman-50"/>
      <use transform="translate(506.5928609997666 0.0)scale(0.9962640099626402)" xlink:href="#Century_Schoolbook_L_Roman-53"/>
      <use transform="translate(561.9845379631072 0.0)scale(0.9962640099626402)" xlink:href="#Century_Schoolbook_L_Roman-116"/>
      <use transform="translate(600.738244157651 0.0)scale(0.9962640099626402)" xlink:href="#Century_Schoolbook_L_Roman-104"/>
      <use transform="translate(661.6098748346046 0.0)scale(0.9962640099626402)" xlink:href="#Century_Schoolbook_L_Roman-44"/>
      <use transform="translate(717.000214041096 0.0)scale(0.9962640099626402)" xlink:href="#Century_Schoolbook_L_Roman-53"/>
      <use transform="translate(772.3918910044366 0.0)scale(0.9962640099626402)" xlink:href="#Century_Schoolbook_L_Roman-48"/>
      <use transform="translate(827.7835679677771 0.0)scale(0.9962640099626402)" xlink:href="#Century_Schoolbook_L_Roman-116"/>
      <use transform="translate(866.5372741623211 0.0)scale(0.9962640099626402)" xlink:href="#Century_Schoolbook_L_Roman-104"/>
      <use transform="translate(927.4089048392747 0.0)scale(0.9962640099626402)" xlink:href="#Century_Schoolbook_L_Roman-44"/>
      <use transform="translate(982.7992440457659 0.0)scale(0.9962640099626402)" xlink:href="#Century_Schoolbook_L_Roman-55"/>
      <use transform="translate(1038.1909210091067 0.0)scale(0.9962640099626402)" xlink:href="#Century_Schoolbook_L_Roman-53"/>
      <use transform="translate(1093.5825979724473 0.0)scale(0.9962640099626402)" xlink:href="#Century_Schoolbook_L_Roman-116"/>
      <use transform="translate(1132.336304166991 0.0)scale(0.9962640099626402)" xlink:href="#Century_Schoolbook_L_Roman-104"/>
      <use transform="translate(1220.9031044471903 0.0)scale(0.9962640099626402)" xlink:href="#Century_Schoolbook_L_Roman-37"/>
      <use transform="translate(1303.8915346746576 0.0)scale(0.9962640099626402)" xlink:href="#Century_Schoolbook_L_Roman-105"/>
      <use transform="translate(1335.272847670844 0.0)scale(0.9962640099626402)" xlink:href="#Century_Schoolbook_L_Roman-108"/>
      <use transform="translate(1366.65416066703 0.0)scale(0.9962640099626402)" xlink:href="#Century_Schoolbook_L_Roman-101"/>
     </g>
    </g>
    <g id="PathCollection_2">
     <path d="M 296.788302 267.668634 
C 297.381315 267.668634 297.950118 267.433027 298.369441 267.013704 
C 298.788764 266.594381 299.02437 266.025578 299.02437 265.432566 
C 299.02437 264.839553 298.788764 264.27075 298.369441 263.851427 
C 297.950118 263.432104 297.381315 263.196498 296.788302 263.196498 
C 296.19529 263.196498 295.626486 263.432104 295.207164 263.851427 
C 294.787841 264.27075 294.552234 264.839553 294.552234 265.432566 
C 294.552234 266.025578 294.787841 266.594381 295.207164 267.013704 
C 295.626486 267.433027 296.19529 267.668634 296.788302 267.668634 
z
" style="fill:#cc4f1b;stroke:#cc4f1b;"/>
     <path d="M 303.788302 266.793634 
C 304.381315 266.793634 304.950118 266.558027 305.369441 266.138704 
C 305.788764 265.719381 306.02437 265.150578 306.02437 264.557566 
C 306.02437 263.964553 305.788764 263.39575 305.369441 262.976427 
C 304.950118 262.557104 304.381315 262.321498 303.788302 262.321498 
C 303.19529 262.321498 302.626486 262.557104 302.207164 262.976427 
C 301.787841 263.39575 301.552234 263.964553 301.552234 264.557566 
C 301.552234 265.150578 301.787841 265.719381 302.207164 266.138704 
C 302.626486 266.558027 303.19529 266.793634 303.788302 266.793634 
z
" style="fill:#cc4f1b;stroke:#cc4f1b;"/>
     <path d="M 310.788302 268.106134 
C 311.381315 268.106134 311.950118 267.870527 312.369441 267.451204 
C 312.788764 267.031881 313.02437 266.463078 313.02437 265.870066 
C 313.02437 265.277053 312.788764 264.70825 312.369441 264.288927 
C 311.950118 263.869604 311.381315 263.633998 310.788302 263.633998 
C 310.19529 263.633998 309.626486 263.869604 309.207164 264.288927 
C 308.787841 264.70825 308.552234 265.277053 308.552234 265.870066 
C 308.552234 266.463078 308.787841 267.031881 309.207164 267.451204 
C 309.626486 267.870527 310.19529 268.106134 310.788302 268.106134 
z
" style="fill:#cc4f1b;stroke:#cc4f1b;"/>
    </g>
    <g id="text_16">
     <!-- Guaranteed Lower Bound -->
     <defs>
      <path d="M 54.703125 12.953125 
L 44.90625 38.609375 
C 44.59375 39.296875 44.5 39.796875 44.5 40.703125 
C 44.5 42.5 45.40625 43 48.703125 43 
L 51.09375 43 
L 51.09375 46.59375 
L 28.703125 46.59375 
L 28.703125 43 
L 30.40625 43 
C 33.5 43 34.703125 42.203125 35.59375 39.296875 
L 36.5 36.703125 
L 27.703125 13.40625 
L 18 38.5 
C 17.796875 39.203125 17.59375 40.09375 17.59375 40.703125 
C 17.59375 42.390625 18.703125 43 21.703125 43 
L 23.5 43 
L 23.5 46.59375 
L 1.5 46.59375 
L 1.5 43 
L 3.296875 43 
C 6.09375 43 7.09375 42.09375 8.5 38.09375 
L 23.5 -1.5 
L 27 -1.5 
L 38.90625 30.09375 
L 51.09375 -1.5 
L 54.203125 -1.5 
L 68.203125 35.390625 
C 70.40625 41.296875 72.09375 43 75.59375 43 
L 76.296875 43 
L 76.296875 46.59375 
L 57.40625 46.59375 
L 57.40625 43 
L 59.09375 43 
C 62.59375 43 64 41.890625 64 39.40625 
C 64 38.40625 63.703125 36.90625 63.203125 35.703125 
z
" id="Century_Schoolbook_L_Roman-119"/>
      <path d="M 65 72 
L 61.203125 72 
L 57.296875 65.8125 
C 50.796875 71 46.40625 72.703125 39.09375 72.703125 
C 31.203125 72.703125 25 70.515625 18.703125 65.4375 
C 8.796875 57.5 4.203125 47.46875 4.203125 34.0625 
C 4.203125 23.921875 7.203125 15.484375 13 9.03125 
C 19.203125 2.078125 28.40625 -2 38 -2 
C 46.40625 -2 52.296875 0.578125 58.796875 7.015625 
L 62.5 -2 
L 66.703125 -2 
L 66.703125 19.796875 
C 66.703125 25.140625 66.703125 25.234375 67.296875 25.9375 
C 68.203125 26.921875 70.296875 27.3125 75.703125 27.3125 
L 77.203125 27.3125 
L 77.203125 32 
L 45.40625 32 
L 45.40625 27.3125 
L 47.296875 27.3125 
C 55.703125 27.3125 56.40625 26.8125 56.40625 21.40625 
C 56.40625 17.171875 55.59375 13.234375 54.40625 10.875 
C 51.90625 6.046875 45.5 2.6875 39 2.6875 
C 32.59375 2.6875 26.09375 5.96875 22.703125 10.9375 
C 19 16.390625 17.40625 23.4375 17.40625 34.0625 
C 17.40625 56.1875 24.796875 68 38.703125 68 
C 50.09375 68 58 59.859375 62.09375 43.96875 
L 66.40625 43.96875 
z
" id="Century_Schoolbook_L_Roman-71"/>
      <path d="M 3 72 
L 3 67.3125 
L 4.796875 67.3125 
C 12.90625 67.3125 13.796875 66.8125 13.796875 62.609375 
L 13.796875 59.734375 
L 13.796875 12.28125 
L 13.796875 9.375 
C 13.796875 5.1875 12.90625 4.6875 4.796875 4.6875 
L 3 4.6875 
L 3 0 
L 39.296875 0 
C 56.59375 0 67 7.40625 67 19.59375 
C 67 29.484375 60.59375 35.296875 47 37.6875 
C 51.796875 38.6875 54 39.578125 56.5 41.46875 
C 60.703125 44.546875 63.203125 49.421875 63.203125 54.5 
C 63.203125 60.859375 59.203125 67.125 53.40625 69.609375 
C 49.796875 71.203125 44.796875 72 38.90625 72 
z
M 25 39.6875 
L 25 62.328125 
C 25 66.203125 26.40625 67.3125 31.59375 67.3125 
L 35.59375 67.3125 
C 40.203125 67.3125 44 66.609375 46.09375 65.21875 
C 49.703125 63.03125 51.59375 58.75 51.59375 53.203125 
C 51.59375 43.46875 46.703125 39.6875 33.90625 39.6875 
z
M 25 35 
L 33.796875 35 
C 40.203125 35 44.5 34.390625 47.5 33.09375 
C 52.203125 30.890625 54.703125 26.5 54.703125 19.890625 
C 54.703125 13.59375 52.5 8.890625 48.59375 6.984375 
C 45.5 5.390625 41.296875 4.6875 35 4.6875 
L 30.796875 4.6875 
C 25.703125 4.6875 25 5.484375 25 11 
z
" id="Century_Schoolbook_L_Roman-66"/>
      <path d="M 64.59375 27.328125 
L 60.203125 27.328125 
C 59.203125 20.546875 56.796875 13.765625 54.203125 10.484375 
C 51.09375 6.59375 45.296875 4.6875 36.90625 4.6875 
L 32.703125 4.6875 
C 29.703125 4.6875 27.203125 5.296875 26.296875 6.1875 
C 25.59375 6.78125 25.5 7.390625 25.5 9.484375 
L 25.5 59.734375 
L 25.5 62.609375 
C 25.5 66.8125 26.40625 67.3125 34.5 67.3125 
L 36.296875 67.3125 
L 36.296875 72 
L 3.5 72 
L 3.5 67.3125 
L 5.296875 67.3125 
C 13.40625 67.3125 14.296875 66.8125 14.296875 62.609375 
L 14.296875 59.734375 
L 14.296875 12.28125 
L 14.296875 9.375 
C 14.296875 5.1875 13.40625 4.6875 5.296875 4.6875 
L 3.5 4.6875 
L 3.5 0 
L 62.5 0 
z
" id="Century_Schoolbook_L_Roman-76"/>
     </defs>
     <g transform="translate(321.788302391 268.05756554)scale(0.1 -0.1)">
      <use transform="scale(0.9962640099626402)" xlink:href="#Century_Schoolbook_L_Roman-71"/>
      <use transform="translate(77.50837010137765 0.0)scale(0.9962640099626402)" xlink:href="#Century_Schoolbook_L_Roman-117"/>
      <use transform="translate(138.38000077833127 0.0)scale(0.9962640099626402)" xlink:href="#Century_Schoolbook_L_Roman-97"/>
      <use transform="translate(193.77167774167188 0.0)scale(0.9962640099626402)" xlink:href="#Century_Schoolbook_L_Roman-114"/>
      <use transform="translate(238.0052464391345 0.0)scale(0.9962640099626402)" xlink:href="#Century_Schoolbook_L_Roman-97"/>
      <use transform="translate(293.3969234024751 0.0)scale(0.9962640099626402)" xlink:href="#Century_Schoolbook_L_Roman-110"/>
      <use transform="translate(354.2685540794287 0.0)scale(0.9962640099626402)" xlink:href="#Century_Schoolbook_L_Roman-116"/>
      <use transform="translate(393.0222602739726 0.0)scale(0.9962640099626402)" xlink:href="#Century_Schoolbook_L_Roman-101"/>
      <use transform="translate(442.8354607721046 0.0)scale(0.9962640099626402)" xlink:href="#Century_Schoolbook_L_Roman-101"/>
      <use transform="translate(492.6486612702367 0.0)scale(0.9962640099626402)" xlink:href="#Century_Schoolbook_L_Roman-100"/>
      <use transform="translate(577.5293181574954 0.0)scale(0.9962640099626402)" xlink:href="#Century_Schoolbook_L_Roman-76"/>
      <use transform="translate(643.9793492907457 0.0)scale(0.9962640099626402)" xlink:href="#Century_Schoolbook_L_Roman-111"/>
      <use transform="translate(693.7925497888777 0.0)scale(0.9962640099626402)" xlink:href="#Century_Schoolbook_L_Roman-119"/>
      <use transform="translate(771.3009198902554 0.0)scale(0.9962640099626402)" xlink:href="#Century_Schoolbook_L_Roman-101"/>
      <use transform="translate(821.1141203883874 0.0)scale(0.9962640099626402)" xlink:href="#Century_Schoolbook_L_Roman-114"/>
      <use transform="translate(893.0428586890956 0.0)scale(0.9962640099626402)" xlink:href="#Century_Schoolbook_L_Roman-66"/>
      <use transform="translate(964.972843535959 0.0)scale(0.9962640099626402)" xlink:href="#Century_Schoolbook_L_Roman-111"/>
      <use transform="translate(1014.786044034091 0.0)scale(0.9962640099626402)" xlink:href="#Century_Schoolbook_L_Roman-117"/>
      <use transform="translate(1075.6576747110446 0.0)scale(0.9962640099626402)" xlink:href="#Century_Schoolbook_L_Roman-110"/>
      <use transform="translate(1136.5293053879982 0.0)scale(0.9962640099626402)" xlink:href="#Century_Schoolbook_L_Roman-100"/>
     </g>
    </g>
   </g>
  </g>
 </g>
 <defs>
  <clipPath id="p80e02dd7ae">
   <rect height="335.97185452" width="475.985278302" x="39.0480660901" y="7.2"/>
  </clipPath>
 </defs>
</svg>
