<?xml version="1.0" encoding="utf-8" standalone="no"?>
<!DOCTYPE svg PUBLIC "-//W3C//DTD SVG 1.1//EN"
  "http://www.w3.org/Graphics/SVG/1.1/DTD/svg11.dtd">
<!-- Created with matplotlib (http://matplotlib.org/) -->
<svg height="379pt" version="1.1" viewBox="0 0 384 379" width="384pt" xmlns="http://www.w3.org/2000/svg" xmlns:xlink="http://www.w3.org/1999/xlink">
 <defs>
  <style type="text/css">
*{stroke-linecap:butt;stroke-linejoin:round;stroke-miterlimit:100000;}
  </style>
 </defs>
 <g id="figure_1">
  <g id="patch_1">
   <path d="M 0 379.516424 
L 384.314502 379.516424 
L 384.314502 0 
L 0 0 
z
" style="fill:#ffffff;"/>
  </g>
  <g id="axes_1">
   <g id="patch_2">
    <path d="M 195.083746 350.655638 
C 237.754242 350.655638 278.68281 333.702471 308.855407 303.529873 
C 339.028005 273.357276 355.981172 232.428708 355.981172 189.758212 
C 355.981172 147.087716 339.028005 106.159148 308.855407 75.986551 
C 278.68281 45.813953 237.754242 28.860785 195.083746 28.860785 
C 152.41325 28.860785 111.484682 45.813953 81.312085 75.986551 
C 51.139487 106.159148 34.186319 147.087716 34.186319 189.758212 
C 34.186319 232.428708 51.139487 273.357276 81.312085 303.529873 
C 111.484682 333.702471 152.41325 350.655638 195.083746 350.655638 
z
" style="fill:#ffffff;"/>
   </g>
   <g id="line2d_1">
    <path clip-path="url(#pe292e1491c)" d="M 355.981172 189.758212 
L 352.975466 187.820492 
L 343.614477 186.111987 
L 326.339442 184.923778 
L 297.141803 184.744421 
L 232.505263 186.997835 
L 240.51566 185.84585 
L 241.080053 185.227971 
L 232.374571 185.158827 
L 232.542742 184.201695 
L 229.814052 184.170058 
L 229.54378 183.778829 
L 230.910354 183.087821 
L 231.509987 182.512582 
L 231.095927 182.134375 
L 227.347038 182.096182 
L 228.33245 181.429845 
L 228.502367 180.950078 
L 229.356659 180.27362 
L 230.557278 179.471079 
L 229.832844 179.217188 
L 229.314527 178.913951 
L 227.873189 178.926043 
L 227.755979 178.518226 
L 228.913887 177.653594 
L 226.354143 178.134679 
L 222.983824 178.995964 
L 225.528093 177.583268 
L 224.164643 177.71251 
L 225.312959 176.800004 
L 225.495506 176.277606 
L 226.824076 175.220072 
L 227.300709 174.520723 
L 227.360316 174.004979 
L 226.262508 174.064141 
L 228.548184 172.395683 
L 228.170008 172.073237 
L 225.848554 172.825445 
L 225.23986 172.674985 
L 225.089303 172.270452 
L 226.452704 170.956383 
L 225.408343 171.072743 
L 225.073998 170.767094 
L 225.117795 170.218918 
L 223.985054 170.446976 
L 223.260057 170.427092 
L 223.232184 169.933845 
L 221.948724 170.340226 
L 223.481531 168.696978 
L 222.655758 168.780098 
L 220.237496 170.128034 
L 221.878563 167.768275 
L 220.467551 168.39962 
L 222.355773 166.2332 
L 221.06705 166.782754 
L 221.540292 165.18134 
L 221.556075 164.554459 
L 221.958661 163.534943 
L 220.167581 164.674376 
L 217.872649 166.403007 
L 217.565348 166.145048 
L 218.136092 164.942791 
L 217.821778 164.67066 
L 218.078313 163.753295 
L 218.129142 163.042194 
L 219.037429 161.290244 
L 218.801766 160.857721 
L 218.355054 160.681634 
L 216.925823 161.770176 
L 216.208538 161.993419 
L 215.715202 161.939912 
L 214.220771 163.281946 
L 215.573424 160.665106 
L 215.544076 159.936008 
L 214.678015 160.433317 
L 214.276664 160.256577 
L 213.453308 160.749505 
L 213.211043 160.339469 
L 212.191044 161.216412 
L 212.954459 159.095584 
L 213.20103 157.776731 
L 213.214936 156.81601 
L 212.18146 157.770642 
L 211.62042 157.885523 
L 210.928645 158.279801 
L 209.910717 159.379449 
L 210.730484 156.675965 
L 210.155648 156.852547 
L 209.22194 157.862952 
L 207.967839 159.701902 
L 209.307179 154.191462 
L 208.556997 154.830127 
L 207.668409 155.90212 
L 207.554141 154.90579 
L 207.320149 154.189602 
L 206.896775 153.999665 
L 206.382565 154.092581 
L 205.543666 155.276472 
L 204.548644 157.120032 
L 204.339418 156.312512 
L 203.927236 156.205448 
L 203.368961 156.681786 
L 203.028952 156.302525 
L 202.773534 155.514029 
L 202.263809 155.842246 
L 201.364113 158.184681 
L 201.262993 156.569534 
L 201.004719 155.634799 
L 200.841448 153.974175 
L 200.209394 155.203903 
L 199.74622 155.428935 
L 199.061977 157.503555 
L 198.701687 157.134156 
L 198.27732 157.33331 
L 197.821098 157.970974 
L 197.628622 155.258193 
L 197.254306 154.42799 
L 196.919465 152.391264 
L 196.515047 150.898083 
L 195.083745 157.981384 
L 194.6803 156.883988 
L 194.219307 154.544861 
L 193.759599 153.807432 
L 193.354841 154.565503 
L 192.832906 153.121265 
L 192.305588 152.095645 
L 191.673678 155.135195 
L 191.085703 153.706653 
L 190.598285 156.732251 
L 190.263345 157.261705 
L 189.621167 155.808358 
L 189.207464 155.892378 
L 188.672538 155.323667 
L 188.32102 155.759692 
L 187.840232 155.542543 
L 187.582415 156.353261 
L 186.204871 154.31176 
L 185.985477 155.238809 
L 185.263604 154.272775 
L 184.65629 153.800803 
L 185.254449 157.355368 
L 184.803296 157.30714 
L 184.46627 157.618654 
L 183.011435 156.018358 
L 182.769082 156.628485 
L 183.081734 158.644167 
L 181.62713 157.271064 
L 180.507332 155.754012 
L 179.744045 155.152404 
L 179.179545 155.035431 
L 179.264358 156.310926 
L 179.727962 158.295969 
L 179.333094 158.467045 
L 179.717553 161.010079 
L 178.458704 159.552498 
L 178.650384 160.749269 
L 178.176888 160.749367 
L 176.767697 159.199731 
L 175.894812 158.616546 
L 175.699144 159.146587 
L 175.161082 159.13487 
L 175.767352 160.849181 
L 174.910592 160.354583 
L 174.860006 161.042707 
L 174.930447 161.875924 
L 173.457794 160.598995 
L 173.491233 161.378688 
L 173.879874 162.587956 
L 173.541121 162.84155 
L 172.667874 162.444392 
L 172.821079 163.299949 
L 171.523959 163.114083 
L 172.020553 164.311905 
L 172.974035 165.957516 
L 174.835439 168.490747 
L 173.384857 167.520107 
L 171.08396 165.758426 
L 170.281082 165.556949 
L 169.136177 165.054077 
L 169.385032 165.885333 
L 168.98145 166.100466 
L 171.285145 168.714554 
L 169.630434 168.341137 
L 169.437835 168.711159 
L 168.570559 168.538507 
L 167.316326 168.08831 
L 165.554495 167.290932 
L 166.919142 168.869915 
L 166.850343 169.351129 
L 166.935445 169.933942 
L 166.218316 169.954304 
L 165.942847 170.799973 
L 165.607665 171.092686 
L 164.458077 170.887226 
L 164.744523 171.573581 
L 165.282936 172.389783 
L 166.457153 173.541449 
L 166.090842 174.261178 
L 167.520133 175.457236 
L 166.384666 175.312308 
L 163.831226 174.504787 
L 162.521776 174.357548 
L 162.572592 174.867011 
L 164.381075 176.148658 
L 161.824728 175.501227 
L 160.164607 175.294228 
L 161.737719 176.89523 
L 162.823187 177.766627 
L 162.973607 178.269023 
L 162.02656 178.385797 
L 161.90953 178.798927 
L 159.887782 178.60818 
L 159.071198 178.833924 
L 158.985652 179.289959 
L 160.94823 180.311644 
L 161.486613 180.90303 
L 161.760073 181.41107 
L 159.248243 181.247834 
L 161.711357 183.120031 
L 161.444813 183.495135 
L 159.48796 183.58176 
L 158.26971 183.834788 
L 159.307554 184.451312 
L 162.863757 185.382211 
L 161.945742 185.671028 
L 160.259843 185.896314 
L 160.182106 186.320702 
L 159.234109 186.671029 
L 160.36596 187.197278 
L 159.634825 187.580356 
L 159.42158 188.00624 
L 159.87007 188.461215 
L 158.237145 188.853679 
L 159.083973 189.316408 
L 160.784775 189.758215 
L 161.03082 190.176121 
L 160.6347 190.603886 
L 161.123607 191.009036 
L 160.060043 191.478816 
L 158.475759 192.007274 
L 158.84787 193.32713 
L 158.488941 193.816497 
L 157.413421 194.404402 
L 159.324527 194.614896 
L 157.186313 195.379766 
L 157.101424 195.869622 
L 159.658913 195.905007 
L 158.252416 196.615664 
L 162.661505 197.03887 
L 162.27963 197.54868 
L 162.674621 197.876278 
L 161.483765 198.614151 
L 161.854631 198.953943 
L 160.153805 199.887705 
L 160.182228 200.34547 
L 161.096943 200.525181 
L 164.607294 199.826273 
L 160.663328 201.599616 
L 161.203292 201.880836 
L 160.030766 203.279636 
L 160.17012 203.720456 
L 160.879211 203.926194 
L 161.254113 204.259797 
L 163.719633 204.124037 
L 162.402534 205.708936 
L 164.26474 205.271195 
L 163.993126 205.889122 
L 163.90006 206.426241 
L 165.657215 205.954403 
L 163.866061 207.442817 
L 163.474255 208.180769 
L 162.732819 209.148609 
L 163.242252 209.378364 
L 165.721285 208.351786 
L 164.903175 209.39283 
L 166.022431 209.176365 
L 165.530122 210.034271 
L 167.053559 209.499294 
L 167.993184 209.339248 
L 167.144083 210.479678 
L 168.50818 209.978184 
L 168.432692 210.556901 
L 169.015954 210.621455 
L 168.486986 211.585604 
L 169.299595 211.453661 
L 169.799793 211.568298 
L 168.611647 213.16588 
L 169.158383 213.255593 
L 168.879322 214.100879 
L 169.109334 214.487912 
L 170.039887 214.194819 
L 170.502332 214.339622 
L 169.852487 215.616464 
L 169.572888 216.553104 
L 168.890032 217.955258 
L 170.115055 217.30692 
L 170.908782 217.098064 
L 171.367604 217.251806 
L 172.568521 216.516626 
L 172.997921 216.669866 
L 175.025987 214.819589 
L 173.819736 217.005525 
L 173.225945 218.48642 
L 173.364657 219.04302 
L 175.704298 216.56988 
L 175.848993 217.069473 
L 175.680679 218.039402 
L 175.004624 219.808727 
L 176.471338 218.367526 
L 175.884176 220.917134 
L 177.789385 219.431932 
L 177.494905 220.806858 
L 178.884628 219.190067 
L 179.348268 219.197224 
L 179.119337 220.527926 
L 179.60467 221.47308 
L 179.548094 222.605605 
L 179.879791 224.057765 
L 181.02552 222.553555 
L 181.837235 221.738104 
L 182.125854 222.160369 
L 181.853266 224.056933 
L 182.706818 223.055439 
L 183.695725 221.585597 
L 183.38662 223.759255 
L 184.178732 222.768168 
L 184.409332 223.452867 
L 184.276309 225.385575 
L 184.865038 224.99581 
L 186.185885 223.517292 
L 186.588486 223.67316 
L 186.666536 225.20139 
L 187.1959 224.884364 
L 187.874567 223.811686 
L 188.622523 222.24096 
L 188.842379 223.280528 
L 189.394389 222.546783 
L 189.982269 221.463834 
L 190.115129 223.253922 
L 190.470986 223.721475 
L 190.85613 224.034854 
L 191.254974 228.632466 
L 191.725581 228.754462 
L 192.298461 227.517303 
L 192.887692 225.503298 
L 193.331824 225.41931 
L 193.831833 223.747771 
L 194.227011 224.657658 
L 194.648092 225.256655 
L 195.083746 223.578406 
L 195.509502 224.45008 
L 195.925175 224.034102 
L 196.276529 222.14238 
L 196.631008 221.253351 
L 197.140503 223.235953 
L 198.065278 224.381038 
L 198.693258 226.406268 
L 198.989133 224.974313 
L 199.333048 224.210672 
L 199.535499 222.535986 
L 200.123977 223.736702 
L 200.639287 224.285834 
L 201.116263 224.524461 
L 201.851034 226.105241 
L 202.232756 225.698694 
L 202.158134 223.174977 
L 202.776318 224.014765 
L 202.747662 222.029418 
L 203.634009 223.89274 
L 203.77606 222.737431 
L 204.169988 222.591693 
L 204.866264 223.491677 
L 205.19265 223.082816 
L 205.785306 223.538553 
L 206.094168 223.08724 
L 206.709127 223.550705 
L 206.362584 221.280449 
L 207.681246 223.648835 
L 207.88659 222.948326 
L 207.442362 220.661832 
L 207.444912 219.600691 
L 207.609655 218.97893 
L 208.869264 220.857862 
L 210.574612 222.510911 
L 210.087697 220.499601 
L 210.814004 221.008874 
L 211.339194 221.088872 
L 211.380579 220.247444 
L 211.615936 219.795218 
L 211.058287 217.957219 
L 211.321115 217.61834 
L 213.276347 219.282926 
L 215.393506 221.830815 
L 214.207375 219.153326 
L 215.846232 220.831484 
L 216.219943 220.565546 
L 215.88654 219.29592 
L 216.486551 219.369215 
L 215.08611 216.728283 
L 216.023004 217.279157 
L 217.213281 218.114592 
L 216.79708 216.888163 
L 216.9955 216.457758 
L 217.446693 216.335649 
L 220.090676 218.038932 
L 220.561793 217.868894 
L 220.584334 217.209107 
L 220.926941 216.90218 
L 220.938476 216.255439 
L 220.535725 215.210198 
L 220.834784 214.884861 
L 222.625263 215.97992 
L 222.097844 214.853027 
L 223.562964 215.570271 
L 223.86471 215.207468 
L 221.322241 211.835956 
L 221.904904 211.769762 
L 223.035466 212.129236 
L 223.418968 211.871227 
L 223.529005 211.400724 
L 224.043945 211.236568 
L 223.724647 210.459842 
L 224.257482 210.304681 
L 223.525964 209.27177 
L 222.548964 208.109886 
L 223.171598 208.031366 
L 224.600703 208.449618 
L 225.658082 208.597564 
L 226.275831 208.454025 
L 225.852604 207.690832 
L 226.817523 207.735169 
L 227.138962 207.401205 
L 226.871835 206.749291 
L 224.74828 205.149226 
L 226.822536 205.734184 
L 225.036327 204.377181 
L 226.91571 204.813614 
L 225.286875 203.14634 
L 225.104085 202.626885 
L 227.288203 203.097734 
L 227.219157 202.609425 
L 227.283726 202.179112 
L 226.300971 201.361976 
L 227.578747 201.385103 
L 226.570149 200.590239 
L 227.193818 200.365939 
L 227.366006 199.985192 
L 229.79626 200.288145 
L 231.592735 200.345628 
L 231.563959 199.853651 
L 229.878274 198.928997 
L 230.399225 198.604281 
L 230.186442 198.094557 
L 229.572974 197.503026 
L 228.728155 196.880786 
L 229.929179 196.689396 
L 228.822511 196.039873 
L 233.878048 196.00026 
L 234.15693 195.554162 
L 232.969035 194.903659 
L 230.703815 194.151535 
L 234.173442 194.093183 
L 240.649661 194.246068 
L 241.033227 193.715148 
L 231.995134 192.480961 
L 297.304095 194.779972 
L 326.323498 194.592049 
L 343.577711 193.403519 
L 352.973008 191.69588 
L 352.973008 191.69588 
" style="fill:none;stroke:#0000ff;stroke-linecap:square;"/>
   </g>
   <g id="line2d_2">
    <path clip-path="url(#pe292e1491c)" d="M 355.981172 189.758212 
L 353.247693 187.817151 
L 344.792537 186.083067 
L 329.567147 184.804895 
L 305.114038 184.35277 
L 251.873787 185.569127 
L 260.113089 184.15822 
L 259.937205 183.370704 
L 254.604502 183.157484 
L 251.292628 182.825508 
L 252.033598 182.023495 
L 251.885651 181.332445 
L 250.470665 180.846381 
L 250.495514 180.143358 
L 250.942541 179.35812 
L 250.727573 178.689966 
L 248.546905 178.439975 
L 249.10575 177.627165 
L 248.732515 177.017463 
L 247.955079 176.514633 
L 249.351906 175.454772 
L 249.310105 174.751758 
L 248.287915 174.329289 
L 248.09545 173.677287 
L 247.544388 173.138758 
L 247.349939 172.491793 
L 247.569936 171.701777 
L 246.317611 171.426442 
L 246.677165 170.580401 
L 246.224211 170.031158 
L 244.660178 169.93219 
L 244.573933 169.258704 
L 245.816657 168.010784 
L 246.432922 166.23856 
L 245.816658 165.763332 
L 244.49181 165.643607 
L 246.026806 164.11563 
L 245.823531 163.432625 
L 244.923975 163.118055 
L 241.10594 162.935678 
L 242.054607 161.604963 
L 242.272318 160.681466 
L 242.171075 159.94049 
L 241.465325 159.583683 
L 240.994631 159.081539 
L 240.216544 158.793635 
L 239.218412 158.675073 
L 238.976782 158.032359 
L 239.255444 156.998247 
L 238.080864 157.043934 
L 237.814157 156.411074 
L 237.062526 155.307119 
L 237.22869 154.296364 
L 237.152984 153.469038 
L 237.246198 152.476516 
L 235.905838 152.759224 
L 234.219078 153.40335 
L 234.377057 152.347869 
L 234.2644 150.577556 
L 233.177656 150.717672 
L 232.716203 150.231608 
L 232.437423 149.547675 
L 232.315562 148.679235 
L 231.507311 148.566229 
L 231.762828 147.236963 
L 232.267796 145.566497 
L 231.612598 145.247677 
L 230.738174 145.209415 
L 228.320071 146.074957 
L 227.915139 145.490201 
L 228.218415 143.916066 
L 227.235166 144.106705 
L 226.728725 143.633685 
L 225.787463 143.806854 
L 224.505793 144.533275 
L 224.561868 143.207171 
L 223.729713 143.268745 
L 223.950686 141.596638 
L 223.209628 141.499731 
L 223.537322 139.530625 
L 221.931289 140.979439 
L 220.9026 141.454538 
L 220.594472 139.0771 
L 219.732068 139.256628 
L 218.759092 139.700901 
L 218.054751 139.606865 
L 217.205423 139.852502 
L 217.375745 137.75492 
L 216.542389 137.952464 
L 215.918576 137.659175 
L 215.71145 136.282908 
L 214.679962 137.039175 
L 214.291433 136.07632 
L 213.72824 135.562651 
L 213.383362 134.364489 
L 212.875792 133.596188 
L 211.75116 134.813103 
L 210.810186 135.528112 
L 209.648198 137.129045 
L 208.82276 137.631516 
L 208.420173 136.516225 
L 207.635051 136.907158 
L 206.479744 135.927727 
L 205.711709 136.327846 
L 205.010245 136.443078 
L 204.644118 134.660417 
L 203.372691 133.878688 
L 202.359079 136.190743 
L 201.828618 135.072208 
L 201.06073 135.861956 
L 200.413877 135.640477 
L 199.781809 135.202403 
L 199.086453 135.494865 
L 197.862965 133.185887 
L 197.143786 133.827671 
L 196.458319 133.76436 
L 195.760478 134.615888 
L 195.083744 134.891315 
L 194.420273 135.696117 
L 193.721376 134.261392 
L 192.286623 132.821397 
L 191.568417 132.539155 
L 190.913048 133.217453 
L 189.48938 132.957638 
L 188.80837 133.171251 
L 187.72768 135.596308 
L 187.033599 135.488521 
L 186.291038 135.111648 
L 185.658375 135.43848 
L 185.069668 135.972687 
L 184.389187 135.993033 
L 183.929049 137.067568 
L 183.086589 136.332436 
L 182.052227 134.885063 
L 181.494395 135.506487 
L 180.75727 135.402667 
L 179.806671 134.55395 
L 179.386899 135.630152 
L 179.215902 137.448948 
L 178.453506 137.263516 
L 178.009321 138.07319 
L 177.812178 139.553469 
L 175.665564 137.518129 
L 174.900188 137.434308 
L 174.614216 138.572646 
L 174.158216 139.239509 
L 172.733874 137.619908 
L 172.143828 138.006592 
L 171.18654 137.584736 
L 170.314384 139.008627 
L 170.123479 140.170686 
L 169.672374 140.780493 
L 169.361677 141.635593 
L 168.765565 141.941223 
L 167.886148 141.747732 
L 167.174196 141.870912 
L 166.319265 141.767578 
L 165.74242 142.140259 
L 165.568139 143.147984 
L 164.775258 143.170708 
L 164.222261 143.570728 
L 163.449637 143.649526 
L 162.796823 143.914303 
L 161.921901 143.87847 
L 161.969578 146.235519 
L 162.060177 147.44241 
L 160.887589 147.031459 
L 160.405015 147.502053 
L 159.623046 147.614631 
L 158.733275 147.617917 
L 158.057699 147.884881 
L 158.831627 150.733475 
L 158.904161 151.757601 
L 158.237708 151.996552 
L 156.715941 151.390408 
L 155.328837 150.967257 
L 154.873209 151.474604 
L 154.026389 151.617887 
L 154.800134 153.247267 
L 154.397603 153.781924 
L 153.49154 153.880526 
L 153.685203 155.783309 
L 151.102953 154.55839 
L 151.798856 155.97836 
L 151.320092 156.460711 
L 149.669424 156.076651 
L 149.495636 156.807159 
L 148.252447 156.775891 
L 148.007364 157.460189 
L 148.163426 158.407062 
L 148.171861 159.238675 
L 148.837631 160.473177 
L 148.351968 160.962932 
L 147.457336 161.212039 
L 148.977304 163.639239 
L 147.361289 163.492061 
L 147.047617 164.082359 
L 147.22545 164.927637 
L 147.752508 165.933666 
L 146.532147 166.061622 
L 145.765026 166.432196 
L 145.122069 166.874085 
L 143.082116 167.466921 
L 141.681029 168.402025 
L 141.533943 169.101773 
L 142.16006 170.085928 
L 144.71806 171.737085 
L 144.458466 172.341977 
L 142.526042 172.395486 
L 140.971562 172.615548 
L 139.817246 172.9933 
L 140.842257 174.028472 
L 139.967613 174.505526 
L 141.120039 175.53502 
L 141.104747 176.237183 
L 141.899097 177.127679 
L 141.455487 177.71558 
L 140.309229 178.162356 
L 139.90996 178.783464 
L 140.011877 179.504636 
L 139.858891 180.175795 
L 140.842098 181.712218 
L 141.019289 182.415375 
L 140.944879 183.080818 
L 139.24551 183.565869 
L 139.034591 184.237855 
L 139.719114 184.9905 
L 138.935859 185.616502 
L 139.10107 186.318836 
L 138.52687 186.979748 
L 138.18022 187.66233 
L 138.946053 188.38011 
L 138.681517 189.066021 
L 139.845211 189.758217 
L 140.718515 190.425401 
L 141.20014 191.080976 
L 139.938082 191.789344 
L 139.81489 192.473396 
L 139.399812 193.179231 
L 139.355627 193.868968 
L 140.082215 194.494666 
L 139.70815 195.212226 
L 137.947534 196.805289 
L 139.975144 198.625265 
L 139.002676 199.489206 
L 140.443083 199.9315 
L 141.329439 200.450604 
L 141.563085 201.088621 
L 140.881437 201.929747 
L 141.575305 202.465637 
L 142.084887 203.033739 
L 141.818429 203.797339 
L 140.577887 204.842009 
L 142.275033 205.072451 
L 142.382408 205.744986 
L 143.653238 206.051321 
L 142.631158 207.086209 
L 144.097916 207.298494 
L 140.641186 210.759021 
L 141.668954 211.119224 
L 142.848109 212.14981 
L 143.290595 212.716542 
L 144.205269 213.062275 
L 144.340261 213.758087 
L 145.123643 214.142247 
L 146.203583 215.118964 
L 145.880252 216.058031 
L 146.255763 216.632849 
L 145.281299 217.970957 
L 146.60613 218.814574 
L 145.499053 220.311402 
L 145.705524 221.026628 
L 147.459197 220.741383 
L 148.751613 220.716359 
L 149.79592 220.829143 
L 150.329637 221.277606 
L 150.461492 222.01114 
L 151.354536 222.190003 
L 151.545313 222.88435 
L 152.207436 223.219217 
L 152.45453 223.876317 
L 152.912747 224.367048 
L 152.407396 225.667192 
L 152.784659 226.245652 
L 153.494705 226.532872 
L 153.560349 227.392827 
L 154.655726 227.313926 
L 154.867722 228.047057 
L 155.567618 228.31617 
L 155.807277 229.034676 
L 155.566474 230.257481 
L 155.816586 231.0018 
L 155.450223 232.422962 
L 156.602814 232.215384 
L 157.581055 232.170603 
L 159.157762 231.406403 
L 159.865882 231.613187 
L 160.684051 231.674359 
L 161.273472 232.002813 
L 161.307115 233.038968 
L 161.10039 234.423315 
L 161.983777 234.388364 
L 163.41984 233.565555 
L 163.761552 234.232327 
L 163.997096 235.068958 
L 164.904026 234.925332 
L 164.788683 236.325049 
L 164.800629 237.580463 
L 165.413426 237.910081 
L 165.559181 239.016962 
L 165.875894 239.873137 
L 166.674425 239.907674 
L 168.057674 238.861346 
L 168.731973 239.058917 
L 169.507351 239.054017 
L 170.89269 240.905928 
L 171.258421 241.774778 
L 171.748554 242.401531 
L 172.835741 241.658853 
L 173.778155 241.194437 
L 174.192195 241.999061 
L 174.20641 243.880657 
L 175.227464 243.176888 
L 175.963501 243.195716 
L 176.935097 242.512452 
L 177.585372 242.726556 
L 177.943947 243.861384 
L 178.490539 244.458709 
L 179.145338 244.71929 
L 179.755859 245.14612 
L 180.803642 243.937885 
L 181.708391 243.155576 
L 182.300042 243.587819 
L 182.691727 244.942342 
L 183.65308 243.752412 
L 184.457462 243.18013 
L 185.024658 243.785467 
L 185.670427 244.008504 
L 186.628624 242.306704 
L 187.249222 242.574309 
L 187.950406 242.280231 
L 188.416491 243.81495 
L 188.767587 246.713021 
L 189.397785 247.48887 
L 190.114838 247.458993 
L 190.851021 247.139707 
L 191.668298 245.351339 
L 192.364073 245.118278 
L 193.008096 246.112332 
L 194.413873 244.34153 
L 195.083747 244.395206 
L 195.747684 243.857794 
L 196.383579 242.707348 
L 197.041355 242.907468 
L 197.756901 244.171357 
L 198.482389 245.077778 
L 199.205511 245.635443 
L 199.847954 245.082245 
L 200.642561 246.197913 
L 201.289505 245.717497 
L 201.898149 245.007989 
L 202.552821 244.752205 
L 203.127979 243.988044 
L 203.8636 244.324901 
L 204.740778 245.413054 
L 205.494586 245.674715 
L 206.543563 243.890104 
L 206.931227 242.5174 
L 207.87451 243.617542 
L 208.963894 242.42042 
L 209.711812 242.617285 
L 210.415397 242.626983 
L 211.079168 242.488071 
L 211.48802 241.539634 
L 212.384942 242.129688 
L 213.395349 242.986121 
L 213.742752 241.906634 
L 213.996114 240.637506 
L 214.882404 241.084288 
L 215.482385 240.766495 
L 215.920003 240.061362 
L 216.146987 238.895006 
L 216.729958 238.591316 
L 217.891362 239.552865 
L 218.676278 239.640451 
L 219.261526 239.295732 
L 219.713404 238.68895 
L 220.738526 239.205093 
L 220.426387 237.170961 
L 221.134379 237.089087 
L 221.450504 236.302045 
L 222.565564 235.608844 
L 223.6758 236.160164 
L 224.48248 236.183867 
L 225.705004 236.826444 
L 225.812159 235.746555 
L 227.283638 235.47856 
L 227.788193 235.005153 
L 228.020518 234.168317 
L 229.099165 234.465454 
L 229.031216 233.257876 
L 229.872622 233.225536 
L 230.470431 232.877008 
L 231.486727 233.021647 
L 232.167857 232.748992 
L 232.536112 232.113667 
L 233.842775 232.522194 
L 234.536412 232.228252 
L 233.791047 230.41378 
L 235.390668 230.065146 
L 235.866634 229.552232 
L 235.967877 228.683147 
L 237.198108 228.880456 
L 237.443049 228.150447 
L 238.726249 228.348622 
L 238.746005 227.421531 
L 238.569305 226.348079 
L 239.561579 225.355831 
L 240.726154 225.377882 
L 240.899344 224.616908 
L 240.502292 222.586715 
L 240.428894 221.693878 
L 241.21159 219.767668 
L 241.705656 219.281211 
L 242.573505 219.020541 
L 245.133282 218.927943 
L 245.84959 218.516698 
L 245.722234 217.629323 
L 244.520227 216.182548 
L 245.038455 215.676489 
L 243.399136 214.078147 
L 243.383236 213.331764 
L 244.478847 213.120363 
L 245.001989 212.622454 
L 244.96693 211.86991 
L 244.784145 211.06304 
L 244.118041 210.068881 
L 245.982133 210.112891 
L 246.038979 209.413809 
L 246.878883 209.010997 
L 246.781036 208.255789 
L 247.102456 207.653813 
L 246.655415 206.795177 
L 248.598717 205.991812 
L 249.89329 204.926062 
L 248.866132 203.933622 
L 249.325864 203.345158 
L 249.538495 202.690369 
L 247.969655 201.634139 
L 249.069987 201.187184 
L 248.735207 200.430146 
L 250.362845 200.050366 
L 249.898186 199.26941 
L 252.396654 198.979925 
L 254.237398 198.532813 
L 252.62838 197.573722 
L 251.627713 196.732255 
L 253.361297 196.221079 
L 259.876187 196.139717 
L 260.354065 195.37896 
L 252.174666 193.969493 
L 269.307393 194.318242 
L 305.076834 195.161822 
L 329.563942 194.711401 
L 344.753623 193.432385 
L 353.246838 191.69924 
L 353.246838 191.69924 
" style="fill:none;stroke:#008000;stroke-linecap:square;"/>
   </g>
   <g id="line2d_3">
    <path clip-path="url(#pe292e1491c)" d="M 355.981172 189.758212 
L 353.491763 187.814155 
L 345.792993 186.058507 
L 332.287289 184.704706 
L 311.506139 184.038746 
L 281.962954 184.42067 
L 267.429074 184.4217 
L 275.180623 182.860681 
L 274.997553 181.887389 
L 268.743456 181.589504 
L 266.661788 180.929903 
L 267.365768 179.941137 
L 266.946018 179.098451 
L 266.758719 178.225611 
L 265.830448 177.482495 
L 266.501894 176.461196 
L 266.435725 175.56542 
L 266.232801 174.695842 
L 265.365374 173.975945 
L 264.851556 173.189442 
L 265.423625 172.13899 
L 264.519283 171.457112 
L 263.347169 170.867179 
L 264.246087 169.701505 
L 263.285605 169.069404 
L 262.524685 168.393021 
L 262.693554 167.422947 
L 263.092622 166.361623 
L 262.729012 165.554349 
L 262.224164 164.801419 
L 261.207386 164.251509 
L 261.119411 163.350008 
L 260.702011 162.578236 
L 260.854736 161.564484 
L 260.42708 160.793505 
L 260.175681 159.943914 
L 259.557798 159.264256 
L 260.097103 157.033237 
L 259.176898 156.504427 
L 259.001146 155.593651 
L 257.656207 155.318702 
L 256.732985 154.834352 
L 255.192301 154.725902 
L 255.768137 153.385389 
L 256.059644 152.185964 
L 255.102085 151.752019 
L 254.950778 150.810433 
L 253.825589 150.508167 
L 252.343946 149.431028 
L 251.703646 148.833392 
L 251.833908 147.669421 
L 252.167662 146.32602 
L 251.025115 146.101142 
L 250.858137 145.119431 
L 249.935714 144.742367 
L 249.889493 143.643236 
L 248.911239 143.326298 
L 248.473857 142.548579 
L 247.625197 142.137417 
L 246.929082 141.596361 
L 245.222273 142.022365 
L 245.492487 140.571751 
L 243.824267 141.017688 
L 243.969027 139.658137 
L 243.738255 138.654786 
L 243.012914 138.163356 
L 242.90401 136.996683 
L 243.13265 135.41895 
L 242.425957 134.875433 
L 241.812671 134.222807 
L 241.423864 133.292614 
L 240.495108 133.018512 
L 239.700446 132.587193 
L 239.250541 131.708793 
L 238.215869 131.601273 
L 237.026745 131.729654 
L 236.727917 130.628036 
L 236.676886 129.133622 
L 235.41821 129.393422 
L 234.453015 129.243297 
L 233.053945 129.796716 
L 232.462481 129.09636 
L 231.764809 126.820723 
L 230.587449 127.08541 
L 229.838149 126.613621 
L 227.953386 126.40546 
L 227.537423 125.283823 
L 225.944603 124.508414 
L 225.006153 124.430246 
L 224.435647 123.541376 
L 223.703117 122.994279 
L 221.669586 123.278347 
L 221.20346 122.045409 
L 219.910076 122.968776 
L 219.301561 122.073947 
L 218.484709 121.736614 
L 217.052412 120.412352 
L 216.095684 120.491124 
L 215.182714 120.450152 
L 213.961277 121.543583 
L 212.930636 122.045972 
L 212.133275 121.692694 
L 211.533881 120.489956 
L 210.791699 119.807514 
L 209.902268 119.760988 
L 209.10304 119.278477 
L 208.073518 119.990273 
L 207.265719 119.551758 
L 206.362512 119.660845 
L 205.496545 119.560831 
L 204.770058 118.438974 
L 203.837877 118.781559 
L 202.968138 118.662288 
L 202.179398 117.71484 
L 201.216174 118.545979 
L 200.327832 118.665922 
L 199.454556 118.614512 
L 197.755682 117.214589 
L 196.856141 117.558927 
L 195.956704 118.626708 
L 195.083743 118.730446 
L 194.224143 119.714711 
L 193.321008 117.952194 
L 192.407342 117.093434 
L 191.5467 117.759907 
L 190.612464 116.979098 
L 189.772915 117.76105 
L 188.836799 117.21621 
L 187.937518 117.201312 
L 187.141466 118.140275 
L 186.27156 118.310917 
L 185.436857 118.729228 
L 184.629387 119.280641 
L 183.790671 119.571896 
L 183.120556 120.81267 
L 182.031196 119.653081 
L 181.185321 119.886114 
L 180.299181 119.921419 
L 179.253312 119.262072 
L 177.620905 120.042652 
L 176.540098 119.402452 
L 175.866474 120.315909 
L 173.969208 120.152918 
L 173.188686 120.644685 
L 171.991991 122.635435 
L 170.949912 122.308653 
L 170.17647 122.751004 
L 169.240169 122.761262 
L 168.578717 123.480439 
L 167.627304 123.47249 
L 166.380869 122.799468 
L 163.959286 123.951069 
L 162.962719 123.945908 
L 162.94607 125.911624 
L 161.961561 125.918721 
L 161.3886 126.719011 
L 160.505527 126.933722 
L 159.727718 127.346089 
L 158.538625 127.053968 
L 157.880257 127.687944 
L 157.290757 128.424079 
L 156.809111 129.315971 
L 155.990343 129.667321 
L 153.96148 129.819947 
L 153.494644 130.706223 
L 152.66365 131.069589 
L 151.730366 131.302954 
L 151.05363 131.888444 
L 150.276551 132.343085 
L 150.445187 133.98409 
L 149.882263 134.680042 
L 149.125728 135.139001 
L 148.871909 136.185855 
L 148.415823 136.980733 
L 148.070858 137.887494 
L 147.33966 138.362584 
L 146.2028 138.416942 
L 145.445871 138.886838 
L 144.539901 139.214368 
L 143.236703 139.168326 
L 142.940095 140.113337 
L 142.547223 140.95429 
L 141.965229 141.614385 
L 140.850598 141.803131 
L 141.401929 143.451956 
L 141.336208 144.533643 
L 140.091714 144.627422 
L 139.348486 145.150757 
L 138.737597 145.785256 
L 137.939542 146.280142 
L 137.405332 146.98098 
L 136.203579 147.199669 
L 135.575256 147.847606 
L 134.497877 149.276036 
L 135.133202 151.794942 
L 135.849727 153.259276 
L 135.59094 154.099595 
L 134.651038 154.536982 
L 133.394736 154.811824 
L 133.422048 155.819987 
L 132.719176 156.423646 
L 132.687853 157.385018 
L 132.167421 158.088792 
L 131.911693 158.925814 
L 129.234636 159.597106 
L 129.197051 160.552656 
L 128.468248 161.202464 
L 128.284216 162.088935 
L 126.707642 162.414044 
L 126.427585 163.274608 
L 126.956495 164.434605 
L 128.368262 166.806585 
L 126.829024 168.135212 
L 126.768591 169.035034 
L 124.471194 169.280951 
L 125.375379 170.467312 
L 124.876167 171.25363 
L 125.618315 172.358035 
L 125.908367 173.330128 
L 125.954941 174.234815 
L 125.00438 174.922294 
L 123.60212 175.539633 
L 124.831467 176.678266 
L 125.049444 177.606113 
L 124.621859 178.420806 
L 124.955356 179.355641 
L 124.201042 180.131183 
L 124.302778 181.028211 
L 122.67994 182.627063 
L 122.812295 183.534573 
L 123.285549 184.462067 
L 123.159543 185.339445 
L 122.565602 186.19562 
L 123.256276 187.112648 
L 122.823469 187.984323 
L 122.657903 188.869372 
L 122.961565 189.758218 
L 124.328687 190.626543 
L 125.1186 191.475754 
L 124.657239 192.352171 
L 125.176609 193.192529 
L 122.619525 195.103498 
L 122.730291 195.988926 
L 123.460536 196.812474 
L 123.436598 197.703725 
L 123.292577 198.612805 
L 122.425817 200.536 
L 123.67497 201.247986 
L 124.110884 202.073179 
L 124.763784 202.850754 
L 124.276697 203.842604 
L 124.964159 204.60264 
L 125.797563 205.316944 
L 125.412563 206.304037 
L 125.773806 207.119453 
L 125.173108 208.184543 
L 126.544325 208.725617 
L 126.753956 209.573479 
L 127.804479 210.167152 
L 128.413982 210.879095 
L 129.285225 211.49511 
L 128.417708 212.692841 
L 128.032548 213.749522 
L 127.231697 214.979519 
L 126.97766 216.029624 
L 127.059006 216.961861 
L 127.309106 217.831388 
L 129.033655 218.071585 
L 128.93706 219.079027 
L 129.227339 219.922674 
L 129.708466 220.678409 
L 129.844947 221.599322 
L 129.718504 222.660308 
L 130.328298 223.355621 
L 131.355561 223.821641 
L 130.722144 225.182462 
L 131.157784 225.971832 
L 131.798298 226.642062 
L 132.264117 227.410844 
L 132.532272 228.301298 
L 133.015827 229.06229 
L 133.742833 229.664858 
L 135.022038 229.89017 
L 137.431368 229.312177 
L 136.851578 230.769925 
L 138.406121 230.724753 
L 138.115774 232.008538 
L 138.59065 232.740882 
L 138.763413 233.711036 
L 141.370684 233.839372 
L 140.221278 237.082899 
L 141.322788 237.295758 
L 143.035582 238.108489 
L 144.468792 237.947663 
L 144.987439 238.639806 
L 144.717204 240.124747 
L 144.088483 242.020698 
L 144.663195 242.716573 
L 145.937747 242.662966 
L 148.568745 243.682014 
L 150.161085 244.49663 
L 150.701234 245.212406 
L 151.747102 245.288993 
L 152.3389 247.392977 
L 154.153232 247.875098 
L 154.58648 248.785522 
L 155.24615 249.379358 
L 155.242959 250.997874 
L 155.627344 252.066658 
L 156.569389 252.263042 
L 157.676856 252.167824 
L 158.554712 252.434843 
L 158.791474 253.823028 
L 159.917092 253.651808 
L 161.239865 253.075668 
L 162.093713 253.343021 
L 162.342891 254.803139 
L 162.963047 255.569873 
L 163.764574 255.97707 
L 164.753859 255.975842 
L 165.793532 255.835838 
L 167.564994 256.194329 
L 168.156697 257.091265 
L 168.955736 257.492514 
L 169.44361 258.736995 
L 170.346605 258.893887 
L 172.515802 258.072368 
L 173.366518 258.310411 
L 173.804127 259.907749 
L 174.722594 259.970424 
L 175.717756 259.737961 
L 176.804677 259.110226 
L 177.733986 259.022276 
L 178.734554 258.601372 
L 179.608782 258.671314 
L 180.321614 259.489016 
L 181.15389 259.788302 
L 182.157613 259.184333 
L 182.812341 260.480063 
L 183.691387 260.561597 
L 184.730754 259.552449 
L 185.43697 260.786393 
L 187.223294 260.638399 
L 188.067547 260.995029 
L 190.669502 261.608701 
L 191.577557 261.128139 
L 192.432385 261.742922 
L 193.339228 260.821832 
L 194.2075 261.157412 
L 195.083747 261.275967 
L 195.953858 260.657487 
L 196.826984 260.769632 
L 197.694781 260.648039 
L 198.602785 261.389682 
L 199.495924 261.575053 
L 200.404665 261.891929 
L 201.272052 261.619482 
L 202.149795 261.501152 
L 203.074039 261.8092 
L 203.842018 260.768475 
L 204.651649 260.205654 
L 205.687286 261.241497 
L 206.585632 261.242301 
L 207.412915 260.812957 
L 208.270736 260.585385 
L 209.627233 258.456213 
L 210.75897 259.563104 
L 211.524987 258.988965 
L 212.19795 258.081877 
L 213.661332 256.889028 
L 214.556754 256.907794 
L 215.211506 256.110571 
L 216.718593 258.050361 
L 217.318755 257.064552 
L 218.791849 256.017915 
L 219.984076 254.30987 
L 221.176348 255.004664 
L 221.890685 254.475857 
L 222.754219 254.308503 
L 223.879073 254.719471 
L 224.579829 254.155439 
L 225.831239 254.768351 
L 226.265569 253.646219 
L 227.005536 253.175931 
L 227.30849 251.868005 
L 228.02057 251.37868 
L 228.447701 250.376517 
L 229.043858 249.706188 
L 230.313225 250.20506 
L 231.440339 250.415507 
L 232.471603 250.434844 
L 233.253805 250.035297 
L 234.319066 250.067202 
L 234.950461 249.422996 
L 236.532196 248.610508 
L 237.095055 247.881293 
L 238.446901 248.226668 
L 238.474305 246.787414 
L 239.014517 246.050294 
L 239.837139 245.675805 
L 241.21293 245.966779 
L 241.7425 245.210209 
L 242.603042 244.846268 
L 243.050649 244.004718 
L 244.228814 243.981418 
L 244.865492 243.347308 
L 245.734453 242.958336 
L 246.186624 242.13101 
L 246.95493 241.629411 
L 248.120874 241.509342 
L 248.095446 240.229553 
L 248.78869 239.647556 
L 249.719985 239.277613 
L 249.736693 238.084488 
L 250.607235 237.653097 
L 250.707211 236.561226 
L 251.257766 235.859026 
L 252.381635 235.616301 
L 252.038406 234.206046 
L 252.459204 232.31077 
L 252.430394 231.208341 
L 253.395882 230.826264 
L 254.631072 229.546469 
L 255.078123 228.788838 
L 255.218125 227.837887 
L 256.751828 227.756966 
L 257.657362 227.263388 
L 257.961938 226.404705 
L 259.83474 226.439185 
L 259.939148 225.454225 
L 259.631182 224.259517 
L 257.981944 222.392032 
L 258.364083 221.610872 
L 258.3041 220.614196 
L 257.586993 219.320056 
L 258.936321 219.004849 
L 259.658309 218.382151 
L 259.887718 217.537415 
L 260.315275 216.777995 
L 259.440881 215.495154 
L 261.104156 214.298677 
L 261.484053 213.51661 
L 261.078966 212.462045 
L 261.782434 211.792466 
L 262.338587 211.064463 
L 263.718726 210.578419 
L 264.786507 209.971649 
L 264.028454 208.837791 
L 264.53024 208.062207 
L 263.673101 206.938954 
L 263.435574 205.990709 
L 264.694878 205.389912 
L 265.964516 203.857267 
L 265.820136 202.928285 
L 265.875229 202.041687 
L 267.004447 201.330336 
L 267.982807 200.571749 
L 267.777448 199.631215 
L 267.111346 198.641982 
L 269.251235 197.983242 
L 274.028026 197.533553 
L 274.651016 196.610141 
L 267.546384 195.10338 
L 282.597085 195.134712 
L 311.501428 195.477442 
L 332.331012 194.813318 
L 345.833799 193.458902 
L 353.48945 191.702218 
L 353.48945 191.702218 
" style="fill:none;stroke:#ff0000;stroke-linecap:square;"/>
   </g>
   <g id="patch_3">
    <path d="M 195.083746 350.655638 
C 237.754242 350.655638 278.68281 333.702471 308.855407 303.529873 
C 339.028005 273.357276 355.981172 232.428708 355.981172 189.758212 
C 355.981172 147.087716 339.028005 106.159148 308.855407 75.986551 
C 278.68281 45.813953 237.754242 28.860785 195.083746 28.860785 
C 152.41325 28.860785 111.484682 45.813953 81.312085 75.986551 
C 51.139487 106.159148 34.186319 147.087716 34.186319 189.758212 
C 34.186319 232.428708 51.139487 273.357276 81.312085 303.529873 
C 111.484682 333.702471 152.41325 350.655638 195.083746 350.655638 
z
" style="fill:none;stroke:#000000;stroke-linecap:square;stroke-linejoin:miter;"/>
   </g>
   <g id="matplotlib.axis_1">
    <g id="xtick_1">
     <g id="line2d_4">
      <path clip-path="url(#pe292e1491c)" d="M 195.083746 189.758212 
L 355.981172 189.758212 
" style="fill:none;stroke:#000000;stroke-dasharray:1.000000,3.000000;stroke-dashoffset:0.0;stroke-width:0.5;"/>
     </g>
     <g id="text_1">
      <!-- $0^\circ$ -->
      <defs>
       <path d="M 42 31.640625 
C 42 37.75 41.90625 48.125 37.703125 56.109375 
C 34 63.109375 28.09375 65.59375 22.90625 65.59375 
C 18.09375 65.59375 12 63.40625 8.203125 56.203125 
C 4.203125 48.71875 3.796875 39.4375 3.796875 31.640625 
C 3.796875 25.953125 3.90625 17.28125 7 9.671875 
C 11.296875 -0.609375 19 -2 22.90625 -2 
C 27.5 -2 34.5 -0.109375 38.59375 9.375 
C 41.59375 16.28125 42 24.359375 42 31.640625 
M 22.90625 -0.40625 
C 16.5 -0.40625 12.703125 5.078125 11.296875 12.6875 
C 10.203125 18.5625 10.203125 27.15625 10.203125 32.75 
C 10.203125 40.4375 10.203125 46.828125 11.5 52.921875 
C 13.40625 61.390625 19 64 22.90625 64 
C 27 64 32.296875 61.296875 34.203125 53.125 
C 35.5 47.4375 35.59375 40.734375 35.59375 32.75 
C 35.59375 26.25 35.59375 18.265625 34.40625 12.375 
C 32.296875 1.484375 26.40625 -0.40625 22.90625 -0.40625 
" id="CMR17-48"/>
       <path d="M 44.40625 25 
C 44.40625 35.578125 35.5 44.1875 25 44.1875 
C 14.203125 44.1875 5.5 35.375 5.5 25 
C 5.5 14.53125 14.203125 5.8125 25 5.8125 
C 35.5 5.8125 44.40625 14.421875 44.40625 25 
M 25 9.8125 
C 16.296875 9.8125 9.5 16.71875 9.5 25 
C 9.5 33.28125 16.40625 40.1875 25 40.1875 
C 33.296875 40.1875 40.40625 33.46875 40.40625 25 
C 40.40625 16.53125 33.296875 9.8125 25 9.8125 
" id="CMSY10-14"/>
      </defs>
      <g transform="translate(367.027328533 193.057819607)scale(0.12 -0.12)">
       <use transform="scale(0.9962640099626402)" xlink:href="#CMR17-48"/>
       <use transform="translate(45.69047711706103 36.15363894185866)scale(0.6973817666173724)" xlink:href="#CMSY10-14"/>
      </g>
     </g>
    </g>
    <g id="xtick_2">
     <g id="line2d_5">
      <path clip-path="url(#pe292e1491c)" d="M 195.083746 189.758212 
L 195.083746 28.860785 
" style="fill:none;stroke:#000000;stroke-dasharray:1.000000,3.000000;stroke-dashoffset:0.0;stroke-width:0.5;"/>
     </g>
     <g id="text_2">
      <!-- $90^\circ$ -->
      <defs>
       <path d="M 35.203125 29.125 
C 35.203125 7.25 26.09375 0.484375 18.59375 0.484375 
C 16.296875 0.484375 10.703125 0.484375 8.40625 4.59375 
C 11 4.1875 12.90625 5.578125 12.90625 8.09375 
C 12.90625 10.8125 10.703125 11.703125 9.296875 11.703125 
C 8.40625 11.703125 5.703125 11.296875 5.703125 7.90625 
C 5.703125 1.109375 11.59375 -2 18.796875 -2 
C 30.296875 -2 42 10.53125 42 32.390625 
C 42 59.640625 30.796875 65.296875 23.203125 65.296875 
C 13.296875 65.296875 3.796875 56.6875 3.796875 43.40625 
C 3.796875 31.109375 11.90625 22 22.09375 22 
C 30.5 22 34.203125 29.734375 35.203125 33 
z
M 22.296875 23.59375 
C 19.59375 23.59375 15.796875 24.09375 12.703125 30.03125 
C 10.59375 33.890625 10.59375 38.453125 10.59375 43.296875 
C 10.59375 49.15625 10.59375 53.203125 13.40625 57.5625 
C 14.796875 59.640625 17.40625 63 23.203125 63 
C 35 63 35 45.078125 35 41.125 
C 35 34.09375 31.796875 23.59375 22.296875 23.59375 
" id="CMR17-57"/>
      </defs>
      <g transform="translate(187.113664266 16.070650466)scale(0.12 -0.12)">
       <use transform="scale(0.9962640099626402)" xlink:href="#CMR17-57"/>
       <use transform="translate(45.69047711706103 0.0)scale(0.9962640099626402)" xlink:href="#CMR17-48"/>
       <use transform="translate(91.38095423412206 36.15363894185866)scale(0.6973817666173724)" xlink:href="#CMSY10-14"/>
      </g>
     </g>
    </g>
    <g id="xtick_3">
     <g id="line2d_6">
      <path clip-path="url(#pe292e1491c)" d="M 195.083746 189.758212 
L 34.186319 189.758212 
" style="fill:none;stroke:#000000;stroke-dasharray:1.000000,3.000000;stroke-dashoffset:0.0;stroke-width:0.5;"/>
     </g>
     <g id="text_3">
      <!-- $180^\circ$ -->
      <defs>
       <path d="M 27.203125 35.375 
C 33.5 38.546875 39.90625 43.328125 39.90625 50.984375 
C 39.90625 60.015625 31.09375 65.296875 23 65.296875 
C 13.90625 65.296875 5.90625 58.734375 5.90625 49.6875 
C 5.90625 47.203125 6.5 42.921875 10.40625 39.140625 
C 11.40625 38.15625 15.59375 35.171875 18.296875 33.28125 
C 13.796875 30.984375 3.296875 25.53125 3.296875 14.59375 
C 3.296875 4.359375 13.09375 -2 22.796875 -2 
C 33.5 -2 42.5 5.65625 42.5 15.78125 
C 42.5 24.84375 36.40625 29.015625 32.40625 31.703125 
z
M 14.09375 44.09375 
C 13.296875 44.59375 9.296875 47.671875 9.296875 52.359375 
C 9.296875 58.421875 15.59375 63 22.796875 63 
C 30.703125 63 36.5 57.4375 36.5 50.96875 
C 36.5 41.703125 26.09375 36.421875 25.59375 36.421875 
C 25.5 36.421875 25.40625 36.421875 24.59375 37.03125 
z
M 32.5 23.734375 
C 34 22.640625 38.796875 19.375 38.796875 13.296875 
C 38.796875 5.953125 31.40625 0.390625 23 0.390625 
C 13.90625 0.390625 7 6.84375 7 14.6875 
C 7 22.546875 13.09375 29.09375 20 32.1875 
z
" id="CMR17-56"/>
       <path d="M 26.59375 63.40625 
C 26.59375 65.5 26.5 65.5 25.09375 65.5 
C 21.203125 61.1875 15.296875 59.796875 9.703125 59.796875 
C 9.40625 59.796875 8.90625 59.796875 8.796875 59.5 
C 8.703125 59.296875 8.703125 59.09375 8.703125 57 
C 11.796875 57 17 57.59375 21 59.984375 
L 21 7.203125 
C 21 3.6875 20.796875 2.5 12.203125 2.5 
L 9.203125 2.5 
L 9.203125 0 
C 14 0 19 0 23.796875 0 
C 28.59375 0 33.59375 0 38.40625 0 
L 38.40625 2.5 
L 35.40625 2.5 
C 26.796875 2.5 26.59375 3.59375 26.59375 7.15625 
z
" id="CMR17-49"/>
      </defs>
      <g transform="translate(7.2 193.057819607)scale(0.12 -0.12)">
       <use transform="scale(0.9962640099626402)" xlink:href="#CMR17-49"/>
       <use transform="translate(45.69047711706103 0.0)scale(0.9962640099626402)" xlink:href="#CMR17-56"/>
       <use transform="translate(91.38095423412206 0.0)scale(0.9962640099626402)" xlink:href="#CMR17-48"/>
       <use transform="translate(137.07143135118307 36.15363894185866)scale(0.6973817666173724)" xlink:href="#CMSY10-14"/>
      </g>
     </g>
    </g>
    <g id="xtick_4">
     <g id="line2d_7">
      <path clip-path="url(#pe292e1491c)" d="M 195.083746 189.758212 
L 195.083746 350.655638 
" style="fill:none;stroke:#000000;stroke-dasharray:1.000000,3.000000;stroke-dashoffset:0.0;stroke-width:0.5;"/>
     </g>
     <g id="text_4">
      <!-- $270^\circ$ -->
      <defs>
       <path d="M 45.09375 61.578125 
L 45.09375 63.765625 
L 21.59375 63.765625 
C 9.90625 63.765625 9.703125 65.078125 9.296875 67 
L 7.5 67 
L 4.59375 48.34375 
L 6.40625 48.34375 
C 6.703125 50.234375 7.40625 55.3125 8.59375 57.203125 
C 9.203125 58 16.59375 58 18.296875 58 
L 40.296875 58 
L 29.203125 41.578125 
C 21.796875 30.53125 16.703125 15.609375 16.703125 2.578125 
C 16.703125 1.390625 16.703125 -2 20.296875 -2 
C 23.90625 -2 23.90625 1.390625 23.90625 2.671875 
L 23.90625 7.265625 
C 23.90625 23.5625 26.703125 34.3125 31.296875 41.1875 
z
" id="CMR17-55"/>
       <path d="M 41.703125 15.453125 
L 39.90625 15.453125 
C 38.90625 8.375 38.09375 7.171875 37.703125 6.5625 
C 37.203125 5.765625 30 5.765625 28.59375 5.765625 
L 9.40625 5.765625 
C 13 9.671875 20 16.75 28.5 24.953125 
C 34.59375 30.734375 41.703125 37.53125 41.703125 47.421875 
C 41.703125 59.21875 32.296875 66 21.796875 66 
C 10.796875 66 4.09375 56.3125 4.09375 47.34375 
C 4.09375 43.4375 7 42.9375 8.203125 42.9375 
C 9.203125 42.9375 12.203125 43.546875 12.203125 47.03125 
C 12.203125 50.109375 9.59375 51 8.203125 51 
C 7.59375 51 7 50.90625 6.59375 50.703125 
C 8.5 59.21875 14.296875 63.40625 20.40625 63.40625 
C 29.09375 63.40625 34.796875 56.515625 34.796875 47.421875 
C 34.796875 38.734375 29.703125 31.25 24 24.75 
L 4.09375 2.28125 
L 4.09375 0 
L 39.296875 0 
z
" id="CMR17-50"/>
      </defs>
      <g transform="translate(184.187169141 370.044988747)scale(0.12 -0.12)">
       <use transform="scale(0.9962640099626402)" xlink:href="#CMR17-50"/>
       <use transform="translate(45.69047711706103 0.0)scale(0.9962640099626402)" xlink:href="#CMR17-55"/>
       <use transform="translate(91.38095423412206 0.0)scale(0.9962640099626402)" xlink:href="#CMR17-48"/>
       <use transform="translate(137.07143135118307 36.15363894185866)scale(0.6973817666173724)" xlink:href="#CMSY10-14"/>
      </g>
     </g>
    </g>
   </g>
   <g id="matplotlib.axis_2">
    <g id="ytick_1">
     <g id="line2d_8">
      <path clip-path="url(#pe292e1491c)" d="M 195.083746 189.758212 
L 195.083746 189.758212 
" style="fill:none;stroke:#000000;stroke-dasharray:1.000000,3.000000;stroke-dashoffset:0.0;stroke-width:0.5;"/>
     </g>
     <g id="text_5">
      <!-- -15dB -->
      <defs>
       <path d="M 16.40625 59.703125 
C 21.796875 58.40625 24.59375 58 28.5 58 
C 37 58 43.203125 61 46.5 66.484375 
C 47.59375 68.390625 48 69.28125 48 70.078125 
C 48 70.6875 47.703125 70.984375 47.203125 70.984375 
C 46.90625 70.984375 46.40625 70.875 45.90625 70.578125 
C 41 68.484375 38.296875 67.984375 32.59375 67.984375 
C 26.203125 67.984375 22.5 68.484375 12 70.984375 
C 11.59375 62.625 10.703125 51.984375 9.296875 39.65625 
C 7.203125 37.46875 6.5 36.171875 6.5 34.578125 
C 6.5 32.59375 7.796875 31.203125 9.703125 31.203125 
C 12.203125 31.203125 13.796875 33.328125 14.203125 37.359375 
C 17.703125 39.890625 21 41 25 41 
C 33.90625 41 39.296875 34.03125 39.296875 22.5 
C 39.296875 15.734375 37.59375 9.953125 34.59375 6.828125 
C 32.59375 4.703125 28.5 3.296875 24.40625 3.296875 
C 18.40625 3.296875 12.203125 6.421875 12.203125 9.5625 
C 12.203125 10.28125 12.796875 11.078125 14 11.78125 
C 17.09375 13.703125 18 15.03125 18 17.75 
C 18 21.296875 15.296875 24.015625 11.703125 24.015625 
C 7.703125 24.015625 4.5 20.28125 4.5 15.546875 
C 4.5 10.5 7.40625 5.453125 11.90625 2.328125 
C 15.296875 0.109375 19.40625 -1 24.59375 -1 
C 40.296875 -1 50.203125 8.28125 50.203125 23.109375 
C 50.203125 36.828125 41.09375 46 27.59375 46 
C 23.40625 46 20.203125 45.296875 14.703125 43 
z
" id="Century_Schoolbook_L_Roman-53"/>
       <path d="M 38 0 
L 55.40625 0 
L 55.40625 4.703125 
L 53.59375 4.703125 
C 48.203125 4.703125 47.40625 5.703125 47.40625 11.96875 
L 47.40625 73.78125 
L 27.796875 73.78125 
L 27.796875 69 
L 33.703125 69 
C 37.296875 69 38 68.28125 38 63.921875 
L 38 41 
C 34.296875 46.09375 30 48.390625 24.203125 48.390625 
C 12.90625 48.390625 4.296875 37.546875 4.296875 23.203125 
C 4.296875 9.0625 12.59375 -1 24.203125 -1 
C 30.5 -1 34.796875 1.671875 38 7.59375 
z
M 26.203125 43 
C 30.296875 43 34.203125 40.03125 36 35.4375 
C 37.203125 32.453125 37.90625 28.28125 37.90625 23.515625 
C 37.90625 11.96875 33.296875 4.390625 26.09375 4.390625 
C 19.09375 4.390625 14.796875 10.96875 14.796875 22.015625 
C 14.796875 27.890625 15.40625 32.359375 16.703125 35.734375 
C 18.40625 40.125 22.09375 43 26.203125 43 
" id="Century_Schoolbook_L_Roman-100"/>
       <path d="M 4.203125 27.28125 
L 4.203125 19 
L 29.09375 19 
L 29.09375 27.28125 
z
" id="Century_Schoolbook_L_Roman-45"/>
       <path d="M 32.203125 70.5 
C 28.796875 66.234375 19.59375 63 10.40625 63 
L 10.40625 58.59375 
L 19.203125 58.59375 
C 25 58.59375 25.40625 58.203125 25.40625 52.3125 
L 25.40625 12.28125 
L 25.40625 9.375 
C 25.40625 5.1875 24.5 4.6875 16.5 4.6875 
L 10 4.6875 
L 10 0 
L 49.59375 0 
L 49.59375 4.6875 
L 44.09375 4.6875 
C 38.796875 4.6875 36.59375 5.09375 35.796875 6.09375 
C 35.09375 6.78125 35.09375 6.78125 35.09375 12.3125 
L 35.09375 53.671875 
C 35.09375 58.578125 35.296875 63.375 35.796875 70.5 
z
" id="Century_Schoolbook_L_Roman-49"/>
       <path d="M 3 72 
L 3 67.3125 
L 4.796875 67.3125 
C 12.90625 67.3125 13.796875 66.8125 13.796875 62.609375 
L 13.796875 59.734375 
L 13.796875 12.28125 
L 13.796875 9.375 
C 13.796875 5.1875 12.90625 4.6875 4.796875 4.6875 
L 3 4.6875 
L 3 0 
L 39.296875 0 
C 56.59375 0 67 7.40625 67 19.59375 
C 67 29.484375 60.59375 35.296875 47 37.6875 
C 51.796875 38.6875 54 39.578125 56.5 41.46875 
C 60.703125 44.546875 63.203125 49.421875 63.203125 54.5 
C 63.203125 60.859375 59.203125 67.125 53.40625 69.609375 
C 49.796875 71.203125 44.796875 72 38.90625 72 
z
M 25 39.6875 
L 25 62.328125 
C 25 66.203125 26.40625 67.3125 31.59375 67.3125 
L 35.59375 67.3125 
C 40.203125 67.3125 44 66.609375 46.09375 65.21875 
C 49.703125 63.03125 51.59375 58.75 51.59375 53.203125 
C 51.59375 43.46875 46.703125 39.6875 33.90625 39.6875 
z
M 25 35 
L 33.796875 35 
C 40.203125 35 44.5 34.390625 47.5 33.09375 
C 52.203125 30.890625 54.703125 26.5 54.703125 19.890625 
C 54.703125 13.59375 52.5 8.890625 48.59375 6.984375 
C 45.5 5.390625 41.296875 4.6875 35 4.6875 
L 30.796875 4.6875 
C 25.703125 4.6875 25 5.484375 25 11 
z
" id="Century_Schoolbook_L_Roman-66"/>
      </defs>
      <g transform="translate(195.083745942 187.486776813)scale(0.12 -0.12)">
       <use transform="scale(0.9962640099626402)" xlink:href="#Century_Schoolbook_L_Roman-45"/>
       <use transform="translate(33.17522972933531 0.0)scale(0.9962640099626402)" xlink:href="#Century_Schoolbook_L_Roman-49"/>
       <use transform="translate(88.56690669267591 0.0)scale(0.9962640099626402)" xlink:href="#Century_Schoolbook_L_Roman-53"/>
       <use transform="translate(143.95858365601651 0.0)scale(0.9962640099626402)" xlink:href="#Century_Schoolbook_L_Roman-100"/>
       <use transform="translate(201.1440709400296 0.0)scale(0.9962640099626402)" xlink:href="#Century_Schoolbook_L_Roman-66"/>
      </g>
     </g>
    </g>
    <g id="ytick_2">
     <g id="line2d_9">
      <path clip-path="url(#pe292e1491c)" d="M 248.716221 189.758212 
L 248.68355 187.886466 
L 248.585575 186.017 
L 248.194274 182.294014 
L 247.544223 178.607393 
L 246.63859 174.975098 
L 245.481787 171.414825 
L 244.07945 167.943919 
L 242.438411 164.57929 
L 240.566665 161.33733 
L 238.47333 158.233834 
L 236.168606 155.283921 
L 233.66372 152.501964 
L 230.970877 149.901515 
L 228.103195 147.495244 
L 225.074646 145.294875 
L 221.899984 143.311126 
L 218.594676 141.553662 
L 215.174825 140.031047 
L 211.657092 138.750697 
L 208.058616 137.71885 
L 204.396928 136.940534 
L 200.689866 136.419541 
L 196.955492 136.158408 
L 193.212 136.158408 
L 189.477626 136.419541 
L 185.770564 136.940534 
L 182.108876 137.71885 
L 178.5104 138.750697 
L 174.992667 140.031047 
L 171.572816 141.553662 
L 168.267508 143.311126 
L 165.092846 145.294875 
L 162.064297 147.495244 
L 159.196615 149.901515 
L 156.503772 152.501964 
L 153.998886 155.283921 
L 151.694162 158.233834 
L 149.600827 161.33733 
L 147.729081 164.57929 
L 146.088042 167.943919 
L 144.685704 171.414825 
L 143.528902 174.975098 
L 142.623269 178.607393 
L 141.973218 182.294014 
L 141.581916 186.017 
L 141.45127 189.758212 
L 141.581916 193.499424 
L 141.973218 197.22241 
L 142.623269 200.909031 
L 143.528902 204.541326 
L 144.685704 208.101599 
L 146.088042 211.572505 
L 147.729081 214.937134 
L 149.600827 218.179094 
L 151.694162 221.28259 
L 153.998886 224.232503 
L 156.503772 227.01446 
L 159.196615 229.614909 
L 162.064297 232.021179 
L 165.092846 234.221549 
L 168.267508 236.205298 
L 171.572816 237.962762 
L 174.992667 239.485377 
L 178.5104 240.765727 
L 182.108876 241.797574 
L 185.770564 242.57589 
L 189.477626 243.096883 
L 193.212 243.358016 
L 196.955492 243.358016 
L 200.689866 243.096883 
L 204.396928 242.57589 
L 208.058616 241.797574 
L 211.657092 240.765727 
L 215.174825 239.485377 
L 218.594676 237.962762 
L 221.899984 236.205298 
L 225.074646 234.221549 
L 228.103195 232.021179 
L 230.970877 229.614909 
L 233.66372 227.01446 
L 236.168606 224.232503 
L 238.47333 221.28259 
L 240.566665 218.179094 
L 242.438411 214.937134 
L 244.07945 211.572505 
L 245.481787 208.101599 
L 246.63859 204.541326 
L 247.544223 200.909031 
L 248.194274 197.22241 
L 248.585575 193.499424 
L 248.716221 189.758212 
L 248.716221 189.758212 
" style="fill:none;stroke:#000000;stroke-dasharray:1.000000,3.000000;stroke-dashoffset:0.0;stroke-width:0.5;"/>
     </g>
     <g id="text_6">
      <!-- -10dB -->
      <defs>
       <path d="M 28.40625 71 
C 14.40625 71 4.203125 55.6875 4.203125 34.75 
C 4.203125 14.125 14.09375 -1 27.59375 -1 
C 41.59375 -1 51.40625 13.625 51.40625 34.4375 
C 51.40625 45.0625 49.203125 53.875 45 60.78125 
C 41.09375 67.09375 34.703125 71 28.40625 71 
M 27.703125 66.703125 
C 31 66.703125 34.203125 64.5 36.59375 60.5 
C 39.296875 55.875 40.203125 49.96875 40.203125 36.25 
C 40.203125 22.21875 39.5 15.625 37.5 11.203125 
C 35.203125 6.296875 31.59375 3.296875 27.796875 3.296875 
C 24.5 3.296875 21.296875 5.5 18.90625 9.5 
C 16.09375 14.21875 15.296875 20.53125 15.296875 36.859375 
C 15.296875 48.484375 16 54.375 18 58.6875 
C 20.296875 63.796875 23.90625 66.703125 27.703125 66.703125 
" id="Century_Schoolbook_L_Roman-48"/>
      </defs>
      <g transform="translate(244.633692332 166.962517004)scale(0.12 -0.12)">
       <use transform="scale(0.9962640099626402)" xlink:href="#Century_Schoolbook_L_Roman-45"/>
       <use transform="translate(33.17522972933531 0.0)scale(0.9962640099626402)" xlink:href="#Century_Schoolbook_L_Roman-49"/>
       <use transform="translate(88.56690669267591 0.0)scale(0.9962640099626402)" xlink:href="#Century_Schoolbook_L_Roman-48"/>
       <use transform="translate(143.95858365601651 0.0)scale(0.9962640099626402)" xlink:href="#Century_Schoolbook_L_Roman-100"/>
       <use transform="translate(201.1440709400296 0.0)scale(0.9962640099626402)" xlink:href="#Century_Schoolbook_L_Roman-66"/>
      </g>
     </g>
    </g>
    <g id="ytick_3">
     <g id="line2d_10">
      <path clip-path="url(#pe292e1491c)" d="M 302.348697 189.758212 
L 302.283354 186.014719 
L 302.087405 182.275787 
L 301.761088 178.545971 
L 301.304802 174.829816 
L 300.719101 171.131849 
L 300.0047 167.456575 
L 299.162469 163.808472 
L 298.193435 160.191984 
L 297.098777 156.611519 
L 295.879829 153.071438 
L 294.538077 149.576054 
L 293.075155 146.129626 
L 291.492845 142.736352 
L 289.793076 139.400368 
L 287.977918 136.125736 
L 286.049583 132.916448 
L 284.010421 129.776413 
L 281.862914 126.709456 
L 279.609681 123.719314 
L 277.253466 120.80963 
L 274.797139 117.98395 
L 272.243694 115.245716 
L 269.596242 112.598264 
L 266.858008 110.044819 
L 264.032327 107.588492 
L 261.122644 105.232277 
L 258.132502 102.979044 
L 255.065545 100.831537 
L 251.92551 98.792374 
L 248.716221 96.864039 
L 245.44159 95.048882 
L 242.105606 93.349113 
L 238.712332 91.766803 
L 235.265904 90.303881 
L 231.77052 88.962129 
L 228.230439 87.743181 
L 224.649973 86.648523 
L 221.033486 85.679488 
L 217.385383 84.837257 
L 213.710109 84.122857 
L 210.012142 83.537156 
L 206.295986 83.08087 
L 202.566171 82.754553 
L 198.827239 82.558604 
L 195.083746 82.493261 
L 191.340253 82.558604 
L 187.601321 82.754553 
L 183.871505 83.08087 
L 180.15535 83.537156 
L 176.457383 84.122857 
L 172.782109 84.837257 
L 169.134006 85.679488 
L 165.517518 86.648523 
L 161.937053 87.743181 
L 158.396972 88.962129 
L 154.901588 90.303881 
L 151.45516 91.766803 
L 148.061886 93.349113 
L 144.725902 95.048882 
L 141.45127 96.864039 
L 138.241982 98.792374 
L 135.101947 100.831537 
L 132.03499 102.979044 
L 129.044848 105.232277 
L 126.135164 107.588492 
L 123.309484 110.044819 
L 120.57125 112.598264 
L 117.923798 115.245716 
L 115.370353 117.98395 
L 112.914026 120.80963 
L 110.557811 123.719314 
L 108.304578 126.709456 
L 106.157071 129.776413 
L 104.117908 132.916448 
L 102.189573 136.125736 
L 100.374416 139.400368 
L 98.674647 142.736352 
L 97.092337 146.129626 
L 95.629415 149.576054 
L 94.287663 153.071438 
L 93.068715 156.611519 
L 91.974057 160.191984 
L 91.005022 163.808472 
L 90.162791 167.456575 
L 89.448391 171.131849 
L 88.86269 174.829816 
L 88.406404 178.545971 
L 88.080087 182.275787 
L 87.884138 186.014719 
L 87.818795 189.758212 
L 87.884138 193.501705 
L 88.080087 197.240637 
L 88.406404 200.970452 
L 88.86269 204.686608 
L 89.448391 208.384575 
L 90.162791 212.059849 
L 91.005022 215.707952 
L 91.974057 219.324439 
L 93.068715 222.904905 
L 94.287663 226.444986 
L 95.629415 229.94037 
L 97.092337 233.386798 
L 98.674647 236.780072 
L 100.374416 240.116056 
L 102.189573 243.390687 
L 104.117908 246.599976 
L 106.157071 249.740011 
L 108.304578 252.806968 
L 110.557811 255.79711 
L 112.914026 258.706793 
L 115.370353 261.532474 
L 117.923798 264.270708 
L 120.57125 266.91816 
L 123.309484 269.471605 
L 126.135164 271.927932 
L 129.044848 274.284147 
L 132.03499 276.53738 
L 135.101947 278.684887 
L 138.241982 280.724049 
L 141.45127 282.652384 
L 144.725902 284.467542 
L 148.061886 286.167311 
L 151.45516 287.749621 
L 154.901588 289.212543 
L 158.396972 290.554295 
L 161.937053 291.773243 
L 165.517518 292.867901 
L 169.134006 293.836935 
L 172.782109 294.679166 
L 176.457383 295.393567 
L 180.15535 295.979268 
L 183.871505 296.435554 
L 187.601321 296.761871 
L 191.340253 296.95782 
L 195.083746 297.023163 
L 198.827239 296.95782 
L 202.566171 296.761871 
L 206.295986 296.435554 
L 210.012142 295.979268 
L 213.710109 295.393567 
L 217.385383 294.679166 
L 221.033486 293.836935 
L 224.649973 292.867901 
L 228.230439 291.773243 
L 231.77052 290.554295 
L 235.265904 289.212543 
L 238.712332 287.749621 
L 242.105606 286.167311 
L 245.44159 284.467542 
L 248.716221 282.652384 
L 251.92551 280.724049 
L 255.065545 278.684887 
L 258.132502 276.53738 
L 261.122644 274.284147 
L 264.032327 271.927932 
L 266.858008 269.471605 
L 269.596242 266.91816 
L 272.243694 264.270708 
L 274.797139 261.532474 
L 277.253466 258.706793 
L 279.609681 255.79711 
L 281.862914 252.806968 
L 284.010421 249.740011 
L 286.049583 246.599976 
L 287.977918 243.390687 
L 289.793076 240.116056 
L 291.492845 236.780072 
L 293.075155 233.386798 
L 294.538077 229.94037 
L 295.879829 226.444986 
L 297.098777 222.904905 
L 298.193435 219.324439 
L 299.162469 215.707952 
L 300.0047 212.059849 
L 300.719101 208.384575 
L 301.304802 204.686608 
L 301.761088 200.970452 
L 302.087405 197.240637 
L 302.283354 193.501705 
L 302.348697 189.758212 
L 302.348697 189.758212 
" style="fill:none;stroke:#000000;stroke-dasharray:1.000000,3.000000;stroke-dashoffset:0.0;stroke-width:0.5;"/>
     </g>
     <g id="text_7">
      <!-- -5dB -->
      <g transform="translate(294.183638722 146.438257194)scale(0.12 -0.12)">
       <use transform="scale(0.9962640099626402)" xlink:href="#Century_Schoolbook_L_Roman-45"/>
       <use transform="translate(33.17522972933531 0.0)scale(0.9962640099626402)" xlink:href="#Century_Schoolbook_L_Roman-53"/>
       <use transform="translate(88.56690669267591 0.0)scale(0.9962640099626402)" xlink:href="#Century_Schoolbook_L_Roman-100"/>
       <use transform="translate(145.752393976689 0.0)scale(0.9962640099626402)" xlink:href="#Century_Schoolbook_L_Roman-66"/>
      </g>
     </g>
    </g>
   </g>
   <g id="legend_1">
    <g id="patch_4">
     <path d="M 298.940325 74.715984 
L 355.981172 74.715984 
L 355.981172 28.860785 
L 298.940325 28.860785 
z
" style="fill:#ffffff;stroke:#000000;stroke-linejoin:miter;"/>
    </g>
    <g id="line2d_11">
     <path d="M 305.940325 36.752987 
L 319.940325 36.752987 
" style="fill:none;stroke:#0000ff;stroke-linecap:square;"/>
    </g>
    <g id="line2d_12"/>
    <g id="text_8">
     <!-- 25th %ile -->
     <defs>
      <path d="M 50.5 21.5625 
L 46.09375 21.5625 
L 45.09375 16.46875 
C 43.796875 10.078125 43 9.375 36.796875 9.375 
L 14.40625 9.375 
C 21.296875 16.5625 23.59375 18.65625 30 23.65625 
C 39.09375 30.65625 43 34.15625 45.296875 37.140625 
C 48.5 41.53125 50.09375 46.03125 50.09375 50.8125 
C 50.09375 62.109375 40.59375 70.296875 27.59375 70.296875 
C 14.90625 70.296875 5.09375 62.109375 5.09375 51.515625 
C 5.09375 45.234375 8.296875 40.9375 13.09375 40.9375 
C 16.796875 40.9375 19.296875 43.4375 19.296875 47.03125 
C 19.296875 49.53125 17.90625 51.828125 15.703125 52.734375 
C 12 54.328125 11.796875 54.421875 11.796875 55.71875 
C 11.796875 57.21875 12.796875 59.515625 14.203125 61.21875 
C 16.703125 64.203125 20.90625 66 25.59375 66 
C 33.796875 66 38.796875 60.90625 38.796875 52.53125 
C 38.796875 45.125 35.296875 38.4375 27 29.65625 
L 21.09375 23.46875 
C 17.59375 19.78125 15 16.96875 13.296875 15.078125 
C 9.703125 10.875 7.90625 8.578125 3.5 2.796875 
L 3.5 0 
L 48.59375 0 
z
" id="Century_Schoolbook_L_Roman-50"/>
      <path d="M 19.40625 47 
L 19.40625 67 
L 15.296875 67 
C 14.296875 53.875 9.90625 47.1875 1.796875 46.59375 
L 1.796875 42.703125 
L 10 42.703125 
L 10 17.265625 
C 10 10.28125 10.203125 7.78125 11.203125 5.484375 
C 12.796875 1.296875 16.796875 -1 22.59375 -1 
C 26.5 -1 29.90625 0.203125 32.203125 2.390625 
C 35.5 5.59375 37.40625 10.875 37.40625 16.375 
C 37.40625 16.96875 37.40625 17.671875 37.296875 18.671875 
L 33.09375 18.671875 
C 32.796875 9.6875 30.203125 5.09375 25.296875 5.09375 
C 23 5.09375 21 6.28125 20.296875 7.984375 
C 19.703125 9.375 19.40625 11.875 19.40625 15.46875 
L 19.40625 42.703125 
L 34.09375 42.703125 
L 34.09375 47 
z
" id="Century_Schoolbook_L_Roman-116"/>
      <path d="M 20 73 
L 1.5 73 
L 1.5 68.21875 
L 6.296875 68.21875 
C 10 68.21875 10.59375 67.515625 10.59375 63.21875 
L 10.59375 12.28125 
L 10.59375 8.28125 
C 10.59375 4.296875 9.5 3.59375 3.09375 3.59375 
L 2.703125 3.59375 
L 2.703125 0 
L 28 0 
L 28 3.59375 
L 27.59375 3.59375 
C 21.09375 3.59375 20 4.296875 20 8.28125 
L 20 12.28125 
L 20 22.5625 
C 20 27.546875 20.703125 32.03125 21.796875 34.328125 
C 23.90625 38.828125 28.40625 41.921875 32.703125 41.921875 
C 35.296875 41.921875 38.296875 40.421875 39.796875 38.421875 
C 41.296875 36.234375 42 33.234375 42 28.34375 
L 42 12.28125 
L 42 8.28125 
C 42 4.296875 40.90625 3.59375 34.40625 3.59375 
L 34 3.59375 
L 34 0 
L 59.296875 0 
L 59.296875 3.59375 
L 58.90625 3.59375 
C 52.5 3.59375 51.40625 4.296875 51.40625 8.28125 
L 51.40625 12.28125 
L 51.40625 27.953125 
C 51.40625 35.125 51.09375 36.921875 49.296875 40.328125 
C 46.796875 45.109375 41.796875 48 35.796875 48 
C 29.40625 48 24.5 45.015625 20 38.328125 
z
" id="Century_Schoolbook_L_Roman-104"/>
     </defs>
     <g transform="translate(330.940324637 40.2529865636)scale(0.1 -0.1)">
      <use transform="scale(0.9962640099626402)" xlink:href="#Century_Schoolbook_L_Roman-50"/>
      <use transform="translate(55.3916769633406 0.0)scale(0.9962640099626402)" xlink:href="#Century_Schoolbook_L_Roman-53"/>
      <use transform="translate(110.7833539266812 0.0)scale(0.9962640099626402)" xlink:href="#Century_Schoolbook_L_Roman-116"/>
      <use transform="translate(149.5370601212251 0.0)scale(0.9962640099626402)" xlink:href="#Century_Schoolbook_L_Roman-104"/>
     </g>
    </g>
    <g id="line2d_13">
     <path d="M 305.940325 51.038053 
L 319.940325 51.038053 
" style="fill:none;stroke:#008000;stroke-linecap:square;"/>
    </g>
    <g id="line2d_14"/>
    <g id="text_9">
     <!-- 50th %ile -->
     <g transform="translate(330.940324637 54.538052819)scale(0.1 -0.1)">
      <use transform="scale(0.9962640099626402)" xlink:href="#Century_Schoolbook_L_Roman-53"/>
      <use transform="translate(55.3916769633406 0.0)scale(0.9962640099626402)" xlink:href="#Century_Schoolbook_L_Roman-48"/>
      <use transform="translate(110.7833539266812 0.0)scale(0.9962640099626402)" xlink:href="#Century_Schoolbook_L_Roman-116"/>
      <use transform="translate(149.5370601212251 0.0)scale(0.9962640099626402)" xlink:href="#Century_Schoolbook_L_Roman-104"/>
     </g>
    </g>
    <g id="line2d_15">
     <path d="M 305.940325 65.323119 
L 319.940325 65.323119 
" style="fill:none;stroke:#ff0000;stroke-linecap:square;"/>
    </g>
    <g id="line2d_16"/>
    <g id="text_10">
     <!-- 75th %ile -->
     <defs>
      <path d="M 5.90625 46.171875 
L 10.296875 45.484375 
L 12.09375 53.40625 
C 13.59375 60.015625 14.296875 61 17.203125 61 
C 17.703125 61 18.59375 61 19.40625 60.609375 
C 25.203125 60.609375 32.40625 60.609375 36.5 60.609375 
C 37.90625 60.609375 40 60.609375 42.703125 60.609375 
L 35.90625 46.84375 
C 28.40625 31.859375 27.59375 30.15625 25.09375 24.03125 
C 22.09375 16.484375 20.40625 10.15625 20.40625 5.921875 
C 20.40625 1.40625 22.796875 -1.5 26.703125 -1.5 
C 31.5 -1.5 33.40625 1.796875 33.296875 10.421875 
C 32.796875 24.734375 34.703125 31.84375 45.296875 55.265625 
C 46.796875 58.484375 48.296875 61.59375 49.796875 64.6875 
C 49.90625 64.890625 50.203125 65.796875 50.796875 67.09375 
L 50.796875 69.984375 
C 44.59375 69.890625 41.296875 69.890625 35.203125 69.890625 
C 26.703125 69.890625 19.90625 69.890625 9 69.890625 
z
" id="Century_Schoolbook_L_Roman-55"/>
     </defs>
     <g transform="translate(330.940324637 68.8231190745)scale(0.1 -0.1)">
      <use transform="scale(0.9962640099626402)" xlink:href="#Century_Schoolbook_L_Roman-55"/>
      <use transform="translate(55.3916769633406 0.0)scale(0.9962640099626402)" xlink:href="#Century_Schoolbook_L_Roman-53"/>
      <use transform="translate(110.7833539266812 0.0)scale(0.9962640099626402)" xlink:href="#Century_Schoolbook_L_Roman-116"/>
      <use transform="translate(149.5370601212251 0.0)scale(0.9962640099626402)" xlink:href="#Century_Schoolbook_L_Roman-104"/>
     </g>
    </g>
   </g>
  </g>
 </g>
 <defs>
  <clipPath id="pe292e1491c">
   <path d="M 195.083746 350.655638 
C 237.754242 350.655638 278.68281 333.702471 308.855407 303.529873 
C 339.028005 273.357276 355.981172 232.428708 355.981172 189.758212 
C 355.981172 147.087716 339.028005 106.159148 308.855407 75.986551 
C 278.68281 45.813953 237.754242 28.860785 195.083746 28.860785 
C 152.41325 28.860785 111.484682 45.813953 81.312085 75.986551 
C 51.139487 106.159148 34.186319 147.087716 34.186319 189.758212 
C 34.186319 232.428708 51.139487 273.357276 81.312085 303.529873 
C 111.484682 333.702471 152.41325 350.655638 195.083746 350.655638 
z
"/>
  </clipPath>
 </defs>
</svg>
