<?xml version="1.0" encoding="utf-8" standalone="no"?>
<!DOCTYPE svg PUBLIC "-//W3C//DTD SVG 1.1//EN"
  "http://www.w3.org/Graphics/SVG/1.1/DTD/svg11.dtd">
<!-- Created with matplotlib (http://matplotlib.org/) -->
<svg height="379pt" version="1.1" viewBox="0 0 384 379" width="384pt" xmlns="http://www.w3.org/2000/svg" xmlns:xlink="http://www.w3.org/1999/xlink">
 <defs>
  <style type="text/css">
*{stroke-linecap:butt;stroke-linejoin:round;stroke-miterlimit:100000;}
  </style>
 </defs>
 <g id="figure_1">
  <g id="patch_1">
   <path d="M 0 379.516424 
L 384.314502 379.516424 
L 384.314502 0 
L 0 0 
z
" style="fill:#ffffff;"/>
  </g>
  <g id="axes_1">
   <g id="patch_2">
    <path d="M 195.083746 350.655638 
C 237.754242 350.655638 278.68281 333.702471 308.855407 303.529873 
C 339.028005 273.357276 355.981172 232.428708 355.981172 189.758212 
C 355.981172 147.087716 339.028005 106.159148 308.855407 75.986551 
C 278.68281 45.813953 237.754242 28.860785 195.083746 28.860785 
C 152.41325 28.860785 111.484682 45.813953 81.312085 75.986551 
C 51.139487 106.159148 34.186319 147.087716 34.186319 189.758212 
C 34.186319 232.428708 51.139487 273.357276 81.312085 303.529873 
C 111.484682 333.702471 152.41325 350.655638 195.083746 350.655638 
z
" style="fill:#ffffff;"/>
   </g>
   <g id="line2d_1">
    <path clip-path="url(#pf248a33275)" d="M 355.981172 189.758212 
L 355.88421 187.784794 
L 355.594159 185.817902 
L 355.112046 183.864021 
L 354.438593 181.92961 
L 353.574212 180.021136 
L 352.518993 178.14509 
L 351.272684 176.308025 
L 349.834673 174.516576 
L 348.203952 172.777501 
L 346.379084 171.097712 
L 344.358161 169.484317 
L 342.138749 167.944663 
L 339.717823 166.486391 
L 337.09172 165.117492 
L 334.256054 163.84636 
L 331.205633 162.681884 
L 327.934421 161.633509 
L 324.435453 160.711315 
L 320.700834 159.926106 
L 316.721843 159.289455 
L 312.489082 158.813729 
L 307.993009 158.512012 
L 303.224956 158.397843 
L 298.178965 158.484619 
L 292.855218 158.784353 
L 287.266166 159.305253 
L 281.447057 160.047282 
L 275.473184 160.994412 
L 263.723967 163.280757 
L 254.3755 165.198763 
L 251.600842 165.531306 
L 250.347507 165.261472 
L 250.411156 164.416395 
L 251.368966 163.137285 
L 255.67283 158.322461 
L 256.813449 156.762999 
L 257.642632 155.326173 
L 258.133391 154.041032 
L 258.278598 152.927154 
L 258.080807 151.999228 
L 257.546429 151.269834 
L 256.682423 150.751281 
L 255.494321 150.456819 
L 253.985099 150.401586 
L 252.154324 150.603399 
L 249.997464 151.083607 
L 247.505274 151.867971 
L 244.662834 152.987853 
L 241.448681 154.481537 
L 237.833888 156.395675 
L 233.78174 158.786448 
L 229.24879 161.719686 
L 224.192455 165.26539 
L 218.594448 169.477741 
L 212.531011 174.330655 
L 206.354998 179.542545 
L 198.413465 186.588056 
L 209.325304 175.162753 
L 214.509462 169.354746 
L 219.12027 163.883342 
L 223.088207 158.860052 
L 226.46419 154.269575 
L 229.328738 150.05875 
L 231.76177 146.167889 
L 233.833616 142.541358 
L 235.604439 139.12921 
L 237.124291 135.88823 
L 238.434641 132.781148 
L 239.569295 129.77639 
L 241.414308 123.973872 
L 242.808873 118.332514 
L 243.827658 112.783164 
L 244.49195 107.325615 
L 244.791727 102.011351 
L 244.704992 96.923398 
L 244.211347 92.158423 
L 243.807899 89.928012 
L 243.299252 87.815095 
L 242.685721 85.831408 
L 241.968274 83.988396 
L 241.148501 82.297284 
L 240.228482 80.769177 
L 239.210807 79.415223 
L 238.098454 78.246791 
L 236.894697 77.275626 
L 235.603121 76.514136 
L 234.22751 75.975655 
L 232.771827 75.674772 
L 231.240116 75.627721 
L 229.636532 75.852925 
L 227.965263 76.371586 
L 226.230424 77.208583 
L 224.436082 78.393575 
L 222.586153 79.962474 
L 220.684213 81.959721 
L 218.733462 84.441239 
L 216.736391 87.479119 
L 214.694456 91.168532 
L 212.607341 95.63915 
L 210.471999 101.073509 
L 208.280647 107.73966 
L 206.017035 116.051975 
L 203.649763 126.687584 
L 201.121624 140.804371 
L 198.370158 160.123649 
L 195.925399 181.212769 
L 196.476044 173.59029 
L 197.959374 150.774301 
L 198.570816 132.999149 
L 198.525834 119.692868 
L 198.046665 109.314338 
L 197.264151 100.938448 
L 196.258708 94.018426 
L 195.083742 88.213994 
L 193.777266 83.301628 
L 192.367924 79.127867 
L 190.878448 75.583732 
L 189.32763 72.589647 
L 187.731536 70.086198 
L 186.104424 68.028535 
L 184.459255 66.382458 
L 182.80815 65.121953 
L 181.162642 64.227406 
L 179.534035 63.684523 
L 177.93359 63.483496 
L 176.372695 63.618541 
L 174.863176 64.08763 
L 173.417473 64.892446 
L 172.048967 66.038613 
L 170.772231 67.535978 
L 169.603574 69.399348 
L 168.561564 71.649546 
L 167.667751 74.314878 
L 166.947871 77.433513 
L 166.433353 81.056829 
L 166.163793 85.25492 
L 166.19069 90.12514 
L 166.583834 95.80661 
L 167.442252 102.505604 
L 168.915308 110.545217 
L 171.24638 120.468102 
L 174.877697 133.28608 
L 180.752483 151.203298 
L 191.410281 180.235112 
M 188.297631 173.37508 
L 177.325266 148.330815 
L 169.847291 132.825688 
L 164.021291 121.941236 
L 159.148734 113.780009 
L 154.902889 107.43224 
L 151.108211 102.393841 
L 147.661384 98.356649 
L 144.497849 95.11863 
L 141.575392 92.53993 
L 138.865946 90.519906 
L 136.350543 88.983583 
L 134.016407 87.873517 
L 131.855123 87.144663 
L 129.861443 86.760962 
L 128.032437 86.692924 
L 126.366752 86.915947 
L 124.864313 87.409012 
L 123.525738 88.153646 
L 122.351945 89.133043 
L 121.343663 90.331233 
L 120.500865 91.732259 
L 119.822048 93.319238 
L 119.303239 95.073451 
L 118.936844 96.972938 
L 118.710056 98.991228 
L 118.586574 103.246373 
L 118.618584 109.44433 
L 118.446294 111.216323 
L 118.063443 112.73791 
L 117.408347 113.966242 
L 116.441424 114.884508 
L 115.1535 115.506829 
L 113.567123 115.875837 
L 111.730691 116.054163 
L 101.087469 116.402815 
L 99.070392 116.706615 
L 97.186851 117.152918 
L 95.463454 117.752737 
L 93.921945 118.512036 
L 92.580565 119.433138 
L 91.455166 120.515821 
L 90.560086 121.758095 
L 89.908732 123.156857 
L 89.514172 124.708142 
L 89.389347 126.407425 
L 89.547224 128.249697 
L 90.000697 130.229408 
L 90.762129 132.340226 
L 91.842427 134.574562 
L 93.249366 136.922937 
L 94.984378 139.372419 
L 97.037471 141.904745 
L 99.378751 144.493124 
L 104.623766 149.660071 
L 109.492943 154.305333 
L 111.087419 156.167388 
L 111.699232 157.593255 
L 111.15051 158.559356 
L 109.48228 159.129524 
L 106.930226 159.431419 
L 97.043619 160.018061 
L 93.774597 160.379103 
L 90.733364 160.880576 
L 87.975958 161.527857 
L 85.532399 162.317041 
L 83.417142 163.239119 
L 81.635726 164.2826 
L 80.189199 165.434847 
L 79.076512 166.682939 
L 78.296137 168.014069 
L 77.847029 169.415721 
L 77.729241 170.875726 
L 77.944362 172.382215 
L 78.495869 173.923674 
L 79.389443 175.488678 
L 80.63332 177.0659 
L 82.238706 178.643951 
L 84.220297 180.211232 
L 86.596928 181.755756 
L 89.392335 183.264908 
L 92.636386 184.725291 
L 96.365928 186.122218 
L 100.626206 187.439411 
L 105.471614 188.658455 
L 110.964824 189.758219 
L 117.170691 190.714388 
L 124.136732 191.499858 
L 131.835085 192.087795 
L 140.015217 192.463555 
L 153.725864 192.808955 
L 155.408852 193.174813 
L 152.483638 193.953952 
L 140.272979 196.518473 
L 134.068964 198.045012 
L 128.536684 199.629538 
L 123.745161 201.236692 
L 119.652105 202.846851 
L 116.184393 204.448111 
L 113.266781 206.032612 
L 110.831551 207.594535 
L 108.820105 209.12936 
L 107.182497 210.633395 
L 105.876198 212.103546 
L 104.864772 213.537206 
L 104.116713 214.93217 
L 103.604409 216.286721 
L 103.303368 217.599482 
L 103.19149 218.869544 
L 103.248476 220.096491 
L 103.455288 221.28048 
L 103.793689 222.422328 
L 104.793822 224.586873 
L 106.103876 226.614882 
L 109.687609 231.437517 
L 110.796215 233.489554 
L 111.203282 234.593259 
L 111.495284 235.764814 
L 111.665941 237.013828 
L 111.715131 238.346879 
L 111.478604 241.274188 
L 110.89558 244.528628 
L 109.01595 253.590438 
L 108.510007 257.321029 
L 108.316558 260.966187 
L 108.502377 264.443808 
L 108.750752 266.09723 
L 109.107089 267.682916 
L 109.5733 269.193363 
L 110.150463 270.621435 
L 110.838937 271.96029 
L 111.638588 273.203359 
L 112.548778 274.344159 
L 113.568535 275.376316 
L 114.696608 276.293472 
L 115.931508 277.089261 
L 117.271576 277.757234 
L 118.71497 278.290828 
L 120.25983 278.683343 
L 121.904089 278.927876 
L 123.645629 279.017316 
L 125.482209 278.944346 
L 127.411507 278.701385 
L 129.43105 278.280645 
L 131.53818 277.674165 
L 133.730046 276.873806 
L 136.003471 275.871427 
L 138.354798 274.659041 
L 140.780055 273.228944 
L 143.274284 271.574264 
L 145.831561 269.689429 
L 148.444575 267.570952 
L 151.104154 265.218535 
L 153.798661 262.636576 
L 156.51323 259.836218 
L 159.228895 256.837928 
L 161.921738 253.674486 
L 167.11522 247.062542 
L 171.799862 240.592679 
L 178.634206 230.89149 
L 180.795305 228.197918 
L 182.393751 226.645312 
L 183.011074 226.302719 
L 183.488694 226.358939 
L 183.797638 226.96354 
L 183.911583 228.283649 
L 183.823676 230.446906 
L 181.997579 251.572384 
L 181.786978 256.605557 
L 181.718792 261.54124 
L 181.802773 266.298346 
L 182.039868 270.825771 
L 182.425489 275.093287 
L 182.951727 279.084972 
L 183.60889 282.793996 
L 184.386428 286.219316 
L 185.273526 289.363263 
L 186.259368 292.230133 
L 187.33349 294.825591 
L 188.485637 297.155406 
L 189.705945 299.225579 
L 190.984911 301.042001 
L 192.313375 302.610349 
L 193.6825 303.93604 
L 195.083747 305.024257 
L 196.508851 305.87994 
L 197.949799 306.507897 
L 199.39882 306.912848 
L 200.848375 307.099579 
L 202.291164 307.073063 
L 203.720143 306.838644 
L 205.128506 306.40228 
L 206.509961 305.770738 
L 207.858486 304.952061 
L 209.168675 303.955907 
L 210.435854 302.794131 
L 211.656302 301.481344 
L 213.948698 298.479593 
L 216.047914 295.152153 
L 219.885525 288.772367 
L 220.85082 287.520207 
L 221.855708 286.499717 
L 222.918676 285.74256 
L 224.055079 285.263935 
L 225.275328 285.060389 
L 226.583926 285.110631 
L 227.979427 285.378911 
L 231.001066 286.385345 
L 237.623608 288.996141 
L 241.021009 290.05059 
L 244.365107 290.730114 
L 247.595113 290.968329 
L 249.152247 290.913269 
L 250.66412 290.741085 
L 252.126382 290.452537 
L 253.535115 290.04925 
L 254.886762 289.533491 
L 256.178072 288.907997 
L 257.406085 288.1759 
L 258.568077 287.34059 
L 259.661522 286.405731 
L 260.684225 285.375029 
L 261.634071 284.252444 
L 263.307792 281.747706 
L 264.669441 278.924043 
L 265.707414 275.813391 
L 266.410133 272.445296 
L 266.763511 268.844615 
L 266.747809 265.029364 
L 266.334291 261.008778 
L 265.482909 256.783797 
L 264.142511 252.349429 
L 263.27094 250.051999 
L 262.255641 247.701079 
L 261.090524 245.298012 
L 259.771375 242.845963 
L 258.29701 240.350642 
L 254.902016 235.27081 
L 251.019062 230.188231 
L 246.915407 225.318733 
L 239.614658 217.197353 
L 235.169457 212.466479 
L 233.415161 210.855586 
L 231.205339 209.065596 
L 228.265948 206.974317 
L 224.227653 204.428029 
L 218.545117 201.209013 
L 210.30676 196.958164 
L 197.751898 190.980316 
M 207.034771 194.537524 
L 226.470165 201.865287 
L 241.366798 206.962098 
L 253.560594 210.681552 
L 263.955022 213.451473 
L 273.051307 215.515196 
L 281.153801 217.025099 
L 288.461439 218.084044 
L 295.109875 218.765268 
L 301.196354 219.123539 
L 306.792736 219.201322 
L 311.953517 219.032571 
L 316.721087 218.64519 
L 321.128941 218.062604 
L 325.204073 217.304888 
L 328.968471 216.389526 
L 332.440333 215.331984 
L 335.63482 214.146113 
L 338.564725 212.844468 
L 341.240912 211.438544 
L 343.672583 209.939026 
L 345.867939 208.355695 
L 347.833801 206.697895 
L 349.576195 204.974406 
L 351.100374 203.193571 
L 352.410933 201.363368 
L 353.511894 199.491459 
L 354.406776 197.585245 
L 355.098654 195.651899 
L 355.590199 193.698407 
L 355.883717 191.731601 
L 355.883717 191.731601 
" style="fill:none;stroke:#0000ff;stroke-linecap:square;"/>
   </g>
   <g id="patch_3">
    <path d="M 195.083746 350.655638 
C 237.754242 350.655638 278.68281 333.702471 308.855407 303.529873 
C 339.028005 273.357276 355.981172 232.428708 355.981172 189.758212 
C 355.981172 147.087716 339.028005 106.159148 308.855407 75.986551 
C 278.68281 45.813953 237.754242 28.860785 195.083746 28.860785 
C 152.41325 28.860785 111.484682 45.813953 81.312085 75.986551 
C 51.139487 106.159148 34.186319 147.087716 34.186319 189.758212 
C 34.186319 232.428708 51.139487 273.357276 81.312085 303.529873 
C 111.484682 333.702471 152.41325 350.655638 195.083746 350.655638 
z
" style="fill:none;stroke:#000000;stroke-linecap:square;stroke-linejoin:miter;"/>
   </g>
   <g id="matplotlib.axis_1">
    <g id="xtick_1">
     <g id="line2d_2">
      <path clip-path="url(#pf248a33275)" d="M 195.083746 189.758212 
L 355.981172 189.758212 
" style="fill:none;stroke:#000000;stroke-dasharray:1.000000,3.000000;stroke-dashoffset:0.0;stroke-width:0.5;"/>
     </g>
     <g id="text_1">
      <!-- $0^\circ$ -->
      <defs>
       <path d="M 42 31.640625 
C 42 37.75 41.90625 48.125 37.703125 56.109375 
C 34 63.109375 28.09375 65.59375 22.90625 65.59375 
C 18.09375 65.59375 12 63.40625 8.203125 56.203125 
C 4.203125 48.71875 3.796875 39.4375 3.796875 31.640625 
C 3.796875 25.953125 3.90625 17.28125 7 9.671875 
C 11.296875 -0.609375 19 -2 22.90625 -2 
C 27.5 -2 34.5 -0.109375 38.59375 9.375 
C 41.59375 16.28125 42 24.359375 42 31.640625 
M 22.90625 -0.40625 
C 16.5 -0.40625 12.703125 5.078125 11.296875 12.6875 
C 10.203125 18.5625 10.203125 27.15625 10.203125 32.75 
C 10.203125 40.4375 10.203125 46.828125 11.5 52.921875 
C 13.40625 61.390625 19 64 22.90625 64 
C 27 64 32.296875 61.296875 34.203125 53.125 
C 35.5 47.4375 35.59375 40.734375 35.59375 32.75 
C 35.59375 26.25 35.59375 18.265625 34.40625 12.375 
C 32.296875 1.484375 26.40625 -0.40625 22.90625 -0.40625 
" id="CMR17-48"/>
       <path d="M 44.40625 25 
C 44.40625 35.578125 35.5 44.1875 25 44.1875 
C 14.203125 44.1875 5.5 35.375 5.5 25 
C 5.5 14.53125 14.203125 5.8125 25 5.8125 
C 35.5 5.8125 44.40625 14.421875 44.40625 25 
M 25 9.8125 
C 16.296875 9.8125 9.5 16.71875 9.5 25 
C 9.5 33.28125 16.40625 40.1875 25 40.1875 
C 33.296875 40.1875 40.40625 33.46875 40.40625 25 
C 40.40625 16.53125 33.296875 9.8125 25 9.8125 
" id="CMSY10-14"/>
      </defs>
      <g transform="translate(367.027328533 193.057819607)scale(0.12 -0.12)">
       <use transform="scale(0.9962640099626402)" xlink:href="#CMR17-48"/>
       <use transform="translate(45.69047711706103 36.15363894185866)scale(0.6973817666173724)" xlink:href="#CMSY10-14"/>
      </g>
     </g>
    </g>
    <g id="xtick_2">
     <g id="line2d_3">
      <path clip-path="url(#pf248a33275)" d="M 195.083746 189.758212 
L 195.083746 28.860785 
" style="fill:none;stroke:#000000;stroke-dasharray:1.000000,3.000000;stroke-dashoffset:0.0;stroke-width:0.5;"/>
     </g>
     <g id="text_2">
      <!-- $90^\circ$ -->
      <defs>
       <path d="M 35.203125 29.125 
C 35.203125 7.25 26.09375 0.484375 18.59375 0.484375 
C 16.296875 0.484375 10.703125 0.484375 8.40625 4.59375 
C 11 4.1875 12.90625 5.578125 12.90625 8.09375 
C 12.90625 10.8125 10.703125 11.703125 9.296875 11.703125 
C 8.40625 11.703125 5.703125 11.296875 5.703125 7.90625 
C 5.703125 1.109375 11.59375 -2 18.796875 -2 
C 30.296875 -2 42 10.53125 42 32.390625 
C 42 59.640625 30.796875 65.296875 23.203125 65.296875 
C 13.296875 65.296875 3.796875 56.6875 3.796875 43.40625 
C 3.796875 31.109375 11.90625 22 22.09375 22 
C 30.5 22 34.203125 29.734375 35.203125 33 
z
M 22.296875 23.59375 
C 19.59375 23.59375 15.796875 24.09375 12.703125 30.03125 
C 10.59375 33.890625 10.59375 38.453125 10.59375 43.296875 
C 10.59375 49.15625 10.59375 53.203125 13.40625 57.5625 
C 14.796875 59.640625 17.40625 63 23.203125 63 
C 35 63 35 45.078125 35 41.125 
C 35 34.09375 31.796875 23.59375 22.296875 23.59375 
" id="CMR17-57"/>
      </defs>
      <g transform="translate(187.113664266 16.070650466)scale(0.12 -0.12)">
       <use transform="scale(0.9962640099626402)" xlink:href="#CMR17-57"/>
       <use transform="translate(45.69047711706103 0.0)scale(0.9962640099626402)" xlink:href="#CMR17-48"/>
       <use transform="translate(91.38095423412206 36.15363894185866)scale(0.6973817666173724)" xlink:href="#CMSY10-14"/>
      </g>
     </g>
    </g>
    <g id="xtick_3">
     <g id="line2d_4">
      <path clip-path="url(#pf248a33275)" d="M 195.083746 189.758212 
L 34.186319 189.758212 
" style="fill:none;stroke:#000000;stroke-dasharray:1.000000,3.000000;stroke-dashoffset:0.0;stroke-width:0.5;"/>
     </g>
     <g id="text_3">
      <!-- $180^\circ$ -->
      <defs>
       <path d="M 26.59375 63.40625 
C 26.59375 65.5 26.5 65.5 25.09375 65.5 
C 21.203125 61.1875 15.296875 59.796875 9.703125 59.796875 
C 9.40625 59.796875 8.90625 59.796875 8.796875 59.5 
C 8.703125 59.296875 8.703125 59.09375 8.703125 57 
C 11.796875 57 17 57.59375 21 59.984375 
L 21 7.203125 
C 21 3.6875 20.796875 2.5 12.203125 2.5 
L 9.203125 2.5 
L 9.203125 0 
C 14 0 19 0 23.796875 0 
C 28.59375 0 33.59375 0 38.40625 0 
L 38.40625 2.5 
L 35.40625 2.5 
C 26.796875 2.5 26.59375 3.59375 26.59375 7.15625 
z
" id="CMR17-49"/>
       <path d="M 27.203125 35.375 
C 33.5 38.546875 39.90625 43.328125 39.90625 50.984375 
C 39.90625 60.015625 31.09375 65.296875 23 65.296875 
C 13.90625 65.296875 5.90625 58.734375 5.90625 49.6875 
C 5.90625 47.203125 6.5 42.921875 10.40625 39.140625 
C 11.40625 38.15625 15.59375 35.171875 18.296875 33.28125 
C 13.796875 30.984375 3.296875 25.53125 3.296875 14.59375 
C 3.296875 4.359375 13.09375 -2 22.796875 -2 
C 33.5 -2 42.5 5.65625 42.5 15.78125 
C 42.5 24.84375 36.40625 29.015625 32.40625 31.703125 
z
M 14.09375 44.09375 
C 13.296875 44.59375 9.296875 47.671875 9.296875 52.359375 
C 9.296875 58.421875 15.59375 63 22.796875 63 
C 30.703125 63 36.5 57.4375 36.5 50.96875 
C 36.5 41.703125 26.09375 36.421875 25.59375 36.421875 
C 25.5 36.421875 25.40625 36.421875 24.59375 37.03125 
z
M 32.5 23.734375 
C 34 22.640625 38.796875 19.375 38.796875 13.296875 
C 38.796875 5.953125 31.40625 0.390625 23 0.390625 
C 13.90625 0.390625 7 6.84375 7 14.6875 
C 7 22.546875 13.09375 29.09375 20 32.1875 
z
" id="CMR17-56"/>
      </defs>
      <g transform="translate(7.2 193.057819607)scale(0.12 -0.12)">
       <use transform="scale(0.9962640099626402)" xlink:href="#CMR17-49"/>
       <use transform="translate(45.69047711706103 0.0)scale(0.9962640099626402)" xlink:href="#CMR17-56"/>
       <use transform="translate(91.38095423412206 0.0)scale(0.9962640099626402)" xlink:href="#CMR17-48"/>
       <use transform="translate(137.07143135118307 36.15363894185866)scale(0.6973817666173724)" xlink:href="#CMSY10-14"/>
      </g>
     </g>
    </g>
    <g id="xtick_4">
     <g id="line2d_5">
      <path clip-path="url(#pf248a33275)" d="M 195.083746 189.758212 
L 195.083746 350.655638 
" style="fill:none;stroke:#000000;stroke-dasharray:1.000000,3.000000;stroke-dashoffset:0.0;stroke-width:0.5;"/>
     </g>
     <g id="text_4">
      <!-- $270^\circ$ -->
      <defs>
       <path d="M 45.09375 61.578125 
L 45.09375 63.765625 
L 21.59375 63.765625 
C 9.90625 63.765625 9.703125 65.078125 9.296875 67 
L 7.5 67 
L 4.59375 48.34375 
L 6.40625 48.34375 
C 6.703125 50.234375 7.40625 55.3125 8.59375 57.203125 
C 9.203125 58 16.59375 58 18.296875 58 
L 40.296875 58 
L 29.203125 41.578125 
C 21.796875 30.53125 16.703125 15.609375 16.703125 2.578125 
C 16.703125 1.390625 16.703125 -2 20.296875 -2 
C 23.90625 -2 23.90625 1.390625 23.90625 2.671875 
L 23.90625 7.265625 
C 23.90625 23.5625 26.703125 34.3125 31.296875 41.1875 
z
" id="CMR17-55"/>
       <path d="M 41.703125 15.453125 
L 39.90625 15.453125 
C 38.90625 8.375 38.09375 7.171875 37.703125 6.5625 
C 37.203125 5.765625 30 5.765625 28.59375 5.765625 
L 9.40625 5.765625 
C 13 9.671875 20 16.75 28.5 24.953125 
C 34.59375 30.734375 41.703125 37.53125 41.703125 47.421875 
C 41.703125 59.21875 32.296875 66 21.796875 66 
C 10.796875 66 4.09375 56.3125 4.09375 47.34375 
C 4.09375 43.4375 7 42.9375 8.203125 42.9375 
C 9.203125 42.9375 12.203125 43.546875 12.203125 47.03125 
C 12.203125 50.109375 9.59375 51 8.203125 51 
C 7.59375 51 7 50.90625 6.59375 50.703125 
C 8.5 59.21875 14.296875 63.40625 20.40625 63.40625 
C 29.09375 63.40625 34.796875 56.515625 34.796875 47.421875 
C 34.796875 38.734375 29.703125 31.25 24 24.75 
L 4.09375 2.28125 
L 4.09375 0 
L 39.296875 0 
z
" id="CMR17-50"/>
      </defs>
      <g transform="translate(184.187169141 370.044988747)scale(0.12 -0.12)">
       <use transform="scale(0.9962640099626402)" xlink:href="#CMR17-50"/>
       <use transform="translate(45.69047711706103 0.0)scale(0.9962640099626402)" xlink:href="#CMR17-55"/>
       <use transform="translate(91.38095423412206 0.0)scale(0.9962640099626402)" xlink:href="#CMR17-48"/>
       <use transform="translate(137.07143135118307 36.15363894185866)scale(0.6973817666173724)" xlink:href="#CMSY10-14"/>
      </g>
     </g>
    </g>
   </g>
   <g id="matplotlib.axis_2">
    <g id="ytick_1">
     <g id="line2d_6">
      <path clip-path="url(#pf248a33275)" d="M 195.083746 189.758212 
L 195.083746 189.758212 
" style="fill:none;stroke:#000000;stroke-dasharray:1.000000,3.000000;stroke-dashoffset:0.0;stroke-width:0.5;"/>
     </g>
     <g id="text_5">
      <!-- -15dB -->
      <defs>
       <path d="M 32.203125 70.5 
C 28.796875 66.234375 19.59375 63 10.40625 63 
L 10.40625 58.59375 
L 19.203125 58.59375 
C 25 58.59375 25.40625 58.203125 25.40625 52.3125 
L 25.40625 12.28125 
L 25.40625 9.375 
C 25.40625 5.1875 24.5 4.6875 16.5 4.6875 
L 10 4.6875 
L 10 0 
L 49.59375 0 
L 49.59375 4.6875 
L 44.09375 4.6875 
C 38.796875 4.6875 36.59375 5.09375 35.796875 6.09375 
C 35.09375 6.78125 35.09375 6.78125 35.09375 12.3125 
L 35.09375 53.671875 
C 35.09375 58.578125 35.296875 63.375 35.796875 70.5 
z
" id="Century_Schoolbook_L_Roman-49"/>
       <path d="M 3 72 
L 3 67.3125 
L 4.796875 67.3125 
C 12.90625 67.3125 13.796875 66.8125 13.796875 62.609375 
L 13.796875 59.734375 
L 13.796875 12.28125 
L 13.796875 9.375 
C 13.796875 5.1875 12.90625 4.6875 4.796875 4.6875 
L 3 4.6875 
L 3 0 
L 39.296875 0 
C 56.59375 0 67 7.40625 67 19.59375 
C 67 29.484375 60.59375 35.296875 47 37.6875 
C 51.796875 38.6875 54 39.578125 56.5 41.46875 
C 60.703125 44.546875 63.203125 49.421875 63.203125 54.5 
C 63.203125 60.859375 59.203125 67.125 53.40625 69.609375 
C 49.796875 71.203125 44.796875 72 38.90625 72 
z
M 25 39.6875 
L 25 62.328125 
C 25 66.203125 26.40625 67.3125 31.59375 67.3125 
L 35.59375 67.3125 
C 40.203125 67.3125 44 66.609375 46.09375 65.21875 
C 49.703125 63.03125 51.59375 58.75 51.59375 53.203125 
C 51.59375 43.46875 46.703125 39.6875 33.90625 39.6875 
z
M 25 35 
L 33.796875 35 
C 40.203125 35 44.5 34.390625 47.5 33.09375 
C 52.203125 30.890625 54.703125 26.5 54.703125 19.890625 
C 54.703125 13.59375 52.5 8.890625 48.59375 6.984375 
C 45.5 5.390625 41.296875 4.6875 35 4.6875 
L 30.796875 4.6875 
C 25.703125 4.6875 25 5.484375 25 11 
z
" id="Century_Schoolbook_L_Roman-66"/>
       <path d="M 16.40625 59.703125 
C 21.796875 58.40625 24.59375 58 28.5 58 
C 37 58 43.203125 61 46.5 66.484375 
C 47.59375 68.390625 48 69.28125 48 70.078125 
C 48 70.6875 47.703125 70.984375 47.203125 70.984375 
C 46.90625 70.984375 46.40625 70.875 45.90625 70.578125 
C 41 68.484375 38.296875 67.984375 32.59375 67.984375 
C 26.203125 67.984375 22.5 68.484375 12 70.984375 
C 11.59375 62.625 10.703125 51.984375 9.296875 39.65625 
C 7.203125 37.46875 6.5 36.171875 6.5 34.578125 
C 6.5 32.59375 7.796875 31.203125 9.703125 31.203125 
C 12.203125 31.203125 13.796875 33.328125 14.203125 37.359375 
C 17.703125 39.890625 21 41 25 41 
C 33.90625 41 39.296875 34.03125 39.296875 22.5 
C 39.296875 15.734375 37.59375 9.953125 34.59375 6.828125 
C 32.59375 4.703125 28.5 3.296875 24.40625 3.296875 
C 18.40625 3.296875 12.203125 6.421875 12.203125 9.5625 
C 12.203125 10.28125 12.796875 11.078125 14 11.78125 
C 17.09375 13.703125 18 15.03125 18 17.75 
C 18 21.296875 15.296875 24.015625 11.703125 24.015625 
C 7.703125 24.015625 4.5 20.28125 4.5 15.546875 
C 4.5 10.5 7.40625 5.453125 11.90625 2.328125 
C 15.296875 0.109375 19.40625 -1 24.59375 -1 
C 40.296875 -1 50.203125 8.28125 50.203125 23.109375 
C 50.203125 36.828125 41.09375 46 27.59375 46 
C 23.40625 46 20.203125 45.296875 14.703125 43 
z
" id="Century_Schoolbook_L_Roman-53"/>
       <path d="M 4.203125 27.28125 
L 4.203125 19 
L 29.09375 19 
L 29.09375 27.28125 
z
" id="Century_Schoolbook_L_Roman-45"/>
       <path d="M 38 0 
L 55.40625 0 
L 55.40625 4.703125 
L 53.59375 4.703125 
C 48.203125 4.703125 47.40625 5.703125 47.40625 11.96875 
L 47.40625 73.78125 
L 27.796875 73.78125 
L 27.796875 69 
L 33.703125 69 
C 37.296875 69 38 68.28125 38 63.921875 
L 38 41 
C 34.296875 46.09375 30 48.390625 24.203125 48.390625 
C 12.90625 48.390625 4.296875 37.546875 4.296875 23.203125 
C 4.296875 9.0625 12.59375 -1 24.203125 -1 
C 30.5 -1 34.796875 1.671875 38 7.59375 
z
M 26.203125 43 
C 30.296875 43 34.203125 40.03125 36 35.4375 
C 37.203125 32.453125 37.90625 28.28125 37.90625 23.515625 
C 37.90625 11.96875 33.296875 4.390625 26.09375 4.390625 
C 19.09375 4.390625 14.796875 10.96875 14.796875 22.015625 
C 14.796875 27.890625 15.40625 32.359375 16.703125 35.734375 
C 18.40625 40.125 22.09375 43 26.203125 43 
" id="Century_Schoolbook_L_Roman-100"/>
      </defs>
      <g transform="translate(195.083745942 187.486776813)scale(0.12 -0.12)">
       <use transform="scale(0.9962640099626402)" xlink:href="#Century_Schoolbook_L_Roman-45"/>
       <use transform="translate(33.17522972933531 0.0)scale(0.9962640099626402)" xlink:href="#Century_Schoolbook_L_Roman-49"/>
       <use transform="translate(88.56690669267591 0.0)scale(0.9962640099626402)" xlink:href="#Century_Schoolbook_L_Roman-53"/>
       <use transform="translate(143.95858365601651 0.0)scale(0.9962640099626402)" xlink:href="#Century_Schoolbook_L_Roman-100"/>
       <use transform="translate(201.1440709400296 0.0)scale(0.9962640099626402)" xlink:href="#Century_Schoolbook_L_Roman-66"/>
      </g>
     </g>
    </g>
    <g id="ytick_2">
     <g id="line2d_7">
      <path clip-path="url(#pf248a33275)" d="M 248.716221 189.758212 
L 248.68355 187.886466 
L 248.585575 186.017 
L 248.194274 182.294014 
L 247.544223 178.607393 
L 246.63859 174.975098 
L 245.481787 171.414825 
L 244.07945 167.943919 
L 242.438411 164.57929 
L 240.566665 161.33733 
L 238.47333 158.233834 
L 236.168606 155.283921 
L 233.66372 152.501964 
L 230.970877 149.901515 
L 228.103195 147.495244 
L 225.074646 145.294875 
L 221.899984 143.311126 
L 218.594676 141.553662 
L 215.174825 140.031047 
L 211.657092 138.750697 
L 208.058616 137.71885 
L 204.396928 136.940534 
L 200.689866 136.419541 
L 196.955492 136.158408 
L 193.212 136.158408 
L 189.477626 136.419541 
L 185.770564 136.940534 
L 182.108876 137.71885 
L 178.5104 138.750697 
L 174.992667 140.031047 
L 171.572816 141.553662 
L 168.267508 143.311126 
L 165.092846 145.294875 
L 162.064297 147.495244 
L 159.196615 149.901515 
L 156.503772 152.501964 
L 153.998886 155.283921 
L 151.694162 158.233834 
L 149.600827 161.33733 
L 147.729081 164.57929 
L 146.088042 167.943919 
L 144.685704 171.414825 
L 143.528902 174.975098 
L 142.623269 178.607393 
L 141.973218 182.294014 
L 141.581916 186.017 
L 141.45127 189.758212 
L 141.581916 193.499424 
L 141.973218 197.22241 
L 142.623269 200.909031 
L 143.528902 204.541326 
L 144.685704 208.101599 
L 146.088042 211.572505 
L 147.729081 214.937134 
L 149.600827 218.179094 
L 151.694162 221.28259 
L 153.998886 224.232503 
L 156.503772 227.01446 
L 159.196615 229.614909 
L 162.064297 232.021179 
L 165.092846 234.221549 
L 168.267508 236.205298 
L 171.572816 237.962762 
L 174.992667 239.485377 
L 178.5104 240.765727 
L 182.108876 241.797574 
L 185.770564 242.57589 
L 189.477626 243.096883 
L 193.212 243.358016 
L 196.955492 243.358016 
L 200.689866 243.096883 
L 204.396928 242.57589 
L 208.058616 241.797574 
L 211.657092 240.765727 
L 215.174825 239.485377 
L 218.594676 237.962762 
L 221.899984 236.205298 
L 225.074646 234.221549 
L 228.103195 232.021179 
L 230.970877 229.614909 
L 233.66372 227.01446 
L 236.168606 224.232503 
L 238.47333 221.28259 
L 240.566665 218.179094 
L 242.438411 214.937134 
L 244.07945 211.572505 
L 245.481787 208.101599 
L 246.63859 204.541326 
L 247.544223 200.909031 
L 248.194274 197.22241 
L 248.585575 193.499424 
L 248.716221 189.758212 
L 248.716221 189.758212 
" style="fill:none;stroke:#000000;stroke-dasharray:1.000000,3.000000;stroke-dashoffset:0.0;stroke-width:0.5;"/>
     </g>
     <g id="text_6">
      <!-- -10dB -->
      <defs>
       <path d="M 28.40625 71 
C 14.40625 71 4.203125 55.6875 4.203125 34.75 
C 4.203125 14.125 14.09375 -1 27.59375 -1 
C 41.59375 -1 51.40625 13.625 51.40625 34.4375 
C 51.40625 45.0625 49.203125 53.875 45 60.78125 
C 41.09375 67.09375 34.703125 71 28.40625 71 
M 27.703125 66.703125 
C 31 66.703125 34.203125 64.5 36.59375 60.5 
C 39.296875 55.875 40.203125 49.96875 40.203125 36.25 
C 40.203125 22.21875 39.5 15.625 37.5 11.203125 
C 35.203125 6.296875 31.59375 3.296875 27.796875 3.296875 
C 24.5 3.296875 21.296875 5.5 18.90625 9.5 
C 16.09375 14.21875 15.296875 20.53125 15.296875 36.859375 
C 15.296875 48.484375 16 54.375 18 58.6875 
C 20.296875 63.796875 23.90625 66.703125 27.703125 66.703125 
" id="Century_Schoolbook_L_Roman-48"/>
      </defs>
      <g transform="translate(244.633692332 166.962517004)scale(0.12 -0.12)">
       <use transform="scale(0.9962640099626402)" xlink:href="#Century_Schoolbook_L_Roman-45"/>
       <use transform="translate(33.17522972933531 0.0)scale(0.9962640099626402)" xlink:href="#Century_Schoolbook_L_Roman-49"/>
       <use transform="translate(88.56690669267591 0.0)scale(0.9962640099626402)" xlink:href="#Century_Schoolbook_L_Roman-48"/>
       <use transform="translate(143.95858365601651 0.0)scale(0.9962640099626402)" xlink:href="#Century_Schoolbook_L_Roman-100"/>
       <use transform="translate(201.1440709400296 0.0)scale(0.9962640099626402)" xlink:href="#Century_Schoolbook_L_Roman-66"/>
      </g>
     </g>
    </g>
    <g id="ytick_3">
     <g id="line2d_8">
      <path clip-path="url(#pf248a33275)" d="M 302.348697 189.758212 
L 302.283354 186.014719 
L 302.087405 182.275787 
L 301.761088 178.545971 
L 301.304802 174.829816 
L 300.719101 171.131849 
L 300.0047 167.456575 
L 299.162469 163.808472 
L 298.193435 160.191984 
L 297.098777 156.611519 
L 295.879829 153.071438 
L 294.538077 149.576054 
L 293.075155 146.129626 
L 291.492845 142.736352 
L 289.793076 139.400368 
L 287.977918 136.125736 
L 286.049583 132.916448 
L 284.010421 129.776413 
L 281.862914 126.709456 
L 279.609681 123.719314 
L 277.253466 120.80963 
L 274.797139 117.98395 
L 272.243694 115.245716 
L 269.596242 112.598264 
L 266.858008 110.044819 
L 264.032327 107.588492 
L 261.122644 105.232277 
L 258.132502 102.979044 
L 255.065545 100.831537 
L 251.92551 98.792374 
L 248.716221 96.864039 
L 245.44159 95.048882 
L 242.105606 93.349113 
L 238.712332 91.766803 
L 235.265904 90.303881 
L 231.77052 88.962129 
L 228.230439 87.743181 
L 224.649973 86.648523 
L 221.033486 85.679488 
L 217.385383 84.837257 
L 213.710109 84.122857 
L 210.012142 83.537156 
L 206.295986 83.08087 
L 202.566171 82.754553 
L 198.827239 82.558604 
L 195.083746 82.493261 
L 191.340253 82.558604 
L 187.601321 82.754553 
L 183.871505 83.08087 
L 180.15535 83.537156 
L 176.457383 84.122857 
L 172.782109 84.837257 
L 169.134006 85.679488 
L 165.517518 86.648523 
L 161.937053 87.743181 
L 158.396972 88.962129 
L 154.901588 90.303881 
L 151.45516 91.766803 
L 148.061886 93.349113 
L 144.725902 95.048882 
L 141.45127 96.864039 
L 138.241982 98.792374 
L 135.101947 100.831537 
L 132.03499 102.979044 
L 129.044848 105.232277 
L 126.135164 107.588492 
L 123.309484 110.044819 
L 120.57125 112.598264 
L 117.923798 115.245716 
L 115.370353 117.98395 
L 112.914026 120.80963 
L 110.557811 123.719314 
L 108.304578 126.709456 
L 106.157071 129.776413 
L 104.117908 132.916448 
L 102.189573 136.125736 
L 100.374416 139.400368 
L 98.674647 142.736352 
L 97.092337 146.129626 
L 95.629415 149.576054 
L 94.287663 153.071438 
L 93.068715 156.611519 
L 91.974057 160.191984 
L 91.005022 163.808472 
L 90.162791 167.456575 
L 89.448391 171.131849 
L 88.86269 174.829816 
L 88.406404 178.545971 
L 88.080087 182.275787 
L 87.884138 186.014719 
L 87.818795 189.758212 
L 87.884138 193.501705 
L 88.080087 197.240637 
L 88.406404 200.970452 
L 88.86269 204.686608 
L 89.448391 208.384575 
L 90.162791 212.059849 
L 91.005022 215.707952 
L 91.974057 219.324439 
L 93.068715 222.904905 
L 94.287663 226.444986 
L 95.629415 229.94037 
L 97.092337 233.386798 
L 98.674647 236.780072 
L 100.374416 240.116056 
L 102.189573 243.390687 
L 104.117908 246.599976 
L 106.157071 249.740011 
L 108.304578 252.806968 
L 110.557811 255.79711 
L 112.914026 258.706793 
L 115.370353 261.532474 
L 117.923798 264.270708 
L 120.57125 266.91816 
L 123.309484 269.471605 
L 126.135164 271.927932 
L 129.044848 274.284147 
L 132.03499 276.53738 
L 135.101947 278.684887 
L 138.241982 280.724049 
L 141.45127 282.652384 
L 144.725902 284.467542 
L 148.061886 286.167311 
L 151.45516 287.749621 
L 154.901588 289.212543 
L 158.396972 290.554295 
L 161.937053 291.773243 
L 165.517518 292.867901 
L 169.134006 293.836935 
L 172.782109 294.679166 
L 176.457383 295.393567 
L 180.15535 295.979268 
L 183.871505 296.435554 
L 187.601321 296.761871 
L 191.340253 296.95782 
L 195.083746 297.023163 
L 198.827239 296.95782 
L 202.566171 296.761871 
L 206.295986 296.435554 
L 210.012142 295.979268 
L 213.710109 295.393567 
L 217.385383 294.679166 
L 221.033486 293.836935 
L 224.649973 292.867901 
L 228.230439 291.773243 
L 231.77052 290.554295 
L 235.265904 289.212543 
L 238.712332 287.749621 
L 242.105606 286.167311 
L 245.44159 284.467542 
L 248.716221 282.652384 
L 251.92551 280.724049 
L 255.065545 278.684887 
L 258.132502 276.53738 
L 261.122644 274.284147 
L 264.032327 271.927932 
L 266.858008 269.471605 
L 269.596242 266.91816 
L 272.243694 264.270708 
L 274.797139 261.532474 
L 277.253466 258.706793 
L 279.609681 255.79711 
L 281.862914 252.806968 
L 284.010421 249.740011 
L 286.049583 246.599976 
L 287.977918 243.390687 
L 289.793076 240.116056 
L 291.492845 236.780072 
L 293.075155 233.386798 
L 294.538077 229.94037 
L 295.879829 226.444986 
L 297.098777 222.904905 
L 298.193435 219.324439 
L 299.162469 215.707952 
L 300.0047 212.059849 
L 300.719101 208.384575 
L 301.304802 204.686608 
L 301.761088 200.970452 
L 302.087405 197.240637 
L 302.283354 193.501705 
L 302.348697 189.758212 
L 302.348697 189.758212 
" style="fill:none;stroke:#000000;stroke-dasharray:1.000000,3.000000;stroke-dashoffset:0.0;stroke-width:0.5;"/>
     </g>
     <g id="text_7">
      <!-- -5dB -->
      <g transform="translate(294.183638722 146.438257194)scale(0.12 -0.12)">
       <use transform="scale(0.9962640099626402)" xlink:href="#Century_Schoolbook_L_Roman-45"/>
       <use transform="translate(33.17522972933531 0.0)scale(0.9962640099626402)" xlink:href="#Century_Schoolbook_L_Roman-53"/>
       <use transform="translate(88.56690669267591 0.0)scale(0.9962640099626402)" xlink:href="#Century_Schoolbook_L_Roman-100"/>
       <use transform="translate(145.752393976689 0.0)scale(0.9962640099626402)" xlink:href="#Century_Schoolbook_L_Roman-66"/>
      </g>
     </g>
    </g>
   </g>
   <g id="legend_1">
    <g id="patch_4">
     <path d="M 275.149824 46.145852 
L 355.981172 46.145852 
L 355.981172 28.860785 
L 275.149824 28.860785 
z
" style="fill:#ffffff;stroke:#000000;stroke-linejoin:miter;"/>
    </g>
    <g id="line2d_9">
     <path d="M 282.149824 36.752987 
L 296.149824 36.752987 
" style="fill:none;stroke:#0000ff;stroke-linecap:square;"/>
    </g>
    <g id="line2d_10"/>
    <g id="text_8">
     <!-- Gain (dB) -->
     <defs>
      <path d="M 20 46 
L 2.703125 46 
L 2.703125 41.21875 
L 6.296875 41.21875 
C 10 41.21875 10.59375 40.515625 10.59375 36.203125 
L 10.59375 12.296875 
L 10.59375 8.296875 
C 10.59375 4.296875 9.5 3.59375 3.09375 3.59375 
L 2.703125 3.59375 
L 2.703125 0 
L 28 0 
L 28 3.59375 
L 27.59375 3.59375 
C 21.09375 3.59375 20 4.296875 20 8.28125 
L 20 12.28125 
L 20 22.65625 
C 20 27.546875 20.703125 32.03125 21.796875 34.328125 
C 23.90625 38.828125 28.40625 41.921875 32.703125 41.921875 
C 35.296875 41.921875 38.296875 40.421875 39.796875 38.421875 
C 41.296875 36.328125 42 33.234375 42 28.4375 
L 42 12.28125 
L 42 8.28125 
C 42 4.296875 40.90625 3.59375 34.40625 3.59375 
L 34 3.59375 
L 34 0 
L 59.296875 0 
L 59.296875 3.59375 
L 58.90625 3.59375 
C 52.5 3.59375 51.40625 4.296875 51.40625 8.28125 
L 51.40625 12.28125 
L 51.40625 27.953125 
C 51.40625 35.125 51.09375 36.921875 49.296875 40.328125 
C 46.796875 45.109375 41.703125 48 35.796875 48 
C 29.40625 48 24.40625 45.046875 20 38.515625 
z
" id="Century_Schoolbook_L_Roman-110"/>
      <path d="M 27.90625 73.453125 
C 21.90625 69.765625 18.703125 67.171875 15.296875 63.171875 
C 7.703125 54.1875 3.59375 42.71875 3.59375 30.640625 
C 3.59375 19.265625 7.203125 8.578125 13.90625 -0.296875 
C 17.703125 -5.09375 21.09375 -8.078125 27.90625 -12.28125 
L 27.90625 -8.578125 
C 17.90625 0.203125 13.90625 11.484375 13.90625 30.640625 
C 13.90625 49.796875 17.90625 60.984375 27.90625 69.765625 
z
" id="Century_Schoolbook_L_Roman-40"/>
      <path d="M 20.59375 46 
L 1.796875 46 
L 1.796875 41.21875 
L 6.90625 41.21875 
C 10.59375 41.21875 11.203125 40.515625 11.203125 36.203125 
L 11.203125 12.296875 
L 11.203125 8.296875 
C 11.203125 4.296875 10.09375 3.59375 3.703125 3.59375 
L 3 3.59375 
L 3 0 
L 28.90625 0 
L 28.90625 3.59375 
L 28.203125 3.59375 
C 21.703125 3.59375 20.59375 4.28125 20.59375 8.21875 
L 20.59375 12.171875 
z
M 15.90625 71.578125 
C 12.703125 71.578125 10.09375 68.984375 10.09375 65.796875 
C 10.09375 62.703125 12.703125 60 15.796875 60 
C 19.09375 60 21.703125 62.59375 21.703125 65.796875 
C 21.703125 68.984375 19.09375 71.578125 15.90625 71.578125 
" id="Century_Schoolbook_L_Roman-105"/>
      <path d="M 65 72 
L 61.203125 72 
L 57.296875 65.8125 
C 50.796875 71 46.40625 72.703125 39.09375 72.703125 
C 31.203125 72.703125 25 70.515625 18.703125 65.4375 
C 8.796875 57.5 4.203125 47.46875 4.203125 34.0625 
C 4.203125 23.921875 7.203125 15.484375 13 9.03125 
C 19.203125 2.078125 28.40625 -2 38 -2 
C 46.40625 -2 52.296875 0.578125 58.796875 7.015625 
L 62.5 -2 
L 66.703125 -2 
L 66.703125 19.796875 
C 66.703125 25.140625 66.703125 25.234375 67.296875 25.9375 
C 68.203125 26.921875 70.296875 27.3125 75.703125 27.3125 
L 77.203125 27.3125 
L 77.203125 32 
L 45.40625 32 
L 45.40625 27.3125 
L 47.296875 27.3125 
C 55.703125 27.3125 56.40625 26.8125 56.40625 21.40625 
C 56.40625 17.171875 55.59375 13.234375 54.40625 10.875 
C 51.90625 6.046875 45.5 2.6875 39 2.6875 
C 32.59375 2.6875 26.09375 5.96875 22.703125 10.9375 
C 19 16.390625 17.40625 23.4375 17.40625 34.0625 
C 17.40625 56.1875 24.796875 68 38.703125 68 
C 50.09375 68 58 59.859375 62.09375 43.96875 
L 66.40625 43.96875 
z
" id="Century_Schoolbook_L_Roman-71"/>
      <path d="M 5.40625 -12.28125 
C 11.40625 -8.578125 14.59375 -5.984375 18 -1.890625 
C 25.59375 6.984375 29.703125 18.5625 29.703125 30.640625 
C 29.703125 42.015625 26.09375 52.703125 19.40625 61.484375 
C 15.59375 66.375 12.203125 69.359375 5.40625 73.453125 
L 5.40625 69.765625 
C 15.40625 60.984375 19.40625 49.796875 19.40625 30.640625 
C 19.40625 11.375 15.40625 0.203125 5.40625 -8.578125 
z
" id="Century_Schoolbook_L_Roman-41"/>
      <path d="M 45.203125 32.578125 
C 45.203125 38.796875 44.09375 41.96875 41.203125 44.34375 
C 37.90625 46.90625 33 48.28125 26.59375 48.28125 
C 15.40625 48.28125 7.09375 43.046875 7.09375 35.921875 
C 7.09375 32.15625 9.40625 29.78125 12.90625 29.78125 
C 16 29.78125 18.296875 31.859375 18.296875 34.8125 
C 18.296875 36.109375 17.796875 37.484375 16.796875 38.875 
C 16.203125 39.546875 16.09375 39.84375 16.09375 40.15625 
C 16.09375 42.21875 20.203125 44 25 44 
C 28.09375 44 31.59375 43.015625 33.203125 41.53125 
C 35.09375 39.953125 35.796875 37.578125 35.796875 33.125 
L 35.796875 29.28125 
C 25.296875 27.484375 22.09375 26.6875 17.203125 24.8125 
C 8.59375 21.609375 4.40625 16.9375 4.40625 10.65625 
C 4.40625 3.578125 10.09375 -1 18.90625 -1 
C 25.796875 -1 32 1.859375 36.296875 7.0625 
C 37.90625 1.984375 40.40625 0 45.09375 0 
C 49.59375 0 54.296875 2.890625 54.296875 5.78125 
C 54.296875 6.46875 53.796875 6.96875 53.296875 6.96875 
C 52.90625 6.96875 52.5 6.875 51.796875 6.578125 
C 50.203125 6 49.796875 5.890625 49 5.890625 
C 46.203125 5.890625 45.203125 7.78125 45.203125 12.71875 
z
M 35.796875 20.46875 
C 35.796875 14.46875 35.5 13.078125 33.796875 10.484375 
C 31.296875 6.78125 26.703125 4.296875 22.40625 4.296875 
C 17.90625 4.296875 14.5 7.59375 14.5 12.078125 
C 14.5 16.265625 16.59375 19.265625 21 21.359375 
C 24.09375 22.75 28 23.75 35.796875 25.046875 
z
" id="Century_Schoolbook_L_Roman-97"/>
     </defs>
     <g transform="translate(307.149824048 40.2529865636)scale(0.1 -0.1)">
      <use transform="scale(0.9962640099626402)" xlink:href="#Century_Schoolbook_L_Roman-71"/>
      <use transform="translate(77.50837010137765 0.0)scale(0.9962640099626402)" xlink:href="#Century_Schoolbook_L_Roman-97"/>
      <use transform="translate(132.90004706471825 0.0)scale(0.9962640099626402)" xlink:href="#Century_Schoolbook_L_Roman-105"/>
      <use transform="translate(164.28136006090443 0.0)scale(0.9962640099626402)" xlink:href="#Century_Schoolbook_L_Roman-110"/>
      <use transform="translate(252.8481603411037 0.0)scale(0.9962640099626402)" xlink:href="#Century_Schoolbook_L_Roman-40"/>
      <use transform="translate(286.023390070439 0.0)scale(0.9962640099626402)" xlink:href="#Century_Schoolbook_L_Roman-100"/>
      <use transform="translate(343.2088773544521 0.0)scale(0.9962640099626402)" xlink:href="#Century_Schoolbook_L_Roman-66"/>
      <use transform="translate(415.1388622013154 0.0)scale(0.9962640099626402)" xlink:href="#Century_Schoolbook_L_Roman-41"/>
     </g>
    </g>
   </g>
  </g>
 </g>
 <defs>
  <clipPath id="pf248a33275">
   <path d="M 195.083746 350.655638 
C 237.754242 350.655638 278.68281 333.702471 308.855407 303.529873 
C 339.028005 273.357276 355.981172 232.428708 355.981172 189.758212 
C 355.981172 147.087716 339.028005 106.159148 308.855407 75.986551 
C 278.68281 45.813953 237.754242 28.860785 195.083746 28.860785 
C 152.41325 28.860785 111.484682 45.813953 81.312085 75.986551 
C 51.139487 106.159148 34.186319 147.087716 34.186319 189.758212 
C 34.186319 232.428708 51.139487 273.357276 81.312085 303.529873 
C 111.484682 333.702471 152.41325 350.655638 195.083746 350.655638 
z
"/>
  </clipPath>
 </defs>
</svg>
