<?xml version="1.0" encoding="utf-8" standalone="no"?>
<!DOCTYPE svg PUBLIC "-//W3C//DTD SVG 1.1//EN"
  "http://www.w3.org/Graphics/SVG/1.1/DTD/svg11.dtd">
<!-- Created with matplotlib (http://matplotlib.org/) -->
<svg height="379pt" version="1.1" viewBox="0 0 384 379" width="384pt" xmlns="http://www.w3.org/2000/svg" xmlns:xlink="http://www.w3.org/1999/xlink">
 <defs>
  <style type="text/css">
*{stroke-linecap:butt;stroke-linejoin:round;stroke-miterlimit:100000;}
  </style>
 </defs>
 <g id="figure_1">
  <g id="patch_1">
   <path d="M 0 379.516424 
L 384.314502 379.516424 
L 384.314502 0 
L 0 0 
z
" style="fill:#ffffff;"/>
  </g>
  <g id="axes_1">
   <g id="patch_2">
    <path d="M 195.083746 350.655638 
C 237.754242 350.655638 278.68281 333.702471 308.855407 303.529873 
C 339.028005 273.357276 355.981172 232.428708 355.981172 189.758212 
C 355.981172 147.087716 339.028005 106.159148 308.855407 75.986551 
C 278.68281 45.813953 237.754242 28.860785 195.083746 28.860785 
C 152.41325 28.860785 111.484682 45.813953 81.312085 75.986551 
C 51.139487 106.159148 34.186319 147.087716 34.186319 189.758212 
C 34.186319 232.428708 51.139487 273.357276 81.312085 303.529873 
C 111.484682 333.702471 152.41325 350.655638 195.083746 350.655638 
z
" style="fill:#ffffff;"/>
   </g>
   <g id="line2d_1">
    <path clip-path="url(#p331990fc28)" d="M 298.337033 189.758212 
L 295.316363 188.528111 
L 286.103777 187.523796 
L 268.079024 187.069637 
L 239.680831 187.567298 
L 208.193391 188.791186 
L 208.107509 188.636673 
L 208.833659 188.403964 
L 207.423823 188.389723 
L 207.556437 188.219852 
L 208.501738 187.93583 
L 206.071021 187.851739 
L 208.234588 187.309717 
L 207.38532 187.311277 
L 205.909514 187.466379 
L 205.782344 187.355761 
L 207.373111 186.839679 
L 207.706413 186.596398 
L 206.274798 186.661231 
L 206.733807 186.224205 
L 207.807955 185.727201 
L 205.799023 186.071915 
L 205.859102 185.902728 
L 204.262916 186.217415 
L 203.927491 186.221526 
L 204.661537 185.790961 
L 202.757163 186.468886 
L 203.618294 185.975107 
L 202.314576 186.446248 
L 207.385492 183.375633 
L 207.256338 183.251826 
L 204.70571 184.46234 
L 205.877096 183.643855 
L 206.190151 183.285206 
L 203.321754 184.541551 
L 203.903336 184.020439 
L 202.734538 184.646116 
L 202.670516 184.553104 
L 201.534932 185.214774 
L 203.332756 183.795834 
L 201.875897 184.720809 
L 203.915834 182.865583 
L 203.586426 182.953131 
L 202.577288 183.608421 
L 202.579335 183.451229 
L 201.408589 184.302365 
L 203.885145 181.781089 
L 206.195763 179.178692 
L 202.831192 182.010766 
L 203.228595 181.410965 
L 201.071291 183.151975 
L 203.332975 180.195063 
L 203.152077 180.169333 
L 202.291829 180.975137 
L 202.517308 180.47027 
L 200.352257 183.007239 
L 200.57725 182.537975 
L 201.463176 181.156545 
L 201.101864 181.432086 
L 202.058546 179.592007 
L 202.39358 178.818273 
L 200.267079 181.572835 
L 200.427483 181.085874 
L 199.999456 181.556846 
L 199.116622 182.838589 
L 200.412038 180.352461 
L 200.493758 179.928867 
L 201.130233 178.446032 
L 200.836826 178.669759 
L 200.311604 179.372241 
L 198.599619 182.554591 
L 198.623972 182.273033 
L 199.374643 180.39013 
L 198.916499 181.111658 
L 199.253863 180.030065 
L 199.081849 180.105937 
L 198.282933 181.464632 
L 198.718381 179.600087 
L 198.12592 180.915262 
L 198.018327 180.875108 
L 198.00178 180.547203 
L 198.329243 178.566637 
L 197.46192 180.73527 
L 197.907674 178.484463 
L 197.036938 180.532054 
L 197.258896 178.822996 
L 196.776597 180.665927 
L 196.729673 179.5288 
L 196.204885 181.503393 
L 196.092878 181.576383 
L 196.148647 178.946093 
L 196.034698 178.715373 
L 195.412516 180.832031 
L 195.314341 180.364831 
L 195.224482 178.290589 
L 194.945302 178.477284 
L 194.655006 181.031001 
L 194.538588 180.884666 
L 194.208943 179.599657 
L 194.080846 179.575594 
L 193.845821 178.595469 
L 193.771086 179.115446 
L 194.053959 182.176003 
L 193.201814 178.912377 
L 193.142997 179.334468 
L 192.953632 179.049406 
L 193.061332 180.20508 
L 192.471886 178.127068 
L 192.218256 177.692201 
L 192.584855 179.782081 
L 192.491293 179.922282 
L 192.018737 178.682693 
L 192.517222 180.907965 
L 191.203105 177.508656 
L 191.71116 179.954829 
L 191.303633 179.193503 
L 192.656325 183.465361 
L 190.735318 179.614096 
L 190.330176 179.034332 
L 190.176566 179.044631 
L 190.283286 179.92262 
L 189.519411 178.703778 
L 190.051178 180.342938 
L 189.527426 179.949934 
L 189.427005 180.32051 
L 189.914481 181.595053 
L 189.898392 181.787748 
L 188.549917 180.234749 
L 189.718874 182.140679 
L 189.552952 182.106304 
L 188.524442 180.914016 
L 188.461955 181.055043 
L 188.508053 181.332239 
L 187.164948 180.109128 
L 186.425186 179.46787 
L 186.431092 179.727382 
L 187.003988 180.620688 
L 186.433184 180.213789 
L 187.175692 181.245338 
L 186.24364 180.473157 
L 186.71241 181.178848 
L 186.159916 180.834382 
L 186.226756 181.115982 
L 187.20121 182.253415 
L 186.758931 182.024856 
L 185.03908 180.876324 
L 186.142756 182.420532 
L 187.782813 183.914944 
L 187.210934 183.614211 
L 185.645599 182.577214 
L 185.860565 182.917834 
L 184.805282 182.519301 
L 188.332316 185.365924 
L 186.655633 184.421167 
L 186.749775 184.622969 
L 185.098681 183.938743 
L 184.607529 183.823509 
L 185.170118 184.301811 
L 184.420113 184.05838 
L 185.136492 184.597225 
L 183.370736 183.862378 
L 183.114322 183.916293 
L 183.796946 184.419954 
L 186.033722 185.612997 
L 184.3056 184.98059 
L 186.272262 186.234427 
L 183.462707 185.275482 
L 183.731409 185.53843 
L 183.72254 185.693108 
L 184.995521 186.287636 
L 187.058765 187.107116 
L 184.608574 186.580603 
L 183.920118 186.52082 
L 185.950776 187.351039 
L 182.266846 187.044853 
L 186.099562 188.199309 
L 183.348768 187.870039 
L 183.42513 188.028819 
L 185.605661 188.589201 
L 184.808214 188.618677 
L 181.951751 188.464824 
L 183.323011 188.745439 
L 186.049172 189.091783 
L 149.546457 187.521106 
L 121.20623 187.037141 
L 103.975762 187.521638 
L 94.724355 188.52656 
L 91.830466 189.758221 
L 94.851067 190.988302 
L 104.063605 191.992624 
L 122.088324 192.446789 
L 150.486616 191.949128 
L 181.973892 190.725254 
L 182.060036 190.879748 
L 181.333775 191.112464 
L 182.743804 191.126685 
L 182.61106 191.296571 
L 181.665754 191.580594 
L 184.096688 191.664648 
L 181.932933 192.2067 
L 182.782317 192.205117 
L 184.257982 192.050043 
L 184.385147 192.160663 
L 182.794351 192.676753 
L 182.461137 192.920012 
L 183.892605 192.855217 
L 183.433696 193.292216 
L 182.359537 193.789223 
L 184.368479 193.444507 
L 184.308515 193.613652 
L 185.904442 193.29906 
L 186.240001 193.294898 
L 185.506058 193.72542 
L 187.410389 193.047513 
L 186.549099 193.541361 
L 187.852868 193.070198 
L 182.782 196.140791 
L 182.911186 196.264582 
L 185.461786 195.054083 
L 184.290451 195.87254 
L 183.97715 196.231328 
L 186.845738 194.974873 
L 186.264282 195.495903 
L 187.432877 194.87036 
L 187.497218 194.963154 
L 188.632455 194.301723 
L 186.834736 195.72059 
L 188.291595 194.795614 
L 186.251693 196.650815 
L 186.580986 196.563358 
L 187.590112 195.908077 
L 187.588173 196.06518 
L 188.758756 195.214186 
L 186.282348 197.735335 
L 183.971638 200.33782 
L 187.336256 197.505701 
L 186.938891 198.105465 
L 189.096195 196.364457 
L 186.834532 199.321341 
L 187.015472 199.347022 
L 187.875734 198.541199 
L 187.650184 199.046154 
L 189.815149 196.509296 
L 189.590255 196.978433 
L 188.704357 198.359824 
L 189.065348 198.084729 
L 188.109002 199.924339 
L 187.774039 200.697956 
L 189.900376 197.943644 
L 189.739912 198.430703 
L 190.167994 197.959646 
L 191.050869 196.677835 
L 189.755454 199.163963 
L 189.673789 199.587455 
L 189.037192 201.07052 
L 189.330652 200.846693 
L 189.855818 200.144324 
L 191.567885 196.96181 
L 191.543583 197.243261 
L 190.792651 199.12673 
L 191.251213 198.404263 
L 190.913627 199.486359 
L 191.085623 199.41053 
L 191.884549 198.051817 
L 191.449111 199.916336 
L 192.04155 198.601226 
L 192.149218 198.641158 
L 192.165674 198.969344 
L 191.838321 200.949547 
L 192.705646 198.780884 
L 192.259761 201.03218 
L 193.130509 198.984574 
L 192.908607 200.693372 
L 193.390891 198.850518 
L 193.437828 199.987572 
L 193.962611 198.013008 
L 194.074618 197.940013 
L 194.018837 200.570435 
L 194.132792 200.801033 
L 194.754979 198.684281 
L 194.853151 199.151603 
L 194.943011 201.22576 
L 195.222189 201.038963 
L 195.512476 198.485192 
L 195.628934 198.632215 
L 195.958544 199.916744 
L 196.086632 199.940706 
L 196.321679 200.921044 
L 196.396394 200.400888 
L 196.113526 197.340375 
L 196.965682 200.604075 
L 197.024488 200.181917 
L 197.213925 200.467342 
L 197.106167 199.311374 
L 197.695575 201.389204 
L 197.949213 201.824114 
L 197.582765 199.734847 
L 197.676073 199.593672 
L 198.148619 200.833249 
L 197.650248 198.608386 
L 198.964384 202.00776 
L 198.456335 199.561607 
L 198.863867 200.322942 
L 197.511197 196.05114 
L 199.432211 199.902407 
L 199.837452 200.482407 
L 199.990703 200.47131 
L 199.884171 199.593737 
L 200.647948 200.812386 
L 200.11633 199.173516 
L 200.640135 199.566609 
L 200.740521 199.195968 
L 200.252939 197.921257 
L 200.268997 197.728511 
L 201.617536 199.281621 
L 200.44862 197.375751 
L 200.614613 197.410223 
L 201.643096 198.602474 
L 201.705608 198.461476 
L 201.659432 198.184175 
L 203.002746 199.40754 
L 203.74231 200.048556 
L 203.73636 199.788994 
L 203.163475 198.895701 
L 203.73427 199.302591 
L 202.991956 198.271248 
L 203.923819 199.043235 
L 203.455131 198.337628 
L 204.007604 198.682072 
L 203.940856 198.400563 
L 202.96622 197.262952 
L 203.408612 197.491617 
L 205.128467 198.640147 
L 204.024826 197.095965 
L 202.384396 195.601252 
L 202.956531 195.902191 
L 204.521718 196.939072 
L 204.306737 196.598451 
L 205.362284 196.997177 
L 201.835133 194.150472 
L 203.511872 195.095264 
L 203.417754 194.893476 
L 205.06886 195.577708 
L 205.560009 195.69294 
L 204.997246 195.214541 
L 205.747121 195.457901 
L 205.030796 194.919095 
L 206.796468 195.653904 
L 207.053025 195.600063 
L 206.370613 195.096504 
L 204.13402 193.903543 
L 205.861739 194.535768 
L 203.895333 193.282037 
L 206.704676 194.240898 
L 206.436101 193.977999 
L 206.445118 193.823374 
L 205.171709 193.228697 
L 203.108982 192.40939 
L 205.559265 192.935928 
L 206.247581 192.995666 
L 204.216422 192.165309 
L 207.900659 192.471573 
L 204.067848 191.3171 
L 206.818668 191.646375 
L 206.742007 191.487549 
L 204.56189 190.927231 
L 205.358994 190.897717 
L 208.215562 191.051584 
L 206.844876 190.771021 
L 204.118416 190.42465 
L 240.621313 191.995327 
L 268.961389 192.479281 
L 286.191834 191.99478 
L 295.443209 190.989856 
L 295.443209 190.989856 
" style="fill:none;stroke:#0000ff;stroke-linecap:square;"/>
   </g>
   <g id="line2d_2">
    <path clip-path="url(#p331990fc28)" d="M 301.058979 189.758212 
L 298.530913 188.48866 
L 290.383747 187.418728 
L 275.980072 186.778624 
L 253.847042 186.871356 
L 233.380407 187.405405 
L 227.163015 187.391903 
L 228.706004 186.862836 
L 228.731132 186.444234 
L 226.37028 186.288601 
L 226.034369 185.940817 
L 226.450177 185.49814 
L 227.140825 185.002993 
L 227.407631 184.149486 
L 227.755077 183.675287 
L 227.013101 183.407068 
L 227.001543 183.001163 
L 226.122003 182.788338 
L 225.939721 182.430397 
L 226.56984 181.871356 
L 225.485554 181.344899 
L 226.287572 180.70927 
L 224.901533 180.713085 
L 226.109419 179.508714 
L 224.776292 179.134049 
L 224.536163 178.810442 
L 223.381622 178.842516 
L 223.110122 178.550234 
L 222.495422 178.403924 
L 223.965068 177.377797 
L 222.770228 177.485639 
L 222.845833 177.042241 
L 223.199314 176.460539 
L 223.950195 175.669358 
L 223.591758 175.408484 
L 223.56747 174.979853 
L 223.251833 174.702056 
L 223.569931 174.079585 
L 222.5287 173.762816 
L 221.694877 173.808114 
L 221.814856 173.286985 
L 220.69626 173.539267 
L 220.582744 173.169293 
L 221.210317 171.833372 
L 220.180381 172.083167 
L 220.127666 171.656486 
L 219.724893 171.01004 
L 218.939024 171.141371 
L 219.394099 170.301531 
L 218.556667 170.494485 
L 218.022491 170.456958 
L 218.852462 168.74098 
L 219.116289 167.976384 
L 218.852884 167.677814 
L 219.130018 166.864257 
L 218.966989 166.454075 
L 217.320836 167.521121 
L 216.119335 167.663843 
L 216.059882 167.177792 
L 215.621967 167.097778 
L 215.613723 166.540538 
L 216.081332 164.803444 
L 215.488547 164.894889 
L 214.51758 165.476405 
L 213.856921 165.702611 
L 213.027238 166.174673 
L 212.88835 165.125365 
L 213.455748 163.671975 
L 212.820621 163.905614 
L 212.582209 163.569913 
L 212.392965 162.423969 
L 211.771829 162.675164 
L 210.836146 163.476923 
L 210.232438 163.766036 
L 210.758559 162.088296 
L 210.976401 160.88316 
L 210.342985 161.210186 
L 209.394811 162.175149 
L 208.963278 162.184315 
L 208.364395 162.547685 
L 208.463604 161.468881 
L 208.148904 161.233763 
L 207.953356 160.724833 
L 207.299532 161.260943 
L 206.795259 161.484119 
L 205.881392 162.757898 
L 205.833159 161.891409 
L 205.657253 161.312665 
L 205.716277 160.042276 
L 205.197317 160.360224 
L 204.479001 161.318371 
L 204.203724 160.970268 
L 203.544409 161.86714 
L 203.578654 160.464889 
L 202.968035 161.268053 
L 202.673044 160.96393 
L 201.953947 162.33084 
L 202.211105 159.746318 
L 201.716104 158.429401 
L 200.94021 160.315786 
L 200.675276 159.726155 
L 200.139281 160.622442 
L 199.975131 159.358323 
L 199.685775 158.733858 
L 199.157223 159.765651 
L 198.879401 158.983836 
L 198.39181 159.928404 
L 197.500261 156.998343 
L 197.060833 157.57716 
L 196.586578 159.167344 
L 196.208513 159.220541 
L 195.815312 159.957552 
L 195.457664 159.290167 
L 195.083745 158.837341 
L 194.691059 157.760726 
L 194.325038 158.85186 
L 193.949929 158.974908 
L 193.596745 159.489574 
L 193.268234 160.207094 
L 192.863028 159.652678 
L 192.472684 159.437534 
L 192.038658 158.840909 
L 191.639641 158.701675 
L 191.279532 158.91447 
L 190.820409 158.367726 
L 190.464266 158.616206 
L 190.073498 158.619583 
L 189.587228 158.081011 
L 188.951428 158.92897 
L 188.571254 158.995622 
L 188.348389 159.764301 
L 187.712936 160.332292 
L 187.228057 159.953236 
L 187.063787 160.7778 
L 186.478365 160.083937 
L 186.231908 160.577617 
L 184.498659 157.716695 
L 184.496348 158.982916 
L 185.242589 162.254017 
L 184.531813 161.3707 
L 184.607852 162.600479 
L 184.302747 162.79953 
L 183.880284 162.710659 
L 183.529022 162.803082 
L 182.439232 161.232648 
L 182.25773 161.755866 
L 181.237535 161.388912 
L 180.88797 161.556052 
L 180.974907 162.564924 
L 180.332917 162.161345 
L 180.104641 162.54297 
L 179.250898 161.809324 
L 179.252445 162.594812 
L 179.022538 162.961706 
L 178.371901 163.36733 
L 178.2105 163.822163 
L 177.39107 163.279248 
L 178.145758 165.070039 
L 177.534733 164.840528 
L 177.543327 165.490869 
L 176.872724 165.203495 
L 176.664316 165.549143 
L 176.612991 166.090121 
L 176.302473 166.291751 
L 175.649251 166.077209 
L 175.148249 166.065695 
L 174.18167 165.526899 
L 172.917878 164.690488 
L 173.364844 165.795101 
L 173.28922 166.296806 
L 173.741367 167.341607 
L 173.231438 167.362876 
L 171.876365 166.550832 
L 172.029548 167.263019 
L 171.928908 167.712977 
L 171.728478 168.062283 
L 171.802825 168.657611 
L 170.601803 168.110315 
L 170.735702 168.755444 
L 171.128873 169.601962 
L 171.174825 170.136669 
L 170.73445 170.270367 
L 170.755734 170.77245 
L 170.176484 170.807564 
L 169.311102 171.129764 
L 170.390544 172.367298 
L 169.408269 172.142858 
L 170.027457 173.016138 
L 169.853198 173.343936 
L 168.214476 173.201852 
L 168.345316 173.731813 
L 167.05349 173.421693 
L 166.864112 173.771989 
L 166.822149 174.2032 
L 166.092233 174.261921 
L 166.827233 175.097735 
L 166.466747 175.353623 
L 166.543378 176.259624 
L 166.01901 176.445586 
L 166.947756 177.286389 
L 166.882203 177.669191 
L 166.381495 178.279945 
L 167.209476 179.005919 
L 164.413098 178.357614 
L 163.994759 178.634397 
L 165.420048 179.553233 
L 166.395261 180.66974 
L 165.371526 180.745108 
L 166.551604 181.484044 
L 165.404903 181.935772 
L 163.787065 181.918805 
L 163.990779 182.374113 
L 163.758437 182.723877 
L 163.787137 183.132668 
L 165.26208 183.826314 
L 164.887206 184.136058 
L 163.64166 184.302495 
L 164.122556 184.776518 
L 164.320849 185.194964 
L 163.312937 185.443217 
L 164.201273 185.949221 
L 163.763669 186.284881 
L 162.149696 186.514493 
L 163.04734 186.999404 
L 164.809382 187.525044 
L 158.119724 187.487274 
L 135.351879 186.82377 
L 113.995741 186.771562 
L 99.661148 187.41572 
L 91.794264 188.490601 
L 89.108505 189.758221 
L 91.636508 191.027752 
L 99.783662 192.09769 
L 114.187336 192.737799 
L 136.320425 192.645068 
L 156.787149 192.111016 
L 163.00444 192.124526 
L 161.461536 192.653587 
L 161.43635 193.072187 
L 163.797216 193.22782 
L 164.133118 193.575606 
L 163.717315 194.018284 
L 163.026686 194.513429 
L 162.759793 195.366953 
L 162.412321 195.841151 
L 163.154356 196.10936 
L 163.16594 196.515262 
L 164.045489 196.728086 
L 164.227788 197.086023 
L 163.597606 197.645082 
L 164.681882 198.171538 
L 163.879827 198.807178 
L 165.265974 198.803333 
L 164.058056 200.007717 
L 165.391154 200.382395 
L 165.631432 200.705941 
L 166.785835 200.673919 
L 167.05737 200.966189 
L 167.67209 201.112492 
L 166.202457 202.138614 
L 167.397353 202.030749 
L 167.321583 202.474222 
L 166.968152 203.055894 
L 166.217278 203.847073 
L 166.575751 204.10793 
L 166.600023 204.536572 
L 166.915711 204.814342 
L 166.597488 205.436882 
L 168.472598 205.708318 
L 168.352643 206.229434 
L 169.471233 205.977158 
L 169.584701 206.347162 
L 168.95719 207.683038 
L 169.987107 207.433256 
L 170.039825 207.859937 
L 170.442624 208.506365 
L 171.228498 208.375032 
L 170.773385 209.214903 
L 171.610755 209.021994 
L 172.145027 209.059441 
L 171.315029 210.775443 
L 171.051203 211.540041 
L 171.314536 211.838681 
L 171.037433 212.65221 
L 171.200509 213.062339 
L 172.846641 211.995314 
L 174.048186 211.852552 
L 174.10761 212.338632 
L 174.545561 212.41861 
L 174.553771 212.975887 
L 174.08615 214.712986 
L 174.678917 214.621566 
L 175.649912 214.040019 
L 176.310564 213.813823 
L 177.140268 213.341736 
L 177.2791 214.391126 
L 176.711776 215.844415 
L 177.346836 215.610874 
L 177.585427 215.946284 
L 177.774523 217.092453 
L 178.395748 216.841111 
L 179.331378 216.039445 
L 179.935053 215.750388 
L 179.408932 217.428128 
L 179.191075 218.63329 
L 179.82454 218.306183 
L 180.772698 217.341248 
L 181.204201 217.33214 
L 181.803093 216.968761 
L 181.703948 218.047432 
L 182.018509 218.282849 
L 182.21412 218.791605 
L 182.867991 218.255396 
L 183.372256 218.032237 
L 184.286085 216.758553 
L 184.334333 217.625011 
L 184.510248 218.203732 
L 184.451214 219.474147 
L 184.970189 219.156157 
L 185.68849 218.198062 
L 185.963774 218.546146 
L 186.62308 217.649301 
L 186.588832 219.051578 
L 187.1995 218.248238 
L 187.49445 218.55251 
L 188.213584 217.185414 
L 187.956395 219.770053 
L 188.451354 221.087155 
L 189.22728 219.200644 
L 189.492216 219.790259 
L 190.028205 218.894012 
L 190.192362 220.158109 
L 190.481719 220.782572 
L 191.010285 219.750675 
L 191.288092 220.532598 
L 191.775698 219.587929 
L 192.66724 222.517899 
L 193.106644 221.939427 
L 193.580904 220.349182 
L 193.95898 220.295711 
L 194.352179 219.558892 
L 194.709828 220.226239 
L 195.083746 220.679104 
L 195.476436 221.755722 
L 195.842458 220.664621 
L 196.217566 220.541524 
L 196.57074 220.026586 
L 196.899271 219.309435 
L 197.304472 219.863774 
L 197.694777 220.078622 
L 198.128815 220.675379 
L 198.52784 220.814696 
L 198.887976 220.602127 
L 199.347081 221.148691 
L 199.70322 220.900185 
L 200.093984 220.896784 
L 200.580267 221.435439 
L 201.21605 220.58737 
L 201.596238 220.520792 
L 201.819026 219.751755 
L 202.454583 219.184215 
L 202.93944 219.563239 
L 203.103683 218.73856 
L 203.68912 219.43248 
L 203.935539 218.938673 
L 205.668853 221.799791 
L 205.671132 220.533477 
L 204.924934 217.262487 
L 205.635674 218.145702 
L 205.559628 216.915907 
L 205.864689 216.716747 
L 206.28726 216.805873 
L 206.638427 216.713226 
L 207.728161 218.283573 
L 207.909685 217.760401 
L 208.929894 218.127393 
L 209.279608 217.960554 
L 209.192634 216.951605 
L 209.834519 217.35497 
L 210.062889 216.973518 
L 210.916576 217.707063 
L 210.915056 216.921623 
L 211.144855 216.554547 
L 211.795477 216.148909 
L 211.956893 215.69409 
L 212.776441 216.237215 
L 212.021798 214.446486 
L 212.63272 214.675848 
L 212.62411 214.025488 
L 213.294827 214.313017 
L 213.503338 213.967502 
L 213.5545 213.426297 
L 213.865081 213.224747 
L 214.518179 213.439135 
L 215.019253 213.450737 
L 215.985818 213.989516 
L 217.249613 214.82593 
L 216.802688 213.721362 
L 216.878305 213.219638 
L 216.426102 212.174799 
L 216.93607 212.153572 
L 218.291161 212.965634 
L 218.137916 212.253385 
L 218.238589 211.803459 
L 218.43906 211.45419 
L 218.364759 210.858892 
L 219.56573 211.406141 
L 219.431695 210.760895 
L 219.038621 209.91446 
L 218.992709 209.379785 
L 219.433168 209.246154 
L 219.411681 208.743911 
L 219.990715 208.708624 
L 220.856394 208.386669 
L 219.777029 207.149189 
L 220.759183 207.373544 
L 220.140133 206.500357 
L 220.314332 206.17251 
L 221.953018 206.31457 
L 221.82219 205.784616 
L 223.113972 206.094711 
L 223.303458 205.744476 
L 223.345367 205.313233 
L 224.074945 205.254323 
L 223.340396 204.418766 
L 223.700696 204.162781 
L 223.624165 203.256829 
L 224.148485 203.070845 
L 223.219552 202.229959 
L 223.285282 201.847227 
L 223.785943 201.236454 
L 222.957972 200.510485 
L 225.754422 201.158818 
L 226.172623 200.881985 
L 224.747556 199.963227 
L 223.772171 198.84667 
L 224.795839 198.771283 
L 223.615924 198.032395 
L 224.762734 197.580695 
L 226.380308 197.597594 
L 226.176767 197.142321 
L 226.409036 196.79254 
L 226.380279 196.383737 
L 224.905388 195.690102 
L 225.280258 195.380357 
L 226.525808 195.213922 
L 226.044963 194.739908 
L 225.846326 194.321402 
L 226.85442 194.073193 
L 225.966343 193.567222 
L 226.403783 193.231543 
L 228.01785 193.001942 
L 227.12024 192.517032 
L 225.358162 191.991388 
L 232.047727 192.029144 
L 254.815855 192.69266 
L 276.171904 192.74486 
L 290.506405 192.100697 
L 298.373288 191.025814 
L 298.373288 191.025814 
" style="fill:none;stroke:#008000;stroke-linecap:square;"/>
   </g>
   <g id="line2d_3">
    <path clip-path="url(#p331990fc28)" d="M 304.060087 189.758212 
L 301.469523 188.452596 
L 294.200304 187.325037 
L 282.292664 186.546117 
L 265.710768 186.288529 
L 247.241335 186.55384 
L 243.037564 186.220926 
L 244.800766 185.476838 
L 244.190313 184.921637 
L 241.670045 184.591889 
L 240.343073 183.611259 
L 242.758886 182.686273 
L 242.254912 182.168307 
L 242.351662 181.556451 
L 242.309647 180.965439 
L 242.838071 180.259286 
L 242.113584 179.801919 
L 242.272411 178.551638 
L 241.014486 178.253161 
L 241.400397 177.550549 
L 241.628742 176.877477 
L 240.843674 176.488079 
L 241.272111 175.747124 
L 240.488985 175.373899 
L 240.787454 174.659746 
L 240.618517 174.093222 
L 239.700245 173.173794 
L 238.984884 172.823674 
L 238.031341 172.583116 
L 236.830886 172.46598 
L 238.589994 171.108602 
L 238.926688 170.323973 
L 238.309482 169.959369 
L 237.666198 168.974985 
L 237.149079 168.584302 
L 237.455502 167.110037 
L 236.981175 166.698116 
L 236.187273 166.473353 
L 235.629749 166.127297 
L 236.316403 165.044309 
L 235.982367 164.55722 
L 234.788564 164.615413 
L 234.332241 164.224263 
L 233.513758 164.080099 
L 233.495328 163.404907 
L 234.474508 162.016107 
L 233.107334 162.274792 
L 233.003222 161.63521 
L 233.043634 160.876501 
L 231.70392 161.179549 
L 232.007949 160.206093 
L 231.953335 159.500123 
L 230.698068 159.791398 
L 230.3279 159.356396 
L 230.812282 157.375755 
L 230.567299 156.795679 
L 230.228763 156.297374 
L 227.510535 156.525621 
L 226.875155 156.366652 
L 226.335757 156.116005 
L 226.804678 154.759558 
L 226.756288 153.939236 
L 226.348974 153.513124 
L 225.808557 153.243037 
L 225.127191 153.150168 
L 222.672479 153.497715 
L 222.241058 153.140814 
L 222.008716 152.507246 
L 221.871678 150.713135 
L 220.531712 150.641877 
L 219.317126 148.178499 
L 218.489196 148.441814 
L 218.282677 147.608532 
L 217.413965 147.981314 
L 216.836429 147.832217 
L 215.97608 148.252269 
L 215.604756 147.713017 
L 214.749168 148.179171 
L 214.902187 146.489686 
L 214.156965 146.729712 
L 213.504757 146.785251 
L 212.913049 146.714467 
L 212.078573 147.261386 
L 211.775247 146.487129 
L 211.91637 144.473973 
L 211.038628 145.167302 
L 210.367043 145.332934 
L 209.922832 144.839661 
L 209.218023 145.142228 
L 208.751168 144.702751 
L 207.884272 145.617657 
L 207.46199 145.028988 
L 207.099517 144.169608 
L 206.466989 144.313768 
L 205.898466 144.21957 
L 205.516754 143.297913 
L 205.0038 142.899544 
L 204.196245 143.946594 
L 203.096195 143.58132 
L 202.432614 144.085101 
L 202.010347 143.062867 
L 201.392676 143.30626 
L 200.805122 143.3705 
L 200.397943 141.8385 
L 199.734049 142.542886 
L 199.192042 142.051022 
L 198.01572 142.034451 
L 197.452961 141.531715 
L 196.791545 143.391107 
L 196.214896 143.680328 
L 195.662537 142.596368 
L 195.083744 141.904467 
L 194.502306 142.380465 
L 193.912596 142.05083 
L 193.363964 143.065885 
L 192.272116 143.993266 
L 191.744999 144.495931 
L 191.046838 142.880052 
L 190.364643 141.844342 
L 189.866919 142.716504 
L 189.276159 142.671558 
L 188.667069 142.512926 
L 188.071078 142.482642 
L 187.638245 143.484519 
L 187.065088 143.54556 
L 186.434005 143.300528 
L 185.978364 143.982366 
L 185.402764 144.028852 
L 185.060918 145.124525 
L 184.505152 145.213844 
L 183.688688 144.266596 
L 183.351851 145.246669 
L 182.619354 144.717683 
L 182.200464 145.332282 
L 180.941332 145.116539 
L 180.083395 144.351502 
L 179.830757 145.421044 
L 179.357405 145.806026 
L 178.972026 146.413393 
L 178.457522 146.656348 
L 177.553651 145.922921 
L 177.37648 147.009086 
L 176.828815 147.172682 
L 176.518698 147.876139 
L 175.986824 148.064937 
L 174.382901 147.344552 
L 173.693673 147.263441 
L 173.433131 148.028953 
L 172.725473 147.928813 
L 172.12114 148.037903 
L 171.749878 148.568171 
L 170.974135 148.39086 
L 170.440835 148.644001 
L 170.292572 149.524688 
L 169.703812 149.678926 
L 169.333714 150.177561 
L 168.722653 150.306042 
L 168.252406 150.649862 
L 168.86668 152.532838 
L 168.164796 152.515578 
L 168.275905 153.612028 
L 167.713765 153.785232 
L 166.841392 153.568972 
L 167.15452 154.861744 
L 165.99967 154.31916 
L 165.238034 154.287812 
L 163.525125 153.173003 
L 162.342789 152.730955 
L 161.930631 153.179394 
L 162.507405 154.690382 
L 162.213404 155.233408 
L 162.220731 156.078552 
L 161.00375 156.504569 
L 160.159921 156.507972 
L 159.884563 157.059851 
L 159.730764 157.716131 
L 159.708925 158.478404 
L 159.177231 158.785038 
L 159.223971 159.58487 
L 158.654583 159.861574 
L 157.897168 159.996109 
L 157.338902 160.301853 
L 156.39633 160.322957 
L 156.927902 162.179195 
L 157.706218 163.433988 
L 156.068434 163.689019 
L 156.125384 165.088097 
L 154.373431 165.357387 
L 154.046396 165.840933 
L 152.648342 165.718856 
L 151.986335 166.037658 
L 152.142516 166.80564 
L 151.968592 167.388547 
L 152.931832 168.540719 
L 152.878686 169.159179 
L 152.463657 169.600413 
L 151.695141 169.884772 
L 151.30447 170.352199 
L 152.055136 171.313342 
L 152.558157 172.143533 
L 152.316926 172.655408 
L 151.852895 173.082233 
L 151.522265 173.565957 
L 150.757981 173.898203 
L 149.732687 174.156428 
L 149.943908 174.846019 
L 150.670086 175.688027 
L 152.029163 176.697745 
L 150.701578 176.887622 
L 151.270557 177.633471 
L 150.67596 178.05367 
L 148.955039 178.203578 
L 148.047886 178.587922 
L 148.117119 179.2115 
L 149.095395 180.022402 
L 149.041283 180.599797 
L 148.663394 181.115422 
L 148.76459 181.72108 
L 148.152453 182.206908 
L 147.098387 182.640252 
L 147.270136 183.264343 
L 147.648555 183.907638 
L 147.266282 184.455356 
L 146.176191 184.941241 
L 146.090423 185.539163 
L 148.454756 186.318657 
L 142.657904 186.537355 
L 124.337719 186.282679 
L 107.623035 186.536842 
L 95.717549 187.31891 
L 88.514516 188.450351 
L 86.107412 189.758221 
L 88.697904 191.063816 
L 95.967138 192.19138 
L 107.874736 192.970306 
L 124.456702 193.227895 
L 142.926172 192.962584 
L 147.129834 193.295508 
L 145.366667 194.039595 
L 145.977178 194.594781 
L 148.497496 194.924526 
L 149.824419 195.905165 
L 147.408607 196.830152 
L 147.912705 197.3481 
L 147.81583 197.959978 
L 147.857979 198.550955 
L 147.329441 199.25713 
L 148.053904 199.714504 
L 147.895079 200.964788 
L 149.153032 201.26326 
L 148.767128 201.965872 
L 148.538771 202.638936 
L 149.323829 203.028339 
L 148.895374 203.7693 
L 149.678507 204.142525 
L 149.380052 204.856675 
L 149.548958 205.423212 
L 150.467176 206.342651 
L 151.182601 206.692749 
L 152.13615 206.933306 
L 153.336563 207.050462 
L 151.577502 208.407823 
L 151.240725 209.192491 
L 151.858031 209.557051 
L 152.501342 210.541412 
L 153.018448 210.932102 
L 152.711888 212.406444 
L 153.186374 212.818281 
L 153.980254 213.043059 
L 154.537765 213.389109 
L 153.851151 214.472075 
L 154.185129 214.959199 
L 155.378928 214.901012 
L 155.835152 215.292226 
L 156.653742 215.436324 
L 156.672082 216.111567 
L 155.693007 217.500296 
L 157.060157 217.241631 
L 157.164269 217.881212 
L 157.123849 218.639931 
L 158.46365 218.336819 
L 158.159556 219.310325 
L 158.214153 220.016298 
L 159.469402 219.725039 
L 159.839585 220.160032 
L 159.355211 222.14067 
L 159.6002 222.720744 
L 159.938752 223.219035 
L 162.656949 222.990809 
L 163.292349 223.149761 
L 163.831736 223.40042 
L 163.362872 224.756808 
L 163.411207 225.577191 
L 163.818511 226.003301 
L 164.358924 226.273393 
L 165.040236 226.366332 
L 167.495036 226.018685 
L 167.926429 226.375623 
L 168.158658 227.009351 
L 168.295775 228.803363 
L 169.635773 228.87454 
L 170.850365 231.337924 
L 171.678295 231.074609 
L 171.884827 231.907867 
L 172.753548 231.535079 
L 173.331051 231.684237 
L 174.191472 231.264043 
L 174.562748 231.803403 
L 175.41826 231.337409 
L 175.265359 233.026643 
L 176.010462 232.786826 
L 176.662737 232.73115 
L 177.254417 232.802003 
L 178.088908 232.255046 
L 178.392247 233.029286 
L 178.251128 235.042429 
L 179.128863 234.349122 
L 179.800436 234.183523 
L 180.244667 234.676755 
L 180.949477 234.374183 
L 181.416317 234.813708 
L 182.28321 233.898837 
L 182.705469 234.487594 
L 183.068007 235.346729 
L 183.700504 235.202621 
L 184.269026 235.296821 
L 184.650786 236.218262 
L 185.163653 236.617028 
L 185.971249 235.569812 
L 187.0713 235.935074 
L 187.734883 235.431314 
L 188.157144 236.453593 
L 188.774823 236.21014 
L 189.36238 236.145879 
L 189.769548 237.678021 
L 190.433433 236.973731 
L 190.975422 237.465581 
L 192.151772 237.481852 
L 192.714529 237.984607 
L 193.375933 236.125521 
L 193.952594 235.836125 
L 194.504953 236.920038 
L 195.083747 237.611985 
L 195.665188 237.135833 
L 196.2549 237.465596 
L 196.803532 236.450553 
L 197.895378 235.523025 
L 198.422511 235.020604 
L 199.12064 236.63636 
L 199.80284 237.672069 
L 200.300573 236.799981 
L 200.891313 236.844766 
L 201.500419 237.003487 
L 202.096408 237.033755 
L 202.529246 236.031908 
L 203.102402 235.970861 
L 203.733478 236.215827 
L 204.189124 235.534017 
L 204.764737 235.487596 
L 205.10659 234.391928 
L 205.662319 234.302452 
L 206.478861 235.250016 
L 206.815669 234.269911 
L 207.548128 234.798734 
L 207.967055 234.184262 
L 209.226155 234.399873 
L 210.084091 235.164911 
L 210.336732 234.095374 
L 210.810068 233.710332 
L 211.195505 233.103125 
L 211.70998 232.860091 
L 212.613869 233.593564 
L 212.791025 232.507345 
L 213.338744 232.343875 
L 213.648736 231.640184 
L 214.180733 231.451646 
L 215.784574 232.171854 
L 216.47383 232.25302 
L 216.734402 231.487565 
L 217.442023 231.587608 
L 218.046427 231.478649 
L 218.417616 230.948249 
L 219.193331 231.125512 
L 219.726661 230.872421 
L 219.874886 229.991674 
L 220.463671 229.837477 
L 220.833937 229.339079 
L 221.444796 229.21033 
L 221.915052 228.866525 
L 221.300929 226.983765 
L 222.002631 227.000769 
L 221.891628 225.904463 
L 222.45373 225.731207 
L 223.326107 225.947455 
L 223.012929 224.65462 
L 224.167912 225.197368 
L 224.929509 225.228666 
L 226.642345 226.34339 
L 227.824838 226.785615 
L 228.23684 226.337 
L 227.66019 224.82613 
L 227.95405 224.282987 
L 227.946741 223.437861 
L 229.16363 223.011757 
L 230.007544 223.008437 
L 230.282936 222.456589 
L 230.436719 221.80028 
L 230.458575 221.038021 
L 230.990234 220.731357 
L 230.943524 219.931551 
L 231.512967 219.654893 
L 232.270424 219.52039 
L 232.828674 219.21463 
L 233.771075 219.19338 
L 233.239661 217.337289 
L 232.461277 216.082447 
L 234.098967 215.827353 
L 234.042116 214.428328 
L 235.794098 214.159054 
L 236.121063 213.675467 
L 237.519187 213.797584 
L 238.181187 213.478777 
L 238.02519 212.71088 
L 238.198837 212.127853 
L 237.235707 210.975736 
L 237.28877 210.357235 
L 237.703878 209.91604 
L 238.472347 209.631657 
L 238.862925 209.16419 
L 238.112328 208.203065 
L 237.609332 207.372885 
L 237.850547 206.861004 
L 238.314642 206.434204 
L 238.64518 205.950445 
L 239.409533 205.618225 
L 240.434812 205.359994 
L 240.223441 204.670342 
L 239.497498 203.828434 
L 238.138209 202.818649 
L 239.465825 202.628784 
L 238.897087 201.883002 
L 239.491519 201.462757 
L 241.212348 201.312827 
L 242.119573 200.92849 
L 242.050306 200.304904 
L 241.072025 199.494002 
L 241.126206 198.916622 
L 241.504123 198.401002 
L 241.402925 197.795344 
L 242.015125 197.309525 
L 243.069301 196.876185 
L 242.897442 196.2521 
L 242.518886 195.608787 
L 242.901334 195.061089 
L 243.991437 194.575204 
L 244.077179 193.977278 
L 241.712781 193.197778 
L 247.509717 192.979072 
L 265.829895 193.233745 
L 282.54454 192.979578 
L 294.450016 192.197506 
L 301.653018 191.066064 
L 301.653018 191.066064 
" style="fill:none;stroke:#ff0000;stroke-linecap:square;"/>
   </g>
   <g id="patch_3">
    <path d="M 195.083746 350.655638 
C 237.754242 350.655638 278.68281 333.702471 308.855407 303.529873 
C 339.028005 273.357276 355.981172 232.428708 355.981172 189.758212 
C 355.981172 147.087716 339.028005 106.159148 308.855407 75.986551 
C 278.68281 45.813953 237.754242 28.860785 195.083746 28.860785 
C 152.41325 28.860785 111.484682 45.813953 81.312085 75.986551 
C 51.139487 106.159148 34.186319 147.087716 34.186319 189.758212 
C 34.186319 232.428708 51.139487 273.357276 81.312085 303.529873 
C 111.484682 333.702471 152.41325 350.655638 195.083746 350.655638 
z
" style="fill:none;stroke:#000000;stroke-linecap:square;stroke-linejoin:miter;"/>
   </g>
   <g id="matplotlib.axis_1">
    <g id="xtick_1">
     <g id="line2d_4">
      <path clip-path="url(#p331990fc28)" d="M 195.083746 189.758212 
L 355.981172 189.758212 
" style="fill:none;stroke:#000000;stroke-dasharray:1.000000,3.000000;stroke-dashoffset:0.0;stroke-width:0.5;"/>
     </g>
     <g id="text_1">
      <!-- $0^\circ$ -->
      <defs>
       <path d="M 44.40625 25 
C 44.40625 35.578125 35.5 44.1875 25 44.1875 
C 14.203125 44.1875 5.5 35.375 5.5 25 
C 5.5 14.53125 14.203125 5.8125 25 5.8125 
C 35.5 5.8125 44.40625 14.421875 44.40625 25 
M 25 9.8125 
C 16.296875 9.8125 9.5 16.71875 9.5 25 
C 9.5 33.28125 16.40625 40.1875 25 40.1875 
C 33.296875 40.1875 40.40625 33.46875 40.40625 25 
C 40.40625 16.53125 33.296875 9.8125 25 9.8125 
" id="CMSY10-14"/>
       <path d="M 42 31.640625 
C 42 37.75 41.90625 48.125 37.703125 56.109375 
C 34 63.109375 28.09375 65.59375 22.90625 65.59375 
C 18.09375 65.59375 12 63.40625 8.203125 56.203125 
C 4.203125 48.71875 3.796875 39.4375 3.796875 31.640625 
C 3.796875 25.953125 3.90625 17.28125 7 9.671875 
C 11.296875 -0.609375 19 -2 22.90625 -2 
C 27.5 -2 34.5 -0.109375 38.59375 9.375 
C 41.59375 16.28125 42 24.359375 42 31.640625 
M 22.90625 -0.40625 
C 16.5 -0.40625 12.703125 5.078125 11.296875 12.6875 
C 10.203125 18.5625 10.203125 27.15625 10.203125 32.75 
C 10.203125 40.4375 10.203125 46.828125 11.5 52.921875 
C 13.40625 61.390625 19 64 22.90625 64 
C 27 64 32.296875 61.296875 34.203125 53.125 
C 35.5 47.4375 35.59375 40.734375 35.59375 32.75 
C 35.59375 26.25 35.59375 18.265625 34.40625 12.375 
C 32.296875 1.484375 26.40625 -0.40625 22.90625 -0.40625 
" id="CMR17-48"/>
      </defs>
      <g transform="translate(367.027328533 193.057819607)scale(0.12 -0.12)">
       <use transform="scale(0.9962640099626402)" xlink:href="#CMR17-48"/>
       <use transform="translate(45.69047711706103 36.15363894185866)scale(0.6973817666173724)" xlink:href="#CMSY10-14"/>
      </g>
     </g>
    </g>
    <g id="xtick_2">
     <g id="line2d_5">
      <path clip-path="url(#p331990fc28)" d="M 195.083746 189.758212 
L 195.083746 28.860785 
" style="fill:none;stroke:#000000;stroke-dasharray:1.000000,3.000000;stroke-dashoffset:0.0;stroke-width:0.5;"/>
     </g>
     <g id="text_2">
      <!-- $90^\circ$ -->
      <defs>
       <path d="M 35.203125 29.125 
C 35.203125 7.25 26.09375 0.484375 18.59375 0.484375 
C 16.296875 0.484375 10.703125 0.484375 8.40625 4.59375 
C 11 4.1875 12.90625 5.578125 12.90625 8.09375 
C 12.90625 10.8125 10.703125 11.703125 9.296875 11.703125 
C 8.40625 11.703125 5.703125 11.296875 5.703125 7.90625 
C 5.703125 1.109375 11.59375 -2 18.796875 -2 
C 30.296875 -2 42 10.53125 42 32.390625 
C 42 59.640625 30.796875 65.296875 23.203125 65.296875 
C 13.296875 65.296875 3.796875 56.6875 3.796875 43.40625 
C 3.796875 31.109375 11.90625 22 22.09375 22 
C 30.5 22 34.203125 29.734375 35.203125 33 
z
M 22.296875 23.59375 
C 19.59375 23.59375 15.796875 24.09375 12.703125 30.03125 
C 10.59375 33.890625 10.59375 38.453125 10.59375 43.296875 
C 10.59375 49.15625 10.59375 53.203125 13.40625 57.5625 
C 14.796875 59.640625 17.40625 63 23.203125 63 
C 35 63 35 45.078125 35 41.125 
C 35 34.09375 31.796875 23.59375 22.296875 23.59375 
" id="CMR17-57"/>
      </defs>
      <g transform="translate(187.113664266 16.070650466)scale(0.12 -0.12)">
       <use transform="scale(0.9962640099626402)" xlink:href="#CMR17-57"/>
       <use transform="translate(45.69047711706103 0.0)scale(0.9962640099626402)" xlink:href="#CMR17-48"/>
       <use transform="translate(91.38095423412206 36.15363894185866)scale(0.6973817666173724)" xlink:href="#CMSY10-14"/>
      </g>
     </g>
    </g>
    <g id="xtick_3">
     <g id="line2d_6">
      <path clip-path="url(#p331990fc28)" d="M 195.083746 189.758212 
L 34.186319 189.758212 
" style="fill:none;stroke:#000000;stroke-dasharray:1.000000,3.000000;stroke-dashoffset:0.0;stroke-width:0.5;"/>
     </g>
     <g id="text_3">
      <!-- $180^\circ$ -->
      <defs>
       <path d="M 27.203125 35.375 
C 33.5 38.546875 39.90625 43.328125 39.90625 50.984375 
C 39.90625 60.015625 31.09375 65.296875 23 65.296875 
C 13.90625 65.296875 5.90625 58.734375 5.90625 49.6875 
C 5.90625 47.203125 6.5 42.921875 10.40625 39.140625 
C 11.40625 38.15625 15.59375 35.171875 18.296875 33.28125 
C 13.796875 30.984375 3.296875 25.53125 3.296875 14.59375 
C 3.296875 4.359375 13.09375 -2 22.796875 -2 
C 33.5 -2 42.5 5.65625 42.5 15.78125 
C 42.5 24.84375 36.40625 29.015625 32.40625 31.703125 
z
M 14.09375 44.09375 
C 13.296875 44.59375 9.296875 47.671875 9.296875 52.359375 
C 9.296875 58.421875 15.59375 63 22.796875 63 
C 30.703125 63 36.5 57.4375 36.5 50.96875 
C 36.5 41.703125 26.09375 36.421875 25.59375 36.421875 
C 25.5 36.421875 25.40625 36.421875 24.59375 37.03125 
z
M 32.5 23.734375 
C 34 22.640625 38.796875 19.375 38.796875 13.296875 
C 38.796875 5.953125 31.40625 0.390625 23 0.390625 
C 13.90625 0.390625 7 6.84375 7 14.6875 
C 7 22.546875 13.09375 29.09375 20 32.1875 
z
" id="CMR17-56"/>
       <path d="M 26.59375 63.40625 
C 26.59375 65.5 26.5 65.5 25.09375 65.5 
C 21.203125 61.1875 15.296875 59.796875 9.703125 59.796875 
C 9.40625 59.796875 8.90625 59.796875 8.796875 59.5 
C 8.703125 59.296875 8.703125 59.09375 8.703125 57 
C 11.796875 57 17 57.59375 21 59.984375 
L 21 7.203125 
C 21 3.6875 20.796875 2.5 12.203125 2.5 
L 9.203125 2.5 
L 9.203125 0 
C 14 0 19 0 23.796875 0 
C 28.59375 0 33.59375 0 38.40625 0 
L 38.40625 2.5 
L 35.40625 2.5 
C 26.796875 2.5 26.59375 3.59375 26.59375 7.15625 
z
" id="CMR17-49"/>
      </defs>
      <g transform="translate(7.2 193.057819607)scale(0.12 -0.12)">
       <use transform="scale(0.9962640099626402)" xlink:href="#CMR17-49"/>
       <use transform="translate(45.69047711706103 0.0)scale(0.9962640099626402)" xlink:href="#CMR17-56"/>
       <use transform="translate(91.38095423412206 0.0)scale(0.9962640099626402)" xlink:href="#CMR17-48"/>
       <use transform="translate(137.07143135118307 36.15363894185866)scale(0.6973817666173724)" xlink:href="#CMSY10-14"/>
      </g>
     </g>
    </g>
    <g id="xtick_4">
     <g id="line2d_7">
      <path clip-path="url(#p331990fc28)" d="M 195.083746 189.758212 
L 195.083746 350.655638 
" style="fill:none;stroke:#000000;stroke-dasharray:1.000000,3.000000;stroke-dashoffset:0.0;stroke-width:0.5;"/>
     </g>
     <g id="text_4">
      <!-- $270^\circ$ -->
      <defs>
       <path d="M 45.09375 61.578125 
L 45.09375 63.765625 
L 21.59375 63.765625 
C 9.90625 63.765625 9.703125 65.078125 9.296875 67 
L 7.5 67 
L 4.59375 48.34375 
L 6.40625 48.34375 
C 6.703125 50.234375 7.40625 55.3125 8.59375 57.203125 
C 9.203125 58 16.59375 58 18.296875 58 
L 40.296875 58 
L 29.203125 41.578125 
C 21.796875 30.53125 16.703125 15.609375 16.703125 2.578125 
C 16.703125 1.390625 16.703125 -2 20.296875 -2 
C 23.90625 -2 23.90625 1.390625 23.90625 2.671875 
L 23.90625 7.265625 
C 23.90625 23.5625 26.703125 34.3125 31.296875 41.1875 
z
" id="CMR17-55"/>
       <path d="M 41.703125 15.453125 
L 39.90625 15.453125 
C 38.90625 8.375 38.09375 7.171875 37.703125 6.5625 
C 37.203125 5.765625 30 5.765625 28.59375 5.765625 
L 9.40625 5.765625 
C 13 9.671875 20 16.75 28.5 24.953125 
C 34.59375 30.734375 41.703125 37.53125 41.703125 47.421875 
C 41.703125 59.21875 32.296875 66 21.796875 66 
C 10.796875 66 4.09375 56.3125 4.09375 47.34375 
C 4.09375 43.4375 7 42.9375 8.203125 42.9375 
C 9.203125 42.9375 12.203125 43.546875 12.203125 47.03125 
C 12.203125 50.109375 9.59375 51 8.203125 51 
C 7.59375 51 7 50.90625 6.59375 50.703125 
C 8.5 59.21875 14.296875 63.40625 20.40625 63.40625 
C 29.09375 63.40625 34.796875 56.515625 34.796875 47.421875 
C 34.796875 38.734375 29.703125 31.25 24 24.75 
L 4.09375 2.28125 
L 4.09375 0 
L 39.296875 0 
z
" id="CMR17-50"/>
      </defs>
      <g transform="translate(184.187169141 370.044988747)scale(0.12 -0.12)">
       <use transform="scale(0.9962640099626402)" xlink:href="#CMR17-50"/>
       <use transform="translate(45.69047711706103 0.0)scale(0.9962640099626402)" xlink:href="#CMR17-55"/>
       <use transform="translate(91.38095423412206 0.0)scale(0.9962640099626402)" xlink:href="#CMR17-48"/>
       <use transform="translate(137.07143135118307 36.15363894185866)scale(0.6973817666173724)" xlink:href="#CMSY10-14"/>
      </g>
     </g>
    </g>
   </g>
   <g id="matplotlib.axis_2">
    <g id="ytick_1">
     <g id="line2d_8">
      <path clip-path="url(#p331990fc28)" d="M 195.083746 189.758212 
L 195.083746 189.758212 
" style="fill:none;stroke:#000000;stroke-dasharray:1.000000,3.000000;stroke-dashoffset:0.0;stroke-width:0.5;"/>
     </g>
     <g id="text_5">
      <!-- -15dB -->
      <defs>
       <path d="M 3 72 
L 3 67.3125 
L 4.796875 67.3125 
C 12.90625 67.3125 13.796875 66.8125 13.796875 62.609375 
L 13.796875 59.734375 
L 13.796875 12.28125 
L 13.796875 9.375 
C 13.796875 5.1875 12.90625 4.6875 4.796875 4.6875 
L 3 4.6875 
L 3 0 
L 39.296875 0 
C 56.59375 0 67 7.40625 67 19.59375 
C 67 29.484375 60.59375 35.296875 47 37.6875 
C 51.796875 38.6875 54 39.578125 56.5 41.46875 
C 60.703125 44.546875 63.203125 49.421875 63.203125 54.5 
C 63.203125 60.859375 59.203125 67.125 53.40625 69.609375 
C 49.796875 71.203125 44.796875 72 38.90625 72 
z
M 25 39.6875 
L 25 62.328125 
C 25 66.203125 26.40625 67.3125 31.59375 67.3125 
L 35.59375 67.3125 
C 40.203125 67.3125 44 66.609375 46.09375 65.21875 
C 49.703125 63.03125 51.59375 58.75 51.59375 53.203125 
C 51.59375 43.46875 46.703125 39.6875 33.90625 39.6875 
z
M 25 35 
L 33.796875 35 
C 40.203125 35 44.5 34.390625 47.5 33.09375 
C 52.203125 30.890625 54.703125 26.5 54.703125 19.890625 
C 54.703125 13.59375 52.5 8.890625 48.59375 6.984375 
C 45.5 5.390625 41.296875 4.6875 35 4.6875 
L 30.796875 4.6875 
C 25.703125 4.6875 25 5.484375 25 11 
z
" id="Century_Schoolbook_L_Roman-66"/>
       <path d="M 16.40625 59.703125 
C 21.796875 58.40625 24.59375 58 28.5 58 
C 37 58 43.203125 61 46.5 66.484375 
C 47.59375 68.390625 48 69.28125 48 70.078125 
C 48 70.6875 47.703125 70.984375 47.203125 70.984375 
C 46.90625 70.984375 46.40625 70.875 45.90625 70.578125 
C 41 68.484375 38.296875 67.984375 32.59375 67.984375 
C 26.203125 67.984375 22.5 68.484375 12 70.984375 
C 11.59375 62.625 10.703125 51.984375 9.296875 39.65625 
C 7.203125 37.46875 6.5 36.171875 6.5 34.578125 
C 6.5 32.59375 7.796875 31.203125 9.703125 31.203125 
C 12.203125 31.203125 13.796875 33.328125 14.203125 37.359375 
C 17.703125 39.890625 21 41 25 41 
C 33.90625 41 39.296875 34.03125 39.296875 22.5 
C 39.296875 15.734375 37.59375 9.953125 34.59375 6.828125 
C 32.59375 4.703125 28.5 3.296875 24.40625 3.296875 
C 18.40625 3.296875 12.203125 6.421875 12.203125 9.5625 
C 12.203125 10.28125 12.796875 11.078125 14 11.78125 
C 17.09375 13.703125 18 15.03125 18 17.75 
C 18 21.296875 15.296875 24.015625 11.703125 24.015625 
C 7.703125 24.015625 4.5 20.28125 4.5 15.546875 
C 4.5 10.5 7.40625 5.453125 11.90625 2.328125 
C 15.296875 0.109375 19.40625 -1 24.59375 -1 
C 40.296875 -1 50.203125 8.28125 50.203125 23.109375 
C 50.203125 36.828125 41.09375 46 27.59375 46 
C 23.40625 46 20.203125 45.296875 14.703125 43 
z
" id="Century_Schoolbook_L_Roman-53"/>
       <path d="M 4.203125 27.28125 
L 4.203125 19 
L 29.09375 19 
L 29.09375 27.28125 
z
" id="Century_Schoolbook_L_Roman-45"/>
       <path d="M 38 0 
L 55.40625 0 
L 55.40625 4.703125 
L 53.59375 4.703125 
C 48.203125 4.703125 47.40625 5.703125 47.40625 11.96875 
L 47.40625 73.78125 
L 27.796875 73.78125 
L 27.796875 69 
L 33.703125 69 
C 37.296875 69 38 68.28125 38 63.921875 
L 38 41 
C 34.296875 46.09375 30 48.390625 24.203125 48.390625 
C 12.90625 48.390625 4.296875 37.546875 4.296875 23.203125 
C 4.296875 9.0625 12.59375 -1 24.203125 -1 
C 30.5 -1 34.796875 1.671875 38 7.59375 
z
M 26.203125 43 
C 30.296875 43 34.203125 40.03125 36 35.4375 
C 37.203125 32.453125 37.90625 28.28125 37.90625 23.515625 
C 37.90625 11.96875 33.296875 4.390625 26.09375 4.390625 
C 19.09375 4.390625 14.796875 10.96875 14.796875 22.015625 
C 14.796875 27.890625 15.40625 32.359375 16.703125 35.734375 
C 18.40625 40.125 22.09375 43 26.203125 43 
" id="Century_Schoolbook_L_Roman-100"/>
       <path d="M 32.203125 70.5 
C 28.796875 66.234375 19.59375 63 10.40625 63 
L 10.40625 58.59375 
L 19.203125 58.59375 
C 25 58.59375 25.40625 58.203125 25.40625 52.3125 
L 25.40625 12.28125 
L 25.40625 9.375 
C 25.40625 5.1875 24.5 4.6875 16.5 4.6875 
L 10 4.6875 
L 10 0 
L 49.59375 0 
L 49.59375 4.6875 
L 44.09375 4.6875 
C 38.796875 4.6875 36.59375 5.09375 35.796875 6.09375 
C 35.09375 6.78125 35.09375 6.78125 35.09375 12.3125 
L 35.09375 53.671875 
C 35.09375 58.578125 35.296875 63.375 35.796875 70.5 
z
" id="Century_Schoolbook_L_Roman-49"/>
      </defs>
      <g transform="translate(195.083745942 187.486776813)scale(0.12 -0.12)">
       <use transform="scale(0.9962640099626402)" xlink:href="#Century_Schoolbook_L_Roman-45"/>
       <use transform="translate(33.17522972933531 0.0)scale(0.9962640099626402)" xlink:href="#Century_Schoolbook_L_Roman-49"/>
       <use transform="translate(88.56690669267591 0.0)scale(0.9962640099626402)" xlink:href="#Century_Schoolbook_L_Roman-53"/>
       <use transform="translate(143.95858365601651 0.0)scale(0.9962640099626402)" xlink:href="#Century_Schoolbook_L_Roman-100"/>
       <use transform="translate(201.1440709400296 0.0)scale(0.9962640099626402)" xlink:href="#Century_Schoolbook_L_Roman-66"/>
      </g>
     </g>
    </g>
    <g id="ytick_2">
     <g id="line2d_9">
      <path clip-path="url(#p331990fc28)" d="M 248.716221 189.758212 
L 248.68355 187.886466 
L 248.585575 186.017 
L 248.194274 182.294014 
L 247.544223 178.607393 
L 246.63859 174.975098 
L 245.481787 171.414825 
L 244.07945 167.943919 
L 242.438411 164.57929 
L 240.566665 161.33733 
L 238.47333 158.233834 
L 236.168606 155.283921 
L 233.66372 152.501964 
L 230.970877 149.901515 
L 228.103195 147.495244 
L 225.074646 145.294875 
L 221.899984 143.311126 
L 218.594676 141.553662 
L 215.174825 140.031047 
L 211.657092 138.750697 
L 208.058616 137.71885 
L 204.396928 136.940534 
L 200.689866 136.419541 
L 196.955492 136.158408 
L 193.212 136.158408 
L 189.477626 136.419541 
L 185.770564 136.940534 
L 182.108876 137.71885 
L 178.5104 138.750697 
L 174.992667 140.031047 
L 171.572816 141.553662 
L 168.267508 143.311126 
L 165.092846 145.294875 
L 162.064297 147.495244 
L 159.196615 149.901515 
L 156.503772 152.501964 
L 153.998886 155.283921 
L 151.694162 158.233834 
L 149.600827 161.33733 
L 147.729081 164.57929 
L 146.088042 167.943919 
L 144.685704 171.414825 
L 143.528902 174.975098 
L 142.623269 178.607393 
L 141.973218 182.294014 
L 141.581916 186.017 
L 141.45127 189.758212 
L 141.581916 193.499424 
L 141.973218 197.22241 
L 142.623269 200.909031 
L 143.528902 204.541326 
L 144.685704 208.101599 
L 146.088042 211.572505 
L 147.729081 214.937134 
L 149.600827 218.179094 
L 151.694162 221.28259 
L 153.998886 224.232503 
L 156.503772 227.01446 
L 159.196615 229.614909 
L 162.064297 232.021179 
L 165.092846 234.221549 
L 168.267508 236.205298 
L 171.572816 237.962762 
L 174.992667 239.485377 
L 178.5104 240.765727 
L 182.108876 241.797574 
L 185.770564 242.57589 
L 189.477626 243.096883 
L 193.212 243.358016 
L 196.955492 243.358016 
L 200.689866 243.096883 
L 204.396928 242.57589 
L 208.058616 241.797574 
L 211.657092 240.765727 
L 215.174825 239.485377 
L 218.594676 237.962762 
L 221.899984 236.205298 
L 225.074646 234.221549 
L 228.103195 232.021179 
L 230.970877 229.614909 
L 233.66372 227.01446 
L 236.168606 224.232503 
L 238.47333 221.28259 
L 240.566665 218.179094 
L 242.438411 214.937134 
L 244.07945 211.572505 
L 245.481787 208.101599 
L 246.63859 204.541326 
L 247.544223 200.909031 
L 248.194274 197.22241 
L 248.585575 193.499424 
L 248.716221 189.758212 
L 248.716221 189.758212 
" style="fill:none;stroke:#000000;stroke-dasharray:1.000000,3.000000;stroke-dashoffset:0.0;stroke-width:0.5;"/>
     </g>
     <g id="text_6">
      <!-- -10dB -->
      <defs>
       <path d="M 28.40625 71 
C 14.40625 71 4.203125 55.6875 4.203125 34.75 
C 4.203125 14.125 14.09375 -1 27.59375 -1 
C 41.59375 -1 51.40625 13.625 51.40625 34.4375 
C 51.40625 45.0625 49.203125 53.875 45 60.78125 
C 41.09375 67.09375 34.703125 71 28.40625 71 
M 27.703125 66.703125 
C 31 66.703125 34.203125 64.5 36.59375 60.5 
C 39.296875 55.875 40.203125 49.96875 40.203125 36.25 
C 40.203125 22.21875 39.5 15.625 37.5 11.203125 
C 35.203125 6.296875 31.59375 3.296875 27.796875 3.296875 
C 24.5 3.296875 21.296875 5.5 18.90625 9.5 
C 16.09375 14.21875 15.296875 20.53125 15.296875 36.859375 
C 15.296875 48.484375 16 54.375 18 58.6875 
C 20.296875 63.796875 23.90625 66.703125 27.703125 66.703125 
" id="Century_Schoolbook_L_Roman-48"/>
      </defs>
      <g transform="translate(244.633692332 166.962517004)scale(0.12 -0.12)">
       <use transform="scale(0.9962640099626402)" xlink:href="#Century_Schoolbook_L_Roman-45"/>
       <use transform="translate(33.17522972933531 0.0)scale(0.9962640099626402)" xlink:href="#Century_Schoolbook_L_Roman-49"/>
       <use transform="translate(88.56690669267591 0.0)scale(0.9962640099626402)" xlink:href="#Century_Schoolbook_L_Roman-48"/>
       <use transform="translate(143.95858365601651 0.0)scale(0.9962640099626402)" xlink:href="#Century_Schoolbook_L_Roman-100"/>
       <use transform="translate(201.1440709400296 0.0)scale(0.9962640099626402)" xlink:href="#Century_Schoolbook_L_Roman-66"/>
      </g>
     </g>
    </g>
    <g id="ytick_3">
     <g id="line2d_10">
      <path clip-path="url(#p331990fc28)" d="M 302.348697 189.758212 
L 302.283354 186.014719 
L 302.087405 182.275787 
L 301.761088 178.545971 
L 301.304802 174.829816 
L 300.719101 171.131849 
L 300.0047 167.456575 
L 299.162469 163.808472 
L 298.193435 160.191984 
L 297.098777 156.611519 
L 295.879829 153.071438 
L 294.538077 149.576054 
L 293.075155 146.129626 
L 291.492845 142.736352 
L 289.793076 139.400368 
L 287.977918 136.125736 
L 286.049583 132.916448 
L 284.010421 129.776413 
L 281.862914 126.709456 
L 279.609681 123.719314 
L 277.253466 120.80963 
L 274.797139 117.98395 
L 272.243694 115.245716 
L 269.596242 112.598264 
L 266.858008 110.044819 
L 264.032327 107.588492 
L 261.122644 105.232277 
L 258.132502 102.979044 
L 255.065545 100.831537 
L 251.92551 98.792374 
L 248.716221 96.864039 
L 245.44159 95.048882 
L 242.105606 93.349113 
L 238.712332 91.766803 
L 235.265904 90.303881 
L 231.77052 88.962129 
L 228.230439 87.743181 
L 224.649973 86.648523 
L 221.033486 85.679488 
L 217.385383 84.837257 
L 213.710109 84.122857 
L 210.012142 83.537156 
L 206.295986 83.08087 
L 202.566171 82.754553 
L 198.827239 82.558604 
L 195.083746 82.493261 
L 191.340253 82.558604 
L 187.601321 82.754553 
L 183.871505 83.08087 
L 180.15535 83.537156 
L 176.457383 84.122857 
L 172.782109 84.837257 
L 169.134006 85.679488 
L 165.517518 86.648523 
L 161.937053 87.743181 
L 158.396972 88.962129 
L 154.901588 90.303881 
L 151.45516 91.766803 
L 148.061886 93.349113 
L 144.725902 95.048882 
L 141.45127 96.864039 
L 138.241982 98.792374 
L 135.101947 100.831537 
L 132.03499 102.979044 
L 129.044848 105.232277 
L 126.135164 107.588492 
L 123.309484 110.044819 
L 120.57125 112.598264 
L 117.923798 115.245716 
L 115.370353 117.98395 
L 112.914026 120.80963 
L 110.557811 123.719314 
L 108.304578 126.709456 
L 106.157071 129.776413 
L 104.117908 132.916448 
L 102.189573 136.125736 
L 100.374416 139.400368 
L 98.674647 142.736352 
L 97.092337 146.129626 
L 95.629415 149.576054 
L 94.287663 153.071438 
L 93.068715 156.611519 
L 91.974057 160.191984 
L 91.005022 163.808472 
L 90.162791 167.456575 
L 89.448391 171.131849 
L 88.86269 174.829816 
L 88.406404 178.545971 
L 88.080087 182.275787 
L 87.884138 186.014719 
L 87.818795 189.758212 
L 87.884138 193.501705 
L 88.080087 197.240637 
L 88.406404 200.970452 
L 88.86269 204.686608 
L 89.448391 208.384575 
L 90.162791 212.059849 
L 91.005022 215.707952 
L 91.974057 219.324439 
L 93.068715 222.904905 
L 94.287663 226.444986 
L 95.629415 229.94037 
L 97.092337 233.386798 
L 98.674647 236.780072 
L 100.374416 240.116056 
L 102.189573 243.390687 
L 104.117908 246.599976 
L 106.157071 249.740011 
L 108.304578 252.806968 
L 110.557811 255.79711 
L 112.914026 258.706793 
L 115.370353 261.532474 
L 117.923798 264.270708 
L 120.57125 266.91816 
L 123.309484 269.471605 
L 126.135164 271.927932 
L 129.044848 274.284147 
L 132.03499 276.53738 
L 135.101947 278.684887 
L 138.241982 280.724049 
L 141.45127 282.652384 
L 144.725902 284.467542 
L 148.061886 286.167311 
L 151.45516 287.749621 
L 154.901588 289.212543 
L 158.396972 290.554295 
L 161.937053 291.773243 
L 165.517518 292.867901 
L 169.134006 293.836935 
L 172.782109 294.679166 
L 176.457383 295.393567 
L 180.15535 295.979268 
L 183.871505 296.435554 
L 187.601321 296.761871 
L 191.340253 296.95782 
L 195.083746 297.023163 
L 198.827239 296.95782 
L 202.566171 296.761871 
L 206.295986 296.435554 
L 210.012142 295.979268 
L 213.710109 295.393567 
L 217.385383 294.679166 
L 221.033486 293.836935 
L 224.649973 292.867901 
L 228.230439 291.773243 
L 231.77052 290.554295 
L 235.265904 289.212543 
L 238.712332 287.749621 
L 242.105606 286.167311 
L 245.44159 284.467542 
L 248.716221 282.652384 
L 251.92551 280.724049 
L 255.065545 278.684887 
L 258.132502 276.53738 
L 261.122644 274.284147 
L 264.032327 271.927932 
L 266.858008 269.471605 
L 269.596242 266.91816 
L 272.243694 264.270708 
L 274.797139 261.532474 
L 277.253466 258.706793 
L 279.609681 255.79711 
L 281.862914 252.806968 
L 284.010421 249.740011 
L 286.049583 246.599976 
L 287.977918 243.390687 
L 289.793076 240.116056 
L 291.492845 236.780072 
L 293.075155 233.386798 
L 294.538077 229.94037 
L 295.879829 226.444986 
L 297.098777 222.904905 
L 298.193435 219.324439 
L 299.162469 215.707952 
L 300.0047 212.059849 
L 300.719101 208.384575 
L 301.304802 204.686608 
L 301.761088 200.970452 
L 302.087405 197.240637 
L 302.283354 193.501705 
L 302.348697 189.758212 
L 302.348697 189.758212 
" style="fill:none;stroke:#000000;stroke-dasharray:1.000000,3.000000;stroke-dashoffset:0.0;stroke-width:0.5;"/>
     </g>
     <g id="text_7">
      <!-- -5dB -->
      <g transform="translate(294.183638722 146.438257194)scale(0.12 -0.12)">
       <use transform="scale(0.9962640099626402)" xlink:href="#Century_Schoolbook_L_Roman-45"/>
       <use transform="translate(33.17522972933531 0.0)scale(0.9962640099626402)" xlink:href="#Century_Schoolbook_L_Roman-53"/>
       <use transform="translate(88.56690669267591 0.0)scale(0.9962640099626402)" xlink:href="#Century_Schoolbook_L_Roman-100"/>
       <use transform="translate(145.752393976689 0.0)scale(0.9962640099626402)" xlink:href="#Century_Schoolbook_L_Roman-66"/>
      </g>
     </g>
    </g>
   </g>
   <g id="legend_1">
    <g id="patch_4">
     <path d="M 298.940325 74.715984 
L 355.981172 74.715984 
L 355.981172 28.860785 
L 298.940325 28.860785 
z
" style="fill:#ffffff;stroke:#000000;stroke-linejoin:miter;"/>
    </g>
    <g id="line2d_11">
     <path d="M 305.940325 36.752987 
L 319.940325 36.752987 
" style="fill:none;stroke:#0000ff;stroke-linecap:square;"/>
    </g>
    <g id="line2d_12"/>
    <g id="text_8">
     <!-- 25th %ile -->
     <defs>
      <path d="M 50.5 21.5625 
L 46.09375 21.5625 
L 45.09375 16.46875 
C 43.796875 10.078125 43 9.375 36.796875 9.375 
L 14.40625 9.375 
C 21.296875 16.5625 23.59375 18.65625 30 23.65625 
C 39.09375 30.65625 43 34.15625 45.296875 37.140625 
C 48.5 41.53125 50.09375 46.03125 50.09375 50.8125 
C 50.09375 62.109375 40.59375 70.296875 27.59375 70.296875 
C 14.90625 70.296875 5.09375 62.109375 5.09375 51.515625 
C 5.09375 45.234375 8.296875 40.9375 13.09375 40.9375 
C 16.796875 40.9375 19.296875 43.4375 19.296875 47.03125 
C 19.296875 49.53125 17.90625 51.828125 15.703125 52.734375 
C 12 54.328125 11.796875 54.421875 11.796875 55.71875 
C 11.796875 57.21875 12.796875 59.515625 14.203125 61.21875 
C 16.703125 64.203125 20.90625 66 25.59375 66 
C 33.796875 66 38.796875 60.90625 38.796875 52.53125 
C 38.796875 45.125 35.296875 38.4375 27 29.65625 
L 21.09375 23.46875 
C 17.59375 19.78125 15 16.96875 13.296875 15.078125 
C 9.703125 10.875 7.90625 8.578125 3.5 2.796875 
L 3.5 0 
L 48.59375 0 
z
" id="Century_Schoolbook_L_Roman-50"/>
      <path d="M 19.40625 47 
L 19.40625 67 
L 15.296875 67 
C 14.296875 53.875 9.90625 47.1875 1.796875 46.59375 
L 1.796875 42.703125 
L 10 42.703125 
L 10 17.265625 
C 10 10.28125 10.203125 7.78125 11.203125 5.484375 
C 12.796875 1.296875 16.796875 -1 22.59375 -1 
C 26.5 -1 29.90625 0.203125 32.203125 2.390625 
C 35.5 5.59375 37.40625 10.875 37.40625 16.375 
C 37.40625 16.96875 37.40625 17.671875 37.296875 18.671875 
L 33.09375 18.671875 
C 32.796875 9.6875 30.203125 5.09375 25.296875 5.09375 
C 23 5.09375 21 6.28125 20.296875 7.984375 
C 19.703125 9.375 19.40625 11.875 19.40625 15.46875 
L 19.40625 42.703125 
L 34.09375 42.703125 
L 34.09375 47 
z
" id="Century_Schoolbook_L_Roman-116"/>
      <path d="M 20 73 
L 1.5 73 
L 1.5 68.21875 
L 6.296875 68.21875 
C 10 68.21875 10.59375 67.515625 10.59375 63.21875 
L 10.59375 12.28125 
L 10.59375 8.28125 
C 10.59375 4.296875 9.5 3.59375 3.09375 3.59375 
L 2.703125 3.59375 
L 2.703125 0 
L 28 0 
L 28 3.59375 
L 27.59375 3.59375 
C 21.09375 3.59375 20 4.296875 20 8.28125 
L 20 12.28125 
L 20 22.5625 
C 20 27.546875 20.703125 32.03125 21.796875 34.328125 
C 23.90625 38.828125 28.40625 41.921875 32.703125 41.921875 
C 35.296875 41.921875 38.296875 40.421875 39.796875 38.421875 
C 41.296875 36.234375 42 33.234375 42 28.34375 
L 42 12.28125 
L 42 8.28125 
C 42 4.296875 40.90625 3.59375 34.40625 3.59375 
L 34 3.59375 
L 34 0 
L 59.296875 0 
L 59.296875 3.59375 
L 58.90625 3.59375 
C 52.5 3.59375 51.40625 4.296875 51.40625 8.28125 
L 51.40625 12.28125 
L 51.40625 27.953125 
C 51.40625 35.125 51.09375 36.921875 49.296875 40.328125 
C 46.796875 45.109375 41.796875 48 35.796875 48 
C 29.40625 48 24.5 45.015625 20 38.328125 
z
" id="Century_Schoolbook_L_Roman-104"/>
     </defs>
     <g transform="translate(330.940324637 40.2529865636)scale(0.1 -0.1)">
      <use transform="scale(0.9962640099626402)" xlink:href="#Century_Schoolbook_L_Roman-50"/>
      <use transform="translate(55.3916769633406 0.0)scale(0.9962640099626402)" xlink:href="#Century_Schoolbook_L_Roman-53"/>
      <use transform="translate(110.7833539266812 0.0)scale(0.9962640099626402)" xlink:href="#Century_Schoolbook_L_Roman-116"/>
      <use transform="translate(149.5370601212251 0.0)scale(0.9962640099626402)" xlink:href="#Century_Schoolbook_L_Roman-104"/>
     </g>
    </g>
    <g id="line2d_13">
     <path d="M 305.940325 51.038053 
L 319.940325 51.038053 
" style="fill:none;stroke:#008000;stroke-linecap:square;"/>
    </g>
    <g id="line2d_14"/>
    <g id="text_9">
     <!-- 50th %ile -->
     <g transform="translate(330.940324637 54.538052819)scale(0.1 -0.1)">
      <use transform="scale(0.9962640099626402)" xlink:href="#Century_Schoolbook_L_Roman-53"/>
      <use transform="translate(55.3916769633406 0.0)scale(0.9962640099626402)" xlink:href="#Century_Schoolbook_L_Roman-48"/>
      <use transform="translate(110.7833539266812 0.0)scale(0.9962640099626402)" xlink:href="#Century_Schoolbook_L_Roman-116"/>
      <use transform="translate(149.5370601212251 0.0)scale(0.9962640099626402)" xlink:href="#Century_Schoolbook_L_Roman-104"/>
     </g>
    </g>
    <g id="line2d_15">
     <path d="M 305.940325 65.323119 
L 319.940325 65.323119 
" style="fill:none;stroke:#ff0000;stroke-linecap:square;"/>
    </g>
    <g id="line2d_16"/>
    <g id="text_10">
     <!-- 75th %ile -->
     <defs>
      <path d="M 5.90625 46.171875 
L 10.296875 45.484375 
L 12.09375 53.40625 
C 13.59375 60.015625 14.296875 61 17.203125 61 
C 17.703125 61 18.59375 61 19.40625 60.609375 
C 25.203125 60.609375 32.40625 60.609375 36.5 60.609375 
C 37.90625 60.609375 40 60.609375 42.703125 60.609375 
L 35.90625 46.84375 
C 28.40625 31.859375 27.59375 30.15625 25.09375 24.03125 
C 22.09375 16.484375 20.40625 10.15625 20.40625 5.921875 
C 20.40625 1.40625 22.796875 -1.5 26.703125 -1.5 
C 31.5 -1.5 33.40625 1.796875 33.296875 10.421875 
C 32.796875 24.734375 34.703125 31.84375 45.296875 55.265625 
C 46.796875 58.484375 48.296875 61.59375 49.796875 64.6875 
C 49.90625 64.890625 50.203125 65.796875 50.796875 67.09375 
L 50.796875 69.984375 
C 44.59375 69.890625 41.296875 69.890625 35.203125 69.890625 
C 26.703125 69.890625 19.90625 69.890625 9 69.890625 
z
" id="Century_Schoolbook_L_Roman-55"/>
     </defs>
     <g transform="translate(330.940324637 68.8231190745)scale(0.1 -0.1)">
      <use transform="scale(0.9962640099626402)" xlink:href="#Century_Schoolbook_L_Roman-55"/>
      <use transform="translate(55.3916769633406 0.0)scale(0.9962640099626402)" xlink:href="#Century_Schoolbook_L_Roman-53"/>
      <use transform="translate(110.7833539266812 0.0)scale(0.9962640099626402)" xlink:href="#Century_Schoolbook_L_Roman-116"/>
      <use transform="translate(149.5370601212251 0.0)scale(0.9962640099626402)" xlink:href="#Century_Schoolbook_L_Roman-104"/>
     </g>
    </g>
   </g>
  </g>
 </g>
 <defs>
  <clipPath id="p331990fc28">
   <path d="M 195.083746 350.655638 
C 237.754242 350.655638 278.68281 333.702471 308.855407 303.529873 
C 339.028005 273.357276 355.981172 232.428708 355.981172 189.758212 
C 355.981172 147.087716 339.028005 106.159148 308.855407 75.986551 
C 278.68281 45.813953 237.754242 28.860785 195.083746 28.860785 
C 152.41325 28.860785 111.484682 45.813953 81.312085 75.986551 
C 51.139487 106.159148 34.186319 147.087716 34.186319 189.758212 
C 34.186319 232.428708 51.139487 273.357276 81.312085 303.529873 
C 111.484682 333.702471 152.41325 350.655638 195.083746 350.655638 
z
"/>
  </clipPath>
 </defs>
</svg>
