<?xml version="1.0" encoding="utf-8" standalone="no"?>
<!DOCTYPE svg PUBLIC "-//W3C//DTD SVG 1.1//EN"
  "http://www.w3.org/Graphics/SVG/1.1/DTD/svg11.dtd">
<!-- Created with matplotlib (http://matplotlib.org/) -->
<svg height="379pt" version="1.1" viewBox="0 0 384 379" width="384pt" xmlns="http://www.w3.org/2000/svg" xmlns:xlink="http://www.w3.org/1999/xlink">
 <defs>
  <style type="text/css">
*{stroke-linecap:butt;stroke-linejoin:round;stroke-miterlimit:100000;}
  </style>
 </defs>
 <g id="figure_1">
  <g id="patch_1">
   <path d="M 0 379.516424 
L 384.314502 379.516424 
L 384.314502 0 
L 0 0 
z
" style="fill:#ffffff;"/>
  </g>
  <g id="axes_1">
   <g id="patch_2">
    <path d="M 195.083746 350.655638 
C 237.754242 350.655638 278.68281 333.702471 308.855407 303.529873 
C 339.028005 273.357276 355.981172 232.428708 355.981172 189.758212 
C 355.981172 147.087716 339.028005 106.159148 308.855407 75.986551 
C 278.68281 45.813953 237.754242 28.860785 195.083746 28.860785 
C 152.41325 28.860785 111.484682 45.813953 81.312085 75.986551 
C 51.139487 106.159148 34.186319 147.087716 34.186319 189.758212 
C 34.186319 232.428708 51.139487 273.357276 81.312085 303.529873 
C 111.484682 333.702471 152.41325 350.655638 195.083746 350.655638 
z
" style="fill:#ffffff;"/>
   </g>
   <g id="line2d_1">
    <path clip-path="url(#pc185d1b185)" d="M 272.921332 189.758212 
L 269.765309 188.841685 
L 260.923801 188.141929 
L 243.962545 187.957899 
L 215.359464 188.76213 
L 195.646134 189.723661 
M 193.624274 189.668547 
L 174.939383 188.768582 
L 146.2833 187.960784 
L 129.403338 188.14585 
L 120.309536 188.840552 
L 117.246149 189.758219 
L 120.402119 190.674731 
L 129.243608 191.374491 
L 146.204769 191.558529 
L 174.807989 190.754296 
L 194.521381 189.792762 
M 196.54329 189.847881 
L 215.227855 190.747828 
L 243.884453 191.555645 
L 260.764216 191.37057 
L 269.858002 190.675866 
L 269.858002 190.675866 
" style="fill:none;stroke:#0000ff;stroke-linecap:square;"/>
   </g>
   <g id="line2d_2">
    <path clip-path="url(#pc185d1b185)" d="M 276.942589 189.758212 
L 273.507566 188.795759 
L 265.55975 188.028123 
L 252.499734 187.643456 
L 232.712761 187.909617 
L 216.129214 188.465255 
L 212.812347 188.450472 
L 213.835965 188.143367 
L 214.072919 187.887942 
L 211.008933 187.794027 
L 211.097699 187.583257 
L 210.873484 187.416026 
L 211.500143 187.116791 
L 210.751162 187.039657 
L 211.107379 186.570913 
L 210.728467 186.446199 
L 211.269372 186.123608 
L 212.404832 185.644723 
L 212.727401 185.338707 
L 211.779132 185.357815 
L 211.523422 185.208741 
L 210.084962 185.40794 
L 210.722283 185.014314 
L 209.842274 185.082732 
L 208.027163 185.482284 
L 210.054438 184.19345 
L 209.991179 184.007781 
L 209.723966 183.903468 
L 210.150921 183.517184 
L 209.439406 183.604442 
L 212.077496 181.974502 
L 213.438879 181.07688 
L 212.466024 181.27444 
L 209.002604 182.318427 
L 208.873412 182.168462 
L 209.656527 181.502834 
L 209.554663 181.32431 
L 211.806033 179.454241 
L 210.995302 179.406609 
L 210.264479 179.61477 
L 209.998253 179.525712 
L 209.622418 179.518923 
L 210.266269 178.784296 
L 209.321989 179.19841 
L 208.871804 179.267594 
L 209.104336 178.536896 
L 207.9927 178.896283 
L 208.606964 178.093004 
L 206.875467 179.070819 
L 207.407806 178.309747 
L 206.067255 179.041024 
L 206.923992 177.917965 
L 205.290142 178.771217 
L 205.926278 177.496221 
L 205.133197 178.108106 
L 205.412358 177.483082 
L 204.853909 177.853234 
L 204.8696 177.531175 
L 204.518986 177.668068 
L 205.272789 176.366522 
L 204.626443 176.891374 
L 203.360598 178.307104 
L 202.968983 178.562036 
L 203.876931 175.872255 
L 204.549699 174.395941 
L 204.294793 174.390511 
L 203.977099 174.498967 
L 203.557736 174.799527 
L 203.470114 174.521185 
L 203.207134 174.560424 
L 202.848291 174.792873 
L 202.670042 174.686829 
L 202.852875 173.840157 
L 202.80549 173.431957 
L 202.165347 174.297338 
L 201.999082 174.157462 
L 200.780008 175.514286 
L 200.787302 174.972301 
L 200.23492 175.361644 
L 200.16359 174.381307 
L 200.052251 173.379244 
L 199.546924 174.367659 
L 199.591612 173.468878 
L 199.31699 172.858158 
L 199.328197 171.885672 
L 198.745353 173.452335 
L 198.793573 172.234359 
L 197.898499 173.536387 
L 197.631792 173.922139 
L 197.463883 173.712632 
L 197.170121 174.396466 
L 196.986252 174.333091 
L 196.738666 172.955527 
L 196.27223 173.646331 
L 195.904338 173.054667 
L 195.46402 174.267581 
L 195.273288 174.313726 
L 195.083745 172.688105 
L 194.864817 171.919077 
L 194.641751 171.753349 
L 194.452875 172.629966 
L 194.228817 172.355723 
L 193.904412 173.770381 
L 193.753639 174.312483 
L 193.57165 174.405639 
L 193.302718 173.698141 
L 193.110652 173.760792 
L 192.947693 174.030685 
L 192.760313 174.094898 
L 192.600647 174.325782 
L 192.229004 173.305932 
L 192.018446 173.294512 
L 191.899147 173.74815 
L 191.598981 173.297477 
L 191.187526 172.407552 
L 191.268214 173.691761 
L 191.127511 173.964038 
L 190.577669 172.661875 
L 190.673394 173.821248 
L 190.539383 174.087707 
L 190.357302 174.177216 
L 189.587212 172.40796 
L 189.094743 171.629241 
L 188.768252 171.400425 
L 188.60776 171.659041 
L 188.385339 171.737713 
L 188.935547 174.915144 
L 188.669437 174.794763 
L 188.673655 175.297281 
L 188.079141 174.465438 
L 187.739019 174.229091 
L 187.205406 173.616396 
L 187.104507 174.379078 
L 186.978913 174.595132 
L 186.637708 174.412772 
L 186.474371 174.560538 
L 185.664825 174.043693 
L 185.959371 175.349252 
L 185.656739 175.267858 
L 186.06288 176.25753 
L 185.933724 176.421484 
L 186.53155 177.615027 
L 186.046577 177.255199 
L 185.957004 177.452227 
L 185.668417 177.383434 
L 183.598905 175.041746 
L 184.152899 176.100549 
L 183.471327 175.608438 
L 183.13254 175.554697 
L 183.517186 176.349355 
L 183.296552 176.427892 
L 182.942251 176.362139 
L 183.392986 177.479021 
L 183.006672 177.381023 
L 183.114169 177.788635 
L 181.757714 177.070776 
L 181.960861 177.567678 
L 181.673778 177.604123 
L 183.397299 179.677413 
L 182.29274 179.260906 
L 182.413168 179.617374 
L 182.708507 180.100483 
L 180.86414 179.212232 
L 179.996435 178.853115 
L 178.914797 178.954467 
L 180.099253 180.269385 
L 180.559209 180.808454 
L 181.995548 181.913448 
L 182.266444 182.288066 
L 181.926286 182.304604 
L 180.708065 181.845925 
L 178.129696 180.696081 
L 177.79973 180.790654 
L 178.184135 181.251662 
L 177.866762 181.355115 
L 179.56291 182.417404 
L 179.078271 182.427167 
L 180.336226 183.221087 
L 180.659131 183.574881 
L 180.332348 183.647982 
L 179.214092 183.411807 
L 180.011497 183.944204 
L 178.609673 183.634628 
L 179.495436 184.180627 
L 179.186278 184.289125 
L 179.96951 184.970043 
L 179.816186 185.126848 
L 180.481084 185.523518 
L 180.556427 185.737962 
L 180.806482 185.995159 
L 178.477378 185.814456 
L 177.969075 185.914983 
L 178.009884 186.143647 
L 179.200787 186.801037 
L 177.434045 186.6957 
L 177.219371 186.883812 
L 178.009017 187.225414 
L 177.666447 187.392658 
L 178.835086 187.75413 
L 178.32804 187.900039 
L 176.891069 187.966391 
L 176.520617 188.159652 
L 177.436473 188.456473 
L 174.668759 188.503988 
L 157.188013 187.896512 
L 138.031899 187.656867 
L 124.380724 188.022551 
L 116.648213 188.795619 
L 113.224906 189.758219 
L 116.659859 190.720657 
L 124.60768 191.488296 
L 137.667647 191.872969 
L 157.454724 191.606807 
L 174.038314 191.051167 
L 177.355085 191.065958 
L 176.331468 191.373063 
L 176.094534 191.628484 
L 179.158548 191.722397 
L 179.069793 191.933167 
L 179.294045 192.100393 
L 178.667456 192.399616 
L 179.416376 192.47676 
L 179.06019 192.945494 
L 179.43902 193.070225 
L 178.89812 193.392816 
L 177.762652 193.871703 
L 177.440077 194.177722 
L 178.388553 194.15856 
L 178.644103 194.307672 
L 180.082488 194.108495 
L 179.445176 194.50212 
L 180.325218 194.433692 
L 182.140327 194.034141 
L 180.112958 195.323008 
L 180.176247 195.508668 
L 180.443526 195.612955 
L 180.016592 195.999232 
L 180.728046 195.912 
L 178.089898 197.541969 
L 176.728568 198.439562 
L 177.701469 198.241982 
L 181.164891 197.197996 
L 181.294146 197.347927 
L 180.510892 198.013634 
L 180.612682 198.192198 
L 178.361441 200.062193 
L 179.172202 200.109808 
L 179.903026 199.901647 
L 180.169276 199.990685 
L 180.545087 199.997489 
L 179.901223 200.732127 
L 180.845502 200.318013 
L 181.295692 200.248828 
L 181.063116 200.979562 
L 182.174855 200.620085 
L 181.560567 201.423386 
L 183.292025 200.445605 
L 182.759667 201.206697 
L 184.100224 200.47541 
L 183.243397 201.598559 
L 184.87735 200.745208 
L 184.241214 202.020203 
L 185.03431 201.408298 
L 184.7551 202.033381 
L 185.313563 201.663214 
L 185.297892 201.98525 
L 185.648477 201.848392 
L 184.894712 203.149893 
L 185.540999 202.625119 
L 186.806999 201.209177 
L 187.198574 200.9543 
L 186.290542 203.644194 
L 185.617771 205.120514 
L 185.872737 205.125849 
L 186.190392 205.017456 
L 186.609755 204.716897 
L 186.69737 204.995251 
L 186.960353 204.956014 
L 187.319185 204.723584 
L 187.497438 204.829621 
L 187.314583 205.676343 
L 187.362054 206.084365 
L 188.002071 205.219256 
L 188.16838 205.359019 
L 189.38748 204.002142 
L 189.3802 204.544096 
L 189.932571 204.15478 
L 190.003881 205.135184 
L 190.115247 206.137167 
L 190.620589 205.148704 
L 190.575913 206.04744 
L 190.850484 206.658326 
L 190.839275 207.630824 
L 191.422124 206.064145 
L 191.3739 207.282142 
L 192.268996 205.980013 
L 192.535703 205.59427 
L 192.703612 205.803776 
L 192.997372 205.119964 
L 193.181224 205.183472 
L 193.428837 206.560819 
L 193.895252 205.870184 
L 194.263154 206.461711 
L 194.703471 205.248864 
L 194.894204 205.202693 
L 195.083746 206.828293 
L 195.302677 207.597333 
L 195.525741 207.763029 
L 195.714617 206.886416 
L 195.93867 207.160529 
L 196.263085 205.746078 
L 196.413865 205.204123 
L 196.595831 205.110701 
L 196.86478 205.818359 
L 197.05682 205.755488 
L 197.219794 205.4857 
L 197.407177 205.421518 
L 197.56684 205.190613 
L 197.938487 206.210488 
L 198.149046 206.221901 
L 198.268375 205.768413 
L 198.568506 206.218917 
L 198.979973 207.108886 
L 198.899258 205.824565 
L 199.039938 205.552202 
L 199.589801 206.854485 
L 199.494099 205.69519 
L 199.628113 205.42874 
L 199.810174 205.339162 
L 200.580276 207.108456 
L 201.072719 207.887095 
L 201.399236 208.115988 
L 201.559696 207.857278 
L 201.782176 207.778768 
L 201.231886 204.601127 
L 201.498077 204.721704 
L 201.493878 204.219247 
L 202.088295 205.05087 
L 202.428532 205.287464 
L 202.962097 205.900056 
L 203.062934 205.137255 
L 203.18861 204.921347 
L 203.529747 205.103583 
L 203.693083 204.955816 
L 204.502697 205.472778 
L 204.208117 204.167163 
L 204.510791 204.248613 
L 204.104584 203.258857 
L 204.23373 203.094889 
L 203.635813 201.901218 
L 204.12097 202.261305 
L 204.210558 202.064296 
L 204.499116 202.133048 
L 206.568622 204.474721 
L 206.014614 203.415898 
L 206.696149 203.907964 
L 207.034964 203.96174 
L 206.650329 203.167093 
L 206.87089 203.088474 
L 207.225319 203.154369 
L 206.774567 202.03747 
L 207.160978 202.135566 
L 207.053523 201.727992 
L 208.409788 202.445661 
L 208.206597 201.948718 
L 208.493705 201.912291 
L 206.770179 199.838997 
L 207.874557 200.255356 
L 207.754461 199.899157 
L 207.459012 199.415961 
L 209.303516 200.304316 
L 210.170988 200.663263 
L 211.252692 200.561958 
L 210.068228 199.247031 
L 209.608327 198.707996 
L 208.171938 197.602971 
L 207.901037 197.22835 
L 208.241293 197.211868 
L 209.459316 197.670437 
L 212.037688 198.820278 
L 212.367648 198.725714 
L 211.983302 198.264738 
L 212.300915 198.161403 
L 210.604498 197.098983 
L 211.089367 197.089327 
L 209.831355 196.295379 
L 209.50838 195.94155 
L 209.835251 195.868485 
L 210.953404 196.104617 
L 210.155916 195.572188 
L 211.557853 195.881807 
L 210.672012 195.33578 
L 210.981147 195.227274 
L 210.197925 194.546365 
L 210.351442 194.38962 
L 209.686313 193.99288 
L 209.610999 193.778446 
L 209.361095 193.521289 
L 211.690047 193.70195 
L 212.198465 193.60145 
L 212.157602 193.372774 
L 210.96668 192.71538 
L 212.733469 192.820726 
L 212.948275 192.632635 
L 212.158557 192.291017 
L 212.500999 192.123762 
L 211.332545 191.762313 
L 211.839369 191.616378 
L 213.276311 191.550025 
L 213.646834 191.356771 
L 212.730992 191.059952 
L 215.498906 191.012445 
L 232.979658 191.619917 
L 252.135654 191.859554 
L 265.786864 191.493869 
L 273.519325 190.720799 
L 273.519325 190.720799 
" style="fill:none;stroke:#008000;stroke-linecap:square;"/>
   </g>
   <g id="line2d_3">
    <path clip-path="url(#pc185d1b185)" d="M 280.787878 189.758212 
L 277.792263 188.743175 
L 270.529412 187.906125 
L 259.289631 187.393369 
L 245.119668 187.300105 
L 231.046829 187.548771 
L 228.272258 187.31008 
L 229.109826 186.828061 
L 228.907522 186.426861 
L 227.220039 186.194364 
L 227.571299 185.751254 
L 228.550875 185.212831 
L 229.075034 184.716081 
L 226.968509 184.62791 
L 227.357767 184.158138 
L 227.389614 183.743331 
L 227.145759 183.380681 
L 227.798715 182.8324 
L 226.744119 182.648637 
L 227.855603 181.975405 
L 227.993762 181.514682 
L 227.54284 181.20298 
L 227.270478 180.850944 
L 224.398359 180.865721 
L 224.039462 180.585084 
L 223.424639 180.395645 
L 223.505444 179.980506 
L 225.226904 178.553686 
L 224.954576 178.235761 
L 224.386043 178.039983 
L 224.509808 177.569538 
L 225.402885 176.761455 
L 226.832763 174.742045 
L 223.534683 174.996864 
L 223.20465 174.727276 
L 224.305188 172.243554 
L 224.115075 171.869631 
L 223.814987 171.564355 
L 222.414134 171.49663 
L 221.74728 171.464973 
L 221.90868 170.865961 
L 221.785243 170.45839 
L 220.929915 170.093202 
L 221.220694 169.360739 
L 220.66438 169.284868 
L 220.376476 168.476254 
L 220.154106 168.132371 
L 220.084741 167.651351 
L 219.522098 167.60858 
L 218.845766 167.684425 
L 219.079706 166.912158 
L 218.92887 166.49127 
L 218.115176 166.726781 
L 217.5638 166.719531 
L 216.788662 166.960827 
L 217.764822 165.342456 
L 217.305868 165.239879 
L 215.780539 165.764878 
L 215.795644 165.142973 
L 215.609044 164.748064 
L 215.174208 164.655975 
L 215.11195 164.09444 
L 214.732235 163.933757 
L 213.61603 164.118612 
L 213.250339 163.963633 
L 212.635192 164.175888 
L 212.389762 163.857929 
L 212.491047 163.001267 
L 212.332419 162.519582 
L 212.555554 161.40326 
L 212.186004 161.224821 
L 211.575051 161.462376 
L 211.421128 160.918699 
L 211.092701 160.671857 
L 210.530407 160.859545 
L 210.317026 160.397677 
L 209.684908 160.750683 
L 208.955895 160.428019 
L 208.729683 159.96578 
L 208.16067 160.25714 
L 207.506783 160.777463 
L 207.413224 159.992219 
L 206.942689 160.104045 
L 206.278732 159.64072 
L 205.835951 158.503849 
L 205.439176 158.411881 
L 205.188207 157.862669 
L 204.657487 158.197814 
L 204.403595 157.620211 
L 203.657541 158.776498 
L 203.374244 158.303531 
L 202.709827 157.646296 
L 202.313173 157.56411 
L 202.136291 156.444597 
L 201.645459 156.770261 
L 201.086488 157.517541 
L 200.466995 158.733775 
L 200.138715 158.341652 
L 199.778033 158.111901 
L 199.333756 158.465858 
L 199.189744 156.467642 
L 198.778672 156.439954 
L 198.324776 156.851476 
L 197.956809 156.395042 
L 197.486096 157.190364 
L 197.061525 157.56589 
L 196.630015 158.283169 
L 196.249183 158.116335 
L 195.846342 158.693539 
L 195.466682 158.555308 
L 194.681657 156.994597 
L 194.246481 155.651803 
L 193.825379 155.593363 
L 193.475798 157.027639 
L 193.10778 157.595383 
L 192.786796 158.619223 
L 192.337645 157.869409 
L 191.934388 157.782237 
L 191.54475 157.846012 
L 191.256659 158.729017 
L 190.090847 158.727409 
L 189.798051 159.29601 
L 189.058399 157.396127 
L 188.68961 157.612719 
L 188.038894 158.386055 
L 187.452678 157.625295 
L 187.205043 158.30467 
L 187.13584 159.603359 
L 186.79111 159.792474 
L 186.337451 159.598015 
L 185.791749 159.126609 
L 184.920347 157.676622 
L 184.518355 157.776316 
L 183.858633 157.129217 
L 183.480687 157.32983 
L 183.263693 157.95912 
L 183.241981 160.147007 
L 182.746896 159.974418 
L 182.37785 160.117601 
L 181.786449 159.759994 
L 181.427177 159.942565 
L 180.829856 159.620893 
L 180.306822 159.481988 
L 179.617664 159.032388 
L 179.600637 159.916164 
L 179.085693 159.827952 
L 179.132535 160.776769 
L 178.907318 161.20282 
L 177.985347 160.420721 
L 177.838593 160.986415 
L 177.361126 160.996223 
L 177.296254 162.416867 
L 176.775084 162.357358 
L 176.371021 162.48325 
L 176.482149 163.345973 
L 176.14253 163.552851 
L 176.328002 164.469022 
L 175.759218 164.359552 
L 174.691207 163.627583 
L 174.201141 163.666219 
L 173.432218 163.375747 
L 173.226231 163.781456 
L 172.569411 163.657842 
L 173.196043 165.005069 
L 172.975533 165.365563 
L 172.616687 165.572837 
L 172.59667 166.139295 
L 172.366014 166.475946 
L 171.782211 166.456677 
L 171.483702 166.730408 
L 170.702161 166.545017 
L 169.465143 165.959752 
L 169.297414 166.386838 
L 170.39472 168.461311 
L 170.105291 168.740694 
L 170.05254 169.215634 
L 169.708406 169.449177 
L 169.241484 169.590718 
L 169.146478 170.023886 
L 168.793007 170.259669 
L 167.932302 170.133168 
L 167.670961 170.451951 
L 166.281223 169.997464 
L 167.769982 171.988655 
L 167.66359 172.862406 
L 168.19059 173.639074 
L 167.906595 173.918897 
L 166.681614 173.668605 
L 165.585273 173.990945 
L 163.81518 173.534975 
L 163.277937 173.748512 
L 163.866957 174.522227 
L 163.973245 175.044042 
L 164.473444 175.737665 
L 165.305353 176.558362 
L 165.263898 176.97548 
L 165.710389 177.591367 
L 165.914175 178.09306 
L 164.965977 178.140506 
L 164.883012 178.532285 
L 164.103682 178.67337 
L 165.1039 179.444471 
L 164.481752 179.648675 
L 163.50284 179.753425 
L 164.531794 180.89831 
L 164.662177 181.339431 
L 163.776118 181.506474 
L 163.736227 182.31366 
L 163.3351 182.628813 
L 163.727171 183.119973 
L 163.224425 183.420999 
L 162.492557 183.69021 
L 162.626437 184.53579 
L 161.728969 184.810495 
L 163.155239 185.820205 
L 160.325327 186.764999 
L 162.456293 187.35147 
L 158.38512 187.503579 
L 145.386142 187.316723 
L 130.56422 187.381816 
L 119.971792 187.914318 
L 112.534128 188.745129 
L 109.379613 189.758219 
L 112.375171 190.77324 
L 119.638032 191.610294 
L 130.877841 192.123052 
L 145.047805 192.216319 
L 159.120705 191.967651 
L 161.895266 192.206343 
L 161.057584 192.688373 
L 161.259929 193.089563 
L 162.947476 193.322055 
L 162.596187 193.765169 
L 161.616617 194.303593 
L 161.092443 194.800346 
L 163.198969 194.888518 
L 162.809723 195.358289 
L 162.777848 195.773095 
L 163.021795 196.135728 
L 162.368769 196.684024 
L 163.423373 196.867786 
L 162.311875 197.541023 
L 162.173786 198.00173 
L 162.624681 198.31344 
L 162.897069 198.665461 
L 165.769124 198.650704 
L 166.12803 198.93134 
L 166.742848 199.120781 
L 166.662016 199.535932 
L 164.940689 200.962697 
L 165.212835 201.280692 
L 165.781448 201.47644 
L 165.657694 201.946882 
L 164.764574 202.754985 
L 163.334738 204.774371 
L 166.63281 204.519561 
L 166.962843 204.78915 
L 165.8623 207.27287 
L 166.0524 207.646802 
L 166.352506 207.95207 
L 167.753352 208.019801 
L 168.420164 208.05148 
L 168.258828 208.650447 
L 168.382248 209.058033 
L 169.2376 209.423205 
L 168.946769 210.155711 
L 169.503136 210.23154 
L 169.791026 211.040158 
L 170.013363 211.384071 
L 170.08275 211.865072 
L 170.645394 211.907844 
L 171.321762 211.831968 
L 171.087799 212.604257 
L 171.238635 213.025138 
L 172.052358 212.789596 
L 172.603735 212.796847 
L 173.378862 212.555565 
L 172.40267 214.173968 
L 172.8616 214.276575 
L 174.38695 213.751545 
L 174.371867 214.373424 
L 174.558451 214.768355 
L 174.993284 214.86045 
L 175.055573 215.421946 
L 175.435224 215.582714 
L 176.55134 215.397989 
L 176.917212 215.552718 
L 177.532399 215.340403 
L 177.777913 215.658208 
L 177.676403 216.515209 
L 177.835072 216.996835 
L 177.611872 218.113261 
L 177.981496 218.291586 
L 178.59244 218.054047 
L 178.746363 218.597724 
L 179.074826 218.844501 
L 179.637128 218.656805 
L 179.850527 219.118635 
L 180.48256 218.765795 
L 181.211699 219.088204 
L 181.437812 219.550654 
L 182.006776 219.259367 
L 182.660697 218.738978 
L 182.754281 219.524161 
L 183.224803 219.412366 
L 183.888763 219.875691 
L 184.331551 221.012541 
L 184.728311 221.104568 
L 184.979244 221.653893 
L 185.509996 221.318649 
L 185.763902 221.896219 
L 186.509919 220.740067 
L 186.793283 221.212784 
L 187.457686 221.870014 
L 187.854333 221.952229 
L 188.031209 223.071765 
L 188.522028 222.746185 
L 189.081002 221.998888 
L 189.700498 220.782634 
L 190.02879 221.174709 
L 190.389472 221.40445 
L 190.83374 221.050554 
L 190.977766 223.048652 
L 191.388826 223.076476 
L 191.842727 222.664896 
L 192.210673 223.121395 
L 192.681383 222.32617 
L 193.105953 221.950684 
L 193.537468 221.233337 
L 193.918301 221.400159 
L 194.321149 220.822894 
L 194.700809 220.961115 
L 195.485839 222.521922 
L 195.921014 223.864611 
L 196.34211 223.922916 
L 196.691705 222.488875 
L 197.059703 221.920776 
L 197.380701 220.897173 
L 197.829836 221.646986 
L 198.233107 221.734272 
L 198.622732 221.670367 
L 198.910836 220.787467 
L 200.076645 220.789023 
L 200.369439 220.220408 
L 201.109093 222.120281 
L 201.477871 221.903635 
L 202.128602 221.130356 
L 202.714842 221.891217 
L 202.962468 221.211801 
L 203.031625 219.912994 
L 203.376383 219.723973 
L 203.830053 219.918467 
L 204.375715 220.38974 
L 205.247151 221.839824 
L 205.64914 221.740119 
L 206.308865 222.387228 
L 206.686809 222.186598 
L 206.903755 221.557177 
L 206.925544 219.369491 
L 207.420512 219.541786 
L 207.789631 219.398781 
L 208.381096 219.756571 
L 208.740315 219.573871 
L 209.337666 219.895607 
L 209.860651 220.034408 
L 210.549856 220.484103 
L 210.566885 219.600328 
L 211.081825 219.688515 
L 211.035 218.739727 
L 211.260198 218.31364 
L 212.18216 219.095722 
L 212.328859 218.529937 
L 212.806374 218.520207 
L 212.871159 217.099416 
L 213.392432 217.159111 
L 213.796418 217.033107 
L 213.685369 216.170497 
L 214.025058 215.963714 
L 213.839406 215.047296 
L 214.408227 215.156818 
L 215.47625 215.888792 
L 215.966366 215.850219 
L 216.735224 216.140611 
L 216.941303 215.735013 
L 217.598122 215.858624 
L 216.971423 214.511322 
L 217.191948 214.150844 
L 217.550731 213.943491 
L 217.570869 213.377186 
L 217.801468 213.040476 
L 218.385242 213.059715 
L 218.683841 212.786072 
L 219.465313 212.971397 
L 220.702284 213.556618 
L 220.870105 213.129606 
L 219.772781 211.055117 
L 220.062203 210.775728 
L 220.11496 210.300793 
L 220.459121 210.067271 
L 220.92604 209.925728 
L 221.020927 209.492459 
L 221.374401 209.256699 
L 222.235271 209.383321 
L 222.496564 209.064502 
L 223.886244 209.518949 
L 222.397488 207.527752 
L 222.503895 206.65401 
L 221.976911 205.877352 
L 222.260925 205.59754 
L 223.485949 205.847856 
L 224.581839 205.525263 
L 226.35238 205.98149 
L 226.889602 205.767942 
L 226.300624 204.994246 
L 226.194275 204.472401 
L 225.694085 203.778781 
L 224.862041 202.958024 
L 224.903634 202.540958 
L 224.457069 201.92504 
L 224.25335 201.423374 
L 225.201504 201.37591 
L 225.284489 200.984139 
L 226.063778 200.843039 
L 225.06356 200.071939 
L 225.685696 199.867723 
L 226.664693 199.763017 
L 225.63571 198.618122 
L 225.505287 198.17699 
L 226.391596 198.010014 
L 226.431468 197.202809 
L 226.83238 196.887605 
L 226.440292 196.396442 
L 226.943117 196.095432 
L 227.675052 195.826233 
L 227.541084 194.980635 
L 228.438602 194.705929 
L 227.012335 193.696233 
L 229.842081 192.751423 
L 227.711261 192.164963 
L 231.782546 192.012852 
L 244.78148 192.199703 
L 259.603349 192.134605 
L 270.195795 191.602101 
L 277.633406 190.771288 
L 277.633406 190.771288 
" style="fill:none;stroke:#ff0000;stroke-linecap:square;"/>
   </g>
   <g id="patch_3">
    <path d="M 195.083746 350.655638 
C 237.754242 350.655638 278.68281 333.702471 308.855407 303.529873 
C 339.028005 273.357276 355.981172 232.428708 355.981172 189.758212 
C 355.981172 147.087716 339.028005 106.159148 308.855407 75.986551 
C 278.68281 45.813953 237.754242 28.860785 195.083746 28.860785 
C 152.41325 28.860785 111.484682 45.813953 81.312085 75.986551 
C 51.139487 106.159148 34.186319 147.087716 34.186319 189.758212 
C 34.186319 232.428708 51.139487 273.357276 81.312085 303.529873 
C 111.484682 333.702471 152.41325 350.655638 195.083746 350.655638 
z
" style="fill:none;stroke:#000000;stroke-linecap:square;stroke-linejoin:miter;"/>
   </g>
   <g id="matplotlib.axis_1">
    <g id="xtick_1">
     <g id="line2d_4">
      <path clip-path="url(#pc185d1b185)" d="M 195.083746 189.758212 
L 355.981172 189.758212 
" style="fill:none;stroke:#000000;stroke-dasharray:1.000000,3.000000;stroke-dashoffset:0.0;stroke-width:0.5;"/>
     </g>
     <g id="text_1">
      <!-- $0^\circ$ -->
      <defs>
       <path d="M 44.40625 25 
C 44.40625 35.578125 35.5 44.1875 25 44.1875 
C 14.203125 44.1875 5.5 35.375 5.5 25 
C 5.5 14.53125 14.203125 5.8125 25 5.8125 
C 35.5 5.8125 44.40625 14.421875 44.40625 25 
M 25 9.8125 
C 16.296875 9.8125 9.5 16.71875 9.5 25 
C 9.5 33.28125 16.40625 40.1875 25 40.1875 
C 33.296875 40.1875 40.40625 33.46875 40.40625 25 
C 40.40625 16.53125 33.296875 9.8125 25 9.8125 
" id="CMSY10-14"/>
       <path d="M 42 31.640625 
C 42 37.75 41.90625 48.125 37.703125 56.109375 
C 34 63.109375 28.09375 65.59375 22.90625 65.59375 
C 18.09375 65.59375 12 63.40625 8.203125 56.203125 
C 4.203125 48.71875 3.796875 39.4375 3.796875 31.640625 
C 3.796875 25.953125 3.90625 17.28125 7 9.671875 
C 11.296875 -0.609375 19 -2 22.90625 -2 
C 27.5 -2 34.5 -0.109375 38.59375 9.375 
C 41.59375 16.28125 42 24.359375 42 31.640625 
M 22.90625 -0.40625 
C 16.5 -0.40625 12.703125 5.078125 11.296875 12.6875 
C 10.203125 18.5625 10.203125 27.15625 10.203125 32.75 
C 10.203125 40.4375 10.203125 46.828125 11.5 52.921875 
C 13.40625 61.390625 19 64 22.90625 64 
C 27 64 32.296875 61.296875 34.203125 53.125 
C 35.5 47.4375 35.59375 40.734375 35.59375 32.75 
C 35.59375 26.25 35.59375 18.265625 34.40625 12.375 
C 32.296875 1.484375 26.40625 -0.40625 22.90625 -0.40625 
" id="CMR17-48"/>
      </defs>
      <g transform="translate(367.027328533 193.057819607)scale(0.12 -0.12)">
       <use transform="scale(0.9962640099626402)" xlink:href="#CMR17-48"/>
       <use transform="translate(45.69047711706103 36.15363894185866)scale(0.6973817666173724)" xlink:href="#CMSY10-14"/>
      </g>
     </g>
    </g>
    <g id="xtick_2">
     <g id="line2d_5">
      <path clip-path="url(#pc185d1b185)" d="M 195.083746 189.758212 
L 195.083746 28.860785 
" style="fill:none;stroke:#000000;stroke-dasharray:1.000000,3.000000;stroke-dashoffset:0.0;stroke-width:0.5;"/>
     </g>
     <g id="text_2">
      <!-- $90^\circ$ -->
      <defs>
       <path d="M 35.203125 29.125 
C 35.203125 7.25 26.09375 0.484375 18.59375 0.484375 
C 16.296875 0.484375 10.703125 0.484375 8.40625 4.59375 
C 11 4.1875 12.90625 5.578125 12.90625 8.09375 
C 12.90625 10.8125 10.703125 11.703125 9.296875 11.703125 
C 8.40625 11.703125 5.703125 11.296875 5.703125 7.90625 
C 5.703125 1.109375 11.59375 -2 18.796875 -2 
C 30.296875 -2 42 10.53125 42 32.390625 
C 42 59.640625 30.796875 65.296875 23.203125 65.296875 
C 13.296875 65.296875 3.796875 56.6875 3.796875 43.40625 
C 3.796875 31.109375 11.90625 22 22.09375 22 
C 30.5 22 34.203125 29.734375 35.203125 33 
z
M 22.296875 23.59375 
C 19.59375 23.59375 15.796875 24.09375 12.703125 30.03125 
C 10.59375 33.890625 10.59375 38.453125 10.59375 43.296875 
C 10.59375 49.15625 10.59375 53.203125 13.40625 57.5625 
C 14.796875 59.640625 17.40625 63 23.203125 63 
C 35 63 35 45.078125 35 41.125 
C 35 34.09375 31.796875 23.59375 22.296875 23.59375 
" id="CMR17-57"/>
      </defs>
      <g transform="translate(187.113664266 16.070650466)scale(0.12 -0.12)">
       <use transform="scale(0.9962640099626402)" xlink:href="#CMR17-57"/>
       <use transform="translate(45.69047711706103 0.0)scale(0.9962640099626402)" xlink:href="#CMR17-48"/>
       <use transform="translate(91.38095423412206 36.15363894185866)scale(0.6973817666173724)" xlink:href="#CMSY10-14"/>
      </g>
     </g>
    </g>
    <g id="xtick_3">
     <g id="line2d_6">
      <path clip-path="url(#pc185d1b185)" d="M 195.083746 189.758212 
L 34.186319 189.758212 
" style="fill:none;stroke:#000000;stroke-dasharray:1.000000,3.000000;stroke-dashoffset:0.0;stroke-width:0.5;"/>
     </g>
     <g id="text_3">
      <!-- $180^\circ$ -->
      <defs>
       <path d="M 26.59375 63.40625 
C 26.59375 65.5 26.5 65.5 25.09375 65.5 
C 21.203125 61.1875 15.296875 59.796875 9.703125 59.796875 
C 9.40625 59.796875 8.90625 59.796875 8.796875 59.5 
C 8.703125 59.296875 8.703125 59.09375 8.703125 57 
C 11.796875 57 17 57.59375 21 59.984375 
L 21 7.203125 
C 21 3.6875 20.796875 2.5 12.203125 2.5 
L 9.203125 2.5 
L 9.203125 0 
C 14 0 19 0 23.796875 0 
C 28.59375 0 33.59375 0 38.40625 0 
L 38.40625 2.5 
L 35.40625 2.5 
C 26.796875 2.5 26.59375 3.59375 26.59375 7.15625 
z
" id="CMR17-49"/>
       <path d="M 27.203125 35.375 
C 33.5 38.546875 39.90625 43.328125 39.90625 50.984375 
C 39.90625 60.015625 31.09375 65.296875 23 65.296875 
C 13.90625 65.296875 5.90625 58.734375 5.90625 49.6875 
C 5.90625 47.203125 6.5 42.921875 10.40625 39.140625 
C 11.40625 38.15625 15.59375 35.171875 18.296875 33.28125 
C 13.796875 30.984375 3.296875 25.53125 3.296875 14.59375 
C 3.296875 4.359375 13.09375 -2 22.796875 -2 
C 33.5 -2 42.5 5.65625 42.5 15.78125 
C 42.5 24.84375 36.40625 29.015625 32.40625 31.703125 
z
M 14.09375 44.09375 
C 13.296875 44.59375 9.296875 47.671875 9.296875 52.359375 
C 9.296875 58.421875 15.59375 63 22.796875 63 
C 30.703125 63 36.5 57.4375 36.5 50.96875 
C 36.5 41.703125 26.09375 36.421875 25.59375 36.421875 
C 25.5 36.421875 25.40625 36.421875 24.59375 37.03125 
z
M 32.5 23.734375 
C 34 22.640625 38.796875 19.375 38.796875 13.296875 
C 38.796875 5.953125 31.40625 0.390625 23 0.390625 
C 13.90625 0.390625 7 6.84375 7 14.6875 
C 7 22.546875 13.09375 29.09375 20 32.1875 
z
" id="CMR17-56"/>
      </defs>
      <g transform="translate(7.2 193.057819607)scale(0.12 -0.12)">
       <use transform="scale(0.9962640099626402)" xlink:href="#CMR17-49"/>
       <use transform="translate(45.69047711706103 0.0)scale(0.9962640099626402)" xlink:href="#CMR17-56"/>
       <use transform="translate(91.38095423412206 0.0)scale(0.9962640099626402)" xlink:href="#CMR17-48"/>
       <use transform="translate(137.07143135118307 36.15363894185866)scale(0.6973817666173724)" xlink:href="#CMSY10-14"/>
      </g>
     </g>
    </g>
    <g id="xtick_4">
     <g id="line2d_7">
      <path clip-path="url(#pc185d1b185)" d="M 195.083746 189.758212 
L 195.083746 350.655638 
" style="fill:none;stroke:#000000;stroke-dasharray:1.000000,3.000000;stroke-dashoffset:0.0;stroke-width:0.5;"/>
     </g>
     <g id="text_4">
      <!-- $270^\circ$ -->
      <defs>
       <path d="M 41.703125 15.453125 
L 39.90625 15.453125 
C 38.90625 8.375 38.09375 7.171875 37.703125 6.5625 
C 37.203125 5.765625 30 5.765625 28.59375 5.765625 
L 9.40625 5.765625 
C 13 9.671875 20 16.75 28.5 24.953125 
C 34.59375 30.734375 41.703125 37.53125 41.703125 47.421875 
C 41.703125 59.21875 32.296875 66 21.796875 66 
C 10.796875 66 4.09375 56.3125 4.09375 47.34375 
C 4.09375 43.4375 7 42.9375 8.203125 42.9375 
C 9.203125 42.9375 12.203125 43.546875 12.203125 47.03125 
C 12.203125 50.109375 9.59375 51 8.203125 51 
C 7.59375 51 7 50.90625 6.59375 50.703125 
C 8.5 59.21875 14.296875 63.40625 20.40625 63.40625 
C 29.09375 63.40625 34.796875 56.515625 34.796875 47.421875 
C 34.796875 38.734375 29.703125 31.25 24 24.75 
L 4.09375 2.28125 
L 4.09375 0 
L 39.296875 0 
z
" id="CMR17-50"/>
       <path d="M 45.09375 61.578125 
L 45.09375 63.765625 
L 21.59375 63.765625 
C 9.90625 63.765625 9.703125 65.078125 9.296875 67 
L 7.5 67 
L 4.59375 48.34375 
L 6.40625 48.34375 
C 6.703125 50.234375 7.40625 55.3125 8.59375 57.203125 
C 9.203125 58 16.59375 58 18.296875 58 
L 40.296875 58 
L 29.203125 41.578125 
C 21.796875 30.53125 16.703125 15.609375 16.703125 2.578125 
C 16.703125 1.390625 16.703125 -2 20.296875 -2 
C 23.90625 -2 23.90625 1.390625 23.90625 2.671875 
L 23.90625 7.265625 
C 23.90625 23.5625 26.703125 34.3125 31.296875 41.1875 
z
" id="CMR17-55"/>
      </defs>
      <g transform="translate(184.187169141 370.044988747)scale(0.12 -0.12)">
       <use transform="scale(0.9962640099626402)" xlink:href="#CMR17-50"/>
       <use transform="translate(45.69047711706103 0.0)scale(0.9962640099626402)" xlink:href="#CMR17-55"/>
       <use transform="translate(91.38095423412206 0.0)scale(0.9962640099626402)" xlink:href="#CMR17-48"/>
       <use transform="translate(137.07143135118307 36.15363894185866)scale(0.6973817666173724)" xlink:href="#CMSY10-14"/>
      </g>
     </g>
    </g>
   </g>
   <g id="matplotlib.axis_2">
    <g id="ytick_1">
     <g id="line2d_8">
      <path clip-path="url(#pc185d1b185)" d="M 195.083746 189.758212 
L 195.083746 189.758212 
" style="fill:none;stroke:#000000;stroke-dasharray:1.000000,3.000000;stroke-dashoffset:0.0;stroke-width:0.5;"/>
     </g>
     <g id="text_5">
      <!-- -15dB -->
      <defs>
       <path d="M 32.203125 70.5 
C 28.796875 66.234375 19.59375 63 10.40625 63 
L 10.40625 58.59375 
L 19.203125 58.59375 
C 25 58.59375 25.40625 58.203125 25.40625 52.3125 
L 25.40625 12.28125 
L 25.40625 9.375 
C 25.40625 5.1875 24.5 4.6875 16.5 4.6875 
L 10 4.6875 
L 10 0 
L 49.59375 0 
L 49.59375 4.6875 
L 44.09375 4.6875 
C 38.796875 4.6875 36.59375 5.09375 35.796875 6.09375 
C 35.09375 6.78125 35.09375 6.78125 35.09375 12.3125 
L 35.09375 53.671875 
C 35.09375 58.578125 35.296875 63.375 35.796875 70.5 
z
" id="Century_Schoolbook_L_Roman-49"/>
       <path d="M 3 72 
L 3 67.3125 
L 4.796875 67.3125 
C 12.90625 67.3125 13.796875 66.8125 13.796875 62.609375 
L 13.796875 59.734375 
L 13.796875 12.28125 
L 13.796875 9.375 
C 13.796875 5.1875 12.90625 4.6875 4.796875 4.6875 
L 3 4.6875 
L 3 0 
L 39.296875 0 
C 56.59375 0 67 7.40625 67 19.59375 
C 67 29.484375 60.59375 35.296875 47 37.6875 
C 51.796875 38.6875 54 39.578125 56.5 41.46875 
C 60.703125 44.546875 63.203125 49.421875 63.203125 54.5 
C 63.203125 60.859375 59.203125 67.125 53.40625 69.609375 
C 49.796875 71.203125 44.796875 72 38.90625 72 
z
M 25 39.6875 
L 25 62.328125 
C 25 66.203125 26.40625 67.3125 31.59375 67.3125 
L 35.59375 67.3125 
C 40.203125 67.3125 44 66.609375 46.09375 65.21875 
C 49.703125 63.03125 51.59375 58.75 51.59375 53.203125 
C 51.59375 43.46875 46.703125 39.6875 33.90625 39.6875 
z
M 25 35 
L 33.796875 35 
C 40.203125 35 44.5 34.390625 47.5 33.09375 
C 52.203125 30.890625 54.703125 26.5 54.703125 19.890625 
C 54.703125 13.59375 52.5 8.890625 48.59375 6.984375 
C 45.5 5.390625 41.296875 4.6875 35 4.6875 
L 30.796875 4.6875 
C 25.703125 4.6875 25 5.484375 25 11 
z
" id="Century_Schoolbook_L_Roman-66"/>
       <path d="M 16.40625 59.703125 
C 21.796875 58.40625 24.59375 58 28.5 58 
C 37 58 43.203125 61 46.5 66.484375 
C 47.59375 68.390625 48 69.28125 48 70.078125 
C 48 70.6875 47.703125 70.984375 47.203125 70.984375 
C 46.90625 70.984375 46.40625 70.875 45.90625 70.578125 
C 41 68.484375 38.296875 67.984375 32.59375 67.984375 
C 26.203125 67.984375 22.5 68.484375 12 70.984375 
C 11.59375 62.625 10.703125 51.984375 9.296875 39.65625 
C 7.203125 37.46875 6.5 36.171875 6.5 34.578125 
C 6.5 32.59375 7.796875 31.203125 9.703125 31.203125 
C 12.203125 31.203125 13.796875 33.328125 14.203125 37.359375 
C 17.703125 39.890625 21 41 25 41 
C 33.90625 41 39.296875 34.03125 39.296875 22.5 
C 39.296875 15.734375 37.59375 9.953125 34.59375 6.828125 
C 32.59375 4.703125 28.5 3.296875 24.40625 3.296875 
C 18.40625 3.296875 12.203125 6.421875 12.203125 9.5625 
C 12.203125 10.28125 12.796875 11.078125 14 11.78125 
C 17.09375 13.703125 18 15.03125 18 17.75 
C 18 21.296875 15.296875 24.015625 11.703125 24.015625 
C 7.703125 24.015625 4.5 20.28125 4.5 15.546875 
C 4.5 10.5 7.40625 5.453125 11.90625 2.328125 
C 15.296875 0.109375 19.40625 -1 24.59375 -1 
C 40.296875 -1 50.203125 8.28125 50.203125 23.109375 
C 50.203125 36.828125 41.09375 46 27.59375 46 
C 23.40625 46 20.203125 45.296875 14.703125 43 
z
" id="Century_Schoolbook_L_Roman-53"/>
       <path d="M 4.203125 27.28125 
L 4.203125 19 
L 29.09375 19 
L 29.09375 27.28125 
z
" id="Century_Schoolbook_L_Roman-45"/>
       <path d="M 38 0 
L 55.40625 0 
L 55.40625 4.703125 
L 53.59375 4.703125 
C 48.203125 4.703125 47.40625 5.703125 47.40625 11.96875 
L 47.40625 73.78125 
L 27.796875 73.78125 
L 27.796875 69 
L 33.703125 69 
C 37.296875 69 38 68.28125 38 63.921875 
L 38 41 
C 34.296875 46.09375 30 48.390625 24.203125 48.390625 
C 12.90625 48.390625 4.296875 37.546875 4.296875 23.203125 
C 4.296875 9.0625 12.59375 -1 24.203125 -1 
C 30.5 -1 34.796875 1.671875 38 7.59375 
z
M 26.203125 43 
C 30.296875 43 34.203125 40.03125 36 35.4375 
C 37.203125 32.453125 37.90625 28.28125 37.90625 23.515625 
C 37.90625 11.96875 33.296875 4.390625 26.09375 4.390625 
C 19.09375 4.390625 14.796875 10.96875 14.796875 22.015625 
C 14.796875 27.890625 15.40625 32.359375 16.703125 35.734375 
C 18.40625 40.125 22.09375 43 26.203125 43 
" id="Century_Schoolbook_L_Roman-100"/>
      </defs>
      <g transform="translate(195.083745942 187.486776813)scale(0.12 -0.12)">
       <use transform="scale(0.9962640099626402)" xlink:href="#Century_Schoolbook_L_Roman-45"/>
       <use transform="translate(33.17522972933531 0.0)scale(0.9962640099626402)" xlink:href="#Century_Schoolbook_L_Roman-49"/>
       <use transform="translate(88.56690669267591 0.0)scale(0.9962640099626402)" xlink:href="#Century_Schoolbook_L_Roman-53"/>
       <use transform="translate(143.95858365601651 0.0)scale(0.9962640099626402)" xlink:href="#Century_Schoolbook_L_Roman-100"/>
       <use transform="translate(201.1440709400296 0.0)scale(0.9962640099626402)" xlink:href="#Century_Schoolbook_L_Roman-66"/>
      </g>
     </g>
    </g>
    <g id="ytick_2">
     <g id="line2d_9">
      <path clip-path="url(#pc185d1b185)" d="M 248.716221 189.758212 
L 248.68355 187.886466 
L 248.585575 186.017 
L 248.194274 182.294014 
L 247.544223 178.607393 
L 246.63859 174.975098 
L 245.481787 171.414825 
L 244.07945 167.943919 
L 242.438411 164.57929 
L 240.566665 161.33733 
L 238.47333 158.233834 
L 236.168606 155.283921 
L 233.66372 152.501964 
L 230.970877 149.901515 
L 228.103195 147.495244 
L 225.074646 145.294875 
L 221.899984 143.311126 
L 218.594676 141.553662 
L 215.174825 140.031047 
L 211.657092 138.750697 
L 208.058616 137.71885 
L 204.396928 136.940534 
L 200.689866 136.419541 
L 196.955492 136.158408 
L 193.212 136.158408 
L 189.477626 136.419541 
L 185.770564 136.940534 
L 182.108876 137.71885 
L 178.5104 138.750697 
L 174.992667 140.031047 
L 171.572816 141.553662 
L 168.267508 143.311126 
L 165.092846 145.294875 
L 162.064297 147.495244 
L 159.196615 149.901515 
L 156.503772 152.501964 
L 153.998886 155.283921 
L 151.694162 158.233834 
L 149.600827 161.33733 
L 147.729081 164.57929 
L 146.088042 167.943919 
L 144.685704 171.414825 
L 143.528902 174.975098 
L 142.623269 178.607393 
L 141.973218 182.294014 
L 141.581916 186.017 
L 141.45127 189.758212 
L 141.581916 193.499424 
L 141.973218 197.22241 
L 142.623269 200.909031 
L 143.528902 204.541326 
L 144.685704 208.101599 
L 146.088042 211.572505 
L 147.729081 214.937134 
L 149.600827 218.179094 
L 151.694162 221.28259 
L 153.998886 224.232503 
L 156.503772 227.01446 
L 159.196615 229.614909 
L 162.064297 232.021179 
L 165.092846 234.221549 
L 168.267508 236.205298 
L 171.572816 237.962762 
L 174.992667 239.485377 
L 178.5104 240.765727 
L 182.108876 241.797574 
L 185.770564 242.57589 
L 189.477626 243.096883 
L 193.212 243.358016 
L 196.955492 243.358016 
L 200.689866 243.096883 
L 204.396928 242.57589 
L 208.058616 241.797574 
L 211.657092 240.765727 
L 215.174825 239.485377 
L 218.594676 237.962762 
L 221.899984 236.205298 
L 225.074646 234.221549 
L 228.103195 232.021179 
L 230.970877 229.614909 
L 233.66372 227.01446 
L 236.168606 224.232503 
L 238.47333 221.28259 
L 240.566665 218.179094 
L 242.438411 214.937134 
L 244.07945 211.572505 
L 245.481787 208.101599 
L 246.63859 204.541326 
L 247.544223 200.909031 
L 248.194274 197.22241 
L 248.585575 193.499424 
L 248.716221 189.758212 
L 248.716221 189.758212 
" style="fill:none;stroke:#000000;stroke-dasharray:1.000000,3.000000;stroke-dashoffset:0.0;stroke-width:0.5;"/>
     </g>
     <g id="text_6">
      <!-- -10dB -->
      <defs>
       <path d="M 28.40625 71 
C 14.40625 71 4.203125 55.6875 4.203125 34.75 
C 4.203125 14.125 14.09375 -1 27.59375 -1 
C 41.59375 -1 51.40625 13.625 51.40625 34.4375 
C 51.40625 45.0625 49.203125 53.875 45 60.78125 
C 41.09375 67.09375 34.703125 71 28.40625 71 
M 27.703125 66.703125 
C 31 66.703125 34.203125 64.5 36.59375 60.5 
C 39.296875 55.875 40.203125 49.96875 40.203125 36.25 
C 40.203125 22.21875 39.5 15.625 37.5 11.203125 
C 35.203125 6.296875 31.59375 3.296875 27.796875 3.296875 
C 24.5 3.296875 21.296875 5.5 18.90625 9.5 
C 16.09375 14.21875 15.296875 20.53125 15.296875 36.859375 
C 15.296875 48.484375 16 54.375 18 58.6875 
C 20.296875 63.796875 23.90625 66.703125 27.703125 66.703125 
" id="Century_Schoolbook_L_Roman-48"/>
      </defs>
      <g transform="translate(244.633692332 166.962517004)scale(0.12 -0.12)">
       <use transform="scale(0.9962640099626402)" xlink:href="#Century_Schoolbook_L_Roman-45"/>
       <use transform="translate(33.17522972933531 0.0)scale(0.9962640099626402)" xlink:href="#Century_Schoolbook_L_Roman-49"/>
       <use transform="translate(88.56690669267591 0.0)scale(0.9962640099626402)" xlink:href="#Century_Schoolbook_L_Roman-48"/>
       <use transform="translate(143.95858365601651 0.0)scale(0.9962640099626402)" xlink:href="#Century_Schoolbook_L_Roman-100"/>
       <use transform="translate(201.1440709400296 0.0)scale(0.9962640099626402)" xlink:href="#Century_Schoolbook_L_Roman-66"/>
      </g>
     </g>
    </g>
    <g id="ytick_3">
     <g id="line2d_10">
      <path clip-path="url(#pc185d1b185)" d="M 302.348697 189.758212 
L 302.283354 186.014719 
L 302.087405 182.275787 
L 301.761088 178.545971 
L 301.304802 174.829816 
L 300.719101 171.131849 
L 300.0047 167.456575 
L 299.162469 163.808472 
L 298.193435 160.191984 
L 297.098777 156.611519 
L 295.879829 153.071438 
L 294.538077 149.576054 
L 293.075155 146.129626 
L 291.492845 142.736352 
L 289.793076 139.400368 
L 287.977918 136.125736 
L 286.049583 132.916448 
L 284.010421 129.776413 
L 281.862914 126.709456 
L 279.609681 123.719314 
L 277.253466 120.80963 
L 274.797139 117.98395 
L 272.243694 115.245716 
L 269.596242 112.598264 
L 266.858008 110.044819 
L 264.032327 107.588492 
L 261.122644 105.232277 
L 258.132502 102.979044 
L 255.065545 100.831537 
L 251.92551 98.792374 
L 248.716221 96.864039 
L 245.44159 95.048882 
L 242.105606 93.349113 
L 238.712332 91.766803 
L 235.265904 90.303881 
L 231.77052 88.962129 
L 228.230439 87.743181 
L 224.649973 86.648523 
L 221.033486 85.679488 
L 217.385383 84.837257 
L 213.710109 84.122857 
L 210.012142 83.537156 
L 206.295986 83.08087 
L 202.566171 82.754553 
L 198.827239 82.558604 
L 195.083746 82.493261 
L 191.340253 82.558604 
L 187.601321 82.754553 
L 183.871505 83.08087 
L 180.15535 83.537156 
L 176.457383 84.122857 
L 172.782109 84.837257 
L 169.134006 85.679488 
L 165.517518 86.648523 
L 161.937053 87.743181 
L 158.396972 88.962129 
L 154.901588 90.303881 
L 151.45516 91.766803 
L 148.061886 93.349113 
L 144.725902 95.048882 
L 141.45127 96.864039 
L 138.241982 98.792374 
L 135.101947 100.831537 
L 132.03499 102.979044 
L 129.044848 105.232277 
L 126.135164 107.588492 
L 123.309484 110.044819 
L 120.57125 112.598264 
L 117.923798 115.245716 
L 115.370353 117.98395 
L 112.914026 120.80963 
L 110.557811 123.719314 
L 108.304578 126.709456 
L 106.157071 129.776413 
L 104.117908 132.916448 
L 102.189573 136.125736 
L 100.374416 139.400368 
L 98.674647 142.736352 
L 97.092337 146.129626 
L 95.629415 149.576054 
L 94.287663 153.071438 
L 93.068715 156.611519 
L 91.974057 160.191984 
L 91.005022 163.808472 
L 90.162791 167.456575 
L 89.448391 171.131849 
L 88.86269 174.829816 
L 88.406404 178.545971 
L 88.080087 182.275787 
L 87.884138 186.014719 
L 87.818795 189.758212 
L 87.884138 193.501705 
L 88.080087 197.240637 
L 88.406404 200.970452 
L 88.86269 204.686608 
L 89.448391 208.384575 
L 90.162791 212.059849 
L 91.005022 215.707952 
L 91.974057 219.324439 
L 93.068715 222.904905 
L 94.287663 226.444986 
L 95.629415 229.94037 
L 97.092337 233.386798 
L 98.674647 236.780072 
L 100.374416 240.116056 
L 102.189573 243.390687 
L 104.117908 246.599976 
L 106.157071 249.740011 
L 108.304578 252.806968 
L 110.557811 255.79711 
L 112.914026 258.706793 
L 115.370353 261.532474 
L 117.923798 264.270708 
L 120.57125 266.91816 
L 123.309484 269.471605 
L 126.135164 271.927932 
L 129.044848 274.284147 
L 132.03499 276.53738 
L 135.101947 278.684887 
L 138.241982 280.724049 
L 141.45127 282.652384 
L 144.725902 284.467542 
L 148.061886 286.167311 
L 151.45516 287.749621 
L 154.901588 289.212543 
L 158.396972 290.554295 
L 161.937053 291.773243 
L 165.517518 292.867901 
L 169.134006 293.836935 
L 172.782109 294.679166 
L 176.457383 295.393567 
L 180.15535 295.979268 
L 183.871505 296.435554 
L 187.601321 296.761871 
L 191.340253 296.95782 
L 195.083746 297.023163 
L 198.827239 296.95782 
L 202.566171 296.761871 
L 206.295986 296.435554 
L 210.012142 295.979268 
L 213.710109 295.393567 
L 217.385383 294.679166 
L 221.033486 293.836935 
L 224.649973 292.867901 
L 228.230439 291.773243 
L 231.77052 290.554295 
L 235.265904 289.212543 
L 238.712332 287.749621 
L 242.105606 286.167311 
L 245.44159 284.467542 
L 248.716221 282.652384 
L 251.92551 280.724049 
L 255.065545 278.684887 
L 258.132502 276.53738 
L 261.122644 274.284147 
L 264.032327 271.927932 
L 266.858008 269.471605 
L 269.596242 266.91816 
L 272.243694 264.270708 
L 274.797139 261.532474 
L 277.253466 258.706793 
L 279.609681 255.79711 
L 281.862914 252.806968 
L 284.010421 249.740011 
L 286.049583 246.599976 
L 287.977918 243.390687 
L 289.793076 240.116056 
L 291.492845 236.780072 
L 293.075155 233.386798 
L 294.538077 229.94037 
L 295.879829 226.444986 
L 297.098777 222.904905 
L 298.193435 219.324439 
L 299.162469 215.707952 
L 300.0047 212.059849 
L 300.719101 208.384575 
L 301.304802 204.686608 
L 301.761088 200.970452 
L 302.087405 197.240637 
L 302.283354 193.501705 
L 302.348697 189.758212 
L 302.348697 189.758212 
" style="fill:none;stroke:#000000;stroke-dasharray:1.000000,3.000000;stroke-dashoffset:0.0;stroke-width:0.5;"/>
     </g>
     <g id="text_7">
      <!-- -5dB -->
      <g transform="translate(294.183638722 146.438257194)scale(0.12 -0.12)">
       <use transform="scale(0.9962640099626402)" xlink:href="#Century_Schoolbook_L_Roman-45"/>
       <use transform="translate(33.17522972933531 0.0)scale(0.9962640099626402)" xlink:href="#Century_Schoolbook_L_Roman-53"/>
       <use transform="translate(88.56690669267591 0.0)scale(0.9962640099626402)" xlink:href="#Century_Schoolbook_L_Roman-100"/>
       <use transform="translate(145.752393976689 0.0)scale(0.9962640099626402)" xlink:href="#Century_Schoolbook_L_Roman-66"/>
      </g>
     </g>
    </g>
   </g>
   <g id="legend_1">
    <g id="patch_4">
     <path d="M 298.940325 74.715984 
L 355.981172 74.715984 
L 355.981172 28.860785 
L 298.940325 28.860785 
z
" style="fill:#ffffff;stroke:#000000;stroke-linejoin:miter;"/>
    </g>
    <g id="line2d_11">
     <path d="M 305.940325 36.752987 
L 319.940325 36.752987 
" style="fill:none;stroke:#0000ff;stroke-linecap:square;"/>
    </g>
    <g id="line2d_12"/>
    <g id="text_8">
     <!-- 25th %ile -->
     <defs>
      <path d="M 19.40625 47 
L 19.40625 67 
L 15.296875 67 
C 14.296875 53.875 9.90625 47.1875 1.796875 46.59375 
L 1.796875 42.703125 
L 10 42.703125 
L 10 17.265625 
C 10 10.28125 10.203125 7.78125 11.203125 5.484375 
C 12.796875 1.296875 16.796875 -1 22.59375 -1 
C 26.5 -1 29.90625 0.203125 32.203125 2.390625 
C 35.5 5.59375 37.40625 10.875 37.40625 16.375 
C 37.40625 16.96875 37.40625 17.671875 37.296875 18.671875 
L 33.09375 18.671875 
C 32.796875 9.6875 30.203125 5.09375 25.296875 5.09375 
C 23 5.09375 21 6.28125 20.296875 7.984375 
C 19.703125 9.375 19.40625 11.875 19.40625 15.46875 
L 19.40625 42.703125 
L 34.09375 42.703125 
L 34.09375 47 
z
" id="Century_Schoolbook_L_Roman-116"/>
      <path d="M 20 73 
L 1.5 73 
L 1.5 68.21875 
L 6.296875 68.21875 
C 10 68.21875 10.59375 67.515625 10.59375 63.21875 
L 10.59375 12.28125 
L 10.59375 8.28125 
C 10.59375 4.296875 9.5 3.59375 3.09375 3.59375 
L 2.703125 3.59375 
L 2.703125 0 
L 28 0 
L 28 3.59375 
L 27.59375 3.59375 
C 21.09375 3.59375 20 4.296875 20 8.28125 
L 20 12.28125 
L 20 22.5625 
C 20 27.546875 20.703125 32.03125 21.796875 34.328125 
C 23.90625 38.828125 28.40625 41.921875 32.703125 41.921875 
C 35.296875 41.921875 38.296875 40.421875 39.796875 38.421875 
C 41.296875 36.234375 42 33.234375 42 28.34375 
L 42 12.28125 
L 42 8.28125 
C 42 4.296875 40.90625 3.59375 34.40625 3.59375 
L 34 3.59375 
L 34 0 
L 59.296875 0 
L 59.296875 3.59375 
L 58.90625 3.59375 
C 52.5 3.59375 51.40625 4.296875 51.40625 8.28125 
L 51.40625 12.28125 
L 51.40625 27.953125 
C 51.40625 35.125 51.09375 36.921875 49.296875 40.328125 
C 46.796875 45.109375 41.796875 48 35.796875 48 
C 29.40625 48 24.5 45.015625 20 38.328125 
z
" id="Century_Schoolbook_L_Roman-104"/>
      <path d="M 50.5 21.5625 
L 46.09375 21.5625 
L 45.09375 16.46875 
C 43.796875 10.078125 43 9.375 36.796875 9.375 
L 14.40625 9.375 
C 21.296875 16.5625 23.59375 18.65625 30 23.65625 
C 39.09375 30.65625 43 34.15625 45.296875 37.140625 
C 48.5 41.53125 50.09375 46.03125 50.09375 50.8125 
C 50.09375 62.109375 40.59375 70.296875 27.59375 70.296875 
C 14.90625 70.296875 5.09375 62.109375 5.09375 51.515625 
C 5.09375 45.234375 8.296875 40.9375 13.09375 40.9375 
C 16.796875 40.9375 19.296875 43.4375 19.296875 47.03125 
C 19.296875 49.53125 17.90625 51.828125 15.703125 52.734375 
C 12 54.328125 11.796875 54.421875 11.796875 55.71875 
C 11.796875 57.21875 12.796875 59.515625 14.203125 61.21875 
C 16.703125 64.203125 20.90625 66 25.59375 66 
C 33.796875 66 38.796875 60.90625 38.796875 52.53125 
C 38.796875 45.125 35.296875 38.4375 27 29.65625 
L 21.09375 23.46875 
C 17.59375 19.78125 15 16.96875 13.296875 15.078125 
C 9.703125 10.875 7.90625 8.578125 3.5 2.796875 
L 3.5 0 
L 48.59375 0 
z
" id="Century_Schoolbook_L_Roman-50"/>
     </defs>
     <g transform="translate(330.940324637 40.2529865636)scale(0.1 -0.1)">
      <use transform="scale(0.9962640099626402)" xlink:href="#Century_Schoolbook_L_Roman-50"/>
      <use transform="translate(55.3916769633406 0.0)scale(0.9962640099626402)" xlink:href="#Century_Schoolbook_L_Roman-53"/>
      <use transform="translate(110.7833539266812 0.0)scale(0.9962640099626402)" xlink:href="#Century_Schoolbook_L_Roman-116"/>
      <use transform="translate(149.5370601212251 0.0)scale(0.9962640099626402)" xlink:href="#Century_Schoolbook_L_Roman-104"/>
     </g>
    </g>
    <g id="line2d_13">
     <path d="M 305.940325 51.038053 
L 319.940325 51.038053 
" style="fill:none;stroke:#008000;stroke-linecap:square;"/>
    </g>
    <g id="line2d_14"/>
    <g id="text_9">
     <!-- 50th %ile -->
     <g transform="translate(330.940324637 54.538052819)scale(0.1 -0.1)">
      <use transform="scale(0.9962640099626402)" xlink:href="#Century_Schoolbook_L_Roman-53"/>
      <use transform="translate(55.3916769633406 0.0)scale(0.9962640099626402)" xlink:href="#Century_Schoolbook_L_Roman-48"/>
      <use transform="translate(110.7833539266812 0.0)scale(0.9962640099626402)" xlink:href="#Century_Schoolbook_L_Roman-116"/>
      <use transform="translate(149.5370601212251 0.0)scale(0.9962640099626402)" xlink:href="#Century_Schoolbook_L_Roman-104"/>
     </g>
    </g>
    <g id="line2d_15">
     <path d="M 305.940325 65.323119 
L 319.940325 65.323119 
" style="fill:none;stroke:#ff0000;stroke-linecap:square;"/>
    </g>
    <g id="line2d_16"/>
    <g id="text_10">
     <!-- 75th %ile -->
     <defs>
      <path d="M 5.90625 46.171875 
L 10.296875 45.484375 
L 12.09375 53.40625 
C 13.59375 60.015625 14.296875 61 17.203125 61 
C 17.703125 61 18.59375 61 19.40625 60.609375 
C 25.203125 60.609375 32.40625 60.609375 36.5 60.609375 
C 37.90625 60.609375 40 60.609375 42.703125 60.609375 
L 35.90625 46.84375 
C 28.40625 31.859375 27.59375 30.15625 25.09375 24.03125 
C 22.09375 16.484375 20.40625 10.15625 20.40625 5.921875 
C 20.40625 1.40625 22.796875 -1.5 26.703125 -1.5 
C 31.5 -1.5 33.40625 1.796875 33.296875 10.421875 
C 32.796875 24.734375 34.703125 31.84375 45.296875 55.265625 
C 46.796875 58.484375 48.296875 61.59375 49.796875 64.6875 
C 49.90625 64.890625 50.203125 65.796875 50.796875 67.09375 
L 50.796875 69.984375 
C 44.59375 69.890625 41.296875 69.890625 35.203125 69.890625 
C 26.703125 69.890625 19.90625 69.890625 9 69.890625 
z
" id="Century_Schoolbook_L_Roman-55"/>
     </defs>
     <g transform="translate(330.940324637 68.8231190745)scale(0.1 -0.1)">
      <use transform="scale(0.9962640099626402)" xlink:href="#Century_Schoolbook_L_Roman-55"/>
      <use transform="translate(55.3916769633406 0.0)scale(0.9962640099626402)" xlink:href="#Century_Schoolbook_L_Roman-53"/>
      <use transform="translate(110.7833539266812 0.0)scale(0.9962640099626402)" xlink:href="#Century_Schoolbook_L_Roman-116"/>
      <use transform="translate(149.5370601212251 0.0)scale(0.9962640099626402)" xlink:href="#Century_Schoolbook_L_Roman-104"/>
     </g>
    </g>
   </g>
  </g>
 </g>
 <defs>
  <clipPath id="pc185d1b185">
   <path d="M 195.083746 350.655638 
C 237.754242 350.655638 278.68281 333.702471 308.855407 303.529873 
C 339.028005 273.357276 355.981172 232.428708 355.981172 189.758212 
C 355.981172 147.087716 339.028005 106.159148 308.855407 75.986551 
C 278.68281 45.813953 237.754242 28.860785 195.083746 28.860785 
C 152.41325 28.860785 111.484682 45.813953 81.312085 75.986551 
C 51.139487 106.159148 34.186319 147.087716 34.186319 189.758212 
C 34.186319 232.428708 51.139487 273.357276 81.312085 303.529873 
C 111.484682 333.702471 152.41325 350.655638 195.083746 350.655638 
z
"/>
  </clipPath>
 </defs>
</svg>
