<?xml version="1.0" encoding="utf-8" standalone="no"?>
<!DOCTYPE svg PUBLIC "-//W3C//DTD SVG 1.1//EN"
  "http://www.w3.org/Graphics/SVG/1.1/DTD/svg11.dtd">
<!-- Created with matplotlib (http://matplotlib.org/) -->
<svg height="379pt" version="1.1" viewBox="0 0 384 379" width="384pt" xmlns="http://www.w3.org/2000/svg" xmlns:xlink="http://www.w3.org/1999/xlink">
 <defs>
  <style type="text/css">
*{stroke-linecap:butt;stroke-linejoin:round;stroke-miterlimit:100000;}
  </style>
 </defs>
 <g id="figure_1">
  <g id="patch_1">
   <path d="M 0 379.516424 
L 384.314502 379.516424 
L 384.314502 0 
L 0 0 
z
" style="fill:#ffffff;"/>
  </g>
  <g id="axes_1">
   <g id="patch_2">
    <path d="M 195.083746 350.655638 
C 237.754242 350.655638 278.68281 333.702471 308.855407 303.529873 
C 339.028005 273.357276 355.981172 232.428708 355.981172 189.758212 
C 355.981172 147.087716 339.028005 106.159148 308.855407 75.986551 
C 278.68281 45.813953 237.754242 28.860785 195.083746 28.860785 
C 152.41325 28.860785 111.484682 45.813953 81.312085 75.986551 
C 51.139487 106.159148 34.186319 147.087716 34.186319 189.758212 
C 34.186319 232.428708 51.139487 273.357276 81.312085 303.529873 
C 111.484682 333.702471 152.41325 350.655638 195.083746 350.655638 
z
" style="fill:#ffffff;"/>
   </g>
   <g id="line2d_1">
    <path clip-path="url(#p6bf3b21428)" d="M 252.667208 189.758212 
L 250.337301 189.080115 
L 242.142906 188.602974 
L 225.835784 188.625547 
L 200.079751 189.512774 
M 189.736531 189.49552 
L 164.579902 188.634688 
L 148.070624 188.604105 
L 139.823907 189.080041 
L 137.500288 189.758217 
L 139.830155 190.436303 
L 148.024502 190.913448 
L 164.331636 190.890878 
L 190.087709 190.003651 
M 200.431231 190.020917 
L 225.587805 190.881741 
L 242.096959 190.912317 
L 250.343622 190.436379 
L 250.343622 190.436379 
" style="fill:none;stroke:#0000ff;stroke-linecap:square;"/>
   </g>
   <g id="line2d_2">
    <path clip-path="url(#p6bf3b21428)" d="M 258.853881 189.758212 
L 255.511073 189.01662 
L 247.589185 188.469276 
L 235.264205 188.278278 
L 217.800791 188.642195 
L 201.315362 189.29854 
L 203.159819 188.962788 
L 202.774038 188.905375 
L 202.462031 188.848187 
L 204.128493 188.529788 
L 203.664313 188.377587 
L 203.632572 188.27485 
L 203.22122 188.139568 
L 200.001801 188.59025 
L 202.187545 187.792326 
L 202.43215 187.627214 
L 202.18953 187.602696 
L 200.597893 187.936584 
L 201.719964 187.383735 
L 200.677988 187.600275 
L 202.518138 186.678786 
L 202.45648 186.597778 
L 202.503519 186.469253 
L 202.360435 186.425243 
L 203.712839 185.546609 
L 203.617045 185.330836 
L 200.982433 186.511609 
L 199.764058 187.106848 
L 200.796806 186.333936 
L 200.591795 186.364252 
L 199.491208 186.81324 
L 200.867341 185.684945 
L 199.864014 186.121154 
L 200.540846 185.279686 
L 201.383451 184.457477 
L 200.940963 184.705742 
L 201.501111 183.941852 
L 201.268895 184.012503 
L 199.425185 185.522041 
L 199.507229 185.334728 
L 200.448021 184.260635 
L 200.268235 184.312773 
L 200.368698 184.06906 
L 199.732197 184.629437 
L 199.939855 184.266362 
L 199.821081 184.266324 
L 199.806404 184.145527 
L 199.306549 184.347189 
L 198.611596 185.121479 
L 200.067582 182.863025 
L 200.266089 182.399851 
L 199.196116 183.764177 
L 199.439473 183.239405 
L 198.089103 184.744077 
L 198.078018 184.472582 
L 198.77273 182.856609 
L 198.052226 184.036781 
L 198.062707 183.840032 
L 198.374615 182.800255 
L 198.025968 183.334619 
L 197.34918 184.647474 
L 198.097647 182.482011 
L 198.048174 182.345439 
L 197.430451 183.444951 
L 197.624322 182.657777 
L 197.049649 184.043751 
L 197.08267 183.707382 
L 197.119679 183.331627 
L 197.488044 181.467376 
L 197.459706 181.172597 
L 197.132891 181.983627 
L 197.208002 181.277708 
L 197.004278 181.671234 
L 196.789342 181.183601 
L 196.389437 182.233328 
L 196.434796 180.650175 
L 196.249185 181.177212 
L 196.169761 180.953034 
L 195.938814 182.047806 
L 195.884542 181.627597 
L 195.777317 181.704184 
L 195.390974 183.504444 
L 195.32054 183.329199 
L 195.19829 180.424794 
L 195.083746 180.238785 
L 194.916328 182.938344 
L 194.814482 182.447658 
L 194.577072 181.51107 
L 194.607448 183.301199 
L 194.492614 182.893756 
L 194.252945 181.322941 
L 194.390933 184.657103 
L 194.134797 183.360917 
L 194.126838 183.811042 
L 193.197398 180.274901 
L 193.196574 180.843915 
L 193.398773 182.254687 
L 193.289689 182.203793 
L 193.225516 182.339741 
L 192.811335 181.546772 
L 192.819408 182.293692 
L 192.839628 182.674473 
L 192.651549 182.395846 
L 192.110205 181.44772 
L 191.930449 181.275002 
L 192.079065 182.504271 
L 192.340193 183.357987 
L 191.495358 182.171203 
L 191.261308 181.926475 
L 191.782783 183.582543 
L 192.855027 185.823972 
L 191.313307 183.467614 
L 191.207845 183.468023 
L 191.378678 183.907271 
L 190.795213 183.166262 
L 191.158217 183.883242 
L 189.870797 182.356393 
L 190.383344 183.25516 
L 189.685628 182.663345 
L 190.150672 183.437061 
L 189.916921 183.302467 
L 190.860644 184.612347 
L 189.94338 183.7991 
L 190.257913 184.300602 
L 189.38527 183.470914 
L 189.32599 183.560094 
L 190.115204 184.666202 
L 189.317826 184.1321 
L 188.678392 183.659809 
L 189.270453 184.48935 
L 190.483785 185.690745 
L 189.963604 185.341547 
L 190.056069 185.527794 
L 189.279242 185.112604 
L 189.875384 185.795439 
L 188.577089 185.055205 
L 189.310726 185.797476 
L 189.375314 185.943961 
L 188.718187 185.616961 
L 189.135902 186.193211 
L 189.771062 186.661887 
L 189.512842 186.602334 
L 190.234596 187.166287 
L 189.459836 186.927373 
L 190.705538 187.687474 
L 190.335267 187.583249 
L 188.314455 186.856452 
L 188.327306 186.959602 
L 187.896685 186.884047 
L 186.452498 186.428772 
L 187.127342 186.800734 
L 186.838275 186.807936 
L 187.199149 187.045733 
L 187.063581 187.108706 
L 188.305313 187.701997 
L 187.469947 187.65119 
L 187.653003 187.799694 
L 189.03842 188.243937 
L 188.625571 188.224495 
L 188.923134 188.3748 
L 188.350622 188.332798 
L 188.588376 188.466203 
L 189.419885 188.775439 
L 187.367261 188.710187 
L 188.21093 188.910531 
L 187.304921 188.992065 
L 187.984167 189.146833 
L 189.505621 189.346745 
L 172.459102 188.646733 
L 155.197477 188.289113 
L 142.382078 188.46446 
L 134.515999 189.0149 
L 131.313612 189.758218 
L 134.656358 190.499798 
L 142.578218 191.047146 
L 154.903247 191.238145 
L 172.366678 190.87423 
L 188.852164 190.217881 
L 187.007569 190.553645 
L 187.393332 190.611062 
L 187.705472 190.668235 
L 186.038999 190.986636 
L 186.503151 191.138842 
L 186.534888 191.24158 
L 186.946262 191.376858 
L 190.165705 190.92617 
L 187.980006 191.724081 
L 187.735361 191.889204 
L 187.97796 191.913728 
L 189.569603 191.579839 
L 188.447512 192.132695 
L 189.489544 191.916133 
L 187.649353 192.837639 
L 187.711002 192.91865 
L 187.664036 193.047144 
L 187.807099 193.091162 
L 186.454647 193.969818 
L 186.550447 194.185588 
L 189.18514 193.00477 
L 190.403511 192.409533 
L 189.370694 193.182483 
L 189.575716 193.152161 
L 190.676335 192.70315 
L 189.299949 193.831621 
L 190.303483 193.395266 
L 189.626616 194.236761 
L 188.784104 195.058893 
L 189.226558 194.810657 
L 188.666381 195.574573 
L 188.898606 195.503914 
L 190.742322 193.994367 
L 190.660217 194.18174 
L 189.71955 195.255707 
L 189.899254 195.203654 
L 189.798794 195.447364 
L 190.435238 194.887051 
L 190.227637 195.250062 
L 190.3464 195.250111 
L 190.361034 195.37096 
L 190.860998 195.169164 
L 191.555894 194.394949 
L 190.099837 196.653502 
L 189.901314 197.116702 
L 190.971385 195.752237 
L 190.727992 196.277054 
L 192.078389 194.772346 
L 192.089474 195.043842 
L 191.394801 196.659744 
L 192.115224 195.479726 
L 192.104734 195.676493 
L 191.792873 196.716181 
L 192.141571 196.181705 
L 192.818388 194.868774 
L 192.06988 197.034326 
L 192.119403 197.170768 
L 192.737025 196.071514 
L 192.54317 196.858646 
L 193.117838 195.472686 
L 193.084854 195.808947 
L 193.047802 196.184835 
L 192.679413 198.049174 
L 192.707785 198.343837 
L 193.034655 197.5326 
L 192.959509 198.238632 
L 193.16324 197.845076 
L 193.378148 198.332828 
L 193.778054 197.283098 
L 193.732704 198.866204 
L 193.918309 198.3392 
L 193.997738 198.563343 
L 194.22867 197.468705 
L 194.282939 197.888954 
L 194.390165 197.812324 
L 194.77651 196.012134 
L 194.846955 196.187104 
L 194.969202 199.091642 
L 195.083746 199.277591 
L 195.251167 196.578186 
L 195.353012 197.06881 
L 195.590427 198.005442 
L 195.560044 196.215209 
L 195.67487 196.622604 
L 195.914536 198.193384 
L 195.77656 194.859329 
L 196.032695 196.155509 
L 196.040653 195.705381 
L 196.970079 199.241442 
L 196.970916 198.672496 
L 196.768676 197.261541 
L 196.877764 197.312459 
L 196.94199 197.176731 
L 197.356134 197.969573 
L 197.348109 197.222819 
L 197.327863 196.84195 
L 197.51594 197.120569 
L 198.05733 198.068821 
L 198.237023 198.241364 
L 198.088363 197.011996 
L 197.827321 196.158484 
L 198.672185 197.345332 
L 198.906227 197.590041 
L 198.384716 195.933894 
L 197.312489 193.692494 
L 198.854163 196.048772 
L 198.959639 196.048386 
L 198.788783 195.609102 
L 199.372354 196.350272 
L 199.009221 195.633103 
L 200.296695 197.160033 
L 199.7842 196.261338 
L 200.48183 196.853037 
L 200.016854 196.079406 
L 200.250568 196.213952 
L 199.306756 194.903964 
L 200.224038 195.717238 
L 199.909556 195.215795 
L 200.782245 196.045534 
L 200.841647 195.956483 
L 200.052335 194.850272 
L 200.849622 195.384282 
L 201.489059 195.856577 
L 200.897012 195.027049 
L 199.68363 193.82561 
L 200.203999 194.174972 
L 200.111424 193.988629 
L 200.888169 194.403754 
L 200.292023 193.720918 
L 201.590431 194.461241 
L 200.856899 193.719041 
L 200.792179 193.572466 
L 201.449398 193.899523 
L 201.031631 193.323236 
L 200.396512 192.854583 
L 200.654658 192.914093 
L 199.932629 192.349993 
L 200.707807 192.589128 
L 199.461977 191.828962 
L 199.83212 191.933128 
L 201.852989 192.65995 
L 201.840223 192.556836 
L 202.270803 192.632374 
L 203.714998 193.087652 
L 203.040238 192.715722 
L 203.329153 192.708464 
L 202.968435 192.470722 
L 203.104202 192.407811 
L 201.862175 191.814427 
L 202.69741 191.865198 
L 202.514424 191.716714 
L 201.129033 191.272478 
L 201.542049 191.291959 
L 201.244407 191.141635 
L 201.816757 191.183601 
L 201.579055 191.050209 
L 200.747637 190.740989 
L 202.800379 190.806258 
L 201.956606 190.6059 
L 202.862581 190.524361 
L 202.183294 190.369589 
L 200.661814 190.169675 
L 217.708581 190.869698 
L 234.970048 191.227309 
L 247.785448 191.051961 
L 255.651536 190.501519 
L 255.651536 190.501519 
" style="fill:none;stroke:#008000;stroke-linecap:square;"/>
   </g>
   <g id="line2d_3">
    <path clip-path="url(#p6bf3b21428)" d="M 264.289603 189.758212 
L 260.281934 188.95807 
L 252.873186 188.339561 
L 242.957052 187.994934 
L 229.81177 188.052133 
L 219.446978 188.261424 
L 217.775514 188.084367 
L 218.622373 187.731187 
L 216.880898 187.61138 
L 217.472909 187.2753 
L 219.294782 186.772066 
L 220.15783 186.038823 
L 220.237628 185.710918 
L 219.987267 185.437041 
L 219.1449 185.278376 
L 218.784439 185.043851 
L 216.490041 184.951268 
L 216.973988 184.55962 
L 216.375879 184.42481 
L 216.656707 184.072234 
L 216.596385 183.804863 
L 217.279678 183.321511 
L 217.246924 183.035085 
L 216.973393 182.823604 
L 216.537052 182.670997 
L 215.683529 182.671421 
L 215.48503 182.458516 
L 215.418382 182.199616 
L 215.108103 182.033965 
L 216.0499 181.373675 
L 215.532304 181.288142 
L 215.432596 181.03537 
L 217.423917 179.192098 
L 218.049275 178.198336 
L 216.382412 178.707714 
L 215.892804 178.635539 
L 215.7936 178.359631 
L 215.798343 178.023538 
L 215.586903 177.808616 
L 214.722967 177.986916 
L 214.262552 177.281029 
L 213.726332 177.301634 
L 213.88608 176.858363 
L 213.632234 176.694892 
L 213.492979 176.452032 
L 213.024721 176.452277 
L 213.203788 175.971611 
L 212.547324 176.129502 
L 212.134262 176.111909 
L 213.308371 174.801649 
L 212.370928 174.846187 
L 212.911102 173.994563 
L 212.679274 173.810555 
L 211.819219 174.211754 
L 211.565933 174.065865 
L 211.02817 174.200399 
L 210.764101 174.077856 
L 210.953851 173.493736 
L 210.497208 173.568948 
L 211.045923 172.146664 
L 210.382334 172.456798 
L 210.774264 171.568541 
L 210.576847 171.345299 
L 210.25153 171.276214 
L 209.341746 171.943406 
L 208.96226 171.974539 
L 209.241224 171.150718 
L 209.263527 170.638989 
L 208.806067 170.274015 
L 208.124809 170.750052 
L 207.740445 170.816124 
L 207.604589 170.512293 
L 207.253173 170.540587 
L 206.982854 170.447179 
L 206.283832 171.071999 
L 206.172757 170.18337 
L 205.91979 170.070418 
L 205.823882 169.664832 
L 205.602301 169.48481 
L 205.693077 168.681089 
L 205.042515 169.353837 
L 204.795578 169.224269 
L 204.850871 168.434178 
L 204.749077 167.953572 
L 203.741875 169.560329 
L 203.388703 168.99105 
L 202.991401 168.484515 
L 202.439966 169.198953 
L 202.347161 168.645017 
L 202.37274 167.694114 
L 202.233514 167.189395 
L 201.828971 166.498387 
L 201.442126 166.781978 
L 201.114141 166.878508 
L 200.833694 166.803137 
L 200.738761 165.946065 
L 200.33984 164.930365 
L 199.961125 165.237974 
L 199.107254 166.570161 
L 198.780063 166.785653 
L 198.498339 166.738897 
L 198.236136 166.547514 
L 197.908686 166.854193 
L 197.7 166.166662 
L 197.42881 165.948376 
L 197.123226 166.074945 
L 196.809704 166.359981 
L 196.490739 166.856582 
L 196.224885 166.529778 
L 195.916659 167.144442 
L 195.668043 165.956616 
L 195.383569 165.327635 
L 195.083745 165.148729 
L 194.79541 166.263567 
L 194.214196 166.149803 
L 193.956226 166.806996 
L 193.677905 166.87532 
L 193.078414 166.471514 
L 192.910457 167.69243 
L 192.615719 167.503264 
L 192.393313 167.944766 
L 191.825706 167.794287 
L 191.462062 167.249495 
L 190.567597 165.502016 
L 190.290675 165.661817 
L 190.17048 166.549768 
L 189.901198 166.679272 
L 189.683124 168.197724 
L 189.062967 166.915 
L 189.001082 167.778287 
L 188.518085 167.117584 
L 188.105657 166.754541 
L 187.797899 166.759848 
L 187.630236 167.196114 
L 186.867891 166.796432 
L 186.635666 167.030626 
L 185.992071 166.188932 
L 186.124036 167.353797 
L 186.089723 168.044717 
L 185.563469 167.549088 
L 185.855898 169.611552 
L 184.620955 168.321151 
L 184.36313 168.460008 
L 184.054093 168.499727 
L 184.253611 169.496449 
L 184.062337 169.733629 
L 184.242089 170.620009 
L 184.043731 170.815717 
L 183.622123 170.635651 
L 183.373698 170.754009 
L 182.661023 170.140592 
L 182.529274 170.460598 
L 181.42919 169.322722 
L 182.001241 170.689645 
L 180.847346 170.062011 
L 181.387005 171.290297 
L 180.566554 170.677941 
L 180.776879 171.425653 
L 180.416855 171.432508 
L 179.642294 170.942747 
L 179.551017 171.298204 
L 180.010271 172.283867 
L 179.619472 172.269425 
L 179.732413 172.82063 
L 179.174584 172.632293 
L 179.426185 173.312559 
L 178.94211 173.215457 
L 179.145835 173.820301 
L 178.334883 173.415466 
L 177.458633 173.385323 
L 177.637379 174.331449 
L 179.102315 175.972534 
L 178.675972 175.952286 
L 178.485753 176.136592 
L 177.94877 176.044314 
L 177.978746 176.409342 
L 177.447533 176.33973 
L 175.393849 175.526368 
L 175.105327 175.687823 
L 175.545079 176.353182 
L 176.396466 177.271773 
L 174.818086 177.270877 
L 174.65936 177.854526 
L 176.084494 178.99527 
L 176.328826 179.435618 
L 176.319873 179.72871 
L 175.676115 179.688847 
L 175.645804 179.973973 
L 175.285048 180.095057 
L 175.574867 180.82249 
L 174.309659 181.153302 
L 173.16565 180.992985 
L 173.242632 181.333164 
L 172.191903 181.249076 
L 172.720626 181.756561 
L 173.530573 182.343436 
L 173.507537 182.630393 
L 172.643072 182.950907 
L 173.398111 183.469494 
L 173.644654 183.825217 
L 173.574296 184.088975 
L 172.374506 184.365118 
L 172.974213 185.077587 
L 173.137864 185.67221 
L 172.157938 185.780209 
L 171.60897 185.981091 
L 171.590773 186.273356 
L 172.951328 187.028438 
L 173.145148 187.325268 
L 172.464582 187.53042 
L 171.97535 188.053637 
L 170.472626 188.246192 
L 159.560007 188.013041 
L 147.236911 187.995908 
L 137.328897 188.340411 
L 129.833306 188.957432 
L 125.877892 189.758218 
L 129.885485 190.558348 
L 137.294229 191.17686 
L 147.210387 191.52149 
L 160.355705 191.464291 
L 170.720549 191.254998 
L 172.391995 191.432057 
L 171.545041 191.785246 
L 173.286468 191.905054 
L 172.694556 192.241125 
L 170.87272 192.744356 
L 170.009657 193.477602 
L 169.929908 193.8055 
L 170.180274 194.079377 
L 171.022565 194.23805 
L 171.383121 194.472558 
L 173.677451 194.565156 
L 173.193488 194.956809 
L 173.791609 195.091616 
L 173.510707 195.444213 
L 173.571056 195.711573 
L 172.887784 196.19492 
L 172.920581 196.481334 
L 173.194099 196.69282 
L 173.630439 196.845428 
L 174.483967 196.845003 
L 174.68255 197.057879 
L 174.749192 197.316775 
L 175.059433 197.48244 
L 174.117591 198.142748 
L 174.635195 198.228279 
L 174.734892 198.481057 
L 172.743548 200.324336 
L 172.118181 201.318105 
L 173.78508 200.808711 
L 174.274646 200.880909 
L 174.373947 201.156764 
L 174.36926 201.492826 
L 174.580524 201.707843 
L 175.444531 201.529503 
L 175.904901 202.235421 
L 176.441168 202.214787 
L 176.281344 202.658106 
L 176.535237 202.821544 
L 176.674512 203.064391 
L 177.142771 203.064146 
L 176.963719 203.544802 
L 177.620202 203.386897 
L 178.033182 203.404556 
L 176.859099 204.71479 
L 177.796503 204.670289 
L 177.256389 205.52186 
L 177.488218 205.70587 
L 178.348355 205.304597 
L 178.601556 205.450564 
L 179.139309 205.316035 
L 179.403432 205.438524 
L 179.213642 206.022686 
L 179.670264 205.947499 
L 179.121575 207.369756 
L 179.78516 207.059627 
L 179.393267 207.947834 
L 179.590604 208.171171 
L 179.91599 208.240175 
L 180.825747 207.573019 
L 181.205246 207.541868 
L 180.926301 208.365666 
L 180.90395 208.877458 
L 181.361448 209.242386 
L 182.042596 208.766507 
L 182.426909 208.700498 
L 182.562827 209.004239 
L 182.914364 208.97576 
L 183.184719 209.069106 
L 183.883703 208.44435 
L 183.994735 209.333054 
L 184.247722 209.445969 
L 184.343633 209.851553 
L 184.565188 210.031624 
L 184.474421 210.835326 
L 185.124934 210.162686 
L 185.371918 210.292158 
L 185.316625 211.082248 
L 185.418353 211.562976 
L 186.425607 209.95611 
L 186.778726 210.525522 
L 187.17608 211.031935 
L 187.727526 210.31747 
L 187.820324 210.871425 
L 187.79475 211.822323 
L 187.933969 212.327065 
L 188.338553 213.017942 
L 188.725418 212.734273 
L 189.053351 212.637933 
L 189.333802 212.713255 
L 189.428741 213.5703 
L 189.827645 214.586072 
L 190.206362 214.278467 
L 191.060234 212.946284 
L 191.387436 212.730735 
L 191.669148 212.777574 
L 191.931348 212.968981 
L 192.258802 212.662279 
L 192.467487 213.349849 
L 192.738675 213.56817 
L 193.044264 213.441426 
L 193.35778 213.1565 
L 193.676743 212.659942 
L 193.942606 212.986591 
L 194.250832 212.371916 
L 194.499448 213.559804 
L 194.783922 214.188794 
L 195.083746 214.367699 
L 195.372083 213.252743 
L 195.953301 213.366718 
L 196.211274 212.709502 
L 196.489589 212.641062 
L 197.089058 213.044757 
L 197.257047 211.824153 
L 197.551767 212.013137 
L 197.774167 211.57159 
L 198.341788 211.722154 
L 198.70543 212.266936 
L 199.599888 214.014362 
L 199.876815 213.854586 
L 199.99699 212.966543 
L 200.266307 212.837185 
L 200.484395 211.318792 
L 201.104549 212.601539 
L 201.166406 211.738134 
L 201.649396 212.398817 
L 202.061858 212.761972 
L 202.369595 212.756586 
L 202.537244 212.320276 
L 203.299589 212.719952 
L 203.531864 212.485894 
L 204.175439 213.327534 
L 204.043445 212.162592 
L 204.077788 211.471741 
L 204.603949 211.967152 
L 204.311563 209.904813 
L 205.546478 211.195159 
L 205.804348 211.056395 
L 206.113397 211.0167 
L 205.913904 210.020014 
L 206.105214 209.782897 
L 205.925369 208.896351 
L 206.123761 208.700703 
L 206.545359 208.880753 
L 206.793821 208.762455 
L 207.506476 209.375839 
L 207.638048 209.055552 
L 208.738296 210.193701 
L 208.166274 208.826818 
L 209.32013 209.454396 
L 208.780496 208.226145 
L 209.600901 208.83844 
L 209.390644 208.090808 
L 209.750626 208.083898 
L 210.525258 208.573747 
L 210.616438 208.218173 
L 210.157232 207.232567 
L 210.548006 207.24698 
L 210.435043 206.695752 
L 210.99289 206.884101 
L 210.741189 206.203746 
L 211.225428 206.301019 
L 211.021657 205.696128 
L 211.832539 206.100895 
L 212.708875 206.13112 
L 212.530136 205.184993 
L 211.065256 203.543956 
L 211.491521 203.564136 
L 211.681748 203.379837 
L 212.218723 203.472108 
L 212.188706 203.107048 
L 212.720057 203.17676 
L 214.773682 203.990088 
L 215.062245 203.828662 
L 214.622432 203.16326 
L 213.77102 202.244651 
L 215.349408 202.245546 
L 215.50817 201.661918 
L 214.082993 200.521149 
L 213.838744 200.080847 
L 213.847566 199.787677 
L 214.491432 199.827609 
L 214.521698 199.54246 
L 214.882459 199.421378 
L 214.592633 198.693942 
L 215.857894 198.363146 
L 217.001863 198.523445 
L 216.924819 198.183241 
L 217.975649 198.267368 
L 217.44693 197.759883 
L 216.637011 197.173018 
L 216.660189 196.8861 
L 217.524478 196.565538 
L 216.769355 196.046925 
L 216.52286 195.691217 
L 216.593257 195.427468 
L 217.793028 195.151313 
L 217.193333 194.438846 
L 217.029611 193.844209 
L 218.009596 193.73622 
L 218.558745 193.535367 
L 218.576663 193.243051 
L 217.21609 192.48798 
L 217.022426 192.191169 
L 217.702995 191.986016 
L 218.192238 191.462798 
L 219.694854 191.270229 
L 230.607561 191.503384 
L 242.930661 191.520515 
L 252.838647 191.176009 
L 260.334239 190.558987 
L 260.334239 190.558987 
" style="fill:none;stroke:#ff0000;stroke-linecap:square;"/>
   </g>
   <g id="patch_3">
    <path d="M 195.083746 350.655638 
C 237.754242 350.655638 278.68281 333.702471 308.855407 303.529873 
C 339.028005 273.357276 355.981172 232.428708 355.981172 189.758212 
C 355.981172 147.087716 339.028005 106.159148 308.855407 75.986551 
C 278.68281 45.813953 237.754242 28.860785 195.083746 28.860785 
C 152.41325 28.860785 111.484682 45.813953 81.312085 75.986551 
C 51.139487 106.159148 34.186319 147.087716 34.186319 189.758212 
C 34.186319 232.428708 51.139487 273.357276 81.312085 303.529873 
C 111.484682 333.702471 152.41325 350.655638 195.083746 350.655638 
z
" style="fill:none;stroke:#000000;stroke-linecap:square;stroke-linejoin:miter;"/>
   </g>
   <g id="matplotlib.axis_1">
    <g id="xtick_1">
     <g id="line2d_4">
      <path clip-path="url(#p6bf3b21428)" d="M 195.083746 189.758212 
L 355.981172 189.758212 
" style="fill:none;stroke:#000000;stroke-dasharray:1.000000,3.000000;stroke-dashoffset:0.0;stroke-width:0.5;"/>
     </g>
     <g id="text_1">
      <!-- $0^\circ$ -->
      <defs>
       <path d="M 44.40625 25 
C 44.40625 35.578125 35.5 44.1875 25 44.1875 
C 14.203125 44.1875 5.5 35.375 5.5 25 
C 5.5 14.53125 14.203125 5.8125 25 5.8125 
C 35.5 5.8125 44.40625 14.421875 44.40625 25 
M 25 9.8125 
C 16.296875 9.8125 9.5 16.71875 9.5 25 
C 9.5 33.28125 16.40625 40.1875 25 40.1875 
C 33.296875 40.1875 40.40625 33.46875 40.40625 25 
C 40.40625 16.53125 33.296875 9.8125 25 9.8125 
" id="CMSY10-14"/>
       <path d="M 42 31.640625 
C 42 37.75 41.90625 48.125 37.703125 56.109375 
C 34 63.109375 28.09375 65.59375 22.90625 65.59375 
C 18.09375 65.59375 12 63.40625 8.203125 56.203125 
C 4.203125 48.71875 3.796875 39.4375 3.796875 31.640625 
C 3.796875 25.953125 3.90625 17.28125 7 9.671875 
C 11.296875 -0.609375 19 -2 22.90625 -2 
C 27.5 -2 34.5 -0.109375 38.59375 9.375 
C 41.59375 16.28125 42 24.359375 42 31.640625 
M 22.90625 -0.40625 
C 16.5 -0.40625 12.703125 5.078125 11.296875 12.6875 
C 10.203125 18.5625 10.203125 27.15625 10.203125 32.75 
C 10.203125 40.4375 10.203125 46.828125 11.5 52.921875 
C 13.40625 61.390625 19 64 22.90625 64 
C 27 64 32.296875 61.296875 34.203125 53.125 
C 35.5 47.4375 35.59375 40.734375 35.59375 32.75 
C 35.59375 26.25 35.59375 18.265625 34.40625 12.375 
C 32.296875 1.484375 26.40625 -0.40625 22.90625 -0.40625 
" id="CMR17-48"/>
      </defs>
      <g transform="translate(367.027328533 193.057819607)scale(0.12 -0.12)">
       <use transform="scale(0.9962640099626402)" xlink:href="#CMR17-48"/>
       <use transform="translate(45.69047711706103 36.15363894185866)scale(0.6973817666173724)" xlink:href="#CMSY10-14"/>
      </g>
     </g>
    </g>
    <g id="xtick_2">
     <g id="line2d_5">
      <path clip-path="url(#p6bf3b21428)" d="M 195.083746 189.758212 
L 195.083746 28.860785 
" style="fill:none;stroke:#000000;stroke-dasharray:1.000000,3.000000;stroke-dashoffset:0.0;stroke-width:0.5;"/>
     </g>
     <g id="text_2">
      <!-- $90^\circ$ -->
      <defs>
       <path d="M 35.203125 29.125 
C 35.203125 7.25 26.09375 0.484375 18.59375 0.484375 
C 16.296875 0.484375 10.703125 0.484375 8.40625 4.59375 
C 11 4.1875 12.90625 5.578125 12.90625 8.09375 
C 12.90625 10.8125 10.703125 11.703125 9.296875 11.703125 
C 8.40625 11.703125 5.703125 11.296875 5.703125 7.90625 
C 5.703125 1.109375 11.59375 -2 18.796875 -2 
C 30.296875 -2 42 10.53125 42 32.390625 
C 42 59.640625 30.796875 65.296875 23.203125 65.296875 
C 13.296875 65.296875 3.796875 56.6875 3.796875 43.40625 
C 3.796875 31.109375 11.90625 22 22.09375 22 
C 30.5 22 34.203125 29.734375 35.203125 33 
z
M 22.296875 23.59375 
C 19.59375 23.59375 15.796875 24.09375 12.703125 30.03125 
C 10.59375 33.890625 10.59375 38.453125 10.59375 43.296875 
C 10.59375 49.15625 10.59375 53.203125 13.40625 57.5625 
C 14.796875 59.640625 17.40625 63 23.203125 63 
C 35 63 35 45.078125 35 41.125 
C 35 34.09375 31.796875 23.59375 22.296875 23.59375 
" id="CMR17-57"/>
      </defs>
      <g transform="translate(187.113664266 16.070650466)scale(0.12 -0.12)">
       <use transform="scale(0.9962640099626402)" xlink:href="#CMR17-57"/>
       <use transform="translate(45.69047711706103 0.0)scale(0.9962640099626402)" xlink:href="#CMR17-48"/>
       <use transform="translate(91.38095423412206 36.15363894185866)scale(0.6973817666173724)" xlink:href="#CMSY10-14"/>
      </g>
     </g>
    </g>
    <g id="xtick_3">
     <g id="line2d_6">
      <path clip-path="url(#p6bf3b21428)" d="M 195.083746 189.758212 
L 34.186319 189.758212 
" style="fill:none;stroke:#000000;stroke-dasharray:1.000000,3.000000;stroke-dashoffset:0.0;stroke-width:0.5;"/>
     </g>
     <g id="text_3">
      <!-- $180^\circ$ -->
      <defs>
       <path d="M 27.203125 35.375 
C 33.5 38.546875 39.90625 43.328125 39.90625 50.984375 
C 39.90625 60.015625 31.09375 65.296875 23 65.296875 
C 13.90625 65.296875 5.90625 58.734375 5.90625 49.6875 
C 5.90625 47.203125 6.5 42.921875 10.40625 39.140625 
C 11.40625 38.15625 15.59375 35.171875 18.296875 33.28125 
C 13.796875 30.984375 3.296875 25.53125 3.296875 14.59375 
C 3.296875 4.359375 13.09375 -2 22.796875 -2 
C 33.5 -2 42.5 5.65625 42.5 15.78125 
C 42.5 24.84375 36.40625 29.015625 32.40625 31.703125 
z
M 14.09375 44.09375 
C 13.296875 44.59375 9.296875 47.671875 9.296875 52.359375 
C 9.296875 58.421875 15.59375 63 22.796875 63 
C 30.703125 63 36.5 57.4375 36.5 50.96875 
C 36.5 41.703125 26.09375 36.421875 25.59375 36.421875 
C 25.5 36.421875 25.40625 36.421875 24.59375 37.03125 
z
M 32.5 23.734375 
C 34 22.640625 38.796875 19.375 38.796875 13.296875 
C 38.796875 5.953125 31.40625 0.390625 23 0.390625 
C 13.90625 0.390625 7 6.84375 7 14.6875 
C 7 22.546875 13.09375 29.09375 20 32.1875 
z
" id="CMR17-56"/>
       <path d="M 26.59375 63.40625 
C 26.59375 65.5 26.5 65.5 25.09375 65.5 
C 21.203125 61.1875 15.296875 59.796875 9.703125 59.796875 
C 9.40625 59.796875 8.90625 59.796875 8.796875 59.5 
C 8.703125 59.296875 8.703125 59.09375 8.703125 57 
C 11.796875 57 17 57.59375 21 59.984375 
L 21 7.203125 
C 21 3.6875 20.796875 2.5 12.203125 2.5 
L 9.203125 2.5 
L 9.203125 0 
C 14 0 19 0 23.796875 0 
C 28.59375 0 33.59375 0 38.40625 0 
L 38.40625 2.5 
L 35.40625 2.5 
C 26.796875 2.5 26.59375 3.59375 26.59375 7.15625 
z
" id="CMR17-49"/>
      </defs>
      <g transform="translate(7.2 193.057819607)scale(0.12 -0.12)">
       <use transform="scale(0.9962640099626402)" xlink:href="#CMR17-49"/>
       <use transform="translate(45.69047711706103 0.0)scale(0.9962640099626402)" xlink:href="#CMR17-56"/>
       <use transform="translate(91.38095423412206 0.0)scale(0.9962640099626402)" xlink:href="#CMR17-48"/>
       <use transform="translate(137.07143135118307 36.15363894185866)scale(0.6973817666173724)" xlink:href="#CMSY10-14"/>
      </g>
     </g>
    </g>
    <g id="xtick_4">
     <g id="line2d_7">
      <path clip-path="url(#p6bf3b21428)" d="M 195.083746 189.758212 
L 195.083746 350.655638 
" style="fill:none;stroke:#000000;stroke-dasharray:1.000000,3.000000;stroke-dashoffset:0.0;stroke-width:0.5;"/>
     </g>
     <g id="text_4">
      <!-- $270^\circ$ -->
      <defs>
       <path d="M 45.09375 61.578125 
L 45.09375 63.765625 
L 21.59375 63.765625 
C 9.90625 63.765625 9.703125 65.078125 9.296875 67 
L 7.5 67 
L 4.59375 48.34375 
L 6.40625 48.34375 
C 6.703125 50.234375 7.40625 55.3125 8.59375 57.203125 
C 9.203125 58 16.59375 58 18.296875 58 
L 40.296875 58 
L 29.203125 41.578125 
C 21.796875 30.53125 16.703125 15.609375 16.703125 2.578125 
C 16.703125 1.390625 16.703125 -2 20.296875 -2 
C 23.90625 -2 23.90625 1.390625 23.90625 2.671875 
L 23.90625 7.265625 
C 23.90625 23.5625 26.703125 34.3125 31.296875 41.1875 
z
" id="CMR17-55"/>
       <path d="M 41.703125 15.453125 
L 39.90625 15.453125 
C 38.90625 8.375 38.09375 7.171875 37.703125 6.5625 
C 37.203125 5.765625 30 5.765625 28.59375 5.765625 
L 9.40625 5.765625 
C 13 9.671875 20 16.75 28.5 24.953125 
C 34.59375 30.734375 41.703125 37.53125 41.703125 47.421875 
C 41.703125 59.21875 32.296875 66 21.796875 66 
C 10.796875 66 4.09375 56.3125 4.09375 47.34375 
C 4.09375 43.4375 7 42.9375 8.203125 42.9375 
C 9.203125 42.9375 12.203125 43.546875 12.203125 47.03125 
C 12.203125 50.109375 9.59375 51 8.203125 51 
C 7.59375 51 7 50.90625 6.59375 50.703125 
C 8.5 59.21875 14.296875 63.40625 20.40625 63.40625 
C 29.09375 63.40625 34.796875 56.515625 34.796875 47.421875 
C 34.796875 38.734375 29.703125 31.25 24 24.75 
L 4.09375 2.28125 
L 4.09375 0 
L 39.296875 0 
z
" id="CMR17-50"/>
      </defs>
      <g transform="translate(184.187169141 370.044988747)scale(0.12 -0.12)">
       <use transform="scale(0.9962640099626402)" xlink:href="#CMR17-50"/>
       <use transform="translate(45.69047711706103 0.0)scale(0.9962640099626402)" xlink:href="#CMR17-55"/>
       <use transform="translate(91.38095423412206 0.0)scale(0.9962640099626402)" xlink:href="#CMR17-48"/>
       <use transform="translate(137.07143135118307 36.15363894185866)scale(0.6973817666173724)" xlink:href="#CMSY10-14"/>
      </g>
     </g>
    </g>
   </g>
   <g id="matplotlib.axis_2">
    <g id="ytick_1">
     <g id="line2d_8">
      <path clip-path="url(#p6bf3b21428)" d="M 195.083746 189.758212 
L 195.083746 189.758212 
" style="fill:none;stroke:#000000;stroke-dasharray:1.000000,3.000000;stroke-dashoffset:0.0;stroke-width:0.5;"/>
     </g>
     <g id="text_5">
      <!-- -15dB -->
      <defs>
       <path d="M 3 72 
L 3 67.3125 
L 4.796875 67.3125 
C 12.90625 67.3125 13.796875 66.8125 13.796875 62.609375 
L 13.796875 59.734375 
L 13.796875 12.28125 
L 13.796875 9.375 
C 13.796875 5.1875 12.90625 4.6875 4.796875 4.6875 
L 3 4.6875 
L 3 0 
L 39.296875 0 
C 56.59375 0 67 7.40625 67 19.59375 
C 67 29.484375 60.59375 35.296875 47 37.6875 
C 51.796875 38.6875 54 39.578125 56.5 41.46875 
C 60.703125 44.546875 63.203125 49.421875 63.203125 54.5 
C 63.203125 60.859375 59.203125 67.125 53.40625 69.609375 
C 49.796875 71.203125 44.796875 72 38.90625 72 
z
M 25 39.6875 
L 25 62.328125 
C 25 66.203125 26.40625 67.3125 31.59375 67.3125 
L 35.59375 67.3125 
C 40.203125 67.3125 44 66.609375 46.09375 65.21875 
C 49.703125 63.03125 51.59375 58.75 51.59375 53.203125 
C 51.59375 43.46875 46.703125 39.6875 33.90625 39.6875 
z
M 25 35 
L 33.796875 35 
C 40.203125 35 44.5 34.390625 47.5 33.09375 
C 52.203125 30.890625 54.703125 26.5 54.703125 19.890625 
C 54.703125 13.59375 52.5 8.890625 48.59375 6.984375 
C 45.5 5.390625 41.296875 4.6875 35 4.6875 
L 30.796875 4.6875 
C 25.703125 4.6875 25 5.484375 25 11 
z
" id="Century_Schoolbook_L_Roman-66"/>
       <path d="M 38 0 
L 55.40625 0 
L 55.40625 4.703125 
L 53.59375 4.703125 
C 48.203125 4.703125 47.40625 5.703125 47.40625 11.96875 
L 47.40625 73.78125 
L 27.796875 73.78125 
L 27.796875 69 
L 33.703125 69 
C 37.296875 69 38 68.28125 38 63.921875 
L 38 41 
C 34.296875 46.09375 30 48.390625 24.203125 48.390625 
C 12.90625 48.390625 4.296875 37.546875 4.296875 23.203125 
C 4.296875 9.0625 12.59375 -1 24.203125 -1 
C 30.5 -1 34.796875 1.671875 38 7.59375 
z
M 26.203125 43 
C 30.296875 43 34.203125 40.03125 36 35.4375 
C 37.203125 32.453125 37.90625 28.28125 37.90625 23.515625 
C 37.90625 11.96875 33.296875 4.390625 26.09375 4.390625 
C 19.09375 4.390625 14.796875 10.96875 14.796875 22.015625 
C 14.796875 27.890625 15.40625 32.359375 16.703125 35.734375 
C 18.40625 40.125 22.09375 43 26.203125 43 
" id="Century_Schoolbook_L_Roman-100"/>
       <path d="M 4.203125 27.28125 
L 4.203125 19 
L 29.09375 19 
L 29.09375 27.28125 
z
" id="Century_Schoolbook_L_Roman-45"/>
       <path d="M 32.203125 70.5 
C 28.796875 66.234375 19.59375 63 10.40625 63 
L 10.40625 58.59375 
L 19.203125 58.59375 
C 25 58.59375 25.40625 58.203125 25.40625 52.3125 
L 25.40625 12.28125 
L 25.40625 9.375 
C 25.40625 5.1875 24.5 4.6875 16.5 4.6875 
L 10 4.6875 
L 10 0 
L 49.59375 0 
L 49.59375 4.6875 
L 44.09375 4.6875 
C 38.796875 4.6875 36.59375 5.09375 35.796875 6.09375 
C 35.09375 6.78125 35.09375 6.78125 35.09375 12.3125 
L 35.09375 53.671875 
C 35.09375 58.578125 35.296875 63.375 35.796875 70.5 
z
" id="Century_Schoolbook_L_Roman-49"/>
       <path d="M 16.40625 59.703125 
C 21.796875 58.40625 24.59375 58 28.5 58 
C 37 58 43.203125 61 46.5 66.484375 
C 47.59375 68.390625 48 69.28125 48 70.078125 
C 48 70.6875 47.703125 70.984375 47.203125 70.984375 
C 46.90625 70.984375 46.40625 70.875 45.90625 70.578125 
C 41 68.484375 38.296875 67.984375 32.59375 67.984375 
C 26.203125 67.984375 22.5 68.484375 12 70.984375 
C 11.59375 62.625 10.703125 51.984375 9.296875 39.65625 
C 7.203125 37.46875 6.5 36.171875 6.5 34.578125 
C 6.5 32.59375 7.796875 31.203125 9.703125 31.203125 
C 12.203125 31.203125 13.796875 33.328125 14.203125 37.359375 
C 17.703125 39.890625 21 41 25 41 
C 33.90625 41 39.296875 34.03125 39.296875 22.5 
C 39.296875 15.734375 37.59375 9.953125 34.59375 6.828125 
C 32.59375 4.703125 28.5 3.296875 24.40625 3.296875 
C 18.40625 3.296875 12.203125 6.421875 12.203125 9.5625 
C 12.203125 10.28125 12.796875 11.078125 14 11.78125 
C 17.09375 13.703125 18 15.03125 18 17.75 
C 18 21.296875 15.296875 24.015625 11.703125 24.015625 
C 7.703125 24.015625 4.5 20.28125 4.5 15.546875 
C 4.5 10.5 7.40625 5.453125 11.90625 2.328125 
C 15.296875 0.109375 19.40625 -1 24.59375 -1 
C 40.296875 -1 50.203125 8.28125 50.203125 23.109375 
C 50.203125 36.828125 41.09375 46 27.59375 46 
C 23.40625 46 20.203125 45.296875 14.703125 43 
z
" id="Century_Schoolbook_L_Roman-53"/>
      </defs>
      <g transform="translate(195.083745942 187.486776813)scale(0.12 -0.12)">
       <use transform="scale(0.9962640099626402)" xlink:href="#Century_Schoolbook_L_Roman-45"/>
       <use transform="translate(33.17522972933531 0.0)scale(0.9962640099626402)" xlink:href="#Century_Schoolbook_L_Roman-49"/>
       <use transform="translate(88.56690669267591 0.0)scale(0.9962640099626402)" xlink:href="#Century_Schoolbook_L_Roman-53"/>
       <use transform="translate(143.95858365601651 0.0)scale(0.9962640099626402)" xlink:href="#Century_Schoolbook_L_Roman-100"/>
       <use transform="translate(201.1440709400296 0.0)scale(0.9962640099626402)" xlink:href="#Century_Schoolbook_L_Roman-66"/>
      </g>
     </g>
    </g>
    <g id="ytick_2">
     <g id="line2d_9">
      <path clip-path="url(#p6bf3b21428)" d="M 248.716221 189.758212 
L 248.68355 187.886466 
L 248.585575 186.017 
L 248.194274 182.294014 
L 247.544223 178.607393 
L 246.63859 174.975098 
L 245.481787 171.414825 
L 244.07945 167.943919 
L 242.438411 164.57929 
L 240.566665 161.33733 
L 238.47333 158.233834 
L 236.168606 155.283921 
L 233.66372 152.501964 
L 230.970877 149.901515 
L 228.103195 147.495244 
L 225.074646 145.294875 
L 221.899984 143.311126 
L 218.594676 141.553662 
L 215.174825 140.031047 
L 211.657092 138.750697 
L 208.058616 137.71885 
L 204.396928 136.940534 
L 200.689866 136.419541 
L 196.955492 136.158408 
L 193.212 136.158408 
L 189.477626 136.419541 
L 185.770564 136.940534 
L 182.108876 137.71885 
L 178.5104 138.750697 
L 174.992667 140.031047 
L 171.572816 141.553662 
L 168.267508 143.311126 
L 165.092846 145.294875 
L 162.064297 147.495244 
L 159.196615 149.901515 
L 156.503772 152.501964 
L 153.998886 155.283921 
L 151.694162 158.233834 
L 149.600827 161.33733 
L 147.729081 164.57929 
L 146.088042 167.943919 
L 144.685704 171.414825 
L 143.528902 174.975098 
L 142.623269 178.607393 
L 141.973218 182.294014 
L 141.581916 186.017 
L 141.45127 189.758212 
L 141.581916 193.499424 
L 141.973218 197.22241 
L 142.623269 200.909031 
L 143.528902 204.541326 
L 144.685704 208.101599 
L 146.088042 211.572505 
L 147.729081 214.937134 
L 149.600827 218.179094 
L 151.694162 221.28259 
L 153.998886 224.232503 
L 156.503772 227.01446 
L 159.196615 229.614909 
L 162.064297 232.021179 
L 165.092846 234.221549 
L 168.267508 236.205298 
L 171.572816 237.962762 
L 174.992667 239.485377 
L 178.5104 240.765727 
L 182.108876 241.797574 
L 185.770564 242.57589 
L 189.477626 243.096883 
L 193.212 243.358016 
L 196.955492 243.358016 
L 200.689866 243.096883 
L 204.396928 242.57589 
L 208.058616 241.797574 
L 211.657092 240.765727 
L 215.174825 239.485377 
L 218.594676 237.962762 
L 221.899984 236.205298 
L 225.074646 234.221549 
L 228.103195 232.021179 
L 230.970877 229.614909 
L 233.66372 227.01446 
L 236.168606 224.232503 
L 238.47333 221.28259 
L 240.566665 218.179094 
L 242.438411 214.937134 
L 244.07945 211.572505 
L 245.481787 208.101599 
L 246.63859 204.541326 
L 247.544223 200.909031 
L 248.194274 197.22241 
L 248.585575 193.499424 
L 248.716221 189.758212 
L 248.716221 189.758212 
" style="fill:none;stroke:#000000;stroke-dasharray:1.000000,3.000000;stroke-dashoffset:0.0;stroke-width:0.5;"/>
     </g>
     <g id="text_6">
      <!-- -10dB -->
      <defs>
       <path d="M 28.40625 71 
C 14.40625 71 4.203125 55.6875 4.203125 34.75 
C 4.203125 14.125 14.09375 -1 27.59375 -1 
C 41.59375 -1 51.40625 13.625 51.40625 34.4375 
C 51.40625 45.0625 49.203125 53.875 45 60.78125 
C 41.09375 67.09375 34.703125 71 28.40625 71 
M 27.703125 66.703125 
C 31 66.703125 34.203125 64.5 36.59375 60.5 
C 39.296875 55.875 40.203125 49.96875 40.203125 36.25 
C 40.203125 22.21875 39.5 15.625 37.5 11.203125 
C 35.203125 6.296875 31.59375 3.296875 27.796875 3.296875 
C 24.5 3.296875 21.296875 5.5 18.90625 9.5 
C 16.09375 14.21875 15.296875 20.53125 15.296875 36.859375 
C 15.296875 48.484375 16 54.375 18 58.6875 
C 20.296875 63.796875 23.90625 66.703125 27.703125 66.703125 
" id="Century_Schoolbook_L_Roman-48"/>
      </defs>
      <g transform="translate(244.633692332 166.962517004)scale(0.12 -0.12)">
       <use transform="scale(0.9962640099626402)" xlink:href="#Century_Schoolbook_L_Roman-45"/>
       <use transform="translate(33.17522972933531 0.0)scale(0.9962640099626402)" xlink:href="#Century_Schoolbook_L_Roman-49"/>
       <use transform="translate(88.56690669267591 0.0)scale(0.9962640099626402)" xlink:href="#Century_Schoolbook_L_Roman-48"/>
       <use transform="translate(143.95858365601651 0.0)scale(0.9962640099626402)" xlink:href="#Century_Schoolbook_L_Roman-100"/>
       <use transform="translate(201.1440709400296 0.0)scale(0.9962640099626402)" xlink:href="#Century_Schoolbook_L_Roman-66"/>
      </g>
     </g>
    </g>
    <g id="ytick_3">
     <g id="line2d_10">
      <path clip-path="url(#p6bf3b21428)" d="M 302.348697 189.758212 
L 302.283354 186.014719 
L 302.087405 182.275787 
L 301.761088 178.545971 
L 301.304802 174.829816 
L 300.719101 171.131849 
L 300.0047 167.456575 
L 299.162469 163.808472 
L 298.193435 160.191984 
L 297.098777 156.611519 
L 295.879829 153.071438 
L 294.538077 149.576054 
L 293.075155 146.129626 
L 291.492845 142.736352 
L 289.793076 139.400368 
L 287.977918 136.125736 
L 286.049583 132.916448 
L 284.010421 129.776413 
L 281.862914 126.709456 
L 279.609681 123.719314 
L 277.253466 120.80963 
L 274.797139 117.98395 
L 272.243694 115.245716 
L 269.596242 112.598264 
L 266.858008 110.044819 
L 264.032327 107.588492 
L 261.122644 105.232277 
L 258.132502 102.979044 
L 255.065545 100.831537 
L 251.92551 98.792374 
L 248.716221 96.864039 
L 245.44159 95.048882 
L 242.105606 93.349113 
L 238.712332 91.766803 
L 235.265904 90.303881 
L 231.77052 88.962129 
L 228.230439 87.743181 
L 224.649973 86.648523 
L 221.033486 85.679488 
L 217.385383 84.837257 
L 213.710109 84.122857 
L 210.012142 83.537156 
L 206.295986 83.08087 
L 202.566171 82.754553 
L 198.827239 82.558604 
L 195.083746 82.493261 
L 191.340253 82.558604 
L 187.601321 82.754553 
L 183.871505 83.08087 
L 180.15535 83.537156 
L 176.457383 84.122857 
L 172.782109 84.837257 
L 169.134006 85.679488 
L 165.517518 86.648523 
L 161.937053 87.743181 
L 158.396972 88.962129 
L 154.901588 90.303881 
L 151.45516 91.766803 
L 148.061886 93.349113 
L 144.725902 95.048882 
L 141.45127 96.864039 
L 138.241982 98.792374 
L 135.101947 100.831537 
L 132.03499 102.979044 
L 129.044848 105.232277 
L 126.135164 107.588492 
L 123.309484 110.044819 
L 120.57125 112.598264 
L 117.923798 115.245716 
L 115.370353 117.98395 
L 112.914026 120.80963 
L 110.557811 123.719314 
L 108.304578 126.709456 
L 106.157071 129.776413 
L 104.117908 132.916448 
L 102.189573 136.125736 
L 100.374416 139.400368 
L 98.674647 142.736352 
L 97.092337 146.129626 
L 95.629415 149.576054 
L 94.287663 153.071438 
L 93.068715 156.611519 
L 91.974057 160.191984 
L 91.005022 163.808472 
L 90.162791 167.456575 
L 89.448391 171.131849 
L 88.86269 174.829816 
L 88.406404 178.545971 
L 88.080087 182.275787 
L 87.884138 186.014719 
L 87.818795 189.758212 
L 87.884138 193.501705 
L 88.080087 197.240637 
L 88.406404 200.970452 
L 88.86269 204.686608 
L 89.448391 208.384575 
L 90.162791 212.059849 
L 91.005022 215.707952 
L 91.974057 219.324439 
L 93.068715 222.904905 
L 94.287663 226.444986 
L 95.629415 229.94037 
L 97.092337 233.386798 
L 98.674647 236.780072 
L 100.374416 240.116056 
L 102.189573 243.390687 
L 104.117908 246.599976 
L 106.157071 249.740011 
L 108.304578 252.806968 
L 110.557811 255.79711 
L 112.914026 258.706793 
L 115.370353 261.532474 
L 117.923798 264.270708 
L 120.57125 266.91816 
L 123.309484 269.471605 
L 126.135164 271.927932 
L 129.044848 274.284147 
L 132.03499 276.53738 
L 135.101947 278.684887 
L 138.241982 280.724049 
L 141.45127 282.652384 
L 144.725902 284.467542 
L 148.061886 286.167311 
L 151.45516 287.749621 
L 154.901588 289.212543 
L 158.396972 290.554295 
L 161.937053 291.773243 
L 165.517518 292.867901 
L 169.134006 293.836935 
L 172.782109 294.679166 
L 176.457383 295.393567 
L 180.15535 295.979268 
L 183.871505 296.435554 
L 187.601321 296.761871 
L 191.340253 296.95782 
L 195.083746 297.023163 
L 198.827239 296.95782 
L 202.566171 296.761871 
L 206.295986 296.435554 
L 210.012142 295.979268 
L 213.710109 295.393567 
L 217.385383 294.679166 
L 221.033486 293.836935 
L 224.649973 292.867901 
L 228.230439 291.773243 
L 231.77052 290.554295 
L 235.265904 289.212543 
L 238.712332 287.749621 
L 242.105606 286.167311 
L 245.44159 284.467542 
L 248.716221 282.652384 
L 251.92551 280.724049 
L 255.065545 278.684887 
L 258.132502 276.53738 
L 261.122644 274.284147 
L 264.032327 271.927932 
L 266.858008 269.471605 
L 269.596242 266.91816 
L 272.243694 264.270708 
L 274.797139 261.532474 
L 277.253466 258.706793 
L 279.609681 255.79711 
L 281.862914 252.806968 
L 284.010421 249.740011 
L 286.049583 246.599976 
L 287.977918 243.390687 
L 289.793076 240.116056 
L 291.492845 236.780072 
L 293.075155 233.386798 
L 294.538077 229.94037 
L 295.879829 226.444986 
L 297.098777 222.904905 
L 298.193435 219.324439 
L 299.162469 215.707952 
L 300.0047 212.059849 
L 300.719101 208.384575 
L 301.304802 204.686608 
L 301.761088 200.970452 
L 302.087405 197.240637 
L 302.283354 193.501705 
L 302.348697 189.758212 
L 302.348697 189.758212 
" style="fill:none;stroke:#000000;stroke-dasharray:1.000000,3.000000;stroke-dashoffset:0.0;stroke-width:0.5;"/>
     </g>
     <g id="text_7">
      <!-- -5dB -->
      <g transform="translate(294.183638722 146.438257194)scale(0.12 -0.12)">
       <use transform="scale(0.9962640099626402)" xlink:href="#Century_Schoolbook_L_Roman-45"/>
       <use transform="translate(33.17522972933531 0.0)scale(0.9962640099626402)" xlink:href="#Century_Schoolbook_L_Roman-53"/>
       <use transform="translate(88.56690669267591 0.0)scale(0.9962640099626402)" xlink:href="#Century_Schoolbook_L_Roman-100"/>
       <use transform="translate(145.752393976689 0.0)scale(0.9962640099626402)" xlink:href="#Century_Schoolbook_L_Roman-66"/>
      </g>
     </g>
    </g>
   </g>
   <g id="legend_1">
    <g id="patch_4">
     <path d="M 298.940325 74.715984 
L 355.981172 74.715984 
L 355.981172 28.860785 
L 298.940325 28.860785 
z
" style="fill:#ffffff;stroke:#000000;stroke-linejoin:miter;"/>
    </g>
    <g id="line2d_11">
     <path d="M 305.940325 36.752987 
L 319.940325 36.752987 
" style="fill:none;stroke:#0000ff;stroke-linecap:square;"/>
    </g>
    <g id="line2d_12"/>
    <g id="text_8">
     <!-- 25th %ile -->
     <defs>
      <path d="M 50.5 21.5625 
L 46.09375 21.5625 
L 45.09375 16.46875 
C 43.796875 10.078125 43 9.375 36.796875 9.375 
L 14.40625 9.375 
C 21.296875 16.5625 23.59375 18.65625 30 23.65625 
C 39.09375 30.65625 43 34.15625 45.296875 37.140625 
C 48.5 41.53125 50.09375 46.03125 50.09375 50.8125 
C 50.09375 62.109375 40.59375 70.296875 27.59375 70.296875 
C 14.90625 70.296875 5.09375 62.109375 5.09375 51.515625 
C 5.09375 45.234375 8.296875 40.9375 13.09375 40.9375 
C 16.796875 40.9375 19.296875 43.4375 19.296875 47.03125 
C 19.296875 49.53125 17.90625 51.828125 15.703125 52.734375 
C 12 54.328125 11.796875 54.421875 11.796875 55.71875 
C 11.796875 57.21875 12.796875 59.515625 14.203125 61.21875 
C 16.703125 64.203125 20.90625 66 25.59375 66 
C 33.796875 66 38.796875 60.90625 38.796875 52.53125 
C 38.796875 45.125 35.296875 38.4375 27 29.65625 
L 21.09375 23.46875 
C 17.59375 19.78125 15 16.96875 13.296875 15.078125 
C 9.703125 10.875 7.90625 8.578125 3.5 2.796875 
L 3.5 0 
L 48.59375 0 
z
" id="Century_Schoolbook_L_Roman-50"/>
      <path d="M 19.40625 47 
L 19.40625 67 
L 15.296875 67 
C 14.296875 53.875 9.90625 47.1875 1.796875 46.59375 
L 1.796875 42.703125 
L 10 42.703125 
L 10 17.265625 
C 10 10.28125 10.203125 7.78125 11.203125 5.484375 
C 12.796875 1.296875 16.796875 -1 22.59375 -1 
C 26.5 -1 29.90625 0.203125 32.203125 2.390625 
C 35.5 5.59375 37.40625 10.875 37.40625 16.375 
C 37.40625 16.96875 37.40625 17.671875 37.296875 18.671875 
L 33.09375 18.671875 
C 32.796875 9.6875 30.203125 5.09375 25.296875 5.09375 
C 23 5.09375 21 6.28125 20.296875 7.984375 
C 19.703125 9.375 19.40625 11.875 19.40625 15.46875 
L 19.40625 42.703125 
L 34.09375 42.703125 
L 34.09375 47 
z
" id="Century_Schoolbook_L_Roman-116"/>
      <path d="M 20 73 
L 1.5 73 
L 1.5 68.21875 
L 6.296875 68.21875 
C 10 68.21875 10.59375 67.515625 10.59375 63.21875 
L 10.59375 12.28125 
L 10.59375 8.28125 
C 10.59375 4.296875 9.5 3.59375 3.09375 3.59375 
L 2.703125 3.59375 
L 2.703125 0 
L 28 0 
L 28 3.59375 
L 27.59375 3.59375 
C 21.09375 3.59375 20 4.296875 20 8.28125 
L 20 12.28125 
L 20 22.5625 
C 20 27.546875 20.703125 32.03125 21.796875 34.328125 
C 23.90625 38.828125 28.40625 41.921875 32.703125 41.921875 
C 35.296875 41.921875 38.296875 40.421875 39.796875 38.421875 
C 41.296875 36.234375 42 33.234375 42 28.34375 
L 42 12.28125 
L 42 8.28125 
C 42 4.296875 40.90625 3.59375 34.40625 3.59375 
L 34 3.59375 
L 34 0 
L 59.296875 0 
L 59.296875 3.59375 
L 58.90625 3.59375 
C 52.5 3.59375 51.40625 4.296875 51.40625 8.28125 
L 51.40625 12.28125 
L 51.40625 27.953125 
C 51.40625 35.125 51.09375 36.921875 49.296875 40.328125 
C 46.796875 45.109375 41.796875 48 35.796875 48 
C 29.40625 48 24.5 45.015625 20 38.328125 
z
" id="Century_Schoolbook_L_Roman-104"/>
     </defs>
     <g transform="translate(330.940324637 40.2529865636)scale(0.1 -0.1)">
      <use transform="scale(0.9962640099626402)" xlink:href="#Century_Schoolbook_L_Roman-50"/>
      <use transform="translate(55.3916769633406 0.0)scale(0.9962640099626402)" xlink:href="#Century_Schoolbook_L_Roman-53"/>
      <use transform="translate(110.7833539266812 0.0)scale(0.9962640099626402)" xlink:href="#Century_Schoolbook_L_Roman-116"/>
      <use transform="translate(149.5370601212251 0.0)scale(0.9962640099626402)" xlink:href="#Century_Schoolbook_L_Roman-104"/>
     </g>
    </g>
    <g id="line2d_13">
     <path d="M 305.940325 51.038053 
L 319.940325 51.038053 
" style="fill:none;stroke:#008000;stroke-linecap:square;"/>
    </g>
    <g id="line2d_14"/>
    <g id="text_9">
     <!-- 50th %ile -->
     <g transform="translate(330.940324637 54.538052819)scale(0.1 -0.1)">
      <use transform="scale(0.9962640099626402)" xlink:href="#Century_Schoolbook_L_Roman-53"/>
      <use transform="translate(55.3916769633406 0.0)scale(0.9962640099626402)" xlink:href="#Century_Schoolbook_L_Roman-48"/>
      <use transform="translate(110.7833539266812 0.0)scale(0.9962640099626402)" xlink:href="#Century_Schoolbook_L_Roman-116"/>
      <use transform="translate(149.5370601212251 0.0)scale(0.9962640099626402)" xlink:href="#Century_Schoolbook_L_Roman-104"/>
     </g>
    </g>
    <g id="line2d_15">
     <path d="M 305.940325 65.323119 
L 319.940325 65.323119 
" style="fill:none;stroke:#ff0000;stroke-linecap:square;"/>
    </g>
    <g id="line2d_16"/>
    <g id="text_10">
     <!-- 75th %ile -->
     <defs>
      <path d="M 5.90625 46.171875 
L 10.296875 45.484375 
L 12.09375 53.40625 
C 13.59375 60.015625 14.296875 61 17.203125 61 
C 17.703125 61 18.59375 61 19.40625 60.609375 
C 25.203125 60.609375 32.40625 60.609375 36.5 60.609375 
C 37.90625 60.609375 40 60.609375 42.703125 60.609375 
L 35.90625 46.84375 
C 28.40625 31.859375 27.59375 30.15625 25.09375 24.03125 
C 22.09375 16.484375 20.40625 10.15625 20.40625 5.921875 
C 20.40625 1.40625 22.796875 -1.5 26.703125 -1.5 
C 31.5 -1.5 33.40625 1.796875 33.296875 10.421875 
C 32.796875 24.734375 34.703125 31.84375 45.296875 55.265625 
C 46.796875 58.484375 48.296875 61.59375 49.796875 64.6875 
C 49.90625 64.890625 50.203125 65.796875 50.796875 67.09375 
L 50.796875 69.984375 
C 44.59375 69.890625 41.296875 69.890625 35.203125 69.890625 
C 26.703125 69.890625 19.90625 69.890625 9 69.890625 
z
" id="Century_Schoolbook_L_Roman-55"/>
     </defs>
     <g transform="translate(330.940324637 68.8231190745)scale(0.1 -0.1)">
      <use transform="scale(0.9962640099626402)" xlink:href="#Century_Schoolbook_L_Roman-55"/>
      <use transform="translate(55.3916769633406 0.0)scale(0.9962640099626402)" xlink:href="#Century_Schoolbook_L_Roman-53"/>
      <use transform="translate(110.7833539266812 0.0)scale(0.9962640099626402)" xlink:href="#Century_Schoolbook_L_Roman-116"/>
      <use transform="translate(149.5370601212251 0.0)scale(0.9962640099626402)" xlink:href="#Century_Schoolbook_L_Roman-104"/>
     </g>
    </g>
   </g>
  </g>
 </g>
 <defs>
  <clipPath id="p6bf3b21428">
   <path d="M 195.083746 350.655638 
C 237.754242 350.655638 278.68281 333.702471 308.855407 303.529873 
C 339.028005 273.357276 355.981172 232.428708 355.981172 189.758212 
C 355.981172 147.087716 339.028005 106.159148 308.855407 75.986551 
C 278.68281 45.813953 237.754242 28.860785 195.083746 28.860785 
C 152.41325 28.860785 111.484682 45.813953 81.312085 75.986551 
C 51.139487 106.159148 34.186319 147.087716 34.186319 189.758212 
C 34.186319 232.428708 51.139487 273.357276 81.312085 303.529873 
C 111.484682 333.702471 152.41325 350.655638 195.083746 350.655638 
z
"/>
  </clipPath>
 </defs>
</svg>
