<?xml version="1.0" encoding="utf-8" standalone="no"?>
<!DOCTYPE svg PUBLIC "-//W3C//DTD SVG 1.1//EN"
  "http://www.w3.org/Graphics/SVG/1.1/DTD/svg11.dtd">
<!-- Created with matplotlib (http://matplotlib.org/) -->
<svg height="379pt" version="1.1" viewBox="0 0 384 379" width="384pt" xmlns="http://www.w3.org/2000/svg" xmlns:xlink="http://www.w3.org/1999/xlink">
 <defs>
  <style type="text/css">
*{stroke-linecap:butt;stroke-linejoin:round;stroke-miterlimit:100000;}
  </style>
 </defs>
 <g id="figure_1">
  <g id="patch_1">
   <path d="M 0 379.516424 
L 384.314502 379.516424 
L 384.314502 0 
L 0 0 
z
" style="fill:#ffffff;"/>
  </g>
  <g id="axes_1">
   <g id="patch_2">
    <path d="M 195.083746 350.655638 
C 237.754242 350.655638 278.68281 333.702471 308.855407 303.529873 
C 339.028005 273.357276 355.981172 232.428708 355.981172 189.758212 
C 355.981172 147.087716 339.028005 106.159148 308.855407 75.986551 
C 278.68281 45.813953 237.754242 28.860785 195.083746 28.860785 
C 152.41325 28.860785 111.484682 45.813953 81.312085 75.986551 
C 51.139487 106.159148 34.186319 147.087716 34.186319 189.758212 
C 34.186319 232.428708 51.139487 273.357276 81.312085 303.529873 
C 111.484682 333.702471 152.41325 350.655638 195.083746 350.655638 
z
" style="fill:#ffffff;"/>
   </g>
   <g id="line2d_1">
    <path clip-path="url(#pd8f6213e4f)" d="M 306.081294 189.758212 
L 302.602212 188.438696 
L 292.568324 187.3651 
L 274.126218 186.846905 
L 245.334373 187.289557 
L 220.853129 188.175035 
L 217.96018 188.070745 
L 218.862127 187.71054 
L 218.200331 187.481427 
L 215.795307 187.461343 
L 216.15353 187.159502 
L 214.112328 187.173821 
L 213.459371 187.032445 
L 211.815023 187.066126 
L 214.079866 186.462072 
L 216.233308 185.280815 
L 214.64597 185.365368 
L 214.236567 185.209715 
L 214.483717 184.898772 
L 213.189285 184.986141 
L 209.271881 185.454288 
L 212.694054 184.179292 
L 211.361373 184.38081 
L 213.606932 183.13051 
L 213.849982 182.782606 
L 212.471138 182.804851 
L 213.052514 182.315304 
L 214.899074 181.264072 
L 214.883953 180.981384 
L 214.47708 180.875412 
L 213.871239 180.872389 
L 212.278126 181.366147 
L 211.981104 181.252796 
L 212.609641 180.66516 
L 214.462796 179.399894 
L 214.20869 179.231956 
L 215.061838 178.440763 
L 211.883124 179.967242 
L 212.672534 179.215898 
L 211.741928 179.493741 
L 211.751054 179.203756 
L 210.859576 179.494908 
L 211.489939 178.795944 
L 211.256473 178.662476 
L 212.772296 176.972941 
L 213.062414 176.424322 
L 213.00376 176.123803 
L 210.459458 177.452331 
L 210.429645 176.845775 
L 209.251805 177.536761 
L 210.750475 175.905075 
L 209.997052 176.241579 
L 208.79791 177.018405 
L 209.412485 176.116118 
L 208.914905 176.262422 
L 209.815141 175.026816 
L 210.285482 174.178714 
L 209.0027 175.138678 
L 206.56144 177.402688 
L 205.996173 177.718205 
L 207.752231 175.431223 
L 207.985592 174.801387 
L 208.911528 173.324462 
L 208.471616 173.445045 
L 206.928384 174.958806 
L 206.89879 174.618632 
L 206.754526 174.419041 
L 206.298923 174.636295 
L 207.392769 172.728556 
L 207.591888 171.998017 
L 207.128934 172.201601 
L 205.949618 173.496286 
L 206.317263 172.491055 
L 206.352302 171.963218 
L 203.602251 175.545947 
L 204.916296 172.88749 
L 205.134229 172.016627 
L 204.480955 172.684608 
L 204.751428 171.124778 
L 202.906275 173.730747 
L 202.961005 173.103148 
L 203.399061 171.603837 
L 203.168774 171.518678 
L 201.765918 173.048944 
L 201.952809 171.950837 
L 202.465152 169.900265 
L 201.289696 171.718842 
L 201.347042 170.798945 
L 200.860404 171.523727 
L 200.727831 171.152155 
L 200.776597 170.127332 
L 200.45046 169.396557 
L 199.935728 170.388018 
L 199.689501 170.364291 
L 199.813442 168.695916 
L 199.527469 168.767706 
L 199.420363 167.95657 
L 199.015581 168.640365 
L 198.381298 170.753949 
L 198.168511 170.586441 
L 198.016755 169.985473 
L 197.937061 168.749573 
L 197.446396 170.602345 
L 197.157772 168.700275 
L 196.73853 170.542193 
L 196.659588 168.395057 
L 196.0691 169.700869 
L 195.77719 170.931052 
L 195.319649 170.536048 
L 195.083745 172.664603 
L 194.861846 171.677037 
L 194.593664 169.794485 
L 193.948283 171.276268 
L 193.661662 170.479497 
L 193.443249 170.708116 
L 193.034538 168.952246 
L 192.66739 167.969201 
L 192.728313 170.66087 
L 192.52751 172.52547 
L 191.978262 170.457667 
L 190.828455 168.365418 
L 191.396298 173.337255 
L 190.656027 172.08177 
L 190.394933 171.968562 
L 189.817894 170.729865 
L 189.765656 171.419631 
L 189.122991 170.108239 
L 189.203333 171.196214 
L 189.021255 171.406791 
L 188.917394 171.833949 
L 189.275461 173.525139 
L 188.680896 172.532841 
L 189.274608 174.698588 
L 187.885561 171.75862 
L 187.467999 171.37217 
L 187.167536 171.291093 
L 186.592054 170.601263 
L 187.233307 172.618775 
L 186.676832 171.983286 
L 187.160889 173.525186 
L 187.238022 174.171437 
L 187.722533 175.570255 
L 186.441105 173.588964 
L 186.131982 173.493927 
L 186.067687 174.288428 
L 185.333206 173.49042 
L 185.072357 173.510758 
L 184.403606 172.892432 
L 184.556321 173.576394 
L 184.254167 173.550599 
L 184.69272 174.612643 
L 184.61952 174.900153 
L 183.301001 173.456668 
L 183.747921 174.473624 
L 183.422198 174.431178 
L 182.686518 173.872629 
L 182.536875 174.081391 
L 182.004989 173.8217 
L 182.898557 175.276617 
L 182.230503 174.857732 
L 183.047274 176.145979 
L 182.986332 176.410775 
L 182.355369 176.056349 
L 182.966445 177.031011 
L 182.200266 176.554578 
L 182.938358 177.612824 
L 180.523151 175.550674 
L 182.511304 177.788254 
L 181.008691 176.683158 
L 180.455363 176.499816 
L 181.162391 177.448402 
L 179.338948 176.510131 
L 179.304745 176.808722 
L 178.918583 176.8205 
L 178.852478 177.408679 
L 178.524244 177.476847 
L 180.782931 179.686442 
L 180.792575 179.953369 
L 182.152729 181.117984 
L 179.329914 179.509217 
L 178.674598 179.367232 
L 179.177076 179.956808 
L 180.64239 181.102396 
L 177.755882 179.659232 
L 178.141834 180.160739 
L 179.733352 181.309448 
L 180.257615 181.833477 
L 179.072611 181.451069 
L 179.147369 181.736513 
L 180.9172 182.843943 
L 177.65118 181.513223 
L 177.971592 181.92027 
L 177.174424 181.819558 
L 174.572914 180.965931 
L 175.443473 181.622943 
L 176.868562 182.47381 
L 176.975191 182.772972 
L 177.241659 183.126123 
L 176.30966 183.040738 
L 176.522216 183.372628 
L 175.463918 183.276694 
L 177.044948 184.043546 
L 177.454233 184.410357 
L 175.81673 184.170881 
L 176.392319 184.585598 
L 176.016236 184.732596 
L 174.15346 184.515451 
L 173.348765 184.59649 
L 174.464895 185.128093 
L 174.668954 185.436367 
L 175.544058 185.871526 
L 174.97391 186.014055 
L 177.061504 186.631058 
L 175.613646 186.870094 
L 175.125888 187.047609 
L 175.638631 187.359885 
L 171.187604 187.700401 
L 174.908281 188.269983 
L 170.523875 188.249341 
L 143.658994 187.231873 
L 115.480914 186.826265 
L 96.859123 187.346935 
L 87.065774 188.432571 
L 84.086208 189.758222 
L 87.565192 191.077717 
L 97.599078 192.151318 
L 116.041156 192.669519 
L 144.833067 192.226869 
L 169.314307 191.341393 
L 172.207313 191.44568 
L 171.305412 191.805882 
L 171.967291 192.034981 
L 174.37229 192.055068 
L 174.013931 192.356925 
L 176.055164 192.342603 
L 176.708173 192.483971 
L 178.352485 192.450296 
L 176.087583 193.054361 
L 173.934197 194.235605 
L 175.521522 194.151056 
L 175.930938 194.306707 
L 175.683751 194.617659 
L 176.978616 194.530177 
L 180.895682 194.062114 
L 177.473438 195.337132 
L 178.806085 195.135625 
L 176.560695 196.385868 
L 176.31761 196.733778 
L 177.696353 196.711572 
L 177.114959 197.201127 
L 175.268332 198.252389 
L 175.28368 198.534979 
L 175.690366 198.641036 
L 176.296236 198.64404 
L 177.889336 198.15029 
L 178.186363 198.263639 
L 177.557851 198.851264 
L 175.704749 200.116503 
L 175.95868 200.284537 
L 175.10563 201.075678 
L 178.284391 199.549166 
L 177.495061 200.300463 
L 178.425542 200.022696 
L 178.416438 200.312669 
L 179.307924 200.021511 
L 178.677525 200.7205 
L 178.910966 200.853983 
L 177.395195 202.543482 
L 177.105078 203.092101 
L 177.163714 203.392636 
L 179.708058 202.064076 
L 179.737966 202.670547 
L 180.915513 201.979812 
L 179.417017 203.611348 
L 180.170441 203.274845 
L 181.369676 202.497933 
L 180.75498 203.400334 
L 181.252682 203.253906 
L 180.352323 204.489633 
L 179.881998 205.337721 
L 181.164808 204.37773 
L 183.606052 202.113736 
L 184.171341 201.798197 
L 182.415262 204.085202 
L 182.181893 204.715042 
L 181.255885 206.192052 
L 181.695829 206.071435 
L 183.239109 204.557618 
L 183.268735 204.897751 
L 183.412937 205.097424 
L 183.868738 204.879903 
L 182.774811 206.787752 
L 182.575661 207.518335 
L 183.038709 207.314611 
L 184.217626 206.020501 
L 183.850106 207.025549 
L 183.815345 207.552955 
L 186.565153 203.970623 
L 185.251195 206.628934 
L 185.033262 207.499796 
L 185.686551 206.831789 
L 185.416026 208.391724 
L 187.261087 205.785951 
L 187.206566 206.413119 
L 186.768402 207.91266 
L 186.998769 207.997616 
L 188.401517 206.467613 
L 188.214644 207.565684 
L 187.702351 209.616127 
L 188.877784 207.797617 
L 188.82043 208.717544 
L 189.307128 207.992577 
L 189.439637 208.364353 
L 189.390848 209.389271 
L 189.716877 210.120472 
L 190.231877 209.127942 
L 190.477945 209.152312 
L 190.354038 210.820546 
L 190.640033 210.748653 
L 190.747098 211.560003 
L 191.151912 210.876052 
L 191.786178 208.762566 
L 191.998976 208.930024 
L 192.150755 209.530838 
L 192.230426 210.766904 
L 192.721077 208.914251 
L 193.00972 210.816195 
L 193.428906 208.974824 
L 193.507882 211.121624 
L 194.098396 209.815411 
L 194.390293 208.585535 
L 194.847842 208.980396 
L 195.083746 206.851882 
L 195.305645 207.839176 
L 195.573827 209.721842 
L 196.21924 208.240609 
L 196.505834 209.036933 
L 196.724232 208.808243 
L 197.132929 210.56396 
L 197.500095 211.547194 
L 197.439192 208.855681 
L 197.639979 206.990939 
L 198.189223 209.058718 
L 199.339009 211.150854 
L 198.771219 206.179262 
L 199.511412 207.434429 
L 199.772586 207.547983 
L 200.349533 208.786333 
L 200.401779 208.096605 
L 201.044658 209.408714 
L 200.964159 208.320213 
L 201.146233 208.109625 
L 201.250098 207.682476 
L 200.892061 205.991364 
L 201.486644 206.983709 
L 200.892917 204.817916 
L 202.2819 207.757721 
L 202.699744 208.144849 
L 202.999897 208.225185 
L 203.575544 208.915415 
L 202.934386 206.898096 
L 203.490774 207.533387 
L 203.006593 205.991225 
L 202.929673 205.345397 
L 202.444866 203.945995 
L 203.726382 205.927449 
L 204.035487 206.022452 
L 204.099822 205.228023 
L 204.834375 206.02615 
L 205.095182 206.005739 
L 205.763941 206.624075 
L 205.611127 205.939951 
L 205.913344 205.965859 
L 205.474915 204.903994 
L 205.548041 204.616375 
L 206.86635 206.059566 
L 206.419572 205.042806 
L 206.745305 205.085266 
L 207.480989 205.643812 
L 207.63057 205.434972 
L 208.162547 205.694776 
L 207.26894 204.239811 
L 207.936933 204.658624 
L 207.120084 203.370291 
L 207.181208 203.1057 
L 207.81196 203.459891 
L 207.20123 202.485609 
L 207.967304 202.96193 
L 207.229346 201.903816 
L 209.644553 203.965961 
L 207.656234 201.728217 
L 209.158822 202.83329 
L 209.712143 203.016618 
L 209.005007 202.067937 
L 210.828545 203.006291 
L 210.86269 202.707653 
L 211.248747 202.695793 
L 211.315381 202.108015 
L 211.643488 202.039759 
L 209.384622 199.830028 
L 209.37499 199.563109 
L 208.01482 198.39848 
L 210.837556 200.00719 
L 211.492925 200.14921 
L 210.990353 199.559575 
L 209.525144 198.414051 
L 212.411719 199.857253 
L 212.025573 199.355635 
L 210.434046 198.206922 
L 209.909564 197.682773 
L 211.094923 198.065379 
L 211.020505 197.780106 
L 209.250045 196.672363 
L 212.516277 198.003188 
L 212.196183 197.596286 
L 212.993438 197.697034 
L 215.594579 198.550491 
L 214.72425 197.893575 
L 213.298974 197.04263 
L 213.192323 196.743459 
L 212.925802 196.390288 
L 213.857675 196.475628 
L 213.645221 196.143775 
L 214.703834 196.239809 
L 213.122628 195.472908 
L 212.7129 195.105961 
L 214.350789 195.345554 
L 213.774988 194.930778 
L 214.151271 194.783835 
L 216.014144 195.001005 
L 216.818725 194.919932 
L 215.702523 194.388312 
L 215.498382 194.080022 
L 214.623575 193.644924 
L 215.193548 193.502361 
L 213.105787 192.88533 
L 214.553028 192.646203 
L 215.041509 192.468805 
L 214.529166 192.156579 
L 218.979959 191.816032 
L 215.259095 191.246436 
L 219.643767 191.26709 
L 246.508626 192.284552 
L 274.68675 192.690159 
L 293.308445 192.169483 
L 303.101759 191.083844 
L 303.101759 191.083844 
" style="fill:none;stroke:#0000ff;stroke-linecap:square;"/>
   </g>
   <g id="line2d_2">
    <path clip-path="url(#pd8f6213e4f)" d="M 308.7678 189.758212 
L 306.201511 188.394523 
L 298.03353 187.230937 
L 283.779915 186.491339 
L 262.181869 186.461892 
L 240.206955 186.986007 
L 236.44086 186.707528 
L 238.779921 185.995322 
L 238.228518 185.508823 
L 234.118152 184.943777 
L 233.723917 184.510248 
L 234.007047 183.984486 
L 232.085977 183.804502 
L 233.147993 183.153439 
L 235.021844 182.322321 
L 234.623494 181.893267 
L 234.924989 181.323756 
L 234.546988 180.896445 
L 235.034853 180.270445 
L 234.327204 179.928238 
L 233.22391 179.705622 
L 230.735461 179.892054 
L 229.892668 179.663812 
L 230.951604 178.877816 
L 230.877147 178.418915 
L 231.547431 177.712237 
L 231.562472 177.208706 
L 232.27134 176.452278 
L 232.027952 176.025666 
L 232.266425 175.41527 
L 231.845789 175.056769 
L 232.393173 174.304141 
L 233.242003 173.401099 
L 231.65152 173.548833 
L 232.44679 172.644679 
L 231.887837 171.795231 
L 229.806141 172.280427 
L 230.228926 171.523655 
L 231.748412 170.16054 
L 230.900843 170.044695 
L 230.836681 169.504426 
L 230.576066 169.072671 
L 229.662817 169.032315 
L 228.003166 169.473859 
L 228.675218 168.486647 
L 228.758364 167.850468 
L 228.107479 167.692459 
L 228.440724 166.872756 
L 229.005546 165.867785 
L 229.092677 165.176582 
L 227.875863 164.80839 
L 227.636518 164.353781 
L 225.962624 164.416573 
L 225.929791 163.80355 
L 225.317894 163.678057 
L 225.307636 163.033061 
L 224.736252 162.882747 
L 224.918355 162.04328 
L 224.163348 162.072129 
L 224.273393 161.276337 
L 222.371253 161.792613 
L 222.116994 161.364305 
L 221.598842 161.215205 
L 221.766974 160.317807 
L 221.180657 160.244805 
L 221.253718 159.419941 
L 221.548368 158.306097 
L 221.530806 157.532376 
L 220.977776 157.404647 
L 219.760254 158.138188 
L 219.122705 158.163263 
L 220.157108 155.950696 
L 219.085528 155.678302 
L 218.90177 155.041959 
L 217.755993 155.826798 
L 217.745541 154.92453 
L 216.251766 156.330256 
L 216.425638 155.122509 
L 215.3749 155.904471 
L 215.126875 155.368145 
L 214.592728 155.320041 
L 214.829516 153.882511 
L 214.371895 153.672626 
L 213.992185 153.314197 
L 211.711231 154.602349 
L 210.573613 154.813626 
L 210.50587 153.781124 
L 209.829621 154.158519 
L 209.083285 154.751327 
L 209.215031 153.124237 
L 208.805832 152.842147 
L 208.969461 150.950237 
L 208.552352 150.607853 
L 208.001805 150.654694 
L 207.249534 151.355924 
L 206.744347 151.318356 
L 206.512018 150.349653 
L 206.118715 149.882959 
L 205.339812 150.846042 
L 204.278639 151.040342 
L 203.961752 150.222652 
L 203.549556 149.768852 
L 202.984982 150.036022 
L 202.589166 149.446672 
L 201.95689 150.147299 
L 201.547306 149.587279 
L 201.091121 149.259784 
L 200.43992 150.321297 
L 199.984691 150.022384 
L 199.428073 150.584113 
L 199.034121 149.649381 
L 198.505173 150.027218 
L 197.947694 150.932644 
L 197.0449 149.83799 
L 196.508688 151.070721 
L 196.044217 150.633011 
L 195.572653 149.920421 
L 194.587006 149.282093 
L 194.095585 149.504991 
L 193.589584 149.191503 
L 193.119787 149.780855 
L 192.621757 149.68439 
L 192.156441 150.073721 
L 191.641835 149.789395 
L 191.104771 149.358983 
L 190.677061 150.021805 
L 190.302033 150.989121 
L 189.977897 152.164407 
L 189.331828 150.981929 
L 188.180965 149.976519 
L 187.109992 149.671444 
L 186.74961 150.390851 
L 186.759942 152.690623 
L 186.057133 151.748932 
L 185.423689 151.193108 
L 185.11403 151.932488 
L 184.636864 152.008026 
L 184.003572 151.55001 
L 183.575277 151.819879 
L 183.027345 151.701208 
L 182.535232 151.773316 
L 182.232444 153.841224 
L 181.78911 153.992101 
L 181.229526 153.842499 
L 180.492345 153.27134 
L 179.58889 152.350318 
L 179.150066 152.587751 
L 178.512159 152.373315 
L 177.982866 152.422787 
L 178.128597 155.019055 
L 177.606545 156.072764 
L 177.227373 156.351279 
L 176.942225 156.797237 
L 176.216222 156.452371 
L 176.07864 157.149186 
L 173.695952 155.048023 
L 173.286052 155.335899 
L 173.138711 156.026263 
L 173.022495 157.602563 
L 172.359856 157.492767 
L 172.241744 158.156076 
L 170.48941 156.596593 
L 170.411521 157.330953 
L 170.575898 158.3543 
L 169.544414 157.847822 
L 169.352171 158.404195 
L 168.314281 157.943806 
L 169.28333 159.848362 
L 169.279852 161.288008 
L 168.953737 161.629739 
L 169.065818 162.430725 
L 168.669566 162.687641 
L 166.133812 161.51024 
L 165.055788 161.169223 
L 165.44173 162.222194 
L 165.432365 162.883762 
L 164.686435 162.879714 
L 164.569246 163.436222 
L 163.677892 163.332514 
L 163.760192 164.051638 
L 163.353877 164.36336 
L 163.64609 165.22403 
L 163.366321 165.626063 
L 163.649638 166.445086 
L 162.592348 166.273453 
L 163.757338 167.695667 
L 163.344546 167.982677 
L 162.103474 167.721503 
L 162.494131 168.556336 
L 162.505517 169.128272 
L 162.183935 169.485941 
L 162.668603 170.329323 
L 161.625996 170.258455 
L 161.648221 170.817223 
L 160.67804 170.82152 
L 161.688028 172.431333 
L 161.850401 173.02995 
L 159.979636 172.624941 
L 159.831259 173.085029 
L 159.410532 173.418681 
L 157.820929 173.240746 
L 157.663766 174.258345 
L 157.999442 174.927893 
L 159.385043 175.987703 
L 158.464847 176.146587 
L 158.116002 176.530944 
L 157.288146 176.755676 
L 156.857604 177.129996 
L 156.872688 177.653002 
L 157.47752 178.350487 
L 157.026289 178.721754 
L 155.70056 179.378002 
L 155.438851 179.827687 
L 155.889156 180.450102 
L 156.076563 180.998854 
L 155.218182 181.318606 
L 155.008198 181.78669 
L 155.251031 182.341944 
L 155.036236 182.809313 
L 156.101844 183.485975 
L 154.958042 183.806122 
L 155.764193 184.417974 
L 155.825707 184.916194 
L 154.854653 185.29689 
L 152.468852 185.561013 
L 150.994873 185.961509 
L 152.688177 186.630932 
L 150.461893 187.016804 
L 128.267595 186.475741 
L 106.639022 186.500598 
L 91.956827 187.22659 
L 83.872508 188.393382 
L 81.399692 189.758222 
L 83.965944 191.121888 
L 92.133877 192.285481 
L 106.387493 193.025084 
L 127.985597 193.054532 
L 149.960568 192.530416 
L 153.726563 192.808903 
L 151.387748 193.52109 
L 151.938978 194.007596 
L 156.049343 194.572645 
L 156.443574 195.006176 
L 156.160444 195.53194 
L 158.081603 195.711909 
L 157.019625 196.362967 
L 155.145692 197.19409 
L 155.544264 197.623101 
L 155.242508 198.192665 
L 155.620504 198.619979 
L 155.132636 199.245981 
L 155.840272 199.588193 
L 156.943534 199.810819 
L 159.432111 199.624344 
L 160.274824 199.85261 
L 159.215904 200.638601 
L 159.290345 201.097509 
L 158.62004 201.804195 
L 158.605107 202.307691 
L 157.896098 203.06417 
L 158.139543 203.490753 
L 157.900955 204.101195 
L 158.321702 204.459653 
L 157.774367 205.212263 
L 156.925546 206.115303 
L 158.515969 205.967596 
L 157.720732 206.871736 
L 158.279592 207.721221 
L 160.361379 207.235982 
L 159.938567 207.99277 
L 158.419004 209.355927 
L 159.266659 209.471728 
L 159.330651 210.012095 
L 159.591419 210.443752 
L 160.504679 210.484105 
L 162.16432 210.042566 
L 161.492275 211.029777 
L 161.409206 211.665906 
L 162.059997 211.82398 
L 161.726754 212.643673 
L 161.161927 213.648648 
L 161.074814 214.33984 
L 162.291649 214.70802 
L 162.530994 215.162632 
L 164.20482 215.099886 
L 164.237706 215.712865 
L 164.849484 215.838463 
L 164.859855 216.483361 
L 165.43124 216.633678 
L 165.249113 217.473172 
L 166.004137 217.444306 
L 165.894131 218.24005 
L 167.796275 217.723772 
L 168.050468 218.152152 
L 168.56865 218.30122 
L 168.400557 219.198578 
L 168.986837 219.271622 
L 168.913747 220.096508 
L 168.619168 221.210268 
L 168.636621 221.984125 
L 169.189717 222.111778 
L 170.407242 221.378232 
L 171.044792 221.353159 
L 170.010305 223.565841 
L 171.081896 223.838234 
L 171.265851 224.474292 
L 172.411454 223.689678 
L 172.421855 224.592025 
L 173.91568 223.186229 
L 173.741752 224.394068 
L 174.792545 223.612029 
L 175.040616 224.148278 
L 175.574763 224.196382 
L 175.33802 225.633829 
L 175.795551 225.843891 
L 176.175346 226.20216 
L 178.456248 224.91412 
L 179.593996 224.702508 
L 179.661568 225.735412 
L 180.337836 225.357972 
L 181.084244 224.764989 
L 180.95246 226.392185 
L 181.36167 226.674245 
L 181.19803 228.566187 
L 181.615129 228.908599 
L 182.165687 228.861744 
L 182.917933 228.160591 
L 183.423145 228.198081 
L 183.655461 229.166845 
L 184.048737 229.63364 
L 184.827689 228.67038 
L 185.888883 228.475929 
L 186.205743 229.29373 
L 186.617947 229.747488 
L 187.182519 229.480346 
L 187.578314 230.069808 
L 188.210603 229.369113 
L 188.620192 229.929127 
L 189.076373 230.256651 
L 189.727559 229.195243 
L 190.1828 229.494079 
L 190.739441 228.932185 
L 191.133382 229.867013 
L 191.662293 229.489382 
L 192.219795 228.583746 
L 193.122583 229.678495 
L 193.6588 228.445641 
L 194.123276 228.88333 
L 194.594838 229.59598 
L 195.580488 230.234213 
L 196.071913 230.011521 
L 196.577912 230.324946 
L 197.047726 229.735826 
L 197.545757 229.832266 
L 198.011068 229.442834 
L 198.525673 229.72734 
L 199.062715 230.15744 
L 199.490413 229.494519 
L 199.865439 228.527189 
L 200.189591 227.352001 
L 200.835659 228.534475 
L 201.986524 229.539895 
L 203.057517 229.845049 
L 203.417883 229.125563 
L 203.407504 226.82556 
L 204.11037 227.767504 
L 204.743729 228.32299 
L 205.053489 227.584083 
L 205.530609 227.508351 
L 206.163851 227.966198 
L 206.592193 227.696493 
L 207.14015 227.815231 
L 207.632264 227.743124 
L 207.935017 225.675106 
L 208.378368 225.524277 
L 208.937947 225.673866 
L 209.675142 226.245061 
L 210.578506 227.165853 
L 211.017475 226.928767 
L 211.655471 227.143449 
L 212.184625 227.09365 
L 212.03887 224.497332 
L 212.560865 223.443515 
L 212.940153 223.165202 
L 213.225344 222.719319 
L 213.951268 223.064043 
L 214.088879 222.367278 
L 216.471504 224.468335 
L 216.8814 224.180455 
L 217.028615 223.489882 
L 217.145025 221.913911 
L 217.807507 222.023484 
L 217.925691 221.360279 
L 219.678145 222.919926 
L 219.755921 222.185416 
L 219.591576 221.162095 
L 220.623099 221.668622 
L 220.815385 221.112301 
L 221.853315 221.572737 
L 220.884135 219.668025 
L 220.887573 218.228337 
L 221.213784 217.886697 
L 221.101586 217.085615 
L 221.497915 216.82878 
L 224.033671 218.006184 
L 225.111642 218.34715 
L 224.725793 217.294267 
L 224.735076 216.632611 
L 225.480929 216.636592 
L 225.598254 216.080204 
L 226.489602 216.183907 
L 226.407166 215.464672 
L 226.813753 215.15317 
L 226.521489 214.292457 
L 226.801405 213.890522 
L 226.517686 213.07122 
L 227.575168 213.242996 
L 226.410113 211.820735 
L 226.82292 211.533736 
L 228.064 211.794917 
L 227.673345 210.960073 
L 227.661985 210.388154 
L 227.983581 210.030494 
L 227.49892 209.187116 
L 228.541445 209.257935 
L 228.519233 208.699175 
L 229.48954 208.694949 
L 228.47956 207.085146 
L 228.317078 206.486473 
L 230.188074 206.891596 
L 230.336408 206.431485 
L 230.756922 206.097732 
L 232.346558 206.275683 
L 232.503667 205.25805 
L 232.168072 204.588536 
L 230.782515 203.528743 
L 231.70275 203.369872 
L 232.051608 202.985518 
L 232.879323 202.760737 
L 233.309875 202.38641 
L 233.295128 201.863531 
L 232.689925 201.165929 
L 233.141249 200.794689 
L 234.467076 200.138466 
L 234.728682 199.688753 
L 234.278359 199.066323 
L 234.090912 198.517563 
L 234.94927 198.197806 
L 235.159315 197.729734 
L 234.916564 197.174496 
L 235.131194 196.707097 
L 234.065735 196.030459 
L 235.209057 195.71023 
L 234.403348 195.098462 
L 234.341667 194.600222 
L 235.312848 194.219541 
L 237.698438 193.955397 
L 239.172373 193.554901 
L 237.479324 192.885499 
L 239.705625 192.499617 
L 261.900057 193.040684 
L 283.528583 193.015822 
L 298.210758 192.289827 
L 306.295034 191.123033 
L 306.295034 191.123033 
" style="fill:none;stroke:#008000;stroke-linecap:square;"/>
   </g>
   <g id="line2d_3">
    <path clip-path="url(#pd8f6213e4f)" d="M 312.036555 189.758212 
L 309.826714 188.350033 
L 302.97194 187.109705 
L 290.794058 186.232992 
L 273.09024 185.925999 
L 255.555137 186.04307 
L 252.554933 185.518882 
L 254.054887 184.679921 
L 253.761317 183.978975 
L 250.97151 183.560376 
L 249.319005 183.068931 
L 249.157185 182.414159 
L 248.805868 181.789288 
L 249.458364 181.009262 
L 249.361721 180.34009 
L 249.434998 179.638802 
L 250.712073 178.693049 
L 250.10273 178.110604 
L 250.68556 177.272407 
L 249.881156 176.744679 
L 248.37821 176.408644 
L 248.355176 175.71748 
L 248.533032 174.966803 
L 248.055554 174.396672 
L 247.204721 173.947487 
L 246.769058 173.384381 
L 248.248417 171.468364 
L 247.645551 170.951298 
L 247.2032 170.384868 
L 247.2049 168.914535 
L 247.160516 168.187307 
L 246.737131 167.616209 
L 247.325781 166.600911 
L 247.420713 165.786119 
L 246.289971 164.765978 
L 245.351678 164.455461 
L 244.017001 164.369916 
L 243.826952 163.704426 
L 244.636053 161.687179 
L 244.014402 161.240575 
L 243.027803 161.021651 
L 242.774194 160.372219 
L 242.816129 159.532014 
L 241.794835 159.369313 
L 241.920509 157.624585 
L 241.055774 156.529666 
L 240.191872 156.303744 
L 240.389062 155.287746 
L 239.977244 154.722984 
L 239.382065 154.304253 
L 238.603824 154.042208 
L 237.410711 154.143207 
L 237.17818 153.447304 
L 237.170663 152.543307 
L 237.4147 151.391671 
L 237.064307 150.760268 
L 235.967916 150.833245 
L 236.100281 149.73622 
L 234.88397 149.957986 
L 233.989282 149.885877 
L 233.892472 148.996135 
L 232.654211 147.269182 
L 232.085498 146.862899 
L 231.278443 145.654846 
L 230.175525 145.912424 
L 229.999647 145.017619 
L 230.003743 143.862069 
L 229.819771 142.922102 
L 229.393922 142.289741 
L 228.833202 141.837669 
L 227.634403 142.313604 
L 226.139641 142.021872 
L 225.777278 141.287829 
L 224.002449 141.510277 
L 222.767225 142.258808 
L 222.302967 141.709566 
L 221.90083 141.03478 
L 221.67652 140.006635 
L 220.092067 140.075206 
L 219.539264 139.651662 
L 218.479375 140.292312 
L 217.782598 140.201043 
L 217.453065 139.29383 
L 216.818489 139.054899 
L 216.408867 138.274814 
L 215.6825 138.249499 
L 214.789667 138.67254 
L 214.300159 136.051931 
L 213.87336 135.14082 
L 212.930208 135.736205 
L 212.140224 135.918066 
L 211.16446 136.747195 
L 209.993011 135.883053 
L 209.470572 135.173677 
L 208.77193 135.11193 
L 208.180617 134.609886 
L 207.505098 134.443414 
L 206.657153 135.089713 
L 206.001228 134.872335 
L 205.11607 135.874693 
L 204.491939 135.53745 
L 203.923623 134.818503 
L 203.410863 133.621355 
L 202.624596 134.235773 
L 201.267045 134.001546 
L 200.568504 134.070523 
L 198.44183 135.098654 
L 197.821163 134.036779 
L 197.123525 134.377783 
L 196.438141 134.58632 
L 195.768664 133.948804 
L 195.083743 133.716951 
L 194.399792 134.027224 
L 193.705727 133.62391 
L 192.99138 132.950165 
L 192.31416 133.381927 
L 191.619373 133.368571 
L 190.878617 132.750683 
L 190.213273 133.200369 
L 189.651318 134.601822 
L 188.415945 135.697126 
L 187.689518 135.315319 
L 186.798079 133.900773 
L 186.123627 134.07119 
L 184.671519 133.834232 
L 184.071293 134.394872 
L 183.536711 135.214308 
L 182.757988 134.86911 
L 182.160735 135.341971 
L 181.766672 136.593476 
L 181.189766 137.043582 
L 180.47742 136.977726 
L 179.831747 137.164139 
L 179.07708 136.991314 
L 178.238723 136.585535 
L 177.712066 137.173385 
L 177.242688 137.898084 
L 177.054661 139.370287 
L 176.454392 139.640286 
L 175.263964 138.377362 
L 174.173999 139.277612 
L 172.758229 137.676722 
L 171.929788 137.523724 
L 172.065233 139.503139 
L 171.632888 140.175536 
L 171.526285 141.491674 
L 169.53305 140.511961 
L 169.313131 141.544769 
L 168.615065 141.667784 
L 167.777646 141.5562 
L 167.171862 141.866906 
L 166.397542 141.898175 
L 165.136412 141.15677 
L 164.798634 141.932804 
L 164.991812 143.503577 
L 164.487523 143.967721 
L 163.916997 144.330734 
L 163.460645 144.856859 
L 162.442236 144.598359 
L 162.216372 145.441694 
L 160.886897 144.812527 
L 160.405529 145.322174 
L 159.847682 145.732137 
L 159.493089 146.390868 
L 158.822994 146.663802 
L 158.963056 147.884297 
L 158.909931 148.848683 
L 157.691761 149.506431 
L 157.143993 149.908838 
L 155.985371 149.688244 
L 156.169199 150.843666 
L 154.5675 150.224381 
L 153.779333 150.433148 
L 152.85871 150.533169 
L 153.516318 152.083685 
L 152.991729 152.538795 
L 152.353491 152.898838 
L 152.331569 153.785424 
L 150.919926 153.513905 
L 150.27729 153.897575 
L 150.560969 155.012304 
L 151.421932 156.538195 
L 150.962975 157.036014 
L 150.78501 157.739117 
L 149.6237 157.741637 
L 148.967701 158.119055 
L 148.581317 158.686288 
L 147.518644 158.813711 
L 148.055937 159.978175 
L 147.701028 160.561834 
L 146.950312 160.908141 
L 147.392575 161.962971 
L 148.003249 163.087443 
L 148.033986 163.862309 
L 147.544775 164.348095 
L 148.108431 165.385759 
L 146.600347 165.353717 
L 145.762526 165.685993 
L 145.2639 166.195181 
L 144.529449 166.602645 
L 142.749321 166.559963 
L 143.220041 167.526045 
L 142.150918 167.832712 
L 142.02265 168.538642 
L 142.827948 169.600926 
L 143.299591 170.509504 
L 143.312892 171.234308 
L 140.441211 172.447533 
L 141.297041 173.442192 
L 141.704995 174.278661 
L 140.78746 174.732408 
L 140.341599 175.329847 
L 141.022595 176.919524 
L 140.840644 178.274858 
L 140.553534 178.911479 
L 139.969347 179.496718 
L 139.731577 180.153704 
L 139.046041 180.741675 
L 139.730133 181.547274 
L 139.963393 182.271967 
L 139.368096 182.886341 
L 137.192498 183.338194 
L 135.910297 183.930139 
L 136.742113 184.734136 
L 138.105015 185.555215 
L 133.412218 185.969333 
L 116.467029 185.896016 
L 99.516894 186.238275 
L 87.573664 187.118989 
L 80.606039 188.353295 
L 78.130947 189.758222 
L 80.340749 191.166378 
L 87.195479 192.406711 
L 99.373346 193.28343 
L 117.077228 193.590425 
L 134.612396 193.473353 
L 137.612579 193.997543 
L 136.112591 194.83651 
L 136.406193 195.53744 
L 139.1959 195.956053 
L 140.848499 196.447489 
L 141.010307 197.102265 
L 141.361635 197.727136 
L 140.709166 198.507159 
L 140.805733 199.176346 
L 140.732422 199.877629 
L 139.455374 200.823379 
L 140.064735 201.405824 
L 139.481932 202.244017 
L 140.286324 202.771749 
L 141.78928 203.107785 
L 141.812321 203.798949 
L 141.634417 204.549628 
L 142.111897 205.11976 
L 142.962797 205.568927 
L 143.398434 206.132043 
L 141.919106 208.048054 
L 142.521905 208.565146 
L 142.964278 209.131556 
L 142.962592 210.601887 
L 143.006995 211.329109 
L 143.430389 211.900207 
L 142.841675 212.915534 
L 142.746812 213.730298 
L 143.877478 214.750463 
L 144.815814 215.060961 
L 146.150492 215.146509 
L 146.340662 215.811936 
L 145.531408 217.829272 
L 146.153032 218.275876 
L 147.139769 218.494722 
L 147.393298 219.144203 
L 147.351363 219.984411 
L 148.372662 220.147109 
L 148.246981 221.891834 
L 149.111717 222.986757 
L 149.975619 223.212678 
L 149.778437 224.228674 
L 150.190223 224.793465 
L 150.785511 225.212109 
L 151.56372 225.474166 
L 152.756769 225.373221 
L 152.98925 226.069171 
L 152.996827 226.973115 
L 152.752792 228.124754 
L 153.103264 228.756089 
L 154.199548 228.683212 
L 154.067198 229.780209 
L 155.283449 229.558504 
L 156.178211 229.630542 
L 156.274959 230.520355 
L 157.513284 232.247245 
L 158.08197 232.653544 
L 158.889078 233.86154 
L 159.991969 233.604001 
L 160.167839 234.498816 
L 160.163736 235.65438 
L 160.347615 236.594474 
L 160.773676 237.226551 
L 161.334271 237.678803 
L 162.533004 237.202965 
L 164.027822 237.494575 
L 164.390225 238.228561 
L 166.165054 238.006125 
L 167.400266 237.257614 
L 167.864523 237.806857 
L 168.266655 238.481652 
L 168.49097 239.509802 
L 170.075429 239.44122 
L 170.628263 239.864717 
L 171.688153 239.224062 
L 172.384991 239.315198 
L 172.714344 240.222746 
L 173.349026 240.461451 
L 173.75861 241.241623 
L 174.484929 241.267058 
L 175.377814 240.843908 
L 175.867331 243.464492 
L 176.294129 244.375608 
L 177.237303 243.780177 
L 178.027249 243.598433 
L 179.003015 242.769303 
L 180.174521 243.633271 
L 180.696892 244.3429 
L 181.395617 244.404239 
L 181.986913 244.906342 
L 182.662369 245.073079 
L 183.510318 244.426767 
L 184.166264 244.644082 
L 185.051423 243.641714 
L 185.675551 243.978975 
L 186.243872 244.697931 
L 186.756625 245.89513 
L 187.542902 245.28064 
L 188.900448 245.514964 
L 189.599006 245.445835 
L 191.725655 244.417741 
L 192.346319 245.479667 
L 193.043956 245.13871 
L 193.72935 244.930067 
L 194.398826 245.567602 
L 195.083747 245.799491 
L 195.767705 245.489238 
L 196.461772 245.892581 
L 197.176118 246.566296 
L 197.853329 246.134205 
L 198.548129 246.147824 
L 199.288904 246.765973 
L 199.954204 246.316059 
L 200.516167 244.91461 
L 201.751539 243.819303 
L 202.477972 244.201098 
L 203.369409 245.615634 
L 204.043861 245.445223 
L 205.495984 245.682226 
L 206.0962 245.121531 
L 206.630798 244.302173 
L 207.409479 244.647151 
L 208.006792 244.174554 
L 208.400807 242.922847 
L 208.977691 242.472767 
L 209.690103 242.538841 
L 210.335718 242.352222 
L 211.090395 242.525083 
L 211.92877 242.930896 
L 212.455453 242.343126 
L 212.924806 241.618351 
L 213.112811 240.146068 
L 213.71308 239.876069 
L 214.903515 241.139015 
L 215.99346 240.238703 
L 217.409302 241.839761 
L 218.237664 241.992646 
L 218.102299 240.013392 
L 218.534576 239.340847 
L 218.641199 238.024753 
L 220.63442 239.00444 
L 220.854361 237.971645 
L 221.552448 237.848669 
L 222.389839 237.960202 
L 222.995609 237.649471 
L 223.769895 237.618149 
L 225.031156 238.359767 
L 225.368788 237.5835 
L 225.17595 236.01323 
L 225.679953 235.548694 
L 226.250476 235.185678 
L 226.706775 234.659478 
L 227.725161 234.917947 
L 227.951107 234.074725 
L 229.280518 234.703811 
L 229.761925 234.194194 
L 230.319876 233.784361 
L 230.67446 233.125618 
L 231.344462 232.852571 
L 231.204423 231.632105 
L 231.257581 230.667756 
L 232.475663 230.009894 
L 233.023531 229.607631 
L 234.181962 229.828029 
L 233.998166 228.672643 
L 235.599949 229.292013 
L 236.388059 229.083193 
L 237.308768 228.983254 
L 236.651133 227.432696 
L 237.175687 226.977555 
L 237.814017 226.617592 
L 237.835927 225.730996 
L 239.247584 226.002527 
L 239.890262 225.61889 
L 239.606493 224.504091 
L 238.745624 222.978255 
L 239.204597 222.480479 
L 239.382573 221.777382 
L 240.543723 221.774749 
L 241.199752 221.397353 
L 241.58625 220.830196 
L 242.648854 220.702711 
L 242.11154 219.538234 
L 242.46646 218.954581 
L 243.217208 218.608294 
L 242.774871 217.553421 
L 242.164172 216.428935 
L 242.13346 215.654084 
L 242.622848 215.168378 
L 242.058905 214.130593 
L 243.567274 214.162781 
L 244.405039 213.830476 
L 244.903497 213.321207 
L 245.638098 212.913813 
L 247.418073 212.956427 
L 246.947418 211.99036 
L 248.016491 211.683672 
L 248.144856 210.977782 
L 247.339521 209.915484 
L 246.867909 209.006918 
L 246.854595 208.282109 
L 249.726251 207.06889 
L 248.870409 206.074229 
L 248.462645 205.237814 
L 249.380004 204.784017 
L 249.825876 204.186581 
L 249.144988 202.596917 
L 249.326834 201.241558 
L 249.613984 200.604945 
L 250.198199 200.019711 
L 250.435892 199.362711 
L 251.121431 198.77474 
L 250.437507 197.969154 
L 250.204127 197.244469 
L 250.799431 196.630096 
L 252.974851 196.178223 
L 254.257225 195.586297 
L 253.425417 194.7823 
L 252.062556 193.961223 
L 256.755337 193.547089 
L 273.700645 193.62041 
L 290.6507 193.278145 
L 302.593903 192.397427 
L 309.561504 191.16312 
L 309.561504 191.16312 
" style="fill:none;stroke:#ff0000;stroke-linecap:square;"/>
   </g>
   <g id="patch_3">
    <path d="M 195.083746 350.655638 
C 237.754242 350.655638 278.68281 333.702471 308.855407 303.529873 
C 339.028005 273.357276 355.981172 232.428708 355.981172 189.758212 
C 355.981172 147.087716 339.028005 106.159148 308.855407 75.986551 
C 278.68281 45.813953 237.754242 28.860785 195.083746 28.860785 
C 152.41325 28.860785 111.484682 45.813953 81.312085 75.986551 
C 51.139487 106.159148 34.186319 147.087716 34.186319 189.758212 
C 34.186319 232.428708 51.139487 273.357276 81.312085 303.529873 
C 111.484682 333.702471 152.41325 350.655638 195.083746 350.655638 
z
" style="fill:none;stroke:#000000;stroke-linecap:square;stroke-linejoin:miter;"/>
   </g>
   <g id="matplotlib.axis_1">
    <g id="xtick_1">
     <g id="line2d_4">
      <path clip-path="url(#pd8f6213e4f)" d="M 195.083746 189.758212 
L 355.981172 189.758212 
" style="fill:none;stroke:#000000;stroke-dasharray:1.000000,3.000000;stroke-dashoffset:0.0;stroke-width:0.5;"/>
     </g>
     <g id="text_1">
      <!-- $0^\circ$ -->
      <defs>
       <path d="M 44.40625 25 
C 44.40625 35.578125 35.5 44.1875 25 44.1875 
C 14.203125 44.1875 5.5 35.375 5.5 25 
C 5.5 14.53125 14.203125 5.8125 25 5.8125 
C 35.5 5.8125 44.40625 14.421875 44.40625 25 
M 25 9.8125 
C 16.296875 9.8125 9.5 16.71875 9.5 25 
C 9.5 33.28125 16.40625 40.1875 25 40.1875 
C 33.296875 40.1875 40.40625 33.46875 40.40625 25 
C 40.40625 16.53125 33.296875 9.8125 25 9.8125 
" id="CMSY10-14"/>
       <path d="M 42 31.640625 
C 42 37.75 41.90625 48.125 37.703125 56.109375 
C 34 63.109375 28.09375 65.59375 22.90625 65.59375 
C 18.09375 65.59375 12 63.40625 8.203125 56.203125 
C 4.203125 48.71875 3.796875 39.4375 3.796875 31.640625 
C 3.796875 25.953125 3.90625 17.28125 7 9.671875 
C 11.296875 -0.609375 19 -2 22.90625 -2 
C 27.5 -2 34.5 -0.109375 38.59375 9.375 
C 41.59375 16.28125 42 24.359375 42 31.640625 
M 22.90625 -0.40625 
C 16.5 -0.40625 12.703125 5.078125 11.296875 12.6875 
C 10.203125 18.5625 10.203125 27.15625 10.203125 32.75 
C 10.203125 40.4375 10.203125 46.828125 11.5 52.921875 
C 13.40625 61.390625 19 64 22.90625 64 
C 27 64 32.296875 61.296875 34.203125 53.125 
C 35.5 47.4375 35.59375 40.734375 35.59375 32.75 
C 35.59375 26.25 35.59375 18.265625 34.40625 12.375 
C 32.296875 1.484375 26.40625 -0.40625 22.90625 -0.40625 
" id="CMR17-48"/>
      </defs>
      <g transform="translate(367.027328533 193.057819607)scale(0.12 -0.12)">
       <use transform="scale(0.9962640099626402)" xlink:href="#CMR17-48"/>
       <use transform="translate(45.69047711706103 36.15363894185866)scale(0.6973817666173724)" xlink:href="#CMSY10-14"/>
      </g>
     </g>
    </g>
    <g id="xtick_2">
     <g id="line2d_5">
      <path clip-path="url(#pd8f6213e4f)" d="M 195.083746 189.758212 
L 195.083746 28.860785 
" style="fill:none;stroke:#000000;stroke-dasharray:1.000000,3.000000;stroke-dashoffset:0.0;stroke-width:0.5;"/>
     </g>
     <g id="text_2">
      <!-- $90^\circ$ -->
      <defs>
       <path d="M 35.203125 29.125 
C 35.203125 7.25 26.09375 0.484375 18.59375 0.484375 
C 16.296875 0.484375 10.703125 0.484375 8.40625 4.59375 
C 11 4.1875 12.90625 5.578125 12.90625 8.09375 
C 12.90625 10.8125 10.703125 11.703125 9.296875 11.703125 
C 8.40625 11.703125 5.703125 11.296875 5.703125 7.90625 
C 5.703125 1.109375 11.59375 -2 18.796875 -2 
C 30.296875 -2 42 10.53125 42 32.390625 
C 42 59.640625 30.796875 65.296875 23.203125 65.296875 
C 13.296875 65.296875 3.796875 56.6875 3.796875 43.40625 
C 3.796875 31.109375 11.90625 22 22.09375 22 
C 30.5 22 34.203125 29.734375 35.203125 33 
z
M 22.296875 23.59375 
C 19.59375 23.59375 15.796875 24.09375 12.703125 30.03125 
C 10.59375 33.890625 10.59375 38.453125 10.59375 43.296875 
C 10.59375 49.15625 10.59375 53.203125 13.40625 57.5625 
C 14.796875 59.640625 17.40625 63 23.203125 63 
C 35 63 35 45.078125 35 41.125 
C 35 34.09375 31.796875 23.59375 22.296875 23.59375 
" id="CMR17-57"/>
      </defs>
      <g transform="translate(187.113664266 16.070650466)scale(0.12 -0.12)">
       <use transform="scale(0.9962640099626402)" xlink:href="#CMR17-57"/>
       <use transform="translate(45.69047711706103 0.0)scale(0.9962640099626402)" xlink:href="#CMR17-48"/>
       <use transform="translate(91.38095423412206 36.15363894185866)scale(0.6973817666173724)" xlink:href="#CMSY10-14"/>
      </g>
     </g>
    </g>
    <g id="xtick_3">
     <g id="line2d_6">
      <path clip-path="url(#pd8f6213e4f)" d="M 195.083746 189.758212 
L 34.186319 189.758212 
" style="fill:none;stroke:#000000;stroke-dasharray:1.000000,3.000000;stroke-dashoffset:0.0;stroke-width:0.5;"/>
     </g>
     <g id="text_3">
      <!-- $180^\circ$ -->
      <defs>
       <path d="M 26.59375 63.40625 
C 26.59375 65.5 26.5 65.5 25.09375 65.5 
C 21.203125 61.1875 15.296875 59.796875 9.703125 59.796875 
C 9.40625 59.796875 8.90625 59.796875 8.796875 59.5 
C 8.703125 59.296875 8.703125 59.09375 8.703125 57 
C 11.796875 57 17 57.59375 21 59.984375 
L 21 7.203125 
C 21 3.6875 20.796875 2.5 12.203125 2.5 
L 9.203125 2.5 
L 9.203125 0 
C 14 0 19 0 23.796875 0 
C 28.59375 0 33.59375 0 38.40625 0 
L 38.40625 2.5 
L 35.40625 2.5 
C 26.796875 2.5 26.59375 3.59375 26.59375 7.15625 
z
" id="CMR17-49"/>
       <path d="M 27.203125 35.375 
C 33.5 38.546875 39.90625 43.328125 39.90625 50.984375 
C 39.90625 60.015625 31.09375 65.296875 23 65.296875 
C 13.90625 65.296875 5.90625 58.734375 5.90625 49.6875 
C 5.90625 47.203125 6.5 42.921875 10.40625 39.140625 
C 11.40625 38.15625 15.59375 35.171875 18.296875 33.28125 
C 13.796875 30.984375 3.296875 25.53125 3.296875 14.59375 
C 3.296875 4.359375 13.09375 -2 22.796875 -2 
C 33.5 -2 42.5 5.65625 42.5 15.78125 
C 42.5 24.84375 36.40625 29.015625 32.40625 31.703125 
z
M 14.09375 44.09375 
C 13.296875 44.59375 9.296875 47.671875 9.296875 52.359375 
C 9.296875 58.421875 15.59375 63 22.796875 63 
C 30.703125 63 36.5 57.4375 36.5 50.96875 
C 36.5 41.703125 26.09375 36.421875 25.59375 36.421875 
C 25.5 36.421875 25.40625 36.421875 24.59375 37.03125 
z
M 32.5 23.734375 
C 34 22.640625 38.796875 19.375 38.796875 13.296875 
C 38.796875 5.953125 31.40625 0.390625 23 0.390625 
C 13.90625 0.390625 7 6.84375 7 14.6875 
C 7 22.546875 13.09375 29.09375 20 32.1875 
z
" id="CMR17-56"/>
      </defs>
      <g transform="translate(7.2 193.057819607)scale(0.12 -0.12)">
       <use transform="scale(0.9962640099626402)" xlink:href="#CMR17-49"/>
       <use transform="translate(45.69047711706103 0.0)scale(0.9962640099626402)" xlink:href="#CMR17-56"/>
       <use transform="translate(91.38095423412206 0.0)scale(0.9962640099626402)" xlink:href="#CMR17-48"/>
       <use transform="translate(137.07143135118307 36.15363894185866)scale(0.6973817666173724)" xlink:href="#CMSY10-14"/>
      </g>
     </g>
    </g>
    <g id="xtick_4">
     <g id="line2d_7">
      <path clip-path="url(#pd8f6213e4f)" d="M 195.083746 189.758212 
L 195.083746 350.655638 
" style="fill:none;stroke:#000000;stroke-dasharray:1.000000,3.000000;stroke-dashoffset:0.0;stroke-width:0.5;"/>
     </g>
     <g id="text_4">
      <!-- $270^\circ$ -->
      <defs>
       <path d="M 41.703125 15.453125 
L 39.90625 15.453125 
C 38.90625 8.375 38.09375 7.171875 37.703125 6.5625 
C 37.203125 5.765625 30 5.765625 28.59375 5.765625 
L 9.40625 5.765625 
C 13 9.671875 20 16.75 28.5 24.953125 
C 34.59375 30.734375 41.703125 37.53125 41.703125 47.421875 
C 41.703125 59.21875 32.296875 66 21.796875 66 
C 10.796875 66 4.09375 56.3125 4.09375 47.34375 
C 4.09375 43.4375 7 42.9375 8.203125 42.9375 
C 9.203125 42.9375 12.203125 43.546875 12.203125 47.03125 
C 12.203125 50.109375 9.59375 51 8.203125 51 
C 7.59375 51 7 50.90625 6.59375 50.703125 
C 8.5 59.21875 14.296875 63.40625 20.40625 63.40625 
C 29.09375 63.40625 34.796875 56.515625 34.796875 47.421875 
C 34.796875 38.734375 29.703125 31.25 24 24.75 
L 4.09375 2.28125 
L 4.09375 0 
L 39.296875 0 
z
" id="CMR17-50"/>
       <path d="M 45.09375 61.578125 
L 45.09375 63.765625 
L 21.59375 63.765625 
C 9.90625 63.765625 9.703125 65.078125 9.296875 67 
L 7.5 67 
L 4.59375 48.34375 
L 6.40625 48.34375 
C 6.703125 50.234375 7.40625 55.3125 8.59375 57.203125 
C 9.203125 58 16.59375 58 18.296875 58 
L 40.296875 58 
L 29.203125 41.578125 
C 21.796875 30.53125 16.703125 15.609375 16.703125 2.578125 
C 16.703125 1.390625 16.703125 -2 20.296875 -2 
C 23.90625 -2 23.90625 1.390625 23.90625 2.671875 
L 23.90625 7.265625 
C 23.90625 23.5625 26.703125 34.3125 31.296875 41.1875 
z
" id="CMR17-55"/>
      </defs>
      <g transform="translate(184.187169141 370.044988747)scale(0.12 -0.12)">
       <use transform="scale(0.9962640099626402)" xlink:href="#CMR17-50"/>
       <use transform="translate(45.69047711706103 0.0)scale(0.9962640099626402)" xlink:href="#CMR17-55"/>
       <use transform="translate(91.38095423412206 0.0)scale(0.9962640099626402)" xlink:href="#CMR17-48"/>
       <use transform="translate(137.07143135118307 36.15363894185866)scale(0.6973817666173724)" xlink:href="#CMSY10-14"/>
      </g>
     </g>
    </g>
   </g>
   <g id="matplotlib.axis_2">
    <g id="ytick_1">
     <g id="line2d_8">
      <path clip-path="url(#pd8f6213e4f)" d="M 195.083746 189.758212 
L 195.083746 189.758212 
" style="fill:none;stroke:#000000;stroke-dasharray:1.000000,3.000000;stroke-dashoffset:0.0;stroke-width:0.5;"/>
     </g>
     <g id="text_5">
      <!-- -15dB -->
      <defs>
       <path d="M 16.40625 59.703125 
C 21.796875 58.40625 24.59375 58 28.5 58 
C 37 58 43.203125 61 46.5 66.484375 
C 47.59375 68.390625 48 69.28125 48 70.078125 
C 48 70.6875 47.703125 70.984375 47.203125 70.984375 
C 46.90625 70.984375 46.40625 70.875 45.90625 70.578125 
C 41 68.484375 38.296875 67.984375 32.59375 67.984375 
C 26.203125 67.984375 22.5 68.484375 12 70.984375 
C 11.59375 62.625 10.703125 51.984375 9.296875 39.65625 
C 7.203125 37.46875 6.5 36.171875 6.5 34.578125 
C 6.5 32.59375 7.796875 31.203125 9.703125 31.203125 
C 12.203125 31.203125 13.796875 33.328125 14.203125 37.359375 
C 17.703125 39.890625 21 41 25 41 
C 33.90625 41 39.296875 34.03125 39.296875 22.5 
C 39.296875 15.734375 37.59375 9.953125 34.59375 6.828125 
C 32.59375 4.703125 28.5 3.296875 24.40625 3.296875 
C 18.40625 3.296875 12.203125 6.421875 12.203125 9.5625 
C 12.203125 10.28125 12.796875 11.078125 14 11.78125 
C 17.09375 13.703125 18 15.03125 18 17.75 
C 18 21.296875 15.296875 24.015625 11.703125 24.015625 
C 7.703125 24.015625 4.5 20.28125 4.5 15.546875 
C 4.5 10.5 7.40625 5.453125 11.90625 2.328125 
C 15.296875 0.109375 19.40625 -1 24.59375 -1 
C 40.296875 -1 50.203125 8.28125 50.203125 23.109375 
C 50.203125 36.828125 41.09375 46 27.59375 46 
C 23.40625 46 20.203125 45.296875 14.703125 43 
z
" id="Century_Schoolbook_L_Roman-53"/>
       <path d="M 3 72 
L 3 67.3125 
L 4.796875 67.3125 
C 12.90625 67.3125 13.796875 66.8125 13.796875 62.609375 
L 13.796875 59.734375 
L 13.796875 12.28125 
L 13.796875 9.375 
C 13.796875 5.1875 12.90625 4.6875 4.796875 4.6875 
L 3 4.6875 
L 3 0 
L 39.296875 0 
C 56.59375 0 67 7.40625 67 19.59375 
C 67 29.484375 60.59375 35.296875 47 37.6875 
C 51.796875 38.6875 54 39.578125 56.5 41.46875 
C 60.703125 44.546875 63.203125 49.421875 63.203125 54.5 
C 63.203125 60.859375 59.203125 67.125 53.40625 69.609375 
C 49.796875 71.203125 44.796875 72 38.90625 72 
z
M 25 39.6875 
L 25 62.328125 
C 25 66.203125 26.40625 67.3125 31.59375 67.3125 
L 35.59375 67.3125 
C 40.203125 67.3125 44 66.609375 46.09375 65.21875 
C 49.703125 63.03125 51.59375 58.75 51.59375 53.203125 
C 51.59375 43.46875 46.703125 39.6875 33.90625 39.6875 
z
M 25 35 
L 33.796875 35 
C 40.203125 35 44.5 34.390625 47.5 33.09375 
C 52.203125 30.890625 54.703125 26.5 54.703125 19.890625 
C 54.703125 13.59375 52.5 8.890625 48.59375 6.984375 
C 45.5 5.390625 41.296875 4.6875 35 4.6875 
L 30.796875 4.6875 
C 25.703125 4.6875 25 5.484375 25 11 
z
" id="Century_Schoolbook_L_Roman-66"/>
       <path d="M 38 0 
L 55.40625 0 
L 55.40625 4.703125 
L 53.59375 4.703125 
C 48.203125 4.703125 47.40625 5.703125 47.40625 11.96875 
L 47.40625 73.78125 
L 27.796875 73.78125 
L 27.796875 69 
L 33.703125 69 
C 37.296875 69 38 68.28125 38 63.921875 
L 38 41 
C 34.296875 46.09375 30 48.390625 24.203125 48.390625 
C 12.90625 48.390625 4.296875 37.546875 4.296875 23.203125 
C 4.296875 9.0625 12.59375 -1 24.203125 -1 
C 30.5 -1 34.796875 1.671875 38 7.59375 
z
M 26.203125 43 
C 30.296875 43 34.203125 40.03125 36 35.4375 
C 37.203125 32.453125 37.90625 28.28125 37.90625 23.515625 
C 37.90625 11.96875 33.296875 4.390625 26.09375 4.390625 
C 19.09375 4.390625 14.796875 10.96875 14.796875 22.015625 
C 14.796875 27.890625 15.40625 32.359375 16.703125 35.734375 
C 18.40625 40.125 22.09375 43 26.203125 43 
" id="Century_Schoolbook_L_Roman-100"/>
       <path d="M 4.203125 27.28125 
L 4.203125 19 
L 29.09375 19 
L 29.09375 27.28125 
z
" id="Century_Schoolbook_L_Roman-45"/>
       <path d="M 32.203125 70.5 
C 28.796875 66.234375 19.59375 63 10.40625 63 
L 10.40625 58.59375 
L 19.203125 58.59375 
C 25 58.59375 25.40625 58.203125 25.40625 52.3125 
L 25.40625 12.28125 
L 25.40625 9.375 
C 25.40625 5.1875 24.5 4.6875 16.5 4.6875 
L 10 4.6875 
L 10 0 
L 49.59375 0 
L 49.59375 4.6875 
L 44.09375 4.6875 
C 38.796875 4.6875 36.59375 5.09375 35.796875 6.09375 
C 35.09375 6.78125 35.09375 6.78125 35.09375 12.3125 
L 35.09375 53.671875 
C 35.09375 58.578125 35.296875 63.375 35.796875 70.5 
z
" id="Century_Schoolbook_L_Roman-49"/>
      </defs>
      <g transform="translate(195.083745942 187.486776813)scale(0.12 -0.12)">
       <use transform="scale(0.9962640099626402)" xlink:href="#Century_Schoolbook_L_Roman-45"/>
       <use transform="translate(33.17522972933531 0.0)scale(0.9962640099626402)" xlink:href="#Century_Schoolbook_L_Roman-49"/>
       <use transform="translate(88.56690669267591 0.0)scale(0.9962640099626402)" xlink:href="#Century_Schoolbook_L_Roman-53"/>
       <use transform="translate(143.95858365601651 0.0)scale(0.9962640099626402)" xlink:href="#Century_Schoolbook_L_Roman-100"/>
       <use transform="translate(201.1440709400296 0.0)scale(0.9962640099626402)" xlink:href="#Century_Schoolbook_L_Roman-66"/>
      </g>
     </g>
    </g>
    <g id="ytick_2">
     <g id="line2d_9">
      <path clip-path="url(#pd8f6213e4f)" d="M 248.716221 189.758212 
L 248.68355 187.886466 
L 248.585575 186.017 
L 248.194274 182.294014 
L 247.544223 178.607393 
L 246.63859 174.975098 
L 245.481787 171.414825 
L 244.07945 167.943919 
L 242.438411 164.57929 
L 240.566665 161.33733 
L 238.47333 158.233834 
L 236.168606 155.283921 
L 233.66372 152.501964 
L 230.970877 149.901515 
L 228.103195 147.495244 
L 225.074646 145.294875 
L 221.899984 143.311126 
L 218.594676 141.553662 
L 215.174825 140.031047 
L 211.657092 138.750697 
L 208.058616 137.71885 
L 204.396928 136.940534 
L 200.689866 136.419541 
L 196.955492 136.158408 
L 193.212 136.158408 
L 189.477626 136.419541 
L 185.770564 136.940534 
L 182.108876 137.71885 
L 178.5104 138.750697 
L 174.992667 140.031047 
L 171.572816 141.553662 
L 168.267508 143.311126 
L 165.092846 145.294875 
L 162.064297 147.495244 
L 159.196615 149.901515 
L 156.503772 152.501964 
L 153.998886 155.283921 
L 151.694162 158.233834 
L 149.600827 161.33733 
L 147.729081 164.57929 
L 146.088042 167.943919 
L 144.685704 171.414825 
L 143.528902 174.975098 
L 142.623269 178.607393 
L 141.973218 182.294014 
L 141.581916 186.017 
L 141.45127 189.758212 
L 141.581916 193.499424 
L 141.973218 197.22241 
L 142.623269 200.909031 
L 143.528902 204.541326 
L 144.685704 208.101599 
L 146.088042 211.572505 
L 147.729081 214.937134 
L 149.600827 218.179094 
L 151.694162 221.28259 
L 153.998886 224.232503 
L 156.503772 227.01446 
L 159.196615 229.614909 
L 162.064297 232.021179 
L 165.092846 234.221549 
L 168.267508 236.205298 
L 171.572816 237.962762 
L 174.992667 239.485377 
L 178.5104 240.765727 
L 182.108876 241.797574 
L 185.770564 242.57589 
L 189.477626 243.096883 
L 193.212 243.358016 
L 196.955492 243.358016 
L 200.689866 243.096883 
L 204.396928 242.57589 
L 208.058616 241.797574 
L 211.657092 240.765727 
L 215.174825 239.485377 
L 218.594676 237.962762 
L 221.899984 236.205298 
L 225.074646 234.221549 
L 228.103195 232.021179 
L 230.970877 229.614909 
L 233.66372 227.01446 
L 236.168606 224.232503 
L 238.47333 221.28259 
L 240.566665 218.179094 
L 242.438411 214.937134 
L 244.07945 211.572505 
L 245.481787 208.101599 
L 246.63859 204.541326 
L 247.544223 200.909031 
L 248.194274 197.22241 
L 248.585575 193.499424 
L 248.716221 189.758212 
L 248.716221 189.758212 
" style="fill:none;stroke:#000000;stroke-dasharray:1.000000,3.000000;stroke-dashoffset:0.0;stroke-width:0.5;"/>
     </g>
     <g id="text_6">
      <!-- -10dB -->
      <defs>
       <path d="M 28.40625 71 
C 14.40625 71 4.203125 55.6875 4.203125 34.75 
C 4.203125 14.125 14.09375 -1 27.59375 -1 
C 41.59375 -1 51.40625 13.625 51.40625 34.4375 
C 51.40625 45.0625 49.203125 53.875 45 60.78125 
C 41.09375 67.09375 34.703125 71 28.40625 71 
M 27.703125 66.703125 
C 31 66.703125 34.203125 64.5 36.59375 60.5 
C 39.296875 55.875 40.203125 49.96875 40.203125 36.25 
C 40.203125 22.21875 39.5 15.625 37.5 11.203125 
C 35.203125 6.296875 31.59375 3.296875 27.796875 3.296875 
C 24.5 3.296875 21.296875 5.5 18.90625 9.5 
C 16.09375 14.21875 15.296875 20.53125 15.296875 36.859375 
C 15.296875 48.484375 16 54.375 18 58.6875 
C 20.296875 63.796875 23.90625 66.703125 27.703125 66.703125 
" id="Century_Schoolbook_L_Roman-48"/>
      </defs>
      <g transform="translate(244.633692332 166.962517004)scale(0.12 -0.12)">
       <use transform="scale(0.9962640099626402)" xlink:href="#Century_Schoolbook_L_Roman-45"/>
       <use transform="translate(33.17522972933531 0.0)scale(0.9962640099626402)" xlink:href="#Century_Schoolbook_L_Roman-49"/>
       <use transform="translate(88.56690669267591 0.0)scale(0.9962640099626402)" xlink:href="#Century_Schoolbook_L_Roman-48"/>
       <use transform="translate(143.95858365601651 0.0)scale(0.9962640099626402)" xlink:href="#Century_Schoolbook_L_Roman-100"/>
       <use transform="translate(201.1440709400296 0.0)scale(0.9962640099626402)" xlink:href="#Century_Schoolbook_L_Roman-66"/>
      </g>
     </g>
    </g>
    <g id="ytick_3">
     <g id="line2d_10">
      <path clip-path="url(#pd8f6213e4f)" d="M 302.348697 189.758212 
L 302.283354 186.014719 
L 302.087405 182.275787 
L 301.761088 178.545971 
L 301.304802 174.829816 
L 300.719101 171.131849 
L 300.0047 167.456575 
L 299.162469 163.808472 
L 298.193435 160.191984 
L 297.098777 156.611519 
L 295.879829 153.071438 
L 294.538077 149.576054 
L 293.075155 146.129626 
L 291.492845 142.736352 
L 289.793076 139.400368 
L 287.977918 136.125736 
L 286.049583 132.916448 
L 284.010421 129.776413 
L 281.862914 126.709456 
L 279.609681 123.719314 
L 277.253466 120.80963 
L 274.797139 117.98395 
L 272.243694 115.245716 
L 269.596242 112.598264 
L 266.858008 110.044819 
L 264.032327 107.588492 
L 261.122644 105.232277 
L 258.132502 102.979044 
L 255.065545 100.831537 
L 251.92551 98.792374 
L 248.716221 96.864039 
L 245.44159 95.048882 
L 242.105606 93.349113 
L 238.712332 91.766803 
L 235.265904 90.303881 
L 231.77052 88.962129 
L 228.230439 87.743181 
L 224.649973 86.648523 
L 221.033486 85.679488 
L 217.385383 84.837257 
L 213.710109 84.122857 
L 210.012142 83.537156 
L 206.295986 83.08087 
L 202.566171 82.754553 
L 198.827239 82.558604 
L 195.083746 82.493261 
L 191.340253 82.558604 
L 187.601321 82.754553 
L 183.871505 83.08087 
L 180.15535 83.537156 
L 176.457383 84.122857 
L 172.782109 84.837257 
L 169.134006 85.679488 
L 165.517518 86.648523 
L 161.937053 87.743181 
L 158.396972 88.962129 
L 154.901588 90.303881 
L 151.45516 91.766803 
L 148.061886 93.349113 
L 144.725902 95.048882 
L 141.45127 96.864039 
L 138.241982 98.792374 
L 135.101947 100.831537 
L 132.03499 102.979044 
L 129.044848 105.232277 
L 126.135164 107.588492 
L 123.309484 110.044819 
L 120.57125 112.598264 
L 117.923798 115.245716 
L 115.370353 117.98395 
L 112.914026 120.80963 
L 110.557811 123.719314 
L 108.304578 126.709456 
L 106.157071 129.776413 
L 104.117908 132.916448 
L 102.189573 136.125736 
L 100.374416 139.400368 
L 98.674647 142.736352 
L 97.092337 146.129626 
L 95.629415 149.576054 
L 94.287663 153.071438 
L 93.068715 156.611519 
L 91.974057 160.191984 
L 91.005022 163.808472 
L 90.162791 167.456575 
L 89.448391 171.131849 
L 88.86269 174.829816 
L 88.406404 178.545971 
L 88.080087 182.275787 
L 87.884138 186.014719 
L 87.818795 189.758212 
L 87.884138 193.501705 
L 88.080087 197.240637 
L 88.406404 200.970452 
L 88.86269 204.686608 
L 89.448391 208.384575 
L 90.162791 212.059849 
L 91.005022 215.707952 
L 91.974057 219.324439 
L 93.068715 222.904905 
L 94.287663 226.444986 
L 95.629415 229.94037 
L 97.092337 233.386798 
L 98.674647 236.780072 
L 100.374416 240.116056 
L 102.189573 243.390687 
L 104.117908 246.599976 
L 106.157071 249.740011 
L 108.304578 252.806968 
L 110.557811 255.79711 
L 112.914026 258.706793 
L 115.370353 261.532474 
L 117.923798 264.270708 
L 120.57125 266.91816 
L 123.309484 269.471605 
L 126.135164 271.927932 
L 129.044848 274.284147 
L 132.03499 276.53738 
L 135.101947 278.684887 
L 138.241982 280.724049 
L 141.45127 282.652384 
L 144.725902 284.467542 
L 148.061886 286.167311 
L 151.45516 287.749621 
L 154.901588 289.212543 
L 158.396972 290.554295 
L 161.937053 291.773243 
L 165.517518 292.867901 
L 169.134006 293.836935 
L 172.782109 294.679166 
L 176.457383 295.393567 
L 180.15535 295.979268 
L 183.871505 296.435554 
L 187.601321 296.761871 
L 191.340253 296.95782 
L 195.083746 297.023163 
L 198.827239 296.95782 
L 202.566171 296.761871 
L 206.295986 296.435554 
L 210.012142 295.979268 
L 213.710109 295.393567 
L 217.385383 294.679166 
L 221.033486 293.836935 
L 224.649973 292.867901 
L 228.230439 291.773243 
L 231.77052 290.554295 
L 235.265904 289.212543 
L 238.712332 287.749621 
L 242.105606 286.167311 
L 245.44159 284.467542 
L 248.716221 282.652384 
L 251.92551 280.724049 
L 255.065545 278.684887 
L 258.132502 276.53738 
L 261.122644 274.284147 
L 264.032327 271.927932 
L 266.858008 269.471605 
L 269.596242 266.91816 
L 272.243694 264.270708 
L 274.797139 261.532474 
L 277.253466 258.706793 
L 279.609681 255.79711 
L 281.862914 252.806968 
L 284.010421 249.740011 
L 286.049583 246.599976 
L 287.977918 243.390687 
L 289.793076 240.116056 
L 291.492845 236.780072 
L 293.075155 233.386798 
L 294.538077 229.94037 
L 295.879829 226.444986 
L 297.098777 222.904905 
L 298.193435 219.324439 
L 299.162469 215.707952 
L 300.0047 212.059849 
L 300.719101 208.384575 
L 301.304802 204.686608 
L 301.761088 200.970452 
L 302.087405 197.240637 
L 302.283354 193.501705 
L 302.348697 189.758212 
L 302.348697 189.758212 
" style="fill:none;stroke:#000000;stroke-dasharray:1.000000,3.000000;stroke-dashoffset:0.0;stroke-width:0.5;"/>
     </g>
     <g id="text_7">
      <!-- -5dB -->
      <g transform="translate(294.183638722 146.438257194)scale(0.12 -0.12)">
       <use transform="scale(0.9962640099626402)" xlink:href="#Century_Schoolbook_L_Roman-45"/>
       <use transform="translate(33.17522972933531 0.0)scale(0.9962640099626402)" xlink:href="#Century_Schoolbook_L_Roman-53"/>
       <use transform="translate(88.56690669267591 0.0)scale(0.9962640099626402)" xlink:href="#Century_Schoolbook_L_Roman-100"/>
       <use transform="translate(145.752393976689 0.0)scale(0.9962640099626402)" xlink:href="#Century_Schoolbook_L_Roman-66"/>
      </g>
     </g>
    </g>
   </g>
   <g id="legend_1">
    <g id="patch_4">
     <path d="M 298.940325 74.715984 
L 355.981172 74.715984 
L 355.981172 28.860785 
L 298.940325 28.860785 
z
" style="fill:#ffffff;stroke:#000000;stroke-linejoin:miter;"/>
    </g>
    <g id="line2d_11">
     <path d="M 305.940325 36.752987 
L 319.940325 36.752987 
" style="fill:none;stroke:#0000ff;stroke-linecap:square;"/>
    </g>
    <g id="line2d_12"/>
    <g id="text_8">
     <!-- 25th %ile -->
     <defs>
      <path d="M 50.5 21.5625 
L 46.09375 21.5625 
L 45.09375 16.46875 
C 43.796875 10.078125 43 9.375 36.796875 9.375 
L 14.40625 9.375 
C 21.296875 16.5625 23.59375 18.65625 30 23.65625 
C 39.09375 30.65625 43 34.15625 45.296875 37.140625 
C 48.5 41.53125 50.09375 46.03125 50.09375 50.8125 
C 50.09375 62.109375 40.59375 70.296875 27.59375 70.296875 
C 14.90625 70.296875 5.09375 62.109375 5.09375 51.515625 
C 5.09375 45.234375 8.296875 40.9375 13.09375 40.9375 
C 16.796875 40.9375 19.296875 43.4375 19.296875 47.03125 
C 19.296875 49.53125 17.90625 51.828125 15.703125 52.734375 
C 12 54.328125 11.796875 54.421875 11.796875 55.71875 
C 11.796875 57.21875 12.796875 59.515625 14.203125 61.21875 
C 16.703125 64.203125 20.90625 66 25.59375 66 
C 33.796875 66 38.796875 60.90625 38.796875 52.53125 
C 38.796875 45.125 35.296875 38.4375 27 29.65625 
L 21.09375 23.46875 
C 17.59375 19.78125 15 16.96875 13.296875 15.078125 
C 9.703125 10.875 7.90625 8.578125 3.5 2.796875 
L 3.5 0 
L 48.59375 0 
z
" id="Century_Schoolbook_L_Roman-50"/>
      <path d="M 19.40625 47 
L 19.40625 67 
L 15.296875 67 
C 14.296875 53.875 9.90625 47.1875 1.796875 46.59375 
L 1.796875 42.703125 
L 10 42.703125 
L 10 17.265625 
C 10 10.28125 10.203125 7.78125 11.203125 5.484375 
C 12.796875 1.296875 16.796875 -1 22.59375 -1 
C 26.5 -1 29.90625 0.203125 32.203125 2.390625 
C 35.5 5.59375 37.40625 10.875 37.40625 16.375 
C 37.40625 16.96875 37.40625 17.671875 37.296875 18.671875 
L 33.09375 18.671875 
C 32.796875 9.6875 30.203125 5.09375 25.296875 5.09375 
C 23 5.09375 21 6.28125 20.296875 7.984375 
C 19.703125 9.375 19.40625 11.875 19.40625 15.46875 
L 19.40625 42.703125 
L 34.09375 42.703125 
L 34.09375 47 
z
" id="Century_Schoolbook_L_Roman-116"/>
      <path d="M 20 73 
L 1.5 73 
L 1.5 68.21875 
L 6.296875 68.21875 
C 10 68.21875 10.59375 67.515625 10.59375 63.21875 
L 10.59375 12.28125 
L 10.59375 8.28125 
C 10.59375 4.296875 9.5 3.59375 3.09375 3.59375 
L 2.703125 3.59375 
L 2.703125 0 
L 28 0 
L 28 3.59375 
L 27.59375 3.59375 
C 21.09375 3.59375 20 4.296875 20 8.28125 
L 20 12.28125 
L 20 22.5625 
C 20 27.546875 20.703125 32.03125 21.796875 34.328125 
C 23.90625 38.828125 28.40625 41.921875 32.703125 41.921875 
C 35.296875 41.921875 38.296875 40.421875 39.796875 38.421875 
C 41.296875 36.234375 42 33.234375 42 28.34375 
L 42 12.28125 
L 42 8.28125 
C 42 4.296875 40.90625 3.59375 34.40625 3.59375 
L 34 3.59375 
L 34 0 
L 59.296875 0 
L 59.296875 3.59375 
L 58.90625 3.59375 
C 52.5 3.59375 51.40625 4.296875 51.40625 8.28125 
L 51.40625 12.28125 
L 51.40625 27.953125 
C 51.40625 35.125 51.09375 36.921875 49.296875 40.328125 
C 46.796875 45.109375 41.796875 48 35.796875 48 
C 29.40625 48 24.5 45.015625 20 38.328125 
z
" id="Century_Schoolbook_L_Roman-104"/>
     </defs>
     <g transform="translate(330.940324637 40.2529865636)scale(0.1 -0.1)">
      <use transform="scale(0.9962640099626402)" xlink:href="#Century_Schoolbook_L_Roman-50"/>
      <use transform="translate(55.3916769633406 0.0)scale(0.9962640099626402)" xlink:href="#Century_Schoolbook_L_Roman-53"/>
      <use transform="translate(110.7833539266812 0.0)scale(0.9962640099626402)" xlink:href="#Century_Schoolbook_L_Roman-116"/>
      <use transform="translate(149.5370601212251 0.0)scale(0.9962640099626402)" xlink:href="#Century_Schoolbook_L_Roman-104"/>
     </g>
    </g>
    <g id="line2d_13">
     <path d="M 305.940325 51.038053 
L 319.940325 51.038053 
" style="fill:none;stroke:#008000;stroke-linecap:square;"/>
    </g>
    <g id="line2d_14"/>
    <g id="text_9">
     <!-- 50th %ile -->
     <g transform="translate(330.940324637 54.538052819)scale(0.1 -0.1)">
      <use transform="scale(0.9962640099626402)" xlink:href="#Century_Schoolbook_L_Roman-53"/>
      <use transform="translate(55.3916769633406 0.0)scale(0.9962640099626402)" xlink:href="#Century_Schoolbook_L_Roman-48"/>
      <use transform="translate(110.7833539266812 0.0)scale(0.9962640099626402)" xlink:href="#Century_Schoolbook_L_Roman-116"/>
      <use transform="translate(149.5370601212251 0.0)scale(0.9962640099626402)" xlink:href="#Century_Schoolbook_L_Roman-104"/>
     </g>
    </g>
    <g id="line2d_15">
     <path d="M 305.940325 65.323119 
L 319.940325 65.323119 
" style="fill:none;stroke:#ff0000;stroke-linecap:square;"/>
    </g>
    <g id="line2d_16"/>
    <g id="text_10">
     <!-- 75th %ile -->
     <defs>
      <path d="M 5.90625 46.171875 
L 10.296875 45.484375 
L 12.09375 53.40625 
C 13.59375 60.015625 14.296875 61 17.203125 61 
C 17.703125 61 18.59375 61 19.40625 60.609375 
C 25.203125 60.609375 32.40625 60.609375 36.5 60.609375 
C 37.90625 60.609375 40 60.609375 42.703125 60.609375 
L 35.90625 46.84375 
C 28.40625 31.859375 27.59375 30.15625 25.09375 24.03125 
C 22.09375 16.484375 20.40625 10.15625 20.40625 5.921875 
C 20.40625 1.40625 22.796875 -1.5 26.703125 -1.5 
C 31.5 -1.5 33.40625 1.796875 33.296875 10.421875 
C 32.796875 24.734375 34.703125 31.84375 45.296875 55.265625 
C 46.796875 58.484375 48.296875 61.59375 49.796875 64.6875 
C 49.90625 64.890625 50.203125 65.796875 50.796875 67.09375 
L 50.796875 69.984375 
C 44.59375 69.890625 41.296875 69.890625 35.203125 69.890625 
C 26.703125 69.890625 19.90625 69.890625 9 69.890625 
z
" id="Century_Schoolbook_L_Roman-55"/>
     </defs>
     <g transform="translate(330.940324637 68.8231190745)scale(0.1 -0.1)">
      <use transform="scale(0.9962640099626402)" xlink:href="#Century_Schoolbook_L_Roman-55"/>
      <use transform="translate(55.3916769633406 0.0)scale(0.9962640099626402)" xlink:href="#Century_Schoolbook_L_Roman-53"/>
      <use transform="translate(110.7833539266812 0.0)scale(0.9962640099626402)" xlink:href="#Century_Schoolbook_L_Roman-116"/>
      <use transform="translate(149.5370601212251 0.0)scale(0.9962640099626402)" xlink:href="#Century_Schoolbook_L_Roman-104"/>
     </g>
    </g>
   </g>
  </g>
 </g>
 <defs>
  <clipPath id="pd8f6213e4f">
   <path d="M 195.083746 350.655638 
C 237.754242 350.655638 278.68281 333.702471 308.855407 303.529873 
C 339.028005 273.357276 355.981172 232.428708 355.981172 189.758212 
C 355.981172 147.087716 339.028005 106.159148 308.855407 75.986551 
C 278.68281 45.813953 237.754242 28.860785 195.083746 28.860785 
C 152.41325 28.860785 111.484682 45.813953 81.312085 75.986551 
C 51.139487 106.159148 34.186319 147.087716 34.186319 189.758212 
C 34.186319 232.428708 51.139487 273.357276 81.312085 303.529873 
C 111.484682 333.702471 152.41325 350.655638 195.083746 350.655638 
z
"/>
  </clipPath>
 </defs>
</svg>
